M48
; DRILL file {KiCad (6.0.11-0)} date Saturday, November 18, 2023 at 01:36:37 AM
; FORMAT={-:-/ absolute / metric / decimal}
; #@! TF.CreationDate,2023-11-18T01:36:37-06:00
; #@! TF.GenerationSoftware,Kicad,Pcbnew,(6.0.11-0)
; #@! TF.FileFunction,Plated,1,2,PTH
FMAT,2
METRIC
; #@! TA.AperFunction,Plated,PTH,ViaDrill
T1C0.400
; #@! TA.AperFunction,Plated,PTH,ComponentDrill
T2C1.000
; #@! TA.AperFunction,Plated,PTH,ComponentDrill
T3C1.100
%
G90
G05
T1
X51.4Y-55.8
X51.4Y-79.2
X51.4Y-103.0
X68.0Y-65.6
X68.2Y-41.4
X68.6Y-89.0
X71.0Y-42.6
X71.6Y-65.6
X71.6Y-89.0
X75.2Y-115.6
X76.0Y-126.6
X76.0Y-129.6
X76.2Y-110.4
X79.4Y-96.0
X79.8Y-72.4
X81.0Y-101.8
X82.6Y-123.0
X90.8Y-149.4
X94.2Y-46.6
X94.4Y-89.6
X96.4Y-112.2
X96.4Y-120.4
X100.0Y-126.8
X100.2Y-129.8
X100.4Y-65.6
X100.4Y-67.0
X100.4Y-68.0
X100.4Y-69.4
X100.4Y-89.6
X101.6Y-90.4
X102.8Y-78.8
X102.8Y-80.4
X108.0Y-84.6
X108.8Y-83.8
X108.8Y-121.0
X109.8Y-83.8
X110.4Y-81.4
X114.6Y-149.4
X116.0Y-91.2
X117.0Y-57.6
X117.2Y-63.0
X117.2Y-64.2
X117.2Y-65.6
X117.2Y-66.8
X117.2Y-68.2
X117.2Y-69.4
X117.2Y-70.6
X117.2Y-73.8
X118.8Y-45.6
X118.8Y-59.4
X119.2Y-80.4
X120.8Y-78.8
X121.4Y-44.6
X121.4Y-60.2
X123.8Y-126.6
X123.8Y-129.6
X124.0Y-58.4
X124.0Y-91.2
X128.8Y-57.6
X128.8Y-83.8
X128.8Y-119.0
X129.8Y-82.4
X129.8Y-86.6
X130.2Y-138.4
X131.0Y-57.6
X131.0Y-89.4
X134.0Y-66.8
X136.8Y-68.2
X137.6Y-55.8
X138.4Y-149.4
X138.8Y-69.0
X138.8Y-82.4
X139.6Y-50.4
X140.2Y-97.8
X141.8Y-119.6
X146.2Y-51.8
X153.4Y-119.6
X153.4Y-131.4
X155.0Y-119.6
X164.6Y-37.2
X164.6Y-61.4
X164.6Y-85.6
X165.8Y-119.6
X166.8Y-114.6
X166.8Y-123.4
T2
X56.26Y-109.8
X56.26Y-112.34
X58.8Y-45.4
X58.8Y-47.94
X58.8Y-68.8
X58.8Y-71.34
X58.8Y-92.4
X58.8Y-94.94
X58.8Y-109.8
X58.8Y-112.34
X61.34Y-109.8
X61.34Y-112.34
X63.88Y-109.8
X63.88Y-112.34
X66.42Y-109.8
X66.42Y-112.34
X79.6Y-141.0
X82.14Y-141.0
X103.5Y-141.0
X106.04Y-141.0
X111.225Y-41.4
X113.765Y-41.4
X116.305Y-41.4
X118.845Y-41.4
X121.385Y-41.4
X123.925Y-41.4
X127.6Y-141.0
X130.14Y-141.0
X158.4Y-45.66
X158.4Y-48.2
X158.4Y-69.56
X158.4Y-72.1
X158.4Y-93.76
X158.4Y-96.3
T3
X87.65Y-34.65
X87.65Y-39.15
X94.15Y-34.65
X94.15Y-39.15
T2
G00X148.0Y-140.35
M15
G01X148.0Y-142.85
M16
G05
G00X150.0Y-136.9
M15
G01X152.0Y-136.9
M16
G05
G00X154.0Y-140.6
M15
G01X154.0Y-142.6
M16
G05
T0
M30
