%TF.GenerationSoftware,KiCad,Pcbnew,7.0.7*%
%TF.CreationDate,2023-09-08T17:32:34-05:00*%
%TF.ProjectId,Projects_zyxie2,50726f6a-6563-4747-935f-7a7978696532,rev?*%
%TF.SameCoordinates,Original*%
%TF.FileFunction,Paste,Top*%
%TF.FilePolarity,Positive*%
%FSLAX46Y46*%
G04 Gerber Fmt 4.6, Leading zero omitted, Abs format (unit mm)*
G04 Created by KiCad (PCBNEW 7.0.7) date 2023-09-08 17:32:34*
%MOMM*%
%LPD*%
G01*
G04 APERTURE LIST*
G04 Aperture macros list*
%AMRoundRect*
0 Rectangle with rounded corners*
0 $1 Rounding radius*
0 $2 $3 $4 $5 $6 $7 $8 $9 X,Y pos of 4 corners*
0 Add a 4 corners polygon primitive as box body*
4,1,4,$2,$3,$4,$5,$6,$7,$8,$9,$2,$3,0*
0 Add four circle primitives for the rounded corners*
1,1,$1+$1,$2,$3*
1,1,$1+$1,$4,$5*
1,1,$1+$1,$6,$7*
1,1,$1+$1,$8,$9*
0 Add four rect primitives between the rounded corners*
20,1,$1+$1,$2,$3,$4,$5,0*
20,1,$1+$1,$4,$5,$6,$7,0*
20,1,$1+$1,$6,$7,$8,$9,0*
20,1,$1+$1,$8,$9,$2,$3,0*%
G04 Aperture macros list end*
%ADD10RoundRect,0.250000X-0.475000X0.337500X-0.475000X-0.337500X0.475000X-0.337500X0.475000X0.337500X0*%
%ADD11RoundRect,0.125000X-0.125000X-0.625000X0.125000X-0.625000X0.125000X0.625000X-0.125000X0.625000X0*%
%ADD12RoundRect,0.125000X-0.625000X-0.125000X0.625000X-0.125000X0.625000X0.125000X-0.625000X0.125000X0*%
%ADD13RoundRect,0.250000X-0.325000X-0.450000X0.325000X-0.450000X0.325000X0.450000X-0.325000X0.450000X0*%
%ADD14R,2.000000X1.500000*%
%ADD15R,2.000000X3.800000*%
%ADD16RoundRect,0.250000X0.475000X-0.337500X0.475000X0.337500X-0.475000X0.337500X-0.475000X-0.337500X0*%
G04 APERTURE END LIST*
D10*
%TO.C,C2*%
X121062500Y-107145000D03*
X121062500Y-109220000D03*
%TD*%
D11*
%TO.C,U1*%
X112340000Y-76695000D03*
X113140000Y-76695000D03*
X113940000Y-76695000D03*
X114740000Y-76695000D03*
X115540000Y-76695000D03*
X116340000Y-76695000D03*
X117140000Y-76695000D03*
X117940000Y-76695000D03*
D12*
X119315000Y-78070000D03*
X119315000Y-78870000D03*
X119315000Y-79670000D03*
X119315000Y-80470000D03*
X119315000Y-81270000D03*
X119315000Y-82070000D03*
X119315000Y-82870000D03*
X119315000Y-83670000D03*
D11*
X117940000Y-85045000D03*
X117140000Y-85045000D03*
X116340000Y-85045000D03*
X115540000Y-85045000D03*
X114740000Y-85045000D03*
X113940000Y-85045000D03*
X113140000Y-85045000D03*
X112340000Y-85045000D03*
D12*
X110965000Y-83670000D03*
X110965000Y-82870000D03*
X110965000Y-82070000D03*
X110965000Y-81270000D03*
X110965000Y-80470000D03*
X110965000Y-79670000D03*
X110965000Y-78870000D03*
X110965000Y-78070000D03*
%TD*%
D13*
%TO.C,D1*%
X119380000Y-88095000D03*
X121430000Y-88095000D03*
%TD*%
D14*
%TO.C,U2*%
X125780000Y-106920000D03*
X125780000Y-109220000D03*
X125780000Y-111520000D03*
D15*
X132080000Y-109220000D03*
%TD*%
D13*
%TO.C,D2*%
X114970000Y-114300000D03*
X117020000Y-114300000D03*
%TD*%
D10*
%TO.C,C1*%
X123602500Y-98022500D03*
X123602500Y-100097500D03*
%TD*%
D16*
%TO.C,C3*%
X122100000Y-113835000D03*
X122100000Y-111760000D03*
%TD*%
M02*
