M48
; DRILL file {KiCad 7.0.7} date Fri Sep  8 17:32:31 2023
; FORMAT={-:-/ absolute / inch / decimal}
; #@! TF.CreationDate,2023-09-08T17:32:31-05:00
; #@! TF.GenerationSoftware,Kicad,Pcbnew,7.0.7
; #@! TF.FileFunction,Plated,1,2,PTH
FMAT,2
INCH
; #@! TA.AperFunction,Plated,PTH,ComponentDrill
T1C0.0157
; #@! TA.AperFunction,Plated,PTH,ComponentDrill
T2C0.0236
; #@! TA.AperFunction,Plated,PTH,ComponentDrill
T3C0.0276
; #@! TA.AperFunction,Plated,PTH,ComponentDrill
T4C0.0394
; #@! TA.AperFunction,Plated,PTH,ComponentDrill
T5C0.0433
%
G90
G05
T1
X3.9126Y-4.0614
X3.9126Y-4.1146
X3.9461Y-4.0614
X3.9461Y-4.1146
X3.9795Y-4.0614
X3.9795Y-4.1146
X4.013Y-4.0614
X4.013Y-4.1146
X4.0465Y-4.0614
X4.0465Y-4.1146
X4.0799Y-4.0614
X4.0799Y-4.1146
X4.1134Y-4.0614
X4.1134Y-4.1146
X4.1469Y-4.0614
X4.1469Y-4.1146
T3
X4.7Y-3.6
X4.8Y-3.6
T4
X4.2Y-3.2
X4.2Y-3.3
X4.2Y-3.4
X4.2Y-3.5
X4.2Y-3.6
X4.2Y-3.7
X5.0Y-2.8
X5.0Y-2.9
X5.0Y-3.0
X5.0Y-3.1
X5.0Y-3.2
X5.0Y-3.4
X5.0Y-3.5
X5.0Y-3.6
X5.1Y-2.8
X5.1Y-2.9
X5.1Y-3.0
X5.1Y-3.1
X5.1Y-3.2
T5
X4.0441Y-2.7
X4.0441Y-2.8772
X4.3Y-2.7
X4.3Y-2.8772
T2
G00X3.8594Y-4.0705
M15
G01X3.8594Y-4.1295
M16
G05
G00X3.8594Y-4.2173
M15
G01X3.8594Y-4.2488
M16
G05
G00X4.2Y-4.0705
M15
G01X4.2Y-4.1295
M16
G05
G00X4.2Y-4.2173
M15
G01X4.2Y-4.2488
M16
G05
T0
M30
