%TF.GenerationSoftware,KiCad,Pcbnew,7.0.7*%
%TF.CreationDate,2023-09-08T17:32:34-05:00*%
%TF.ProjectId,Projects_zyxie2,50726f6a-6563-4747-935f-7a7978696532,rev?*%
%TF.SameCoordinates,Original*%
%TF.FileFunction,Legend,Top*%
%TF.FilePolarity,Positive*%
%FSLAX46Y46*%
G04 Gerber Fmt 4.6, Leading zero omitted, Abs format (unit mm)*
G04 Created by KiCad (PCBNEW 7.0.7) date 2023-09-08 17:32:34*
%MOMM*%
%LPD*%
G01*
G04 APERTURE LIST*
%ADD10C,0.150000*%
%ADD11C,0.120000*%
G04 APERTURE END LIST*
D10*
X123102080Y-108349166D02*
X123149700Y-108396785D01*
X123149700Y-108396785D02*
X123197319Y-108539642D01*
X123197319Y-108539642D02*
X123197319Y-108634880D01*
X123197319Y-108634880D02*
X123149700Y-108777737D01*
X123149700Y-108777737D02*
X123054461Y-108872975D01*
X123054461Y-108872975D02*
X122959223Y-108920594D01*
X122959223Y-108920594D02*
X122768747Y-108968213D01*
X122768747Y-108968213D02*
X122625890Y-108968213D01*
X122625890Y-108968213D02*
X122435414Y-108920594D01*
X122435414Y-108920594D02*
X122340176Y-108872975D01*
X122340176Y-108872975D02*
X122244938Y-108777737D01*
X122244938Y-108777737D02*
X122197319Y-108634880D01*
X122197319Y-108634880D02*
X122197319Y-108539642D01*
X122197319Y-108539642D02*
X122244938Y-108396785D01*
X122244938Y-108396785D02*
X122292557Y-108349166D01*
X122292557Y-107968213D02*
X122244938Y-107920594D01*
X122244938Y-107920594D02*
X122197319Y-107825356D01*
X122197319Y-107825356D02*
X122197319Y-107587261D01*
X122197319Y-107587261D02*
X122244938Y-107492023D01*
X122244938Y-107492023D02*
X122292557Y-107444404D01*
X122292557Y-107444404D02*
X122387795Y-107396785D01*
X122387795Y-107396785D02*
X122483033Y-107396785D01*
X122483033Y-107396785D02*
X122625890Y-107444404D01*
X122625890Y-107444404D02*
X123197319Y-108015832D01*
X123197319Y-108015832D02*
X123197319Y-107396785D01*
X127936666Y-68244819D02*
X127936666Y-68959104D01*
X127936666Y-68959104D02*
X127889047Y-69101961D01*
X127889047Y-69101961D02*
X127793809Y-69197200D01*
X127793809Y-69197200D02*
X127650952Y-69244819D01*
X127650952Y-69244819D02*
X127555714Y-69244819D01*
X128317619Y-68244819D02*
X128936666Y-68244819D01*
X128936666Y-68244819D02*
X128603333Y-68625771D01*
X128603333Y-68625771D02*
X128746190Y-68625771D01*
X128746190Y-68625771D02*
X128841428Y-68673390D01*
X128841428Y-68673390D02*
X128889047Y-68721009D01*
X128889047Y-68721009D02*
X128936666Y-68816247D01*
X128936666Y-68816247D02*
X128936666Y-69054342D01*
X128936666Y-69054342D02*
X128889047Y-69149580D01*
X128889047Y-69149580D02*
X128841428Y-69197200D01*
X128841428Y-69197200D02*
X128746190Y-69244819D01*
X128746190Y-69244819D02*
X128460476Y-69244819D01*
X128460476Y-69244819D02*
X128365238Y-69197200D01*
X128365238Y-69197200D02*
X128317619Y-69149580D01*
X114378095Y-74444819D02*
X114378095Y-75254342D01*
X114378095Y-75254342D02*
X114425714Y-75349580D01*
X114425714Y-75349580D02*
X114473333Y-75397200D01*
X114473333Y-75397200D02*
X114568571Y-75444819D01*
X114568571Y-75444819D02*
X114759047Y-75444819D01*
X114759047Y-75444819D02*
X114854285Y-75397200D01*
X114854285Y-75397200D02*
X114901904Y-75349580D01*
X114901904Y-75349580D02*
X114949523Y-75254342D01*
X114949523Y-75254342D02*
X114949523Y-74444819D01*
X115949523Y-75444819D02*
X115378095Y-75444819D01*
X115663809Y-75444819D02*
X115663809Y-74444819D01*
X115663809Y-74444819D02*
X115568571Y-74587676D01*
X115568571Y-74587676D02*
X115473333Y-74682914D01*
X115473333Y-74682914D02*
X115378095Y-74730533D01*
X119666905Y-86899819D02*
X119666905Y-85899819D01*
X119666905Y-85899819D02*
X119905000Y-85899819D01*
X119905000Y-85899819D02*
X120047857Y-85947438D01*
X120047857Y-85947438D02*
X120143095Y-86042676D01*
X120143095Y-86042676D02*
X120190714Y-86137914D01*
X120190714Y-86137914D02*
X120238333Y-86328390D01*
X120238333Y-86328390D02*
X120238333Y-86471247D01*
X120238333Y-86471247D02*
X120190714Y-86661723D01*
X120190714Y-86661723D02*
X120143095Y-86756961D01*
X120143095Y-86756961D02*
X120047857Y-86852200D01*
X120047857Y-86852200D02*
X119905000Y-86899819D01*
X119905000Y-86899819D02*
X119666905Y-86899819D01*
X121190714Y-86899819D02*
X120619286Y-86899819D01*
X120905000Y-86899819D02*
X120905000Y-85899819D01*
X120905000Y-85899819D02*
X120809762Y-86042676D01*
X120809762Y-86042676D02*
X120714524Y-86137914D01*
X120714524Y-86137914D02*
X120619286Y-86185533D01*
X128168095Y-104174819D02*
X128168095Y-104984342D01*
X128168095Y-104984342D02*
X128215714Y-105079580D01*
X128215714Y-105079580D02*
X128263333Y-105127200D01*
X128263333Y-105127200D02*
X128358571Y-105174819D01*
X128358571Y-105174819D02*
X128549047Y-105174819D01*
X128549047Y-105174819D02*
X128644285Y-105127200D01*
X128644285Y-105127200D02*
X128691904Y-105079580D01*
X128691904Y-105079580D02*
X128739523Y-104984342D01*
X128739523Y-104984342D02*
X128739523Y-104174819D01*
X129168095Y-104270057D02*
X129215714Y-104222438D01*
X129215714Y-104222438D02*
X129310952Y-104174819D01*
X129310952Y-104174819D02*
X129549047Y-104174819D01*
X129549047Y-104174819D02*
X129644285Y-104222438D01*
X129644285Y-104222438D02*
X129691904Y-104270057D01*
X129691904Y-104270057D02*
X129739523Y-104365295D01*
X129739523Y-104365295D02*
X129739523Y-104460533D01*
X129739523Y-104460533D02*
X129691904Y-104603390D01*
X129691904Y-104603390D02*
X129120476Y-105174819D01*
X129120476Y-105174819D02*
X129739523Y-105174819D01*
X106346666Y-78404819D02*
X106346666Y-79119104D01*
X106346666Y-79119104D02*
X106299047Y-79261961D01*
X106299047Y-79261961D02*
X106203809Y-79357200D01*
X106203809Y-79357200D02*
X106060952Y-79404819D01*
X106060952Y-79404819D02*
X105965714Y-79404819D01*
X107346666Y-79404819D02*
X106775238Y-79404819D01*
X107060952Y-79404819D02*
X107060952Y-78404819D01*
X107060952Y-78404819D02*
X106965714Y-78547676D01*
X106965714Y-78547676D02*
X106870476Y-78642914D01*
X106870476Y-78642914D02*
X106775238Y-78690533D01*
X115256905Y-113104819D02*
X115256905Y-112104819D01*
X115256905Y-112104819D02*
X115495000Y-112104819D01*
X115495000Y-112104819D02*
X115637857Y-112152438D01*
X115637857Y-112152438D02*
X115733095Y-112247676D01*
X115733095Y-112247676D02*
X115780714Y-112342914D01*
X115780714Y-112342914D02*
X115828333Y-112533390D01*
X115828333Y-112533390D02*
X115828333Y-112676247D01*
X115828333Y-112676247D02*
X115780714Y-112866723D01*
X115780714Y-112866723D02*
X115733095Y-112961961D01*
X115733095Y-112961961D02*
X115637857Y-113057200D01*
X115637857Y-113057200D02*
X115495000Y-113104819D01*
X115495000Y-113104819D02*
X115256905Y-113104819D01*
X116209286Y-112200057D02*
X116256905Y-112152438D01*
X116256905Y-112152438D02*
X116352143Y-112104819D01*
X116352143Y-112104819D02*
X116590238Y-112104819D01*
X116590238Y-112104819D02*
X116685476Y-112152438D01*
X116685476Y-112152438D02*
X116733095Y-112200057D01*
X116733095Y-112200057D02*
X116780714Y-112295295D01*
X116780714Y-112295295D02*
X116780714Y-112390533D01*
X116780714Y-112390533D02*
X116733095Y-112533390D01*
X116733095Y-112533390D02*
X116161667Y-113104819D01*
X116161667Y-113104819D02*
X116780714Y-113104819D01*
X125642080Y-99226666D02*
X125689700Y-99274285D01*
X125689700Y-99274285D02*
X125737319Y-99417142D01*
X125737319Y-99417142D02*
X125737319Y-99512380D01*
X125737319Y-99512380D02*
X125689700Y-99655237D01*
X125689700Y-99655237D02*
X125594461Y-99750475D01*
X125594461Y-99750475D02*
X125499223Y-99798094D01*
X125499223Y-99798094D02*
X125308747Y-99845713D01*
X125308747Y-99845713D02*
X125165890Y-99845713D01*
X125165890Y-99845713D02*
X124975414Y-99798094D01*
X124975414Y-99798094D02*
X124880176Y-99750475D01*
X124880176Y-99750475D02*
X124784938Y-99655237D01*
X124784938Y-99655237D02*
X124737319Y-99512380D01*
X124737319Y-99512380D02*
X124737319Y-99417142D01*
X124737319Y-99417142D02*
X124784938Y-99274285D01*
X124784938Y-99274285D02*
X124832557Y-99226666D01*
X125737319Y-98274285D02*
X125737319Y-98845713D01*
X125737319Y-98559999D02*
X124737319Y-98559999D01*
X124737319Y-98559999D02*
X124880176Y-98655237D01*
X124880176Y-98655237D02*
X124975414Y-98750475D01*
X124975414Y-98750475D02*
X125023033Y-98845713D01*
X126666666Y-83484819D02*
X126666666Y-84199104D01*
X126666666Y-84199104D02*
X126619047Y-84341961D01*
X126619047Y-84341961D02*
X126523809Y-84437200D01*
X126523809Y-84437200D02*
X126380952Y-84484819D01*
X126380952Y-84484819D02*
X126285714Y-84484819D01*
X127095238Y-83580057D02*
X127142857Y-83532438D01*
X127142857Y-83532438D02*
X127238095Y-83484819D01*
X127238095Y-83484819D02*
X127476190Y-83484819D01*
X127476190Y-83484819D02*
X127571428Y-83532438D01*
X127571428Y-83532438D02*
X127619047Y-83580057D01*
X127619047Y-83580057D02*
X127666666Y-83675295D01*
X127666666Y-83675295D02*
X127666666Y-83770533D01*
X127666666Y-83770533D02*
X127619047Y-83913390D01*
X127619047Y-83913390D02*
X127047619Y-84484819D01*
X127047619Y-84484819D02*
X127666666Y-84484819D01*
X120483333Y-93814819D02*
X120150000Y-93338628D01*
X119911905Y-93814819D02*
X119911905Y-92814819D01*
X119911905Y-92814819D02*
X120292857Y-92814819D01*
X120292857Y-92814819D02*
X120388095Y-92862438D01*
X120388095Y-92862438D02*
X120435714Y-92910057D01*
X120435714Y-92910057D02*
X120483333Y-93005295D01*
X120483333Y-93005295D02*
X120483333Y-93148152D01*
X120483333Y-93148152D02*
X120435714Y-93243390D01*
X120435714Y-93243390D02*
X120388095Y-93291009D01*
X120388095Y-93291009D02*
X120292857Y-93338628D01*
X120292857Y-93338628D02*
X119911905Y-93338628D01*
X121435714Y-93814819D02*
X120864286Y-93814819D01*
X121150000Y-93814819D02*
X121150000Y-92814819D01*
X121150000Y-92814819D02*
X121054762Y-92957676D01*
X121054762Y-92957676D02*
X120959524Y-93052914D01*
X120959524Y-93052914D02*
X120864286Y-93100533D01*
X120779580Y-112964166D02*
X120827200Y-113011785D01*
X120827200Y-113011785D02*
X120874819Y-113154642D01*
X120874819Y-113154642D02*
X120874819Y-113249880D01*
X120874819Y-113249880D02*
X120827200Y-113392737D01*
X120827200Y-113392737D02*
X120731961Y-113487975D01*
X120731961Y-113487975D02*
X120636723Y-113535594D01*
X120636723Y-113535594D02*
X120446247Y-113583213D01*
X120446247Y-113583213D02*
X120303390Y-113583213D01*
X120303390Y-113583213D02*
X120112914Y-113535594D01*
X120112914Y-113535594D02*
X120017676Y-113487975D01*
X120017676Y-113487975D02*
X119922438Y-113392737D01*
X119922438Y-113392737D02*
X119874819Y-113249880D01*
X119874819Y-113249880D02*
X119874819Y-113154642D01*
X119874819Y-113154642D02*
X119922438Y-113011785D01*
X119922438Y-113011785D02*
X119970057Y-112964166D01*
X119874819Y-112630832D02*
X119874819Y-112011785D01*
X119874819Y-112011785D02*
X120255771Y-112345118D01*
X120255771Y-112345118D02*
X120255771Y-112202261D01*
X120255771Y-112202261D02*
X120303390Y-112107023D01*
X120303390Y-112107023D02*
X120351009Y-112059404D01*
X120351009Y-112059404D02*
X120446247Y-112011785D01*
X120446247Y-112011785D02*
X120684342Y-112011785D01*
X120684342Y-112011785D02*
X120779580Y-112059404D01*
X120779580Y-112059404D02*
X120827200Y-112107023D01*
X120827200Y-112107023D02*
X120874819Y-112202261D01*
X120874819Y-112202261D02*
X120874819Y-112487975D01*
X120874819Y-112487975D02*
X120827200Y-112583213D01*
X120827200Y-112583213D02*
X120779580Y-112630832D01*
X102021666Y-100814819D02*
X102021666Y-101529104D01*
X102021666Y-101529104D02*
X101974047Y-101671961D01*
X101974047Y-101671961D02*
X101878809Y-101767200D01*
X101878809Y-101767200D02*
X101735952Y-101814819D01*
X101735952Y-101814819D02*
X101640714Y-101814819D01*
X102926428Y-101148152D02*
X102926428Y-101814819D01*
X102688333Y-100767200D02*
X102450238Y-101481485D01*
X102450238Y-101481485D02*
X103069285Y-101481485D01*
X104636667Y-75487200D02*
X104779524Y-75534819D01*
X104779524Y-75534819D02*
X105017619Y-75534819D01*
X105017619Y-75534819D02*
X105112857Y-75487200D01*
X105112857Y-75487200D02*
X105160476Y-75439580D01*
X105160476Y-75439580D02*
X105208095Y-75344342D01*
X105208095Y-75344342D02*
X105208095Y-75249104D01*
X105208095Y-75249104D02*
X105160476Y-75153866D01*
X105160476Y-75153866D02*
X105112857Y-75106247D01*
X105112857Y-75106247D02*
X105017619Y-75058628D01*
X105017619Y-75058628D02*
X104827143Y-75011009D01*
X104827143Y-75011009D02*
X104731905Y-74963390D01*
X104731905Y-74963390D02*
X104684286Y-74915771D01*
X104684286Y-74915771D02*
X104636667Y-74820533D01*
X104636667Y-74820533D02*
X104636667Y-74725295D01*
X104636667Y-74725295D02*
X104684286Y-74630057D01*
X104684286Y-74630057D02*
X104731905Y-74582438D01*
X104731905Y-74582438D02*
X104827143Y-74534819D01*
X104827143Y-74534819D02*
X105065238Y-74534819D01*
X105065238Y-74534819D02*
X105208095Y-74582438D01*
X105541429Y-74534819D02*
X105779524Y-75534819D01*
X105779524Y-75534819D02*
X105970000Y-74820533D01*
X105970000Y-74820533D02*
X106160476Y-75534819D01*
X106160476Y-75534819D02*
X106398572Y-74534819D01*
X107303333Y-75534819D02*
X106731905Y-75534819D01*
X107017619Y-75534819D02*
X107017619Y-74534819D01*
X107017619Y-74534819D02*
X106922381Y-74677676D01*
X106922381Y-74677676D02*
X106827143Y-74772914D01*
X106827143Y-74772914D02*
X106731905Y-74820533D01*
D11*
%TO.C,C2*%
X121797500Y-107921248D02*
X121797500Y-108443752D01*
X120327500Y-107921248D02*
X120327500Y-108443752D01*
%TO.C,J3*%
X125670000Y-69790000D02*
X127000000Y-69790000D01*
X125670000Y-71120000D02*
X125670000Y-69790000D01*
X125670000Y-72390000D02*
X125670000Y-82610000D01*
X125670000Y-72390000D02*
X128270000Y-72390000D01*
X125670000Y-82610000D02*
X130870000Y-82610000D01*
X128270000Y-69790000D02*
X130870000Y-69790000D01*
X128270000Y-72390000D02*
X128270000Y-69790000D01*
X130870000Y-69790000D02*
X130870000Y-82610000D01*
%TO.C,U1*%
X118750000Y-84480000D02*
X118750000Y-84180000D01*
X118750000Y-77260000D02*
X118750000Y-77560000D01*
X118450000Y-84480000D02*
X118750000Y-84480000D01*
X118450000Y-77260000D02*
X118750000Y-77260000D01*
X111830000Y-84480000D02*
X111530000Y-84480000D01*
X111830000Y-77260000D02*
X111530000Y-77260000D01*
X111530000Y-84480000D02*
X111530000Y-84180000D01*
X111530000Y-77560000D02*
X110215000Y-77560000D01*
X111530000Y-77260000D02*
X111530000Y-77560000D01*
%TO.C,D1*%
X118545000Y-87135000D02*
X118545000Y-89055000D01*
X118545000Y-89055000D02*
X121405000Y-89055000D01*
X121405000Y-87135000D02*
X118545000Y-87135000D01*
%TO.C,U2*%
X124830000Y-105810000D02*
X130840000Y-105810000D01*
X127080000Y-112630000D02*
X130840000Y-112630000D01*
X130840000Y-105810000D02*
X130840000Y-107070000D01*
X130840000Y-112630000D02*
X130840000Y-111370000D01*
%TO.C,J1*%
X105350000Y-79950000D02*
X106680000Y-79950000D01*
X105350000Y-81280000D02*
X105350000Y-79950000D01*
X105350000Y-82550000D02*
X105350000Y-95310000D01*
X105350000Y-82550000D02*
X108010000Y-82550000D01*
X105350000Y-95310000D02*
X108010000Y-95310000D01*
X108010000Y-82550000D02*
X108010000Y-95310000D01*
%TO.C,D2*%
X114135000Y-113340000D02*
X114135000Y-115260000D01*
X114135000Y-115260000D02*
X116995000Y-115260000D01*
X116995000Y-113340000D02*
X114135000Y-113340000D01*
%TO.C,C1*%
X124337500Y-98798748D02*
X124337500Y-99321252D01*
X122867500Y-98798748D02*
X122867500Y-99321252D01*
%TO.C,J2*%
X125670000Y-85030000D02*
X127000000Y-85030000D01*
X125670000Y-86360000D02*
X125670000Y-85030000D01*
X125670000Y-87630000D02*
X125670000Y-92770000D01*
X125670000Y-87630000D02*
X128330000Y-87630000D01*
X125670000Y-92770000D02*
X128330000Y-92770000D01*
X128330000Y-87630000D02*
X128330000Y-92770000D01*
%TO.C,R1*%
X121000000Y-91440000D02*
X120380000Y-91440000D01*
X122840000Y-91440000D02*
G75*
G03*
X122840000Y-91440000I-920000J0D01*
G01*
%TO.C,C3*%
X121365000Y-113058752D02*
X121365000Y-112536248D01*
X122835000Y-113058752D02*
X122835000Y-112536248D01*
%TO.C,J4*%
X97760000Y-105560000D02*
X97760000Y-106460000D01*
X97760000Y-109160000D02*
X97760000Y-111890000D01*
X97760000Y-111890000D02*
X106950000Y-111890000D01*
X97880000Y-102480000D02*
X106830000Y-102480000D01*
X106950000Y-105560000D02*
X106950000Y-106460000D01*
X106950000Y-109160000D02*
X106950000Y-111890000D01*
%TO.C,SW1*%
X109470000Y-71580000D02*
X109470000Y-70080000D01*
X108220000Y-67580000D02*
X103720000Y-67580000D01*
X103720000Y-74080000D02*
X108220000Y-74080000D01*
X102470000Y-70080000D02*
X102470000Y-71580000D01*
%TD*%
M02*
