%TF.GenerationSoftware,KiCad,Pcbnew,(6.0.5)*%
%TF.CreationDate,2023-11-04T00:18:57-05:00*%
%TF.ProjectId,ECE395_Digital_Target,45434533-3935-45f4-9469-676974616c5f,rev?*%
%TF.SameCoordinates,Original*%
%TF.FileFunction,Soldermask,Bot*%
%TF.FilePolarity,Negative*%
%FSLAX46Y46*%
G04 Gerber Fmt 4.6, Leading zero omitted, Abs format (unit mm)*
G04 Created by KiCad (PCBNEW (6.0.5)) date 2023-11-04 00:18:57*
%MOMM*%
%LPD*%
G01*
G04 APERTURE LIST*
%ADD10O,2.704000X5.204000*%
%ADD11O,2.454000X4.704000*%
%ADD12O,4.704000X2.454000*%
%ADD13R,1.700000X1.700000*%
%ADD14O,1.700000X1.700000*%
%ADD15C,2.000000*%
G04 APERTURE END LIST*
D10*
%TO.C,J0*%
X148000000Y-141600000D03*
D11*
X154000000Y-141600000D03*
D12*
X151000000Y-136900000D03*
%TD*%
D13*
%TO.C,S2*%
X123925000Y-41900000D03*
D14*
X121385000Y-41900000D03*
X118845000Y-41900000D03*
X116305000Y-41900000D03*
X113765000Y-41900000D03*
X111225000Y-41900000D03*
%TD*%
D13*
%TO.C,J1*%
X59300000Y-45400000D03*
D14*
X59300000Y-47940000D03*
%TD*%
%TO.C,J7*%
X82140000Y-140500000D03*
D13*
X79600000Y-140500000D03*
%TD*%
D14*
%TO.C,J4*%
X158000000Y-45660000D03*
D13*
X158000000Y-48200000D03*
%TD*%
%TO.C,J5*%
X157900000Y-72100000D03*
D14*
X157900000Y-69560000D03*
%TD*%
%TO.C,S1*%
X66420000Y-112340000D03*
X66420000Y-109800000D03*
X63880000Y-112340000D03*
X63880000Y-109800000D03*
X61340000Y-112340000D03*
X61340000Y-109800000D03*
X58800000Y-112340000D03*
X58800000Y-109800000D03*
X56260000Y-112340000D03*
D13*
X56260000Y-109800000D03*
%TD*%
%TO.C,J9*%
X127600000Y-140500000D03*
D14*
X130140000Y-140500000D03*
%TD*%
%TO.C,J6*%
X157900000Y-93760000D03*
D13*
X157900000Y-96300000D03*
%TD*%
%TO.C,J8*%
X103500000Y-140500000D03*
D14*
X106040000Y-140500000D03*
%TD*%
D15*
%TO.C,SW1*%
X87650000Y-34650000D03*
X94150000Y-34650000D03*
X94150000Y-39150000D03*
X87650000Y-39150000D03*
%TD*%
D13*
%TO.C,J3*%
X59300000Y-92400000D03*
D14*
X59300000Y-94940000D03*
%TD*%
D13*
%TO.C,J2*%
X59300000Y-68800000D03*
D14*
X59300000Y-71340000D03*
%TD*%
M02*
