%FSLAX45Y45*%
G04 Gerber Fmt 4.5, Leading zero omitted, Abs format (unit mm)*
G04 Created by KiCad (PCBNEW (6.0.5)) date 2023-11-06 22:26:34*
%MOMM*%
%LPD*%
G01*
G04 APERTURE LIST*
%TA.AperFunction,Profile*%
%ADD10C,0.100000*%
%TD*%
%ADD11C,0.200000*%
G04 APERTURE END LIST*
D10*
X4860000Y-3120000D02*
X4860000Y-15120000D01*
X4860000Y-3120000D02*
X16860000Y-3120000D01*
X4860000Y-15120000D02*
X16860000Y-15120000D01*
X16860000Y-15120000D02*
X16860000Y-3120000D01*
D11*
X5112619Y-15435476D02*
X5112619Y-15235476D01*
X5160238Y-15235476D01*
X5188810Y-15245000D01*
X5207857Y-15264048D01*
X5217381Y-15283095D01*
X5226905Y-15321190D01*
X5226905Y-15349762D01*
X5217381Y-15387857D01*
X5207857Y-15406905D01*
X5188810Y-15425952D01*
X5160238Y-15435476D01*
X5112619Y-15435476D01*
X5312619Y-15435476D02*
X5312619Y-15302143D01*
X5312619Y-15340238D02*
X5322143Y-15321190D01*
X5331667Y-15311667D01*
X5350714Y-15302143D01*
X5369762Y-15302143D01*
X5436429Y-15435476D02*
X5436429Y-15302143D01*
X5436429Y-15235476D02*
X5426905Y-15245000D01*
X5436429Y-15254524D01*
X5445952Y-15245000D01*
X5436429Y-15235476D01*
X5436429Y-15254524D01*
X5560238Y-15435476D02*
X5541190Y-15425952D01*
X5531667Y-15406905D01*
X5531667Y-15235476D01*
X5665000Y-15435476D02*
X5645952Y-15425952D01*
X5636428Y-15406905D01*
X5636428Y-15235476D01*
X5893571Y-15435476D02*
X5893571Y-15235476D01*
X5960238Y-15378333D01*
X6026905Y-15235476D01*
X6026905Y-15435476D01*
X6207857Y-15435476D02*
X6207857Y-15330714D01*
X6198333Y-15311667D01*
X6179286Y-15302143D01*
X6141190Y-15302143D01*
X6122143Y-15311667D01*
X6207857Y-15425952D02*
X6188809Y-15435476D01*
X6141190Y-15435476D01*
X6122143Y-15425952D01*
X6112619Y-15406905D01*
X6112619Y-15387857D01*
X6122143Y-15368809D01*
X6141190Y-15359286D01*
X6188809Y-15359286D01*
X6207857Y-15349762D01*
X6303095Y-15302143D02*
X6303095Y-15502143D01*
X6303095Y-15311667D02*
X6322143Y-15302143D01*
X6360238Y-15302143D01*
X6379286Y-15311667D01*
X6388809Y-15321190D01*
X6398333Y-15340238D01*
X6398333Y-15397381D01*
X6388809Y-15416428D01*
X6379286Y-15425952D01*
X6360238Y-15435476D01*
X6322143Y-15435476D01*
X6303095Y-15425952D01*
X6484048Y-15416428D02*
X6493571Y-15425952D01*
X6484048Y-15435476D01*
X6474524Y-15425952D01*
X6484048Y-15416428D01*
X6484048Y-15435476D01*
X6484048Y-15311667D02*
X6493571Y-15321190D01*
X6484048Y-15330714D01*
X6474524Y-15321190D01*
X6484048Y-15311667D01*
X6484048Y-15330714D01*
M02*
