%TF.GenerationSoftware,KiCad,Pcbnew,(6.0.11-0)*%
%TF.CreationDate,2023-11-08T02:02:09-06:00*%
%TF.ProjectId,ECE395_Digital_Target,45434533-3935-45f4-9469-676974616c5f,rev?*%
%TF.SameCoordinates,Original*%
%TF.FileFunction,Legend,Bot*%
%TF.FilePolarity,Positive*%
%FSLAX46Y46*%
G04 Gerber Fmt 4.6, Leading zero omitted, Abs format (unit mm)*
G04 Created by KiCad (PCBNEW (6.0.11-0)) date 2023-11-08 02:02:09*
%MOMM*%
%LPD*%
G01*
G04 APERTURE LIST*
%ADD10C,0.150000*%
%ADD11C,0.300000*%
G04 APERTURE END LIST*
D10*
X63466666Y-144556666D02*
X62990476Y-144556666D01*
X63561904Y-144842380D02*
X63228571Y-143842380D01*
X62895238Y-144842380D01*
X62561904Y-144175714D02*
X62561904Y-144842380D01*
X62561904Y-144270952D02*
X62514285Y-144223333D01*
X62419047Y-144175714D01*
X62276190Y-144175714D01*
X62180952Y-144223333D01*
X62133333Y-144318571D01*
X62133333Y-144842380D01*
X61228571Y-144842380D02*
X61228571Y-143842380D01*
X61228571Y-144794761D02*
X61323809Y-144842380D01*
X61514285Y-144842380D01*
X61609523Y-144794761D01*
X61657142Y-144747142D01*
X61704761Y-144651904D01*
X61704761Y-144366190D01*
X61657142Y-144270952D01*
X61609523Y-144223333D01*
X61514285Y-144175714D01*
X61323809Y-144175714D01*
X61228571Y-144223333D01*
X60752380Y-144842380D02*
X60752380Y-144175714D01*
X60752380Y-144366190D02*
X60704761Y-144270952D01*
X60657142Y-144223333D01*
X60561904Y-144175714D01*
X60466666Y-144175714D01*
X59752380Y-144794761D02*
X59847619Y-144842380D01*
X60038095Y-144842380D01*
X60133333Y-144794761D01*
X60180952Y-144699523D01*
X60180952Y-144318571D01*
X60133333Y-144223333D01*
X60038095Y-144175714D01*
X59847619Y-144175714D01*
X59752380Y-144223333D01*
X59704761Y-144318571D01*
X59704761Y-144413809D01*
X60180952Y-144509047D01*
X59371428Y-144175714D02*
X59180952Y-144842380D01*
X58990476Y-144366190D01*
X58800000Y-144842380D01*
X58609523Y-144175714D01*
X57514285Y-144794761D02*
X57371428Y-144842380D01*
X57133333Y-144842380D01*
X57038095Y-144794761D01*
X56990476Y-144747142D01*
X56942857Y-144651904D01*
X56942857Y-144556666D01*
X56990476Y-144461428D01*
X57038095Y-144413809D01*
X57133333Y-144366190D01*
X57323809Y-144318571D01*
X57419047Y-144270952D01*
X57466666Y-144223333D01*
X57514285Y-144128095D01*
X57514285Y-144032857D01*
X57466666Y-143937619D01*
X57419047Y-143890000D01*
X57323809Y-143842380D01*
X57085714Y-143842380D01*
X56942857Y-143890000D01*
X56514285Y-144842380D02*
X56514285Y-143842380D01*
X56085714Y-144842380D02*
X56085714Y-144318571D01*
X56133333Y-144223333D01*
X56228571Y-144175714D01*
X56371428Y-144175714D01*
X56466666Y-144223333D01*
X56514285Y-144270952D01*
X55228571Y-144794761D02*
X55323809Y-144842380D01*
X55514285Y-144842380D01*
X55609523Y-144794761D01*
X55657142Y-144699523D01*
X55657142Y-144318571D01*
X55609523Y-144223333D01*
X55514285Y-144175714D01*
X55323809Y-144175714D01*
X55228571Y-144223333D01*
X55180952Y-144318571D01*
X55180952Y-144413809D01*
X55657142Y-144509047D01*
X54752380Y-144842380D02*
X54752380Y-144175714D01*
X54752380Y-144366190D02*
X54704761Y-144270952D01*
X54657142Y-144223333D01*
X54561904Y-144175714D01*
X54466666Y-144175714D01*
X54228571Y-144175714D02*
X54038095Y-144842380D01*
X53847619Y-144366190D01*
X53657142Y-144842380D01*
X53466666Y-144175714D01*
X53085714Y-144842380D02*
X53085714Y-144175714D01*
X53085714Y-143842380D02*
X53133333Y-143890000D01*
X53085714Y-143937619D01*
X53038095Y-143890000D01*
X53085714Y-143842380D01*
X53085714Y-143937619D01*
X52609523Y-144175714D02*
X52609523Y-144842380D01*
X52609523Y-144270952D02*
X52561904Y-144223333D01*
X52466666Y-144175714D01*
X52323809Y-144175714D01*
X52228571Y-144223333D01*
X52180952Y-144318571D01*
X52180952Y-144842380D01*
X61752380Y-146452380D02*
X61752380Y-145452380D01*
X61419047Y-146166666D01*
X61085714Y-145452380D01*
X61085714Y-146452380D01*
X60609523Y-146452380D02*
X60609523Y-145785714D01*
X60609523Y-145452380D02*
X60657142Y-145500000D01*
X60609523Y-145547619D01*
X60561904Y-145500000D01*
X60609523Y-145452380D01*
X60609523Y-145547619D01*
X60133333Y-145785714D02*
X60133333Y-146452380D01*
X60133333Y-145880952D02*
X60085714Y-145833333D01*
X59990476Y-145785714D01*
X59847619Y-145785714D01*
X59752380Y-145833333D01*
X59704761Y-145928571D01*
X59704761Y-146452380D01*
X59228571Y-145785714D02*
X59228571Y-146642857D01*
X59276190Y-146738095D01*
X59371428Y-146785714D01*
X59419047Y-146785714D01*
X59228571Y-145452380D02*
X59276190Y-145500000D01*
X59228571Y-145547619D01*
X59180952Y-145500000D01*
X59228571Y-145452380D01*
X59228571Y-145547619D01*
X58323809Y-145785714D02*
X58323809Y-146452380D01*
X58752380Y-145785714D02*
X58752380Y-146309523D01*
X58704761Y-146404761D01*
X58609523Y-146452380D01*
X58466666Y-146452380D01*
X58371428Y-146404761D01*
X58323809Y-146357142D01*
X57847619Y-145785714D02*
X57847619Y-146452380D01*
X57847619Y-145880952D02*
X57800000Y-145833333D01*
X57704761Y-145785714D01*
X57561904Y-145785714D01*
X57466666Y-145833333D01*
X57419047Y-145928571D01*
X57419047Y-146452380D01*
X56180952Y-146452380D02*
X56180952Y-145452380D01*
X55609523Y-146452380D02*
X56038095Y-145880952D01*
X55609523Y-145452380D02*
X56180952Y-146023809D01*
X55180952Y-146452380D02*
X55180952Y-145785714D01*
X55180952Y-145452380D02*
X55228571Y-145500000D01*
X55180952Y-145547619D01*
X55133333Y-145500000D01*
X55180952Y-145452380D01*
X55180952Y-145547619D01*
X54704761Y-146452380D02*
X54704761Y-145785714D01*
X54704761Y-145880952D02*
X54657142Y-145833333D01*
X54561904Y-145785714D01*
X54419047Y-145785714D01*
X54323809Y-145833333D01*
X54276190Y-145928571D01*
X54276190Y-146452380D01*
X54276190Y-145928571D02*
X54228571Y-145833333D01*
X54133333Y-145785714D01*
X53990476Y-145785714D01*
X53895238Y-145833333D01*
X53847619Y-145928571D01*
X53847619Y-146452380D01*
X61466666Y-147062380D02*
X61466666Y-147776666D01*
X61514285Y-147919523D01*
X61609523Y-148014761D01*
X61752380Y-148062380D01*
X61847619Y-148062380D01*
X60561904Y-148062380D02*
X60561904Y-147538571D01*
X60609523Y-147443333D01*
X60704761Y-147395714D01*
X60895238Y-147395714D01*
X60990476Y-147443333D01*
X60561904Y-148014761D02*
X60657142Y-148062380D01*
X60895238Y-148062380D01*
X60990476Y-148014761D01*
X61038095Y-147919523D01*
X61038095Y-147824285D01*
X60990476Y-147729047D01*
X60895238Y-147681428D01*
X60657142Y-147681428D01*
X60561904Y-147633809D01*
X59942857Y-148062380D02*
X60038095Y-148014761D01*
X60085714Y-147919523D01*
X60085714Y-147062380D01*
X59180952Y-148014761D02*
X59276190Y-148062380D01*
X59466666Y-148062380D01*
X59561904Y-148014761D01*
X59609523Y-147919523D01*
X59609523Y-147538571D01*
X59561904Y-147443333D01*
X59466666Y-147395714D01*
X59276190Y-147395714D01*
X59180952Y-147443333D01*
X59133333Y-147538571D01*
X59133333Y-147633809D01*
X59609523Y-147729047D01*
X58704761Y-147395714D02*
X58704761Y-148062380D01*
X58704761Y-147490952D02*
X58657142Y-147443333D01*
X58561904Y-147395714D01*
X58419047Y-147395714D01*
X58323809Y-147443333D01*
X58276190Y-147538571D01*
X58276190Y-148062380D01*
X56466666Y-147967142D02*
X56514285Y-148014761D01*
X56657142Y-148062380D01*
X56752380Y-148062380D01*
X56895238Y-148014761D01*
X56990476Y-147919523D01*
X57038095Y-147824285D01*
X57085714Y-147633809D01*
X57085714Y-147490952D01*
X57038095Y-147300476D01*
X56990476Y-147205238D01*
X56895238Y-147110000D01*
X56752380Y-147062380D01*
X56657142Y-147062380D01*
X56514285Y-147110000D01*
X56466666Y-147157619D01*
X56038095Y-148062380D02*
X56038095Y-147062380D01*
X55609523Y-148062380D02*
X55609523Y-147538571D01*
X55657142Y-147443333D01*
X55752380Y-147395714D01*
X55895238Y-147395714D01*
X55990476Y-147443333D01*
X56038095Y-147490952D01*
X54752380Y-148014761D02*
X54847619Y-148062380D01*
X55038095Y-148062380D01*
X55133333Y-148014761D01*
X55180952Y-147919523D01*
X55180952Y-147538571D01*
X55133333Y-147443333D01*
X55038095Y-147395714D01*
X54847619Y-147395714D01*
X54752380Y-147443333D01*
X54704761Y-147538571D01*
X54704761Y-147633809D01*
X55180952Y-147729047D01*
X54276190Y-147395714D02*
X54276190Y-148062380D01*
X54276190Y-147490952D02*
X54228571Y-147443333D01*
X54133333Y-147395714D01*
X53990476Y-147395714D01*
X53895238Y-147443333D01*
X53847619Y-147538571D01*
X53847619Y-148062380D01*
X76538095Y-145123571D02*
X76204761Y-145123571D01*
X76061904Y-145647380D02*
X76538095Y-145647380D01*
X76538095Y-144647380D01*
X76061904Y-144647380D01*
X75061904Y-145552142D02*
X75109523Y-145599761D01*
X75252380Y-145647380D01*
X75347619Y-145647380D01*
X75490476Y-145599761D01*
X75585714Y-145504523D01*
X75633333Y-145409285D01*
X75680952Y-145218809D01*
X75680952Y-145075952D01*
X75633333Y-144885476D01*
X75585714Y-144790238D01*
X75490476Y-144695000D01*
X75347619Y-144647380D01*
X75252380Y-144647380D01*
X75109523Y-144695000D01*
X75061904Y-144742619D01*
X74633333Y-145123571D02*
X74300000Y-145123571D01*
X74157142Y-145647380D02*
X74633333Y-145647380D01*
X74633333Y-144647380D01*
X74157142Y-144647380D01*
X73823809Y-144647380D02*
X73204761Y-144647380D01*
X73538095Y-145028333D01*
X73395238Y-145028333D01*
X73300000Y-145075952D01*
X73252380Y-145123571D01*
X73204761Y-145218809D01*
X73204761Y-145456904D01*
X73252380Y-145552142D01*
X73300000Y-145599761D01*
X73395238Y-145647380D01*
X73680952Y-145647380D01*
X73776190Y-145599761D01*
X73823809Y-145552142D01*
X72728571Y-145647380D02*
X72538095Y-145647380D01*
X72442857Y-145599761D01*
X72395238Y-145552142D01*
X72300000Y-145409285D01*
X72252380Y-145218809D01*
X72252380Y-144837857D01*
X72300000Y-144742619D01*
X72347619Y-144695000D01*
X72442857Y-144647380D01*
X72633333Y-144647380D01*
X72728571Y-144695000D01*
X72776190Y-144742619D01*
X72823809Y-144837857D01*
X72823809Y-145075952D01*
X72776190Y-145171190D01*
X72728571Y-145218809D01*
X72633333Y-145266428D01*
X72442857Y-145266428D01*
X72347619Y-145218809D01*
X72300000Y-145171190D01*
X72252380Y-145075952D01*
X71347619Y-144647380D02*
X71823809Y-144647380D01*
X71871428Y-145123571D01*
X71823809Y-145075952D01*
X71728571Y-145028333D01*
X71490476Y-145028333D01*
X71395238Y-145075952D01*
X71347619Y-145123571D01*
X71300000Y-145218809D01*
X71300000Y-145456904D01*
X71347619Y-145552142D01*
X71395238Y-145599761D01*
X71490476Y-145647380D01*
X71728571Y-145647380D01*
X71823809Y-145599761D01*
X71871428Y-145552142D01*
X69776190Y-145123571D02*
X70109523Y-145123571D01*
X70109523Y-145647380D02*
X70109523Y-144647380D01*
X69633333Y-144647380D01*
X69300000Y-145361666D02*
X68823809Y-145361666D01*
X69395238Y-145647380D02*
X69061904Y-144647380D01*
X68728571Y-145647380D01*
X68442857Y-144742619D02*
X68395238Y-144695000D01*
X68300000Y-144647380D01*
X68061904Y-144647380D01*
X67966666Y-144695000D01*
X67919047Y-144742619D01*
X67871428Y-144837857D01*
X67871428Y-144933095D01*
X67919047Y-145075952D01*
X68490476Y-145647380D01*
X67871428Y-145647380D01*
X67252380Y-144647380D02*
X67157142Y-144647380D01*
X67061904Y-144695000D01*
X67014285Y-144742619D01*
X66966666Y-144837857D01*
X66919047Y-145028333D01*
X66919047Y-145266428D01*
X66966666Y-145456904D01*
X67014285Y-145552142D01*
X67061904Y-145599761D01*
X67157142Y-145647380D01*
X67252380Y-145647380D01*
X67347619Y-145599761D01*
X67395238Y-145552142D01*
X67442857Y-145456904D01*
X67490476Y-145266428D01*
X67490476Y-145028333D01*
X67442857Y-144837857D01*
X67395238Y-144742619D01*
X67347619Y-144695000D01*
X67252380Y-144647380D01*
X66538095Y-144742619D02*
X66490476Y-144695000D01*
X66395238Y-144647380D01*
X66157142Y-144647380D01*
X66061904Y-144695000D01*
X66014285Y-144742619D01*
X65966666Y-144837857D01*
X65966666Y-144933095D01*
X66014285Y-145075952D01*
X66585714Y-145647380D01*
X65966666Y-145647380D01*
X65633333Y-144647380D02*
X65014285Y-144647380D01*
X65347619Y-145028333D01*
X65204761Y-145028333D01*
X65109523Y-145075952D01*
X65061904Y-145123571D01*
X65014285Y-145218809D01*
X65014285Y-145456904D01*
X65061904Y-145552142D01*
X65109523Y-145599761D01*
X65204761Y-145647380D01*
X65490476Y-145647380D01*
X65585714Y-145599761D01*
X65633333Y-145552142D01*
X74466666Y-146257380D02*
X74466666Y-147066904D01*
X74419047Y-147162142D01*
X74371428Y-147209761D01*
X74276190Y-147257380D01*
X74085714Y-147257380D01*
X73990476Y-147209761D01*
X73942857Y-147162142D01*
X73895238Y-147066904D01*
X73895238Y-146257380D01*
X73419047Y-147257380D02*
X73419047Y-146590714D01*
X73419047Y-146781190D02*
X73371428Y-146685952D01*
X73323809Y-146638333D01*
X73228571Y-146590714D01*
X73133333Y-146590714D01*
X72800000Y-147257380D02*
X72800000Y-146257380D01*
X72800000Y-146638333D02*
X72704761Y-146590714D01*
X72514285Y-146590714D01*
X72419047Y-146638333D01*
X72371428Y-146685952D01*
X72323809Y-146781190D01*
X72323809Y-147066904D01*
X72371428Y-147162142D01*
X72419047Y-147209761D01*
X72514285Y-147257380D01*
X72704761Y-147257380D01*
X72800000Y-147209761D01*
X71466666Y-147257380D02*
X71466666Y-146733571D01*
X71514285Y-146638333D01*
X71609523Y-146590714D01*
X71800000Y-146590714D01*
X71895238Y-146638333D01*
X71466666Y-147209761D02*
X71561904Y-147257380D01*
X71800000Y-147257380D01*
X71895238Y-147209761D01*
X71942857Y-147114523D01*
X71942857Y-147019285D01*
X71895238Y-146924047D01*
X71800000Y-146876428D01*
X71561904Y-146876428D01*
X71466666Y-146828809D01*
X70990476Y-146590714D02*
X70990476Y-147257380D01*
X70990476Y-146685952D02*
X70942857Y-146638333D01*
X70847619Y-146590714D01*
X70704761Y-146590714D01*
X70609523Y-146638333D01*
X70561904Y-146733571D01*
X70561904Y-147257380D01*
X69657142Y-147257380D02*
X69657142Y-146733571D01*
X69704761Y-146638333D01*
X69800000Y-146590714D01*
X69990476Y-146590714D01*
X70085714Y-146638333D01*
X69657142Y-147209761D02*
X69752380Y-147257380D01*
X69990476Y-147257380D01*
X70085714Y-147209761D01*
X70133333Y-147114523D01*
X70133333Y-147019285D01*
X70085714Y-146924047D01*
X69990476Y-146876428D01*
X69752380Y-146876428D01*
X69657142Y-146828809D01*
X69133333Y-147209761D02*
X69133333Y-147257380D01*
X69180952Y-147352619D01*
X69228571Y-147400238D01*
X67942857Y-147257380D02*
X67942857Y-146257380D01*
X66990476Y-147257380D02*
X67466666Y-147257380D01*
X67466666Y-146257380D01*
D11*
%TO.C,*%
G36*
X64731009Y-123721357D02*
G01*
X64746275Y-123774496D01*
X64743774Y-123791976D01*
X64710935Y-123857540D01*
X64650294Y-123933423D01*
X64574969Y-124006398D01*
X64498078Y-124063235D01*
X64432737Y-124090705D01*
X64378846Y-124099131D01*
X64339822Y-124105766D01*
X64317420Y-124102135D01*
X64328978Y-124073630D01*
X64375829Y-124024458D01*
X64453676Y-123960117D01*
X64515616Y-123907983D01*
X64562161Y-123857744D01*
X64575410Y-123826491D01*
X64574060Y-123809746D01*
X64598713Y-123765463D01*
X64647313Y-123726630D01*
X64701732Y-123709969D01*
X64731009Y-123721357D01*
G37*
G36*
X60546228Y-123899642D02*
G01*
X60551557Y-123950515D01*
X60556139Y-124048085D01*
X60556981Y-124067746D01*
X60562966Y-124160267D01*
X60573174Y-124213254D01*
X60591493Y-124238546D01*
X60621814Y-124247980D01*
X60628392Y-124249151D01*
X60669599Y-124272490D01*
X60696899Y-124326582D01*
X60712613Y-124418795D01*
X60719064Y-124556493D01*
X60723410Y-124646868D01*
X60738504Y-124720142D01*
X60771718Y-124791486D01*
X60830524Y-124882770D01*
X60835132Y-124889502D01*
X60891477Y-124968944D01*
X60937558Y-125029056D01*
X60963788Y-125057284D01*
X60973755Y-125066879D01*
X60988248Y-125111745D01*
X60978171Y-125136874D01*
X60939439Y-125124967D01*
X60918276Y-125111850D01*
X60838652Y-125039204D01*
X60750913Y-124930016D01*
X60662809Y-124794722D01*
X60582088Y-124643753D01*
X60551613Y-124579135D01*
X60509928Y-124480911D01*
X60486205Y-124400463D01*
X60475567Y-124318659D01*
X60473139Y-124216370D01*
X60477028Y-124115368D01*
X60490360Y-124008960D01*
X60510716Y-123936517D01*
X60522622Y-123911698D01*
X60537475Y-123888894D01*
X60546228Y-123899642D01*
G37*
G36*
X68685397Y-127539457D02*
G01*
X68698279Y-127587144D01*
X68702682Y-127661322D01*
X68701337Y-127695277D01*
X68691187Y-127754072D01*
X68665798Y-127814331D01*
X68618857Y-127889203D01*
X68544056Y-127991837D01*
X68441184Y-128126738D01*
X68284437Y-128326205D01*
X68122170Y-128526609D01*
X67963519Y-128716877D01*
X67817618Y-128885937D01*
X67693600Y-129022719D01*
X67629001Y-129083421D01*
X67589606Y-129103975D01*
X67579803Y-129085337D01*
X67601390Y-129031227D01*
X67656166Y-128945360D01*
X67692008Y-128895106D01*
X67746480Y-128818026D01*
X67784680Y-128763107D01*
X67789109Y-128756691D01*
X67823927Y-128707296D01*
X67882029Y-128625590D01*
X67957171Y-128520291D01*
X68043109Y-128400116D01*
X68133599Y-128273785D01*
X68222400Y-128150015D01*
X68303265Y-128037524D01*
X68369954Y-127945032D01*
X68416221Y-127881254D01*
X68446715Y-127837978D01*
X68504112Y-127752673D01*
X68562810Y-127662048D01*
X68606795Y-127598409D01*
X68650519Y-127547662D01*
X68677545Y-127531428D01*
X68685397Y-127539457D01*
G37*
G36*
X62555570Y-121483984D02*
G01*
X62551892Y-121530270D01*
X62531079Y-121603668D01*
X62496293Y-121693244D01*
X62450696Y-121788065D01*
X62416320Y-121855178D01*
X62385902Y-121920945D01*
X62374187Y-121955582D01*
X62362280Y-121990172D01*
X62331143Y-122045114D01*
X62295140Y-122090825D01*
X62266747Y-122110808D01*
X62243681Y-122098554D01*
X62194262Y-122053455D01*
X62131846Y-121986439D01*
X62066512Y-121909486D01*
X62008338Y-121834576D01*
X61967404Y-121773690D01*
X61953789Y-121738809D01*
X61974697Y-121710361D01*
X62027974Y-121689920D01*
X62049535Y-121687037D01*
X62101835Y-121675725D01*
X62162082Y-121654551D01*
X62243328Y-121618483D01*
X62358625Y-121562493D01*
X62438026Y-121523527D01*
X62505942Y-121490847D01*
X62541342Y-121474649D01*
X62555570Y-121483984D01*
G37*
G36*
X64742391Y-135728094D02*
G01*
X64919517Y-135747265D01*
X64926589Y-135748142D01*
X65022503Y-135762032D01*
X65077897Y-135777190D01*
X65104697Y-135798791D01*
X65114831Y-135832009D01*
X65113974Y-135855424D01*
X65098587Y-135927607D01*
X65068865Y-136026718D01*
X65028803Y-136138515D01*
X65006685Y-136196850D01*
X64965564Y-136311893D01*
X64933332Y-136410667D01*
X64915542Y-136476601D01*
X64888924Y-136564086D01*
X64848416Y-136649843D01*
X64846591Y-136652885D01*
X64813437Y-136725281D01*
X64799680Y-136788515D01*
X64795197Y-136834123D01*
X64775983Y-136908453D01*
X64753609Y-136971623D01*
X64708956Y-137123269D01*
X64665305Y-137301609D01*
X64627074Y-137489402D01*
X64622593Y-137513801D01*
X64599143Y-137636872D01*
X64576086Y-137751593D01*
X64557834Y-137835887D01*
X64548841Y-137878361D01*
X64528343Y-137992430D01*
X64504175Y-138143207D01*
X64477808Y-138320116D01*
X64450712Y-138512581D01*
X64424359Y-138710025D01*
X64400219Y-138901871D01*
X64379763Y-139077543D01*
X64364461Y-139226465D01*
X64362991Y-139242118D01*
X64349521Y-139369612D01*
X64335697Y-139476279D01*
X64323065Y-139551349D01*
X64313169Y-139584055D01*
X64304304Y-139609598D01*
X64296275Y-139675808D01*
X64293180Y-139764452D01*
X64292861Y-139786972D01*
X64286150Y-139899956D01*
X64272512Y-140034602D01*
X64254312Y-140166463D01*
X64252037Y-140180656D01*
X64228544Y-140332830D01*
X64203998Y-140499743D01*
X64183359Y-140647744D01*
X64177005Y-140693147D01*
X64158943Y-140805537D01*
X64140915Y-140898088D01*
X64126018Y-140954250D01*
X64107613Y-141011157D01*
X64077589Y-141121922D01*
X64041328Y-141270061D01*
X64000924Y-141447325D01*
X63961928Y-141606555D01*
X63897371Y-141820462D01*
X63890795Y-141840365D01*
X63864687Y-141926799D01*
X63838969Y-142020357D01*
X63833565Y-142040732D01*
X63801494Y-142151242D01*
X63767890Y-142255143D01*
X63758701Y-142284423D01*
X63741278Y-142369719D01*
X63740298Y-142435049D01*
X63742549Y-142477997D01*
X63728941Y-142500105D01*
X63715589Y-142497523D01*
X63691100Y-142460490D01*
X63690719Y-142385021D01*
X63714892Y-142278179D01*
X63727941Y-142234578D01*
X63760536Y-142120902D01*
X63787721Y-142020357D01*
X63794636Y-141994630D01*
X63825116Y-141896041D01*
X63855972Y-141812895D01*
X63857195Y-141810000D01*
X63882800Y-141730500D01*
X63893389Y-141660896D01*
X63897829Y-141612599D01*
X63917626Y-141535200D01*
X63943731Y-141462010D01*
X63976180Y-141357246D01*
X64006528Y-141247690D01*
X64029714Y-141151748D01*
X64040674Y-141087825D01*
X64051517Y-141021700D01*
X64074013Y-140940924D01*
X64117470Y-140792115D01*
X64148440Y-140630953D01*
X64159916Y-140489790D01*
X64159952Y-140484663D01*
X64165942Y-140396608D01*
X64180214Y-140281793D01*
X64199891Y-140163678D01*
X64219708Y-140036885D01*
X64234296Y-139897506D01*
X64239870Y-139779311D01*
X64242417Y-139691392D01*
X64249627Y-139619147D01*
X64259864Y-139584128D01*
X64260827Y-139582849D01*
X64271117Y-139544678D01*
X64283960Y-139465393D01*
X64297812Y-139355758D01*
X64311130Y-139226538D01*
X64324702Y-139091412D01*
X64341291Y-138947005D01*
X64357789Y-138821312D01*
X64372076Y-138731542D01*
X64383170Y-138667071D01*
X64401337Y-138547242D01*
X64420699Y-138407014D01*
X64438584Y-138265120D01*
X64452698Y-138155292D01*
X64471766Y-138026492D01*
X64490349Y-137919218D01*
X64505899Y-137849213D01*
X64509907Y-137834442D01*
X64529849Y-137747549D01*
X64552376Y-137633620D01*
X64573340Y-137513312D01*
X64578210Y-137484193D01*
X64601512Y-137364100D01*
X64627015Y-137255939D01*
X64650013Y-137180153D01*
X64651853Y-137175249D01*
X64677730Y-137093821D01*
X64707193Y-136984224D01*
X64734220Y-136868735D01*
X64739021Y-136847073D01*
X64765469Y-136746354D01*
X64792800Y-136666820D01*
X64815803Y-136624102D01*
X64837699Y-136590681D01*
X64854056Y-136525147D01*
X64854261Y-136519956D01*
X64866467Y-136449946D01*
X64891272Y-136369990D01*
X64933246Y-136259786D01*
X64981409Y-136129566D01*
X65023914Y-136010830D01*
X65057410Y-135913152D01*
X65078547Y-135846106D01*
X65083975Y-135819267D01*
X65073806Y-135814609D01*
X65020161Y-135803142D01*
X64934416Y-135790580D01*
X64830821Y-135778497D01*
X64723624Y-135768467D01*
X64627074Y-135762066D01*
X64555420Y-135760868D01*
X64535650Y-135761700D01*
X64457034Y-135772095D01*
X64401949Y-135801302D01*
X64345571Y-135861188D01*
X64327266Y-135883372D01*
X64264583Y-135959198D01*
X64213289Y-136021064D01*
X64212807Y-136021644D01*
X64175436Y-136073011D01*
X64159916Y-136106895D01*
X64153007Y-136131568D01*
X64128834Y-136193130D01*
X64093285Y-136274208D01*
X64063719Y-136340842D01*
X64036966Y-136406269D01*
X64026653Y-136439005D01*
X64018556Y-136464642D01*
X63992579Y-136526117D01*
X63954919Y-136607292D01*
X63921977Y-136677973D01*
X63891469Y-136748742D01*
X63877509Y-136788474D01*
X63867956Y-136817456D01*
X63840554Y-136883487D01*
X63802654Y-136966729D01*
X63772435Y-137034451D01*
X63744323Y-137107678D01*
X63733473Y-137150999D01*
X63719825Y-137194725D01*
X63684044Y-137252597D01*
X63680471Y-137257334D01*
X63637863Y-137330025D01*
X63602723Y-137413975D01*
X63598054Y-137427531D01*
X63566225Y-137497795D01*
X63533928Y-137542417D01*
X63504339Y-137583951D01*
X63479936Y-137650854D01*
X63460615Y-137709314D01*
X63436018Y-137745245D01*
X63411889Y-137775570D01*
X63373544Y-137840415D01*
X63329572Y-137925457D01*
X63314833Y-137955669D01*
X63261027Y-138063285D01*
X63217997Y-138142416D01*
X63176458Y-138209336D01*
X63127125Y-138280324D01*
X63117065Y-138294690D01*
X63081522Y-138352690D01*
X63067156Y-138388966D01*
X63055369Y-138419525D01*
X63020514Y-138469129D01*
X63002995Y-138491199D01*
X62953606Y-138560125D01*
X62901089Y-138639786D01*
X62842428Y-138732709D01*
X62797735Y-138802318D01*
X62768790Y-138844977D01*
X62749014Y-138870339D01*
X62731826Y-138888054D01*
X62715354Y-138905028D01*
X62660219Y-138973953D01*
X62597444Y-139064758D01*
X62534906Y-139164504D01*
X62480483Y-139260250D01*
X62442053Y-139339057D01*
X62427492Y-139387984D01*
X62414029Y-139420599D01*
X62378088Y-139483657D01*
X62327545Y-139563169D01*
X62227597Y-139713651D01*
X62214271Y-140069860D01*
X62208878Y-140202290D01*
X62202547Y-140307595D01*
X62194111Y-140378019D01*
X62181756Y-140423255D01*
X62163665Y-140452997D01*
X62138023Y-140476938D01*
X62096294Y-140504471D01*
X61994926Y-140529774D01*
X61888870Y-140505396D01*
X61785526Y-140432275D01*
X61749241Y-140397676D01*
X61702130Y-140361269D01*
X61666823Y-140354805D01*
X61627572Y-140372307D01*
X61615309Y-140380236D01*
X61557555Y-140426694D01*
X61486527Y-140492819D01*
X61412819Y-140567563D01*
X61347028Y-140639880D01*
X61299749Y-140698721D01*
X61281577Y-140733041D01*
X61278110Y-140748797D01*
X61246285Y-140786347D01*
X61218103Y-140813728D01*
X61170997Y-140874065D01*
X61117356Y-140951235D01*
X61066948Y-141030475D01*
X61029540Y-141097019D01*
X61014900Y-141136104D01*
X61014428Y-141141080D01*
X60998195Y-141188334D01*
X60966024Y-141253282D01*
X60965771Y-141253735D01*
X60933213Y-141324173D01*
X60894894Y-141424299D01*
X60859057Y-141532593D01*
X60854577Y-141547189D01*
X60823174Y-141639666D01*
X60794641Y-141708858D01*
X60774670Y-141740724D01*
X60769945Y-141745329D01*
X60754574Y-141790066D01*
X60748374Y-141860441D01*
X60747936Y-141879234D01*
X60738725Y-141945454D01*
X60721317Y-141980628D01*
X60714265Y-141987184D01*
X60684829Y-142031399D01*
X60649716Y-142097295D01*
X60619360Y-142164280D01*
X60604193Y-142211767D01*
X60599199Y-142229592D01*
X60571059Y-142286860D01*
X60527588Y-142357589D01*
X60479039Y-142426735D01*
X60435664Y-142479256D01*
X60407712Y-142500105D01*
X60404383Y-142500046D01*
X60389088Y-142489611D01*
X60415696Y-142455838D01*
X60445475Y-142414678D01*
X60491642Y-142333599D01*
X60545782Y-142227710D01*
X60601745Y-142109991D01*
X60653380Y-141993421D01*
X60694537Y-141890976D01*
X60719067Y-141815638D01*
X60725107Y-141792389D01*
X60762150Y-141671566D01*
X60813753Y-141523951D01*
X60873412Y-141366833D01*
X60934621Y-141217501D01*
X60990876Y-141093242D01*
X61024318Y-141030110D01*
X61122247Y-140876061D01*
X61244925Y-140711716D01*
X61380469Y-140552428D01*
X61516995Y-140413548D01*
X61570380Y-140365497D01*
X61637162Y-140318032D01*
X61690408Y-140309122D01*
X61744161Y-140338381D01*
X61812464Y-140405423D01*
X61829642Y-140422575D01*
X61896496Y-140463240D01*
X61987039Y-140474502D01*
X62009744Y-140473851D01*
X62083463Y-140462837D01*
X62128982Y-140442519D01*
X62134923Y-140433517D01*
X62149402Y-140370982D01*
X62158077Y-140255802D01*
X62160966Y-140087803D01*
X62160966Y-139765070D01*
X62256830Y-139606722D01*
X62303876Y-139524342D01*
X62361981Y-139411500D01*
X62405242Y-139315111D01*
X62428840Y-139264909D01*
X62484608Y-139167399D01*
X62557225Y-139054556D01*
X62637006Y-138941973D01*
X62694236Y-138864652D01*
X62772846Y-138756263D01*
X62839611Y-138661784D01*
X62884340Y-138595488D01*
X62920334Y-138539132D01*
X62983344Y-138440425D01*
X63045961Y-138342288D01*
X63081772Y-138284262D01*
X63158151Y-138153009D01*
X63247433Y-137992711D01*
X63343977Y-137814118D01*
X63442142Y-137627981D01*
X63536288Y-137445048D01*
X63620774Y-137276071D01*
X63689960Y-137131798D01*
X63738205Y-137022980D01*
X63844205Y-136765819D01*
X63939085Y-136539308D01*
X64019408Y-136353065D01*
X64087651Y-136202282D01*
X64146291Y-136082148D01*
X64197805Y-135987853D01*
X64244672Y-135914588D01*
X64289370Y-135857544D01*
X64334375Y-135811909D01*
X64382166Y-135772875D01*
X64437089Y-135742769D01*
X64509820Y-135725434D01*
X64608707Y-135720680D01*
X64742391Y-135728094D01*
G37*
G36*
X60696368Y-117629239D02*
G01*
X60753361Y-117678839D01*
X60775026Y-117756289D01*
X60776162Y-117771764D01*
X60806771Y-117830356D01*
X60865391Y-117859026D01*
X60933499Y-117847153D01*
X60989257Y-117830864D01*
X61084172Y-117817076D01*
X61202444Y-117806867D01*
X61328963Y-117800938D01*
X61448617Y-117799992D01*
X61546295Y-117804731D01*
X61606888Y-117815858D01*
X61658908Y-117849958D01*
X61701994Y-117931948D01*
X61724840Y-118019623D01*
X61962892Y-118009948D01*
X62008712Y-118007692D01*
X62115835Y-117999274D01*
X62199918Y-117988327D01*
X62245835Y-117976632D01*
X62265108Y-117971623D01*
X62333597Y-117964232D01*
X62439024Y-117958325D01*
X62571215Y-117954409D01*
X62719999Y-117952991D01*
X62811382Y-117953003D01*
X62957914Y-117954510D01*
X63067863Y-117961123D01*
X63152338Y-117976590D01*
X63222450Y-118004662D01*
X63289310Y-118049091D01*
X63364028Y-118113626D01*
X63457715Y-118202019D01*
X63478386Y-118221574D01*
X63546141Y-118281803D01*
X63595225Y-118312835D01*
X63640691Y-118321813D01*
X63697589Y-118315884D01*
X63849626Y-118294418D01*
X64051603Y-118279012D01*
X64212217Y-118284880D01*
X64327721Y-118312043D01*
X64449114Y-118365532D01*
X64573859Y-118426967D01*
X64684106Y-118487401D01*
X64768240Y-118540449D01*
X64814644Y-118579725D01*
X64831487Y-118597253D01*
X64877639Y-118624329D01*
X64885779Y-118626724D01*
X64922614Y-118645487D01*
X64975027Y-118683512D01*
X65048558Y-118745397D01*
X65148747Y-118835737D01*
X65281133Y-118959129D01*
X65374408Y-119044025D01*
X65457362Y-119114179D01*
X65520205Y-119161596D01*
X65553931Y-119179014D01*
X65554867Y-119179023D01*
X65607019Y-119187613D01*
X65689419Y-119208477D01*
X65782785Y-119235952D01*
X65867837Y-119264375D01*
X65925294Y-119288084D01*
X65947050Y-119295788D01*
X66017931Y-119307618D01*
X66105808Y-119312277D01*
X66149985Y-119314224D01*
X66310195Y-119346307D01*
X66477114Y-119411445D01*
X66632531Y-119501385D01*
X66758238Y-119607879D01*
X66878489Y-119736437D01*
X66878489Y-119950239D01*
X66876894Y-120026747D01*
X66857651Y-120193783D01*
X66811857Y-120362533D01*
X66785655Y-120441589D01*
X66756473Y-120538626D01*
X66746902Y-120595754D01*
X66757873Y-120619390D01*
X66790320Y-120615948D01*
X66845173Y-120591843D01*
X66912329Y-120560978D01*
X67077235Y-120504817D01*
X67233493Y-120485695D01*
X67392010Y-120504409D01*
X67563694Y-120561753D01*
X67759451Y-120658524D01*
X67797044Y-120686461D01*
X67864164Y-120746897D01*
X67946316Y-120827096D01*
X68032701Y-120916171D01*
X68112520Y-121003235D01*
X68174971Y-121077401D01*
X68208141Y-121125296D01*
X68250835Y-121205518D01*
X68277510Y-121278766D01*
X68280520Y-121326960D01*
X68261352Y-121350679D01*
X68205930Y-121363174D01*
X68133600Y-121346064D01*
X68059915Y-121301168D01*
X68041529Y-121286544D01*
X67937636Y-121219374D01*
X67801159Y-121147781D01*
X67647361Y-121079278D01*
X67491501Y-121021376D01*
X67459379Y-121011669D01*
X67357299Y-120988870D01*
X67246341Y-120972878D01*
X67138741Y-120964391D01*
X67046735Y-120964108D01*
X66982558Y-120972727D01*
X66958447Y-120990947D01*
X66968290Y-121006090D01*
X67014236Y-121041210D01*
X67085047Y-121081988D01*
X67130780Y-121107534D01*
X67246375Y-121190690D01*
X67346361Y-121287626D01*
X67419680Y-121386581D01*
X67455277Y-121475798D01*
X67455452Y-121476882D01*
X67455188Y-121554572D01*
X67424575Y-121589540D01*
X67366118Y-121581026D01*
X67282326Y-121528269D01*
X67188176Y-121460332D01*
X67076881Y-121400310D01*
X66950619Y-121357216D01*
X66790224Y-121323056D01*
X66741509Y-121314526D01*
X66612571Y-121293316D01*
X66529748Y-121284222D01*
X66488228Y-121288939D01*
X66483203Y-121309157D01*
X66509864Y-121346571D01*
X66563400Y-121402871D01*
X66613677Y-121459638D01*
X66676097Y-121547192D01*
X66714387Y-121622755D01*
X66719378Y-121637408D01*
X66747579Y-121717310D01*
X66770315Y-121777650D01*
X66795602Y-121843706D01*
X66829699Y-121953899D01*
X66853439Y-122070252D01*
X66868420Y-122204515D01*
X66876238Y-122368436D01*
X66878489Y-122573766D01*
X66877962Y-122692111D01*
X66874483Y-122852675D01*
X66867315Y-122971311D01*
X66855947Y-123055104D01*
X66839870Y-123111140D01*
X66838334Y-123114758D01*
X66792570Y-123183930D01*
X66741248Y-123204548D01*
X66691003Y-123179771D01*
X66648474Y-123112756D01*
X66620298Y-123006662D01*
X66603124Y-122936325D01*
X66575046Y-122870410D01*
X66566274Y-122854346D01*
X66536480Y-122784145D01*
X66508163Y-122699597D01*
X66501546Y-122678428D01*
X66460883Y-122576453D01*
X66413601Y-122486375D01*
X66406265Y-122474719D01*
X66367759Y-122410070D01*
X66349919Y-122368269D01*
X66344477Y-122330693D01*
X66343043Y-122325416D01*
X66319123Y-122286486D01*
X66275317Y-122230745D01*
X66207116Y-122150787D01*
X66223049Y-122284381D01*
X66242687Y-122392072D01*
X66294268Y-122565612D01*
X66375793Y-122775245D01*
X66488405Y-123024156D01*
X66528776Y-123109925D01*
X66571840Y-123204381D01*
X66601213Y-123272478D01*
X66612111Y-123303414D01*
X66612576Y-123308546D01*
X66622119Y-123354378D01*
X66640068Y-123423640D01*
X66647680Y-123448280D01*
X66687921Y-123517728D01*
X66759420Y-123562024D01*
X66778045Y-123571408D01*
X66847753Y-123619576D01*
X66933426Y-123691375D01*
X67020663Y-123775058D01*
X67058148Y-123812607D01*
X67134867Y-123882963D01*
X67197189Y-123931651D01*
X67234321Y-123949843D01*
X67256373Y-123952767D01*
X67278279Y-123971366D01*
X67286349Y-123982395D01*
X67334454Y-124011248D01*
X67416516Y-124048565D01*
X67521693Y-124089921D01*
X67639144Y-124130896D01*
X67758027Y-124167065D01*
X67911466Y-124202403D01*
X68095382Y-124232352D01*
X68295007Y-124255318D01*
X68499021Y-124270671D01*
X68696103Y-124277784D01*
X68874936Y-124276028D01*
X69024199Y-124264775D01*
X69132572Y-124243395D01*
X69310414Y-124175557D01*
X69488533Y-124077024D01*
X69625804Y-123962688D01*
X69716262Y-123836702D01*
X69732070Y-123797279D01*
X69754188Y-123680873D01*
X69756460Y-123545439D01*
X69740452Y-123408621D01*
X69707730Y-123288062D01*
X69659861Y-123201405D01*
X69641326Y-123173395D01*
X69638822Y-123144040D01*
X69639603Y-123142737D01*
X69625222Y-123117461D01*
X69583795Y-123075468D01*
X69529979Y-123029411D01*
X69478433Y-122991941D01*
X69443812Y-122975710D01*
X69437396Y-122975243D01*
X69357877Y-122955078D01*
X69316045Y-122904651D01*
X69303883Y-122814737D01*
X69308427Y-122737932D01*
X69327854Y-122693646D01*
X69370406Y-122665714D01*
X69378788Y-122662009D01*
X69435712Y-122649810D01*
X69483680Y-122675223D01*
X69487613Y-122678444D01*
X69547620Y-122716161D01*
X69623285Y-122751898D01*
X69673046Y-122781784D01*
X69746408Y-122838674D01*
X69833620Y-122913669D01*
X69925521Y-122998099D01*
X70012948Y-123083292D01*
X70086740Y-123160579D01*
X70137734Y-123221289D01*
X70156768Y-123256751D01*
X70157765Y-123263519D01*
X70178921Y-123310150D01*
X70218937Y-123371926D01*
X70235192Y-123395490D01*
X70291337Y-123508913D01*
X70331397Y-123654863D01*
X70358299Y-123843232D01*
X70363489Y-123903876D01*
X70363302Y-123993320D01*
X70346460Y-124070885D01*
X70308867Y-124163064D01*
X70290246Y-124198458D01*
X70239487Y-124276582D01*
X70173871Y-124364816D01*
X70102400Y-124452347D01*
X70034079Y-124528361D01*
X69977909Y-124582047D01*
X69942895Y-124602592D01*
X69940200Y-124603212D01*
X69906315Y-124623285D01*
X69852680Y-124662802D01*
X69776442Y-124722771D01*
X70351757Y-124722771D01*
X70368438Y-124722776D01*
X70600757Y-124724441D01*
X70788236Y-124729761D01*
X70938767Y-124739731D01*
X71060243Y-124755346D01*
X71160558Y-124777601D01*
X71247604Y-124807492D01*
X71329274Y-124846013D01*
X71372601Y-124868153D01*
X71436923Y-124897745D01*
X71472165Y-124909339D01*
X71507798Y-124924712D01*
X71575827Y-124973656D01*
X71667875Y-125050219D01*
X71777645Y-125148278D01*
X71898842Y-125261709D01*
X72025170Y-125384387D01*
X72150332Y-125510188D01*
X72268032Y-125632989D01*
X72371974Y-125746664D01*
X72455863Y-125845089D01*
X72513401Y-125922141D01*
X72539337Y-125962270D01*
X72624353Y-126104085D01*
X72692952Y-126234706D01*
X72739943Y-126343652D01*
X72760136Y-126420441D01*
X72767459Y-126460513D01*
X72793676Y-126531962D01*
X72811863Y-126579935D01*
X72818252Y-126665538D01*
X72799353Y-126745731D01*
X72759865Y-126804947D01*
X72704484Y-126827615D01*
X72689625Y-126825642D01*
X72655007Y-126802498D01*
X72618285Y-126746173D01*
X72572912Y-126647710D01*
X72529693Y-126546311D01*
X72465193Y-126399935D01*
X72411187Y-126287604D01*
X72361894Y-126199380D01*
X72311531Y-126125324D01*
X72254317Y-126055496D01*
X72184469Y-125979956D01*
X72162547Y-125957570D01*
X72051860Y-125855307D01*
X71930531Y-125756367D01*
X71821123Y-125679413D01*
X71797739Y-125664842D01*
X71704890Y-125606835D01*
X71627809Y-125558453D01*
X71581249Y-125528950D01*
X71554791Y-125513013D01*
X71489332Y-125477907D01*
X71424379Y-125446744D01*
X71382791Y-125430825D01*
X71370672Y-125426257D01*
X71321075Y-125403999D01*
X71249528Y-125370044D01*
X71231171Y-125361541D01*
X71119381Y-125318293D01*
X70968854Y-125269768D01*
X70790827Y-125219398D01*
X70596537Y-125170614D01*
X70554451Y-125164666D01*
X70461540Y-125157401D01*
X70330829Y-125150455D01*
X70170823Y-125144203D01*
X69990031Y-125139021D01*
X69796957Y-125135284D01*
X69647766Y-125133454D01*
X69469488Y-125132567D01*
X69334219Y-125133656D01*
X69244526Y-125136665D01*
X69202976Y-125141537D01*
X69212136Y-125148215D01*
X69221972Y-125150401D01*
X69306295Y-125172274D01*
X69416441Y-125204254D01*
X69531229Y-125240233D01*
X69562233Y-125250236D01*
X69660467Y-125280259D01*
X69737174Y-125301238D01*
X69777879Y-125309129D01*
X69804372Y-125314679D01*
X69869871Y-125337923D01*
X69951860Y-125373126D01*
X70008807Y-125398507D01*
X70095024Y-125433621D01*
X70156768Y-125454759D01*
X70273940Y-125494316D01*
X70402944Y-125552113D01*
X70435432Y-125564401D01*
X70505527Y-125575656D01*
X70515572Y-125576002D01*
X70550925Y-125581817D01*
X70600397Y-125596927D01*
X70670785Y-125624068D01*
X70768883Y-125665976D01*
X70901490Y-125725386D01*
X71075402Y-125805034D01*
X71117353Y-125827768D01*
X71206469Y-125889740D01*
X71288623Y-125961236D01*
X71339454Y-126014309D01*
X71377087Y-126068582D01*
X71391898Y-126128055D01*
X71393362Y-126215750D01*
X71381905Y-126325780D01*
X71342214Y-126447475D01*
X71268849Y-126574438D01*
X71156244Y-126718473D01*
X71134384Y-126743944D01*
X71041068Y-126851867D01*
X70946050Y-126960679D01*
X70858434Y-127060043D01*
X70787322Y-127139622D01*
X70741815Y-127189080D01*
X70706771Y-127233403D01*
X70689822Y-127272850D01*
X70687107Y-127285351D01*
X70655374Y-127315596D01*
X70647284Y-127320930D01*
X70609187Y-127361665D01*
X70554583Y-127431887D01*
X70492426Y-127520343D01*
X70469386Y-127554053D01*
X70408430Y-127637410D01*
X70357920Y-127698523D01*
X70326978Y-127726048D01*
X70311162Y-127734654D01*
X70290032Y-127766418D01*
X70301526Y-127793474D01*
X70345349Y-127838054D01*
X70403137Y-127876648D01*
X70454566Y-127893552D01*
X70462178Y-127894444D01*
X70515637Y-127917279D01*
X70578350Y-127961071D01*
X70592222Y-127972387D01*
X70648902Y-128011785D01*
X70686647Y-128027702D01*
X70694988Y-128029888D01*
X70741470Y-128058360D01*
X70814468Y-128113971D01*
X70905253Y-128189330D01*
X71005095Y-128277043D01*
X71105266Y-128369718D01*
X71197037Y-128459962D01*
X71258685Y-128527801D01*
X71331153Y-128615576D01*
X71403044Y-128708896D01*
X71465809Y-128796272D01*
X71510903Y-128866217D01*
X71529778Y-128907241D01*
X71538154Y-128933320D01*
X71560955Y-128996083D01*
X71592848Y-129080483D01*
X71618380Y-129154998D01*
X71650153Y-129272825D01*
X71668337Y-129373663D01*
X71674011Y-129418122D01*
X71689350Y-129499612D01*
X71705871Y-129551816D01*
X71707609Y-129555668D01*
X71718583Y-129611813D01*
X71725522Y-129705228D01*
X71728500Y-129821878D01*
X71727591Y-129947722D01*
X71722867Y-130068724D01*
X71714403Y-130170846D01*
X71702272Y-130240050D01*
X71695186Y-130268710D01*
X71679890Y-130365146D01*
X71672493Y-130466422D01*
X71668721Y-130538032D01*
X71652886Y-130674710D01*
X71628229Y-130814259D01*
X71598285Y-130937962D01*
X71566590Y-131027105D01*
X71563488Y-131033466D01*
X71531013Y-131080914D01*
X71482678Y-131106563D01*
X71399764Y-131120941D01*
X71374786Y-131124358D01*
X71290719Y-131146779D01*
X71246583Y-131178928D01*
X71230431Y-131199875D01*
X71174421Y-131251793D01*
X71094696Y-131314459D01*
X71004166Y-131378870D01*
X70915740Y-131436024D01*
X70842328Y-131476918D01*
X70796841Y-131492550D01*
X70763599Y-131487439D01*
X70740203Y-131456293D01*
X70758035Y-131399819D01*
X70815631Y-131321436D01*
X70911526Y-131224569D01*
X70918021Y-131218585D01*
X71017434Y-131120822D01*
X71117698Y-131012922D01*
X71198042Y-130917169D01*
X71316160Y-130764076D01*
X71316160Y-130508639D01*
X71314104Y-130414230D01*
X71291678Y-130218661D01*
X71242189Y-130055008D01*
X71162699Y-129911845D01*
X71157179Y-129903713D01*
X71129295Y-129851058D01*
X71126556Y-129820909D01*
X71128351Y-129813468D01*
X71112395Y-129772924D01*
X71073561Y-129714206D01*
X71058021Y-129693059D01*
X71017735Y-129629576D01*
X70998891Y-129585667D01*
X70998536Y-129583893D01*
X70976885Y-129542421D01*
X70929120Y-129472401D01*
X70863614Y-129384496D01*
X70788742Y-129289364D01*
X70712877Y-129197667D01*
X70644393Y-129120065D01*
X70591662Y-129067218D01*
X70573950Y-129051961D01*
X70545417Y-129030091D01*
X70549895Y-129039571D01*
X70566225Y-129064655D01*
X70583211Y-129126854D01*
X70585695Y-129145537D01*
X70606891Y-129210624D01*
X70642688Y-129288103D01*
X70644667Y-129291855D01*
X70667066Y-129339276D01*
X70682815Y-129388865D01*
X70693081Y-129450850D01*
X70699032Y-129535455D01*
X70701835Y-129652907D01*
X70702657Y-129813432D01*
X70702685Y-129854481D01*
X70702002Y-130002781D01*
X70699155Y-130109881D01*
X70692998Y-130185616D01*
X70682381Y-130239821D01*
X70666158Y-130282330D01*
X70643180Y-130322978D01*
X70629770Y-130345471D01*
X70596480Y-130411763D01*
X70583097Y-130456242D01*
X70577170Y-130478945D01*
X70548203Y-130538976D01*
X70503253Y-130613012D01*
X70473289Y-130660822D01*
X70437440Y-130728208D01*
X70423409Y-130770236D01*
X70407149Y-130806216D01*
X70363107Y-130862039D01*
X70306090Y-130920813D01*
X70250996Y-130967271D01*
X70212719Y-130986149D01*
X70199399Y-130989402D01*
X70164756Y-131020424D01*
X70139227Y-131052534D01*
X70070929Y-131109882D01*
X69992696Y-131154654D01*
X69926626Y-131172718D01*
X69906366Y-131171019D01*
X69866129Y-131145671D01*
X69862528Y-131098503D01*
X69893739Y-131040569D01*
X69957939Y-130982922D01*
X70010107Y-130940380D01*
X70080963Y-130864757D01*
X70145302Y-130779803D01*
X70192060Y-130700482D01*
X70210173Y-130641758D01*
X70210695Y-130635120D01*
X70228416Y-130580364D01*
X70263479Y-130512420D01*
X70286998Y-130453751D01*
X70308091Y-130344165D01*
X70319468Y-130208998D01*
X70321069Y-130063246D01*
X70312837Y-129921903D01*
X70294710Y-129799963D01*
X70266632Y-129712422D01*
X70261123Y-129701230D01*
X70222890Y-129608403D01*
X70196502Y-129520632D01*
X70189871Y-129494783D01*
X70156814Y-129404154D01*
X70109609Y-129302483D01*
X70056379Y-129205043D01*
X70005242Y-129127109D01*
X69964322Y-129083953D01*
X69936797Y-129062692D01*
X69916894Y-129032547D01*
X69913069Y-129022451D01*
X69879666Y-128979360D01*
X69820258Y-128916402D01*
X69745066Y-128843640D01*
X69664311Y-128771137D01*
X69588216Y-128708956D01*
X69578488Y-128701589D01*
X69515598Y-128660011D01*
X69470123Y-128648904D01*
X69422905Y-128662934D01*
X69371902Y-128706371D01*
X69359681Y-128769826D01*
X69394710Y-128834345D01*
X69430092Y-128887422D01*
X69463674Y-128997465D01*
X69483638Y-129155658D01*
X69490303Y-129363779D01*
X69489476Y-129474276D01*
X69484500Y-129577067D01*
X69472676Y-129655501D01*
X69451360Y-129725640D01*
X69417907Y-129803548D01*
X69382646Y-129880728D01*
X69354779Y-129944081D01*
X69343355Y-129973348D01*
X69335081Y-129993466D01*
X69307963Y-130049641D01*
X69268860Y-130126601D01*
X69229430Y-130192324D01*
X69171523Y-130253859D01*
X69122552Y-130270592D01*
X69088034Y-130247696D01*
X69073483Y-130190342D01*
X69084417Y-130103705D01*
X69126351Y-129992956D01*
X69170325Y-129890967D01*
X69225821Y-129718798D01*
X69263421Y-129544572D01*
X69277300Y-129391499D01*
X69272196Y-129302749D01*
X69256561Y-129194528D01*
X69233602Y-129088056D01*
X69206592Y-128996143D01*
X69178808Y-128931601D01*
X69153523Y-128907241D01*
X69152196Y-128907356D01*
X69116648Y-128928473D01*
X69051277Y-128981808D01*
X68962360Y-129061283D01*
X68856176Y-129160823D01*
X68739006Y-129274350D01*
X68617126Y-129395788D01*
X68496818Y-129519060D01*
X68384358Y-129638090D01*
X68286027Y-129746800D01*
X68204870Y-129839063D01*
X68127912Y-129926282D01*
X68068975Y-129992785D01*
X68036618Y-130028889D01*
X68014123Y-130056456D01*
X67999877Y-130100511D01*
X68033591Y-130125422D01*
X68116863Y-130133264D01*
X68154350Y-130132368D01*
X68208166Y-130123492D01*
X68259226Y-130098967D01*
X68320954Y-130051387D01*
X68406776Y-129973348D01*
X68440035Y-129942916D01*
X68546421Y-129859214D01*
X68631866Y-129820391D01*
X68702519Y-129826446D01*
X68764530Y-129877375D01*
X68824047Y-129973177D01*
X68847021Y-130021975D01*
X68871574Y-130100563D01*
X68875024Y-130180382D01*
X68855776Y-130272541D01*
X68812233Y-130388149D01*
X68742796Y-130538318D01*
X68695053Y-130636867D01*
X68786656Y-130690914D01*
X68798844Y-130698597D01*
X68864587Y-130756425D01*
X68905883Y-130818913D01*
X68911656Y-130833949D01*
X68944646Y-130913482D01*
X68982964Y-130999476D01*
X68993597Y-131022868D01*
X69027484Y-131103375D01*
X69049545Y-131164587D01*
X69063266Y-131190425D01*
X69123424Y-131250552D01*
X69230266Y-131329012D01*
X69385082Y-131426815D01*
X69408651Y-131442525D01*
X69490132Y-131522605D01*
X69548244Y-131619596D01*
X69570409Y-131714008D01*
X69570409Y-131807834D01*
X69770689Y-131826602D01*
X69787603Y-131828265D01*
X69882986Y-131840778D01*
X69953698Y-131855243D01*
X69985483Y-131868855D01*
X70005542Y-131882947D01*
X70058394Y-131893183D01*
X70086535Y-131898097D01*
X70159504Y-131936262D01*
X70232850Y-132000529D01*
X70288920Y-132076833D01*
X70296520Y-132092209D01*
X70304760Y-132143775D01*
X70276526Y-132202860D01*
X70224727Y-132258935D01*
X70140630Y-132304201D01*
X70019873Y-132335806D01*
X69854421Y-132356677D01*
X69834887Y-132358446D01*
X69731358Y-132370414D01*
X69647959Y-132384133D01*
X69601220Y-132396970D01*
X69553137Y-132420484D01*
X69484589Y-132453012D01*
X69464183Y-132464768D01*
X69400025Y-132519394D01*
X69340291Y-132590462D01*
X69298641Y-132647109D01*
X69182822Y-132768228D01*
X69066236Y-132836417D01*
X68948253Y-132851951D01*
X68828247Y-132815105D01*
X68630084Y-132725422D01*
X68415879Y-132660696D01*
X68222580Y-132638615D01*
X68139984Y-132639696D01*
X68099705Y-132646498D01*
X68092461Y-132664351D01*
X68108078Y-132698584D01*
X68127821Y-132738520D01*
X68133795Y-132758552D01*
X68132899Y-132763302D01*
X68145233Y-132802838D01*
X68172680Y-132872101D01*
X68209659Y-132958537D01*
X68250585Y-133049594D01*
X68289878Y-133132721D01*
X68321954Y-133195365D01*
X68341230Y-133224974D01*
X68341876Y-133225504D01*
X68381165Y-133276835D01*
X68429621Y-133367668D01*
X68482804Y-133486218D01*
X68536273Y-133620700D01*
X68585589Y-133759330D01*
X68626312Y-133890323D01*
X68654002Y-134001895D01*
X68664218Y-134082260D01*
X68664385Y-134090442D01*
X68671382Y-134163643D01*
X68686616Y-134266058D01*
X68707251Y-134378198D01*
X68722876Y-134466688D01*
X68736453Y-134596438D01*
X68740213Y-134744169D01*
X68735036Y-134927237D01*
X68734761Y-134933253D01*
X68723216Y-135126262D01*
X68706501Y-135330054D01*
X68686035Y-135531821D01*
X68663241Y-135718750D01*
X68639540Y-135878031D01*
X68616354Y-135996852D01*
X68611710Y-136016329D01*
X68584681Y-136128941D01*
X68558594Y-136236727D01*
X68553833Y-136257041D01*
X68531562Y-136369312D01*
X68515265Y-136476601D01*
X68512380Y-136499243D01*
X68495621Y-136601321D01*
X68476219Y-136689822D01*
X68465050Y-136750517D01*
X68455054Y-136852335D01*
X68451146Y-136961277D01*
X68448330Y-137051973D01*
X68439803Y-137142734D01*
X68427581Y-137201151D01*
X68416435Y-137240103D01*
X68399720Y-137324062D01*
X68385680Y-137421452D01*
X68375719Y-137492364D01*
X68359613Y-137574193D01*
X68344076Y-137623246D01*
X68325507Y-137665773D01*
X68295801Y-137743689D01*
X68262503Y-137837786D01*
X68230617Y-137925964D01*
X68200276Y-138000224D01*
X68179562Y-138040165D01*
X68153977Y-138080339D01*
X68111205Y-138160488D01*
X68062385Y-138260283D01*
X68015142Y-138363524D01*
X67977098Y-138454007D01*
X67955877Y-138515530D01*
X67934050Y-138582691D01*
X67902571Y-138648794D01*
X67893272Y-138665746D01*
X67864208Y-138736605D01*
X67837717Y-138822036D01*
X67830172Y-138848751D01*
X67796132Y-138944164D01*
X67759086Y-139021931D01*
X67721814Y-139101721D01*
X67695110Y-139190753D01*
X67668978Y-139272563D01*
X67625264Y-139354388D01*
X67623725Y-139356564D01*
X67584479Y-139422944D01*
X67563191Y-139478745D01*
X67557831Y-139499639D01*
X67533531Y-139567314D01*
X67498823Y-139648269D01*
X67485327Y-139678093D01*
X67438304Y-139789072D01*
X67396808Y-139895677D01*
X67379081Y-139941225D01*
X67349177Y-140005802D01*
X67327631Y-140037176D01*
X67316001Y-140051208D01*
X67304932Y-140099343D01*
X67290937Y-140150248D01*
X67254196Y-140211982D01*
X67245966Y-140223315D01*
X67205586Y-140298761D01*
X67174046Y-140385714D01*
X67167127Y-140408943D01*
X67136726Y-140482217D01*
X67104846Y-140527966D01*
X67083875Y-140550976D01*
X67065058Y-140598064D01*
X67061422Y-140623853D01*
X67039837Y-140681422D01*
X67020407Y-140717848D01*
X66967084Y-140825516D01*
X66921760Y-140927469D01*
X66890281Y-141010013D01*
X66878489Y-141059456D01*
X66862974Y-141112613D01*
X66825184Y-141174744D01*
X66823716Y-141176620D01*
X66787055Y-141231226D01*
X66771878Y-141268948D01*
X66771431Y-141273443D01*
X66757954Y-141321100D01*
X66729329Y-141402670D01*
X66690455Y-141505689D01*
X66646234Y-141617693D01*
X66601564Y-141726218D01*
X66561347Y-141818799D01*
X66530482Y-141882973D01*
X66520548Y-141902254D01*
X66490674Y-141971770D01*
X66478599Y-142019962D01*
X66478477Y-142022936D01*
X66463089Y-142074735D01*
X66429804Y-142140294D01*
X66421902Y-142153953D01*
X66384113Y-142235880D01*
X66353902Y-142324585D01*
X66340627Y-142393495D01*
X66336137Y-142408826D01*
X66315217Y-142453463D01*
X66297293Y-142479549D01*
X66267232Y-142500105D01*
X66265224Y-142477838D01*
X66283619Y-142410156D01*
X66321701Y-142300292D01*
X66378336Y-142151505D01*
X66452394Y-141967052D01*
X66478729Y-141902448D01*
X66521266Y-141797659D01*
X66572137Y-141672050D01*
X66625264Y-141540609D01*
X66673240Y-141423220D01*
X66728404Y-141291263D01*
X66777507Y-141176787D01*
X66813754Y-141095827D01*
X66840989Y-141036100D01*
X66868025Y-140972312D01*
X66878489Y-140940924D01*
X66886440Y-140915731D01*
X66911416Y-140854430D01*
X66947496Y-140772694D01*
X67024682Y-140603374D01*
X67086990Y-140467406D01*
X67133761Y-140366427D01*
X67168245Y-140293480D01*
X67193693Y-140241610D01*
X67213357Y-140203863D01*
X67239676Y-140145899D01*
X67251627Y-140099351D01*
X67257470Y-140073847D01*
X67286955Y-140023505D01*
X67295714Y-140010631D01*
X67326656Y-139950731D01*
X67366784Y-139860791D01*
X67409672Y-139754880D01*
X67421662Y-139724022D01*
X67470984Y-139600678D01*
X67519600Y-139483781D01*
X67558517Y-139395069D01*
X67596383Y-139309037D01*
X67645366Y-139191131D01*
X67691092Y-139075237D01*
X67722844Y-138992380D01*
X67812843Y-138762337D01*
X67897156Y-138553787D01*
X67972781Y-138373928D01*
X68036713Y-138229955D01*
X68085949Y-138129067D01*
X68112563Y-138077010D01*
X68203287Y-137868161D01*
X68281591Y-137639919D01*
X68343095Y-137408158D01*
X68383419Y-137188753D01*
X68398183Y-136997576D01*
X68398204Y-136993864D01*
X68405078Y-136875563D01*
X68422038Y-136726932D01*
X68446000Y-136568462D01*
X68473878Y-136420647D01*
X68502588Y-136303979D01*
X68503968Y-136299318D01*
X68542729Y-136141957D01*
X68579882Y-135943388D01*
X68613861Y-135715295D01*
X68643103Y-135469364D01*
X68666041Y-135217279D01*
X68681113Y-134970724D01*
X68685830Y-134790572D01*
X68676069Y-134496116D01*
X68641149Y-134213366D01*
X68578495Y-133924436D01*
X68485534Y-133611438D01*
X68481734Y-133599959D01*
X68457624Y-133531809D01*
X68431056Y-133468939D01*
X68395710Y-133398647D01*
X68345270Y-133308233D01*
X68273417Y-133184995D01*
X68227539Y-133100931D01*
X68169508Y-132983565D01*
X68117729Y-132868588D01*
X68115723Y-132863847D01*
X68071303Y-132765555D01*
X68028455Y-132681246D01*
X67996193Y-132628713D01*
X67964921Y-132580532D01*
X67931639Y-132507284D01*
X67922408Y-132473211D01*
X67928862Y-132462421D01*
X67960664Y-132479831D01*
X68026507Y-132527274D01*
X68097831Y-132574129D01*
X68178181Y-132604260D01*
X68276342Y-132612251D01*
X68348549Y-132615757D01*
X68553691Y-132656959D01*
X68772252Y-132742873D01*
X68800041Y-132754979D01*
X68903966Y-132786071D01*
X69001411Y-132798531D01*
X69038461Y-132797764D01*
X69088141Y-132789340D01*
X69131959Y-132764585D01*
X69182840Y-132714967D01*
X69253709Y-132631952D01*
X69268713Y-132614026D01*
X69339916Y-132532449D01*
X69401715Y-132466804D01*
X69442142Y-132429921D01*
X69453408Y-132422726D01*
X69530229Y-132388400D01*
X69637822Y-132353419D01*
X69758143Y-132322542D01*
X69873142Y-132300526D01*
X69964775Y-132292131D01*
X70040033Y-132287186D01*
X70143950Y-132258391D01*
X70212193Y-132207800D01*
X70236726Y-132139911D01*
X70231253Y-132101917D01*
X70193033Y-132026999D01*
X70131730Y-131968959D01*
X70063280Y-131945646D01*
X70026288Y-131941925D01*
X69986092Y-131925656D01*
X69980860Y-131922439D01*
X69933712Y-131909022D01*
X69851603Y-131893637D01*
X69748439Y-131879014D01*
X69530430Y-131852361D01*
X69522360Y-131727065D01*
X69516936Y-131671345D01*
X69499483Y-131613048D01*
X69460572Y-131562115D01*
X69389097Y-131499582D01*
X69337543Y-131458787D01*
X69237959Y-131384695D01*
X69149565Y-131323953D01*
X69112758Y-131297673D01*
X69045707Y-131235399D01*
X69006159Y-131178299D01*
X69002020Y-131168045D01*
X68924231Y-130987540D01*
X68855909Y-130853174D01*
X68798121Y-130766828D01*
X68751933Y-130730381D01*
X68711382Y-130716867D01*
X68671810Y-130687769D01*
X68662461Y-130641257D01*
X68682641Y-130568045D01*
X68731658Y-130458849D01*
X68748372Y-130423440D01*
X68806706Y-130269322D01*
X68825762Y-130143249D01*
X68805733Y-130038790D01*
X68746809Y-129949514D01*
X68728283Y-129930874D01*
X68670413Y-129885069D01*
X68626200Y-129866737D01*
X68614979Y-129869597D01*
X68565014Y-129899357D01*
X68493185Y-129954565D01*
X68411018Y-130026653D01*
X68343400Y-130088594D01*
X68277928Y-130142426D01*
X68226112Y-130171824D01*
X68174099Y-130184102D01*
X68108036Y-130186569D01*
X68069309Y-130185721D01*
X67994239Y-130173886D01*
X67961634Y-130146652D01*
X67961221Y-130145520D01*
X67962980Y-130104853D01*
X67991646Y-130044269D01*
X68049356Y-129961163D01*
X68138243Y-129852930D01*
X68260444Y-129716964D01*
X68418094Y-129550658D01*
X68613329Y-129351408D01*
X68723490Y-129240441D01*
X68865571Y-129099047D01*
X68977380Y-128992420D01*
X69063277Y-128918636D01*
X69127620Y-128875773D01*
X69174767Y-128861908D01*
X69209078Y-128875119D01*
X69234910Y-128913484D01*
X69256621Y-128975081D01*
X69278572Y-129057986D01*
X69292549Y-129118349D01*
X69324196Y-129356889D01*
X69320466Y-129591944D01*
X69282290Y-129810614D01*
X69210599Y-129999998D01*
X69203594Y-130013720D01*
X69175693Y-130076529D01*
X69175755Y-130097597D01*
X69203935Y-130075199D01*
X69207555Y-130071181D01*
X69249236Y-130006051D01*
X69296737Y-129906235D01*
X69343850Y-129787272D01*
X69384369Y-129664702D01*
X69412087Y-129554063D01*
X69414365Y-129541924D01*
X69433916Y-129360122D01*
X69429817Y-129176244D01*
X69403478Y-129007527D01*
X69356306Y-128871211D01*
X69293484Y-128745422D01*
X69460815Y-128578091D01*
X69568701Y-128652856D01*
X69601526Y-128676684D01*
X69730008Y-128786374D01*
X69863515Y-128921623D01*
X69989818Y-129068479D01*
X70096690Y-129212987D01*
X70171902Y-129341195D01*
X70181445Y-129361349D01*
X70223075Y-129455613D01*
X70252331Y-129532305D01*
X70263379Y-129576422D01*
X70274870Y-129629547D01*
X70303194Y-129697111D01*
X70320728Y-129746363D01*
X70333660Y-129827935D01*
X70340879Y-129946430D01*
X70343173Y-130109958D01*
X70343118Y-130159736D01*
X70341306Y-130291949D01*
X70335588Y-130388391D01*
X70324134Y-130462466D01*
X70305116Y-130527578D01*
X70276705Y-130597129D01*
X70247540Y-130668251D01*
X70220506Y-130747879D01*
X70210074Y-130798768D01*
X70205943Y-130828561D01*
X70183564Y-130866124D01*
X70161321Y-130887579D01*
X70127174Y-130938340D01*
X70119041Y-130953745D01*
X70110370Y-130977104D01*
X70128866Y-130970583D01*
X70182526Y-130933481D01*
X70218036Y-130904460D01*
X70290508Y-130831543D01*
X70358029Y-130749565D01*
X70410125Y-130672115D01*
X70474614Y-130562482D01*
X70535877Y-130445978D01*
X70587535Y-130335542D01*
X70623208Y-130244117D01*
X70636516Y-130184642D01*
X70636831Y-130175244D01*
X70647087Y-130105324D01*
X70667321Y-130023307D01*
X70671347Y-130008537D01*
X70685874Y-129882418D01*
X70678827Y-129724868D01*
X70652802Y-129549775D01*
X70610396Y-129371023D01*
X70554207Y-129202499D01*
X70486829Y-129058090D01*
X70461901Y-128998233D01*
X70471351Y-128955134D01*
X70472528Y-128953972D01*
X70491574Y-128941226D01*
X70514671Y-128943561D01*
X70547895Y-128966100D01*
X70597321Y-129013965D01*
X70669026Y-129092279D01*
X70769086Y-129206164D01*
X70844757Y-129295830D01*
X70928720Y-129406235D01*
X71005511Y-129523558D01*
X71084230Y-129661945D01*
X71173978Y-129835544D01*
X71368885Y-130224022D01*
X71369175Y-130495657D01*
X71368091Y-130599709D01*
X71361939Y-130706465D01*
X71349352Y-130775766D01*
X71329191Y-130816752D01*
X71324051Y-130823291D01*
X71282499Y-130884805D01*
X71239024Y-130959497D01*
X71230663Y-130974771D01*
X71190802Y-131039937D01*
X71159360Y-131080632D01*
X71138251Y-131101543D01*
X71087217Y-131154195D01*
X71024234Y-131220558D01*
X70973748Y-131277046D01*
X70942914Y-131320076D01*
X70945101Y-131333197D01*
X70975833Y-131318715D01*
X71030633Y-131278940D01*
X71105025Y-131216178D01*
X71194534Y-131132739D01*
X71262930Y-131067158D01*
X71338105Y-130997675D01*
X71392673Y-130950336D01*
X71418021Y-130932844D01*
X71428297Y-130942079D01*
X71436097Y-130984576D01*
X71439920Y-131015064D01*
X71459729Y-131050915D01*
X71472349Y-131056566D01*
X71494648Y-131052144D01*
X71515673Y-131023701D01*
X71536715Y-130966423D01*
X71559064Y-130875495D01*
X71584010Y-130746100D01*
X71612845Y-130573425D01*
X71646858Y-130352654D01*
X71655860Y-130287382D01*
X71677743Y-129968017D01*
X71664537Y-129652018D01*
X71617712Y-129349691D01*
X71538739Y-129071344D01*
X71429092Y-128827283D01*
X71419306Y-128810208D01*
X71313068Y-128659387D01*
X71168802Y-128497864D01*
X70996445Y-128334470D01*
X70805929Y-128178038D01*
X70607191Y-128037402D01*
X70410166Y-127921394D01*
X70355692Y-127889623D01*
X70295424Y-127844067D01*
X70268624Y-127808709D01*
X70274562Y-127777028D01*
X70305718Y-127712719D01*
X70355479Y-127636804D01*
X70407911Y-127566389D01*
X70536748Y-127397552D01*
X70664798Y-127234968D01*
X70782143Y-127091117D01*
X70878862Y-126978473D01*
X70908970Y-126944687D01*
X71060476Y-126768889D01*
X71176432Y-126621839D01*
X71260408Y-126497758D01*
X71315971Y-126390866D01*
X71346692Y-126295382D01*
X71356139Y-126205526D01*
X71352796Y-126139746D01*
X71336122Y-126088399D01*
X71296617Y-126037881D01*
X71224784Y-125971253D01*
X71221667Y-125968522D01*
X71063553Y-125857457D01*
X70857937Y-125757158D01*
X70609864Y-125670095D01*
X70547929Y-125651328D01*
X70470026Y-125626679D01*
X70423295Y-125610534D01*
X70387109Y-125596603D01*
X70313533Y-125568886D01*
X70223400Y-125535303D01*
X70128678Y-125499955D01*
X69998790Y-125451060D01*
X69876915Y-125404800D01*
X69773390Y-125368400D01*
X69631414Y-125324798D01*
X69503778Y-125291582D01*
X69498108Y-125290299D01*
X69402834Y-125266608D01*
X69328384Y-125244365D01*
X69290449Y-125228229D01*
X69288005Y-125226489D01*
X69240949Y-125209751D01*
X69170512Y-125198033D01*
X69137429Y-125193675D01*
X69087575Y-125172852D01*
X69068818Y-125129224D01*
X69060301Y-125069255D01*
X69640246Y-125069255D01*
X69675460Y-125069269D01*
X69877893Y-125070279D01*
X70042022Y-125073726D01*
X70180849Y-125080780D01*
X70307373Y-125092611D01*
X70434594Y-125110386D01*
X70575512Y-125135277D01*
X70743127Y-125168451D01*
X71014031Y-125238521D01*
X71369687Y-125377450D01*
X71712784Y-125566038D01*
X72040121Y-125802459D01*
X72348497Y-126084886D01*
X72351116Y-126087613D01*
X72402760Y-126151997D01*
X72468124Y-126246879D01*
X72537171Y-126356383D01*
X72599868Y-126464637D01*
X72646178Y-126555766D01*
X72663098Y-126589653D01*
X72701363Y-126646110D01*
X72732799Y-126668416D01*
X72740456Y-126668393D01*
X72760130Y-126664611D01*
X72766109Y-126645733D01*
X72758877Y-126599496D01*
X72738920Y-126513639D01*
X72707069Y-126406649D01*
X72634933Y-126230533D01*
X72541128Y-126049568D01*
X72435112Y-125883379D01*
X72430370Y-125876839D01*
X72358123Y-125787631D01*
X72256360Y-125674280D01*
X72134925Y-125546697D01*
X72003660Y-125414791D01*
X71872408Y-125288473D01*
X71751013Y-125177653D01*
X71649318Y-125092240D01*
X71644030Y-125088140D01*
X71567996Y-125034951D01*
X71474735Y-124977078D01*
X71376622Y-124921284D01*
X71286029Y-124874332D01*
X71215330Y-124842986D01*
X71176899Y-124834009D01*
X71169468Y-124834342D01*
X71120887Y-124826216D01*
X71049633Y-124807727D01*
X71013469Y-124800342D01*
X70913412Y-124790124D01*
X70766913Y-124782571D01*
X70578218Y-124777874D01*
X70351573Y-124776225D01*
X70349590Y-124776224D01*
X70137975Y-124775350D01*
X69975454Y-124772273D01*
X69857867Y-124766101D01*
X69781052Y-124755944D01*
X69740849Y-124740908D01*
X69733098Y-124720102D01*
X69753637Y-124692633D01*
X69798306Y-124657610D01*
X69816546Y-124644414D01*
X69922196Y-124558248D01*
X70031631Y-124455625D01*
X70133233Y-124348642D01*
X70215387Y-124249398D01*
X70266477Y-124169992D01*
X70272060Y-124158310D01*
X70298651Y-124092606D01*
X70311929Y-124027710D01*
X70314019Y-123945736D01*
X70307049Y-123828797D01*
X70298328Y-123730606D01*
X70280876Y-123613173D01*
X70252999Y-123517944D01*
X70208601Y-123426143D01*
X70141591Y-123318994D01*
X70136000Y-123310617D01*
X70019738Y-123154184D01*
X69894465Y-123014607D01*
X69770561Y-122902432D01*
X69658410Y-122828203D01*
X69610860Y-122803439D01*
X69534894Y-122760446D01*
X69485771Y-122728147D01*
X69473162Y-122718895D01*
X69409387Y-122698494D01*
X69361273Y-122726017D01*
X69338210Y-122797078D01*
X69336971Y-122834449D01*
X69348776Y-122874528D01*
X69386921Y-122908373D01*
X69462653Y-122949787D01*
X69500559Y-122970944D01*
X69630051Y-123079910D01*
X69727508Y-123225468D01*
X69788922Y-123400161D01*
X69810283Y-123596532D01*
X69810280Y-123599326D01*
X69798702Y-123727015D01*
X69760152Y-123837546D01*
X69687714Y-123944561D01*
X69574475Y-124061698D01*
X69552833Y-124081552D01*
X69443811Y-124169613D01*
X69332646Y-124234994D01*
X69209222Y-124280665D01*
X69063421Y-124309600D01*
X68885126Y-124324772D01*
X68664218Y-124329153D01*
X68525313Y-124328047D01*
X68378315Y-124322563D01*
X68244121Y-124310664D01*
X68106696Y-124290356D01*
X67950009Y-124259648D01*
X67758027Y-124216547D01*
X67691593Y-124199812D01*
X67425495Y-124104241D01*
X67189818Y-123971618D01*
X66991520Y-123805673D01*
X66971017Y-123785150D01*
X66880589Y-123703015D01*
X66792693Y-123634386D01*
X66723811Y-123592394D01*
X66660351Y-123558515D01*
X66620835Y-123514083D01*
X66601947Y-123444814D01*
X66589381Y-123388574D01*
X66542908Y-123252735D01*
X66466076Y-123073837D01*
X66359041Y-122852258D01*
X66311556Y-122745721D01*
X66265678Y-122619705D01*
X66225326Y-122487208D01*
X66192618Y-122357657D01*
X66169671Y-122240483D01*
X66158602Y-122145113D01*
X66161529Y-122080977D01*
X66180570Y-122057503D01*
X66184299Y-122057818D01*
X66226428Y-122086965D01*
X66281867Y-122158358D01*
X66346772Y-122264741D01*
X66417299Y-122398853D01*
X66489601Y-122553438D01*
X66559836Y-122721235D01*
X66624157Y-122894988D01*
X66644991Y-122952921D01*
X66683325Y-123047642D01*
X66716422Y-123115168D01*
X66738838Y-123143691D01*
X66755837Y-123145387D01*
X66785678Y-123120215D01*
X66808198Y-123053750D01*
X66823904Y-122943056D01*
X66833306Y-122785196D01*
X66836912Y-122577230D01*
X66836959Y-122562934D01*
X66836118Y-122388162D01*
X66831825Y-122254707D01*
X66823174Y-122151432D01*
X66809258Y-122067200D01*
X66789169Y-121990871D01*
X66758414Y-121895246D01*
X66678561Y-121684704D01*
X66597201Y-121524651D01*
X66513367Y-121413056D01*
X66466826Y-121360652D01*
X66429931Y-121296295D01*
X66440445Y-121255918D01*
X66498849Y-121238636D01*
X66605626Y-121243563D01*
X66869804Y-121290889D01*
X67091454Y-121364564D01*
X67267469Y-121463939D01*
X67306339Y-121488771D01*
X67368693Y-121516923D01*
X67418095Y-121527376D01*
X67438195Y-121515218D01*
X67438130Y-121514551D01*
X67426069Y-121484214D01*
X67399487Y-121428393D01*
X67375006Y-121385513D01*
X67269185Y-121263529D01*
X67121032Y-121156474D01*
X66938458Y-121070487D01*
X66890073Y-121047582D01*
X66854622Y-121009640D01*
X66864477Y-120972904D01*
X66914929Y-120941524D01*
X67001271Y-120919651D01*
X67118798Y-120911438D01*
X67255649Y-120924191D01*
X67432184Y-120963884D01*
X67622024Y-121025011D01*
X67809934Y-121101946D01*
X67980675Y-121189064D01*
X68119013Y-121280738D01*
X68151060Y-121304006D01*
X68199788Y-121326067D01*
X68221587Y-121313799D01*
X68219180Y-121273448D01*
X68195292Y-121211259D01*
X68152648Y-121133477D01*
X68093971Y-121046349D01*
X68021987Y-120956119D01*
X67939419Y-120869033D01*
X67901457Y-120833783D01*
X67712633Y-120690662D01*
X67518951Y-120593793D01*
X67325075Y-120543928D01*
X67135670Y-120541816D01*
X66955399Y-120588209D01*
X66788927Y-120683858D01*
X66779593Y-120690923D01*
X66706144Y-120740029D01*
X66663302Y-120751749D01*
X66649653Y-120723654D01*
X66663785Y-120653314D01*
X66704286Y-120538301D01*
X66710347Y-120522305D01*
X66765072Y-120354279D01*
X66810583Y-120174617D01*
X66839295Y-120012839D01*
X66839896Y-120007917D01*
X66843425Y-119863717D01*
X66811074Y-119749825D01*
X66737089Y-119654764D01*
X66615713Y-119567058D01*
X66595838Y-119561791D01*
X66589402Y-119587389D01*
X66598056Y-119655331D01*
X66605647Y-119714386D01*
X66599849Y-119760283D01*
X66572960Y-119782013D01*
X66534128Y-119781584D01*
X66472171Y-119743275D01*
X66406327Y-119669292D01*
X66345184Y-119567717D01*
X66309273Y-119498671D01*
X66256960Y-119416321D01*
X66213225Y-119376728D01*
X66173474Y-119374730D01*
X66146379Y-119390477D01*
X66135476Y-119423048D01*
X66153263Y-119478575D01*
X66201180Y-119567056D01*
X66224998Y-119610657D01*
X66253506Y-119675708D01*
X66260511Y-119713641D01*
X66239069Y-119725110D01*
X66198650Y-119702306D01*
X66149693Y-119653620D01*
X66102155Y-119589039D01*
X66065993Y-119518549D01*
X66037349Y-119455030D01*
X65992120Y-119392988D01*
X65927048Y-119345448D01*
X65831177Y-119304921D01*
X65693554Y-119263916D01*
X65676326Y-119259244D01*
X65582186Y-119231296D01*
X65510392Y-119201566D01*
X65446081Y-119160935D01*
X65374385Y-119100284D01*
X65280438Y-119010491D01*
X65088169Y-118835784D01*
X64792771Y-118615846D01*
X64474175Y-118434797D01*
X64433907Y-118415022D01*
X64337306Y-118369518D01*
X64265196Y-118342638D01*
X64200104Y-118330548D01*
X64124556Y-118329417D01*
X64021079Y-118335412D01*
X64001249Y-118336786D01*
X63882320Y-118346550D01*
X63773997Y-118357692D01*
X63697589Y-118368060D01*
X63676745Y-118371462D01*
X63626182Y-118374088D01*
X63582601Y-118359729D01*
X63531334Y-118321262D01*
X63457715Y-118251563D01*
X63379701Y-118181584D01*
X63285268Y-118108620D01*
X63204962Y-118057982D01*
X63193534Y-118052164D01*
X63146869Y-118030873D01*
X63100014Y-118016871D01*
X63042364Y-118009287D01*
X62963309Y-118007247D01*
X62852244Y-118009879D01*
X62698561Y-118016309D01*
X62685418Y-118016906D01*
X62513554Y-118025607D01*
X62332844Y-118036116D01*
X62163992Y-118047162D01*
X62027702Y-118057474D01*
X61958607Y-118062885D01*
X61835033Y-118068084D01*
X61750906Y-118061061D01*
X61697029Y-118038962D01*
X61664203Y-117998930D01*
X61643229Y-117938109D01*
X61622580Y-117897057D01*
X61563615Y-117857911D01*
X61513734Y-117851032D01*
X61416631Y-117848897D01*
X61297907Y-117853531D01*
X61172545Y-117863652D01*
X61055533Y-117877979D01*
X60961854Y-117895230D01*
X60906494Y-117914122D01*
X60864531Y-117915854D01*
X60809872Y-117883162D01*
X60759394Y-117826917D01*
X60727575Y-117759620D01*
X60714987Y-117719907D01*
X60681725Y-117679626D01*
X60617044Y-117664548D01*
X60575301Y-117664631D01*
X60487036Y-117697356D01*
X60408182Y-117776678D01*
X60337746Y-117904207D01*
X60274735Y-118081547D01*
X60218156Y-118310308D01*
X60201455Y-118387452D01*
X60178358Y-118486878D01*
X60159939Y-118557573D01*
X60149125Y-118587777D01*
X60133873Y-118592220D01*
X60093585Y-118565320D01*
X60040596Y-118499761D01*
X59979962Y-118402248D01*
X59916735Y-118279486D01*
X59894328Y-118233330D01*
X59833933Y-118126226D01*
X59784924Y-118069625D01*
X59746232Y-118062591D01*
X59716790Y-118104188D01*
X59713793Y-118128807D01*
X59722880Y-118197302D01*
X59746660Y-118281049D01*
X59761777Y-118327670D01*
X59774119Y-118404645D01*
X59753758Y-118439904D01*
X59699156Y-118434666D01*
X59608773Y-118390148D01*
X59548862Y-118357997D01*
X59339564Y-118282511D01*
X59111762Y-118248437D01*
X58876873Y-118255735D01*
X58646315Y-118304367D01*
X58431507Y-118394290D01*
X58422401Y-118399265D01*
X58323462Y-118457890D01*
X58268344Y-118503193D01*
X58251737Y-118541143D01*
X58268331Y-118577710D01*
X58278676Y-118597995D01*
X58276813Y-118639211D01*
X58253613Y-118705292D01*
X58206219Y-118806771D01*
X58203990Y-118811311D01*
X58146655Y-118941527D01*
X58107892Y-119056741D01*
X58089336Y-119148948D01*
X58092618Y-119210142D01*
X58119374Y-119232319D01*
X58119408Y-119232319D01*
X58160473Y-119210663D01*
X58199785Y-119158661D01*
X58204958Y-119149374D01*
X58258457Y-119078151D01*
X58340878Y-118990014D01*
X58439697Y-118896880D01*
X58542386Y-118810663D01*
X58636422Y-118743279D01*
X58729818Y-118697615D01*
X58860114Y-118673873D01*
X59010287Y-118689025D01*
X59188627Y-118743066D01*
X59198719Y-118746888D01*
X59294047Y-118785134D01*
X59370784Y-118819507D01*
X59413127Y-118842975D01*
X59462696Y-118871158D01*
X59532740Y-118899123D01*
X59589484Y-118925148D01*
X59622755Y-118968249D01*
X59604334Y-119014502D01*
X59534167Y-119057990D01*
X59518034Y-119064485D01*
X59443422Y-119089094D01*
X59389149Y-119099056D01*
X59342018Y-119107404D01*
X59269994Y-119132170D01*
X59191115Y-119166605D01*
X59119656Y-119203842D01*
X59069894Y-119237014D01*
X59056103Y-119259254D01*
X59069259Y-119271977D01*
X59117470Y-119287424D01*
X59124840Y-119290923D01*
X59098144Y-119304176D01*
X59034834Y-119323563D01*
X58995163Y-119335880D01*
X58912984Y-119371295D01*
X58858023Y-119408385D01*
X58852462Y-119413999D01*
X58794495Y-119467456D01*
X58726379Y-119524781D01*
X58679887Y-119572527D01*
X58622817Y-119656633D01*
X58579832Y-119746354D01*
X58562854Y-119820155D01*
X58562862Y-119820739D01*
X58580937Y-119832168D01*
X58627845Y-119811336D01*
X58694828Y-119763499D01*
X58773127Y-119693916D01*
X58791254Y-119677097D01*
X58864074Y-119625551D01*
X58921014Y-119610959D01*
X58948659Y-119618416D01*
X58980364Y-119651766D01*
X58969664Y-119696811D01*
X58916988Y-119739838D01*
X58895619Y-119751517D01*
X58829482Y-119799217D01*
X58759011Y-119869837D01*
X58676985Y-119971247D01*
X58576181Y-120111320D01*
X58558480Y-120136681D01*
X58487662Y-120236321D01*
X58422509Y-120325473D01*
X58375224Y-120387376D01*
X58367667Y-120396990D01*
X58314247Y-120474778D01*
X58274983Y-120546862D01*
X58243018Y-120596746D01*
X58196393Y-120613187D01*
X58184763Y-120609492D01*
X58149757Y-120574401D01*
X58138354Y-120525535D01*
X58158210Y-120487995D01*
X58169317Y-120469263D01*
X58182696Y-120408843D01*
X58189757Y-120324886D01*
X58191915Y-120247765D01*
X58191965Y-120177796D01*
X58186688Y-120148226D01*
X58174131Y-120151488D01*
X58152338Y-120180015D01*
X58112188Y-120249220D01*
X58062930Y-120360426D01*
X58019403Y-120483261D01*
X57988345Y-120598325D01*
X57976495Y-120686222D01*
X57975894Y-120707539D01*
X57963445Y-120783307D01*
X57939410Y-120829079D01*
X57925471Y-120851147D01*
X57909149Y-120916706D01*
X57895994Y-121026677D01*
X57885333Y-121185490D01*
X57878069Y-121317456D01*
X57859853Y-121597487D01*
X57839731Y-121844586D01*
X57818200Y-122053660D01*
X57795756Y-122219614D01*
X57772898Y-122337356D01*
X57753736Y-122409323D01*
X57703584Y-122570219D01*
X57645799Y-122728209D01*
X57586624Y-122866882D01*
X57532302Y-122969828D01*
X57515782Y-122996897D01*
X57483089Y-123055694D01*
X57470095Y-123087743D01*
X57460653Y-123101434D01*
X57418916Y-123147724D01*
X57349640Y-123219743D01*
X57259159Y-123310941D01*
X57153809Y-123414768D01*
X57138915Y-123429311D01*
X57010488Y-123556748D01*
X56911711Y-123660662D01*
X56833654Y-123752225D01*
X56767387Y-123842610D01*
X56703980Y-123942990D01*
X56634505Y-124064538D01*
X56613365Y-124103174D01*
X56546014Y-124240000D01*
X56498767Y-124368299D01*
X56467837Y-124503470D01*
X56449433Y-124660915D01*
X56439766Y-124856034D01*
X56437704Y-124923714D01*
X56431900Y-125084662D01*
X56424770Y-125203380D01*
X56414434Y-125288067D01*
X56399012Y-125346922D01*
X56376622Y-125388144D01*
X56345385Y-125419930D01*
X56303420Y-125450480D01*
X56170386Y-125552840D01*
X56008821Y-125705369D01*
X55858220Y-125875987D01*
X55730786Y-126050652D01*
X55638724Y-126215320D01*
X55607771Y-126287510D01*
X55520025Y-126542461D01*
X55451563Y-126820635D01*
X55407059Y-127100419D01*
X55391186Y-127360198D01*
X55391169Y-127366423D01*
X55384975Y-127498263D01*
X55369759Y-127633574D01*
X55348663Y-127744002D01*
X55343690Y-127765673D01*
X55328590Y-127874315D01*
X55318711Y-128018602D01*
X55313824Y-128187427D01*
X55313700Y-128369687D01*
X55318109Y-128554275D01*
X55326823Y-128730087D01*
X55339612Y-128886016D01*
X55356248Y-129010959D01*
X55376501Y-129093809D01*
X55387265Y-129120918D01*
X55429190Y-129213495D01*
X55479613Y-129312166D01*
X55530951Y-129403250D01*
X55575621Y-129473067D01*
X55606041Y-129507936D01*
X55624498Y-129511822D01*
X55629288Y-129489425D01*
X55609042Y-129452288D01*
X55595641Y-129429742D01*
X55566872Y-129350714D01*
X55532210Y-129224272D01*
X55492653Y-129053830D01*
X55483929Y-128999976D01*
X55475098Y-128898103D01*
X55470218Y-128775827D01*
X55469061Y-128643669D01*
X55471398Y-128512153D01*
X55477001Y-128391800D01*
X55485642Y-128293133D01*
X55497092Y-128226675D01*
X55511123Y-128202948D01*
X55515585Y-128204934D01*
X55544461Y-128238957D01*
X55587133Y-128306244D01*
X55636097Y-128395248D01*
X55770322Y-128633341D01*
X55966639Y-128912856D01*
X56188611Y-129154244D01*
X56443682Y-129365324D01*
X56739298Y-129553915D01*
X56825727Y-129599137D01*
X56916286Y-129639502D01*
X56982078Y-129661190D01*
X57054519Y-129676140D01*
X57140490Y-129694753D01*
X57148137Y-129696383D01*
X57172063Y-129696714D01*
X57151159Y-129678255D01*
X57083631Y-129639255D01*
X57062634Y-129627670D01*
X56802156Y-129456347D01*
X56578965Y-129252823D01*
X56556108Y-129227895D01*
X56492934Y-129148593D01*
X56473334Y-129099644D01*
X56497632Y-129080651D01*
X56566153Y-129091221D01*
X56679222Y-129130959D01*
X56773722Y-129164208D01*
X56870928Y-129189833D01*
X56941587Y-129199179D01*
X57030325Y-129197938D01*
X56907914Y-129134165D01*
X56859663Y-129106406D01*
X56731301Y-129012549D01*
X56603797Y-128895652D01*
X56492905Y-128771041D01*
X56414379Y-128654040D01*
X56349451Y-128519964D01*
X56279267Y-128349226D01*
X56222455Y-128182791D01*
X56186584Y-128041029D01*
X56179231Y-127999747D01*
X56144325Y-127659540D01*
X56152981Y-127302124D01*
X56205309Y-126920902D01*
X56220147Y-126880722D01*
X56271604Y-126802507D01*
X56347641Y-126715014D01*
X56437071Y-126628722D01*
X56528713Y-126554111D01*
X56611381Y-126501660D01*
X56673891Y-126481847D01*
X56713294Y-126495279D01*
X56762216Y-126555116D01*
X56802454Y-126657044D01*
X56831694Y-126794668D01*
X56847621Y-126961595D01*
X56847762Y-126964563D01*
X56857274Y-127100500D01*
X56873934Y-127205935D01*
X56902723Y-127303216D01*
X56948622Y-127414691D01*
X56951563Y-127421320D01*
X57001744Y-127540538D01*
X57048891Y-127662280D01*
X57083154Y-127761176D01*
X57101961Y-127819579D01*
X57165813Y-127996110D01*
X57238609Y-128172158D01*
X57314540Y-128335007D01*
X57387800Y-128471937D01*
X57452580Y-128570230D01*
X57461797Y-128581807D01*
X57547323Y-128680253D01*
X57668019Y-128808018D01*
X57819247Y-128960414D01*
X57996373Y-129132756D01*
X58194758Y-129320357D01*
X58227399Y-129351721D01*
X58330536Y-129465696D01*
X58429255Y-129601494D01*
X58534299Y-129773453D01*
X58600169Y-129888170D01*
X58675410Y-130019047D01*
X58742639Y-130135831D01*
X58792607Y-130222445D01*
X58811896Y-130257316D01*
X58872583Y-130409667D01*
X58886953Y-130554183D01*
X58853851Y-130696758D01*
X58772127Y-130843285D01*
X58640626Y-130999660D01*
X58607729Y-131032805D01*
X58406231Y-131194031D01*
X58182444Y-131307369D01*
X57938555Y-131371662D01*
X57933652Y-131372435D01*
X57841481Y-131391003D01*
X57773380Y-131412027D01*
X57743778Y-131431102D01*
X57748157Y-131447071D01*
X57785921Y-131485984D01*
X57850692Y-131530500D01*
X57899076Y-131557179D01*
X57946774Y-131576595D01*
X58002575Y-131588887D01*
X58077780Y-131595670D01*
X58183687Y-131598557D01*
X58331595Y-131599161D01*
X58372881Y-131599148D01*
X58508121Y-131598331D01*
X58605286Y-131594817D01*
X58676552Y-131586645D01*
X58734098Y-131571852D01*
X58790102Y-131548476D01*
X58856741Y-131514556D01*
X58915847Y-131481846D01*
X58992205Y-131430924D01*
X59065502Y-131367862D01*
X59147256Y-131282372D01*
X59248984Y-131164164D01*
X59265490Y-131145161D01*
X59318244Y-131100788D01*
X59357723Y-131103932D01*
X59391504Y-131154053D01*
X59396401Y-131169579D01*
X59393744Y-131246674D01*
X59364633Y-131353621D01*
X59313705Y-131480793D01*
X59245593Y-131618566D01*
X59164934Y-131757314D01*
X59076362Y-131887411D01*
X58984512Y-131999232D01*
X58936261Y-132047355D01*
X58775667Y-132171086D01*
X58584310Y-132276228D01*
X58488400Y-132317210D01*
X58368959Y-132363270D01*
X58245618Y-132406991D01*
X58131670Y-132443871D01*
X58040407Y-132469410D01*
X57985122Y-132479107D01*
X57958499Y-132482306D01*
X57896537Y-132506662D01*
X57892032Y-132510194D01*
X57898470Y-132521253D01*
X57952437Y-132523194D01*
X58056453Y-132516166D01*
X58070906Y-132514842D01*
X58169129Y-132503245D01*
X58244960Y-132489982D01*
X58283001Y-132477670D01*
X58290009Y-132473386D01*
X58341915Y-132455306D01*
X58416265Y-132439187D01*
X58430849Y-132436744D01*
X58489001Y-132425495D01*
X58542121Y-132410602D01*
X58603442Y-132387129D01*
X58686196Y-132350140D01*
X58803618Y-132294698D01*
X58934577Y-132216282D01*
X59080407Y-132100440D01*
X59221936Y-131963224D01*
X59345177Y-131818247D01*
X59436144Y-131679119D01*
X59476335Y-131611342D01*
X59521866Y-131550868D01*
X59555266Y-131524494D01*
X59564618Y-131524617D01*
X59607958Y-131551961D01*
X59655394Y-131612132D01*
X59680187Y-131655788D01*
X59697373Y-131702840D01*
X59704669Y-131761019D01*
X59703676Y-131844303D01*
X59695996Y-131966671D01*
X59688899Y-132076377D01*
X59686855Y-132161884D01*
X59692570Y-132218470D01*
X59707485Y-132258963D01*
X59733044Y-132296190D01*
X59737745Y-132302414D01*
X59781562Y-132381025D01*
X59812724Y-132469414D01*
X59819458Y-132495787D01*
X59832918Y-132532155D01*
X59839505Y-132524505D01*
X59846354Y-132498440D01*
X59882162Y-132461685D01*
X59884764Y-132460567D01*
X59912924Y-132419505D01*
X59922141Y-132330831D01*
X59924247Y-132272088D01*
X59936488Y-132215270D01*
X59958274Y-132209852D01*
X59988025Y-132255507D01*
X60024162Y-132351908D01*
X60044613Y-132416562D01*
X60077345Y-132526444D01*
X60093948Y-132599550D01*
X60095287Y-132645238D01*
X60082230Y-132672866D01*
X60055644Y-132691792D01*
X60055146Y-132692061D01*
X60017648Y-132732952D01*
X60003088Y-132805969D01*
X60011268Y-132916533D01*
X60041994Y-133070067D01*
X60053963Y-133119146D01*
X60093559Y-133259158D01*
X60141950Y-133392259D01*
X60208372Y-133544806D01*
X60225591Y-133588103D01*
X60259413Y-133729110D01*
X60279684Y-133917944D01*
X60295227Y-134134765D01*
X60322883Y-134449663D01*
X60355259Y-134755038D01*
X60390176Y-135029001D01*
X60399934Y-135101613D01*
X60414473Y-135225807D01*
X60424315Y-135331714D01*
X60427731Y-135402138D01*
X60424410Y-135459282D01*
X60414870Y-135480301D01*
X60400911Y-135458017D01*
X60384313Y-135397485D01*
X60366852Y-135303762D01*
X60350306Y-135181905D01*
X60346582Y-135150408D01*
X60329884Y-135021806D01*
X60312182Y-134901082D01*
X60296735Y-134810808D01*
X60283238Y-134736978D01*
X60263654Y-134622451D01*
X60241260Y-134486263D01*
X60218727Y-134344387D01*
X60198416Y-134227240D01*
X60162841Y-134053644D01*
X60122911Y-133884765D01*
X60084038Y-133744701D01*
X60052740Y-133639060D01*
X60001320Y-133441015D01*
X59960200Y-133249801D01*
X59932307Y-133079731D01*
X59920566Y-132945121D01*
X59917794Y-132908348D01*
X59899812Y-132806763D01*
X59871271Y-132705662D01*
X59824533Y-132572813D01*
X59806998Y-132679009D01*
X59797811Y-132768639D01*
X59792367Y-132895028D01*
X59790642Y-133042395D01*
X59792460Y-133195897D01*
X59797641Y-133340695D01*
X59806009Y-133461945D01*
X59817385Y-133544806D01*
X59834213Y-133627034D01*
X59858836Y-133763158D01*
X59887402Y-133937663D01*
X59921140Y-134157818D01*
X59938325Y-134263104D01*
X59963406Y-134401631D01*
X59989009Y-134530955D01*
X60030142Y-134734682D01*
X60068198Y-134946206D01*
X60103210Y-135170892D01*
X60116611Y-135251180D01*
X60142822Y-135380008D01*
X60170279Y-135490724D01*
X60192887Y-135572687D01*
X60248719Y-135807626D01*
X60283375Y-136012505D01*
X60295278Y-136178640D01*
X60293697Y-136258801D01*
X60283872Y-136320715D01*
X60259039Y-136363094D01*
X60212463Y-136404287D01*
X60180977Y-136430352D01*
X60151860Y-136464895D01*
X60134761Y-136510832D01*
X60125127Y-136582124D01*
X60118407Y-136692735D01*
X60114722Y-136804549D01*
X60118720Y-136889429D01*
X60133080Y-136952419D01*
X60159917Y-137009654D01*
X60205881Y-137093114D01*
X60277058Y-137238314D01*
X60324662Y-137365530D01*
X60355133Y-137490626D01*
X60366860Y-137563434D01*
X60373399Y-137631366D01*
X60370388Y-137663051D01*
X60341367Y-137671999D01*
X60295238Y-137638297D01*
X60237054Y-137554845D01*
X60166397Y-137421021D01*
X60082847Y-137236202D01*
X60025790Y-137102939D01*
X59976896Y-137167704D01*
X59965299Y-137185754D01*
X59932931Y-137263944D01*
X59912440Y-137354273D01*
X59908859Y-137381705D01*
X59881134Y-137558540D01*
X59851342Y-137690819D01*
X59820442Y-137774166D01*
X59799239Y-137834814D01*
X59788877Y-137914979D01*
X59783109Y-137970966D01*
X59752231Y-138069959D01*
X59702628Y-138163472D01*
X59643360Y-138235787D01*
X59583490Y-138271190D01*
X59575939Y-138272741D01*
X59363249Y-138320607D01*
X59198361Y-138366625D01*
X59083972Y-138410046D01*
X58982713Y-138458097D01*
X59000965Y-138683048D01*
X59019218Y-138908000D01*
X58901879Y-139020431D01*
X58865910Y-139056319D01*
X58814533Y-139119249D01*
X58780737Y-139187058D01*
X58760980Y-139271824D01*
X58751722Y-139385628D01*
X58749423Y-139540548D01*
X58749120Y-139584957D01*
X58746020Y-139684243D01*
X58740283Y-139756772D01*
X58732797Y-139789274D01*
X58718543Y-139817506D01*
X58692822Y-139883850D01*
X58661219Y-139973256D01*
X58628694Y-140071202D01*
X58600207Y-140163167D01*
X58580715Y-140234628D01*
X58579980Y-140237488D01*
X58555941Y-140294984D01*
X58511350Y-140378083D01*
X58455256Y-140469822D01*
X58421405Y-140524550D01*
X58362323Y-140649926D01*
X58343103Y-140759225D01*
X58361181Y-140863175D01*
X58364188Y-140874973D01*
X58358446Y-140918987D01*
X58324285Y-140978225D01*
X58256255Y-141063070D01*
X58236411Y-141086480D01*
X58163788Y-141176312D01*
X58093630Y-141268501D01*
X58033792Y-141352169D01*
X57992129Y-141416441D01*
X57976495Y-141450439D01*
X57975310Y-141454765D01*
X57954193Y-141491807D01*
X57915014Y-141549051D01*
X57905886Y-141562030D01*
X57851954Y-141649339D01*
X57804356Y-141740504D01*
X57794651Y-141761458D01*
X57754826Y-141846108D01*
X57722167Y-141913746D01*
X57720319Y-141917578D01*
X57694167Y-141988846D01*
X57666836Y-142088009D01*
X57641606Y-142199273D01*
X57621756Y-142306839D01*
X57610566Y-142394912D01*
X57611315Y-142447695D01*
X57614525Y-142478945D01*
X57600026Y-142500105D01*
X57592701Y-142499395D01*
X57563658Y-142468755D01*
X57558151Y-142397736D01*
X57576929Y-142293055D01*
X57585335Y-142259418D01*
X57607057Y-142159336D01*
X57621066Y-142075883D01*
X57639146Y-141993132D01*
X57668720Y-141915967D01*
X57670912Y-141911801D01*
X57707914Y-141836668D01*
X57745850Y-141753407D01*
X57754071Y-141735346D01*
X57801165Y-141646106D01*
X57854848Y-141558992D01*
X57874474Y-141529169D01*
X57909370Y-141470138D01*
X57923190Y-141436946D01*
X57936837Y-141410375D01*
X57976495Y-141367367D01*
X58011857Y-141328734D01*
X58029801Y-141292948D01*
X58031632Y-141286650D01*
X58057643Y-141244941D01*
X58108009Y-141178101D01*
X58174476Y-141097295D01*
X58319152Y-140927819D01*
X58303986Y-140780882D01*
X58299314Y-140729147D01*
X58299781Y-140666640D01*
X58314459Y-140611311D01*
X58348760Y-140546182D01*
X58408095Y-140454276D01*
X58462196Y-140368073D01*
X58523862Y-140252750D01*
X58560632Y-140159288D01*
X58568137Y-140097432D01*
X58575325Y-140066002D01*
X58597699Y-139999498D01*
X58630396Y-139912473D01*
X58655516Y-139843016D01*
X58680314Y-139745835D01*
X58692727Y-139638010D01*
X58696118Y-139498361D01*
X58696146Y-139480346D01*
X58700105Y-139336448D01*
X58713942Y-139230391D01*
X58742210Y-139148392D01*
X58789462Y-139076664D01*
X58860249Y-139001425D01*
X58969408Y-138895490D01*
X58951613Y-138699125D01*
X58946945Y-138639183D01*
X58946692Y-138528023D01*
X58965286Y-138451202D01*
X59007150Y-138396424D01*
X59076708Y-138351393D01*
X59089892Y-138344647D01*
X59136196Y-138323729D01*
X59190813Y-138304835D01*
X59264746Y-138284908D01*
X59368995Y-138260893D01*
X59514563Y-138229730D01*
X59577599Y-138213581D01*
X59637570Y-138183539D01*
X59678543Y-138133456D01*
X59708620Y-138052334D01*
X59735900Y-137929171D01*
X59738174Y-137917756D01*
X59760381Y-137823996D01*
X59784579Y-137742603D01*
X59798330Y-137696928D01*
X59821026Y-137604393D01*
X59841837Y-137502729D01*
X59854947Y-137433978D01*
X59877743Y-137323928D01*
X59897951Y-137236202D01*
X59903168Y-137215081D01*
X59919741Y-137140844D01*
X59927951Y-137092283D01*
X59951907Y-137057897D01*
X60006541Y-137026472D01*
X60082057Y-136997968D01*
X60082057Y-136724756D01*
X60082132Y-136653219D01*
X60083784Y-136553725D01*
X60089784Y-136489598D01*
X60102945Y-136449140D01*
X60126084Y-136420650D01*
X60162015Y-136392428D01*
X60202277Y-136359373D01*
X60228397Y-136320561D01*
X60239004Y-136263917D01*
X60240384Y-136171746D01*
X60238106Y-136105793D01*
X60227858Y-135982618D01*
X60212508Y-135876915D01*
X60205724Y-135841968D01*
X60184447Y-135727232D01*
X60166409Y-135623597D01*
X60160481Y-135591213D01*
X60141759Y-135514273D01*
X60123325Y-135465885D01*
X60109991Y-135426526D01*
X60094585Y-135348913D01*
X60081758Y-135252782D01*
X60048236Y-135030489D01*
X59971751Y-134725158D01*
X59962104Y-134686060D01*
X59945911Y-134591940D01*
X59934587Y-134490202D01*
X59928414Y-134428463D01*
X59916215Y-134352072D01*
X59903255Y-134309326D01*
X59901717Y-134306739D01*
X59892312Y-134283208D01*
X59882443Y-134241889D01*
X59870998Y-134175747D01*
X59856865Y-134077746D01*
X59838931Y-133940851D01*
X59816083Y-133758028D01*
X59811779Y-133724723D01*
X59794949Y-133615086D01*
X59777244Y-133524623D01*
X59761854Y-133470257D01*
X59761393Y-133469104D01*
X59753238Y-133421432D01*
X59746150Y-133330385D01*
X59740559Y-133205385D01*
X59736890Y-133055852D01*
X59735572Y-132891206D01*
X59735281Y-132735647D01*
X59733766Y-132592916D01*
X59730294Y-132488305D01*
X59724140Y-132413567D01*
X59714578Y-132360453D01*
X59700882Y-132320717D01*
X59682326Y-132286112D01*
X59668330Y-132261778D01*
X59648746Y-132213951D01*
X59639570Y-132156104D01*
X59639248Y-132073914D01*
X59646229Y-131953054D01*
X59650543Y-131878031D01*
X59650357Y-131757879D01*
X59636428Y-131680150D01*
X59607044Y-131638308D01*
X59560491Y-131625814D01*
X59529315Y-131646167D01*
X59480638Y-131700284D01*
X59425289Y-131776336D01*
X59359144Y-131869941D01*
X59180221Y-132075368D01*
X58983229Y-132241806D01*
X58776076Y-132362122D01*
X58712591Y-132390765D01*
X58597633Y-132441568D01*
X58516571Y-132474846D01*
X58459425Y-132494182D01*
X58416213Y-132503156D01*
X58376954Y-132505352D01*
X58319436Y-132511966D01*
X58284741Y-132529189D01*
X58262244Y-132544481D01*
X58193652Y-132564138D01*
X58093029Y-132580848D01*
X57972783Y-132593651D01*
X57845323Y-132601585D01*
X57723057Y-132603689D01*
X57618392Y-132599003D01*
X57543737Y-132586567D01*
X57498926Y-132570913D01*
X57455091Y-132539754D01*
X57443442Y-132493023D01*
X57447428Y-132469831D01*
X57490807Y-132420846D01*
X57576243Y-132388365D01*
X57696642Y-132375675D01*
X57743669Y-132371045D01*
X57834816Y-132356366D01*
X57951762Y-132334095D01*
X58080480Y-132306750D01*
X58192437Y-132282699D01*
X58308353Y-132259955D01*
X58399083Y-132244515D01*
X58451276Y-132238825D01*
X58506589Y-132227868D01*
X58601257Y-132187503D01*
X58712771Y-132124712D01*
X58828813Y-132047219D01*
X58937066Y-131962746D01*
X59025212Y-131879014D01*
X59062399Y-131836252D01*
X59144997Y-131725244D01*
X59209987Y-131615794D01*
X59246562Y-131525175D01*
X59247572Y-131521263D01*
X59274850Y-131445440D01*
X59313528Y-131365139D01*
X59329435Y-131333517D01*
X59356762Y-131248132D01*
X59359736Y-131176012D01*
X59336737Y-131133329D01*
X59325597Y-131133491D01*
X59289506Y-131162621D01*
X59245918Y-131220605D01*
X59225166Y-131250799D01*
X59160356Y-131328725D01*
X59082519Y-131407804D01*
X59003339Y-131477426D01*
X58934502Y-131526980D01*
X58887696Y-131545856D01*
X58849721Y-131556670D01*
X58795451Y-131592498D01*
X58789312Y-131597688D01*
X58757222Y-131615486D01*
X58707643Y-131628240D01*
X58631621Y-131637095D01*
X58520202Y-131643200D01*
X58364433Y-131647701D01*
X58289359Y-131649353D01*
X58160386Y-131651274D01*
X58068172Y-131649699D01*
X58001411Y-131643137D01*
X57948793Y-131630097D01*
X57899011Y-131609086D01*
X57840755Y-131578612D01*
X57753917Y-131526108D01*
X57706186Y-131480072D01*
X57688299Y-131431054D01*
X57686493Y-131405404D01*
X57701238Y-131365748D01*
X57754930Y-131346270D01*
X57775945Y-131342013D01*
X57859781Y-131324282D01*
X57952329Y-131303969D01*
X57990306Y-131295975D01*
X58060294Y-131284248D01*
X58098918Y-131282168D01*
X58136272Y-131279172D01*
X58211892Y-131248389D01*
X58304525Y-131192126D01*
X58312555Y-131186692D01*
X58364540Y-131158274D01*
X58393227Y-131154123D01*
X58399163Y-131153507D01*
X58434783Y-131128470D01*
X58492855Y-131077928D01*
X58563565Y-131011288D01*
X58637099Y-130937958D01*
X58703644Y-130867347D01*
X58753386Y-130808863D01*
X58784484Y-130760846D01*
X58817126Y-130689593D01*
X58819603Y-130681095D01*
X58831474Y-130607693D01*
X58835605Y-130517708D01*
X58832498Y-130428535D01*
X58822652Y-130357569D01*
X58806566Y-130322205D01*
X58801347Y-130318012D01*
X58770925Y-130275223D01*
X58738117Y-130208842D01*
X58734831Y-130201226D01*
X58686462Y-130112181D01*
X58628103Y-130029871D01*
X58611133Y-130009097D01*
X58579232Y-129964478D01*
X58574146Y-129946695D01*
X58575221Y-129939299D01*
X58557298Y-129899195D01*
X58520238Y-129835907D01*
X58497735Y-129798878D01*
X58461697Y-129732276D01*
X58445238Y-129690625D01*
X58445213Y-129690458D01*
X58421912Y-129639376D01*
X58368949Y-129563386D01*
X58295869Y-129473593D01*
X58212219Y-129381103D01*
X58127543Y-129297018D01*
X58051387Y-129232445D01*
X57949673Y-129148667D01*
X57807825Y-129014600D01*
X57640885Y-128841992D01*
X57451663Y-128633648D01*
X57399054Y-128572490D01*
X57361797Y-128525453D01*
X57352093Y-128507451D01*
X57352413Y-128502076D01*
X57334002Y-128465289D01*
X57296526Y-128405127D01*
X57279178Y-128377655D01*
X57239173Y-128303417D01*
X57218179Y-128247597D01*
X57208289Y-128213129D01*
X57179968Y-128137726D01*
X57142146Y-128050078D01*
X57103775Y-127958855D01*
X57057560Y-127835316D01*
X57017354Y-127714940D01*
X56980274Y-127606595D01*
X56929674Y-127479090D01*
X56880871Y-127373524D01*
X56857606Y-127327108D01*
X56829042Y-127257257D01*
X56812778Y-127186388D01*
X56805471Y-127097089D01*
X56803778Y-126971945D01*
X56803700Y-126940498D01*
X56800680Y-126822065D01*
X56791394Y-126738323D01*
X56773288Y-126674027D01*
X56743809Y-126613933D01*
X56725427Y-126583193D01*
X56688250Y-126529889D01*
X56664850Y-126508705D01*
X56632005Y-126525202D01*
X56572868Y-126568722D01*
X56499609Y-126628971D01*
X56424278Y-126695653D01*
X56358924Y-126758470D01*
X56315599Y-126807126D01*
X56298500Y-126833606D01*
X56257734Y-126937640D01*
X56229386Y-127084968D01*
X56213013Y-127278539D01*
X56208171Y-127521302D01*
X56208604Y-127587079D01*
X56214973Y-127812214D01*
X56229187Y-127990725D01*
X56251771Y-128127542D01*
X56283250Y-128227597D01*
X56287959Y-128238671D01*
X56321053Y-128323385D01*
X56353130Y-128414166D01*
X56360454Y-128435376D01*
X56391066Y-128510506D01*
X56418440Y-128560756D01*
X56419284Y-128561894D01*
X56450244Y-128615373D01*
X56482485Y-128686621D01*
X56511681Y-128737910D01*
X56587006Y-128824351D01*
X56690119Y-128915135D01*
X56808697Y-128999775D01*
X56930419Y-129067787D01*
X56961824Y-129082958D01*
X57029273Y-129122017D01*
X57060856Y-129157641D01*
X57067521Y-129200420D01*
X57066872Y-129222223D01*
X57066355Y-129302603D01*
X57067480Y-129394753D01*
X57067535Y-129397199D01*
X57071957Y-129469602D01*
X57088607Y-129516823D01*
X57128729Y-129556255D01*
X57203568Y-129605295D01*
X57282089Y-129659986D01*
X57328029Y-129711812D01*
X57325632Y-129753663D01*
X57276222Y-129788885D01*
X57263066Y-129793853D01*
X57221800Y-129797851D01*
X57162904Y-129786656D01*
X57076187Y-129757747D01*
X56951454Y-129708606D01*
X56865853Y-129672771D01*
X56769990Y-129630209D01*
X56701801Y-129596972D01*
X56672242Y-129578179D01*
X56671780Y-129577536D01*
X56641143Y-129551791D01*
X56578656Y-129507788D01*
X56497272Y-129454670D01*
X56427987Y-129406948D01*
X56279171Y-129284025D01*
X56122778Y-129132465D01*
X55970285Y-128964515D01*
X55833169Y-128792421D01*
X55722906Y-128628428D01*
X55678006Y-128551024D01*
X55626221Y-128455181D01*
X55590849Y-128381400D01*
X55577755Y-128341284D01*
X55574378Y-128319038D01*
X55547699Y-128278800D01*
X55539785Y-128279700D01*
X55530777Y-128310055D01*
X55526277Y-128380057D01*
X55526073Y-128494213D01*
X55529953Y-128657028D01*
X55535275Y-128805787D01*
X55542594Y-128929895D01*
X55553650Y-129027999D01*
X55570657Y-129114342D01*
X55595835Y-129203169D01*
X55631400Y-129308722D01*
X55666387Y-129414531D01*
X55695143Y-129526913D01*
X55699829Y-129600726D01*
X55680536Y-129641188D01*
X55637353Y-129653516D01*
X55633485Y-129653316D01*
X55608608Y-129642249D01*
X55579055Y-129610216D01*
X55541546Y-129551617D01*
X55492801Y-129460855D01*
X55429540Y-129332329D01*
X55348482Y-129160441D01*
X55331630Y-129123840D01*
X55310517Y-129073040D01*
X55295274Y-129022911D01*
X55284914Y-128964457D01*
X55278453Y-128888682D01*
X55274906Y-128786591D01*
X55273288Y-128649186D01*
X55272614Y-128467472D01*
X55272595Y-128458773D01*
X55273321Y-128285838D01*
X55275956Y-128122744D01*
X55280182Y-127980355D01*
X55285681Y-127869537D01*
X55292134Y-127801155D01*
X55300724Y-127736103D01*
X55312825Y-127623404D01*
X55325376Y-127488446D01*
X55336720Y-127348059D01*
X55347101Y-127228051D01*
X55361564Y-127098316D01*
X55376930Y-126991046D01*
X55391232Y-126921616D01*
X55396170Y-126903278D01*
X55416652Y-126798801D01*
X55428024Y-126694345D01*
X55430356Y-126662275D01*
X55442131Y-126584137D01*
X55458353Y-126534429D01*
X55476862Y-126495886D01*
X55507172Y-126420799D01*
X55540917Y-126328773D01*
X55571139Y-126249416D01*
X55619943Y-126138050D01*
X55665922Y-126048920D01*
X55673297Y-126037068D01*
X55729369Y-125962003D01*
X55812785Y-125863758D01*
X55913565Y-125752825D01*
X56021729Y-125639698D01*
X56127295Y-125534869D01*
X56220283Y-125448830D01*
X56290714Y-125392074D01*
X56377335Y-125332152D01*
X56377335Y-124954713D01*
X56378477Y-124797099D01*
X56383670Y-124675584D01*
X56395673Y-124573462D01*
X56417245Y-124474023D01*
X56451144Y-124360562D01*
X56500130Y-124216370D01*
X56506399Y-124196977D01*
X56514218Y-124163064D01*
X56520072Y-124148885D01*
X56548340Y-124109759D01*
X56576297Y-124069781D01*
X56620954Y-123997323D01*
X56671287Y-123909864D01*
X56702854Y-123859223D01*
X56793988Y-123740040D01*
X56923170Y-123594162D01*
X57087401Y-123425083D01*
X57144634Y-123367809D01*
X57282715Y-123223490D01*
X57390089Y-123097748D01*
X57474342Y-122979085D01*
X57543059Y-122856002D01*
X57603823Y-122716999D01*
X57664219Y-122550578D01*
X57686814Y-122482075D01*
X57709953Y-122402907D01*
X57729192Y-122321492D01*
X57745470Y-122230543D01*
X57759723Y-122122778D01*
X57772891Y-121990911D01*
X57785912Y-121827659D01*
X57799723Y-121625736D01*
X57815264Y-121377860D01*
X57826280Y-121212342D01*
X57840205Y-121047540D01*
X57854814Y-120926427D01*
X57870782Y-120843644D01*
X57888783Y-120793831D01*
X57891550Y-120788549D01*
X57914797Y-120715863D01*
X57929354Y-120604494D01*
X57936192Y-120447346D01*
X57936940Y-120411609D01*
X57942639Y-120285271D01*
X57954593Y-120191101D01*
X57975804Y-120111990D01*
X58009273Y-120030833D01*
X58042639Y-119964144D01*
X58086299Y-119890370D01*
X58120274Y-119847664D01*
X58144477Y-119822146D01*
X58163064Y-119781384D01*
X58168528Y-119768490D01*
X58203904Y-119721714D01*
X58264885Y-119653445D01*
X58342970Y-119573504D01*
X58459802Y-119470171D01*
X58648676Y-119336811D01*
X58849165Y-119227770D01*
X59042602Y-119154234D01*
X59071770Y-119145516D01*
X59162611Y-119113773D01*
X59233283Y-119082998D01*
X59307894Y-119057160D01*
X59394769Y-119045751D01*
X59395734Y-119045749D01*
X59474101Y-119034834D01*
X59535733Y-119009026D01*
X59554858Y-118990559D01*
X59552737Y-118971631D01*
X59522411Y-118946913D01*
X59457135Y-118910921D01*
X59350162Y-118858171D01*
X59234874Y-118805056D01*
X59129384Y-118765769D01*
X59032675Y-118743538D01*
X58925232Y-118732597D01*
X58901480Y-118731206D01*
X58806448Y-118728543D01*
X58740199Y-118736665D01*
X58682447Y-118760192D01*
X58612908Y-118803746D01*
X58588521Y-118820800D01*
X58473127Y-118918083D01*
X58340607Y-119055199D01*
X58187267Y-119235901D01*
X58169170Y-119257199D01*
X58116066Y-119301077D01*
X58070323Y-119302848D01*
X58055841Y-119295881D01*
X58036469Y-119271100D01*
X58031419Y-119221656D01*
X58038032Y-119133611D01*
X58042685Y-119098012D01*
X58069496Y-118988649D01*
X58108334Y-118908714D01*
X58112027Y-118903644D01*
X58148493Y-118843915D01*
X58164009Y-118800293D01*
X58173707Y-118761156D01*
X58201009Y-118700797D01*
X58222625Y-118641430D01*
X58207443Y-118588266D01*
X58206062Y-118586008D01*
X58195874Y-118550035D01*
X58214672Y-118508471D01*
X58268569Y-118447207D01*
X58300896Y-118415402D01*
X58347801Y-118375923D01*
X58371455Y-118365719D01*
X58373461Y-118366790D01*
X58405787Y-118356763D01*
X58459057Y-118324125D01*
X58493322Y-118302749D01*
X58619683Y-118252255D01*
X58776901Y-118218157D01*
X58951470Y-118200719D01*
X59129883Y-118200203D01*
X59298633Y-118216874D01*
X59444214Y-118250993D01*
X59553118Y-118302823D01*
X59615210Y-118341629D01*
X59659733Y-118350214D01*
X59676462Y-118314813D01*
X59670281Y-118232495D01*
X59664355Y-118185327D01*
X59665053Y-118083792D01*
X59692106Y-118025152D01*
X59746564Y-118006296D01*
X59747195Y-118006298D01*
X59819147Y-118029237D01*
X59881026Y-118099319D01*
X59935467Y-118219518D01*
X59947551Y-118251714D01*
X59981855Y-118328238D01*
X60012076Y-118378111D01*
X60031980Y-118405145D01*
X60063843Y-118466055D01*
X60064212Y-118467090D01*
X60088596Y-118508294D01*
X60114393Y-118498478D01*
X60142159Y-118436911D01*
X60172449Y-118322859D01*
X60174121Y-118315429D01*
X60194941Y-118217602D01*
X60209708Y-118138700D01*
X60215320Y-118095200D01*
X60218051Y-118072566D01*
X60243729Y-117995644D01*
X60289053Y-117900014D01*
X60344897Y-117802235D01*
X60402131Y-117718868D01*
X60451629Y-117666475D01*
X60524429Y-117626925D01*
X60616055Y-117610823D01*
X60696368Y-117629239D01*
G37*
G36*
X65496443Y-130434494D02*
G01*
X65519018Y-130465095D01*
X65573358Y-130524835D01*
X65642119Y-130591951D01*
X65711186Y-130662020D01*
X65793317Y-130758392D01*
X65871207Y-130861313D01*
X65936810Y-130959419D01*
X65982074Y-131041345D01*
X65998951Y-131095728D01*
X65998470Y-131103208D01*
X65986894Y-131115629D01*
X65955289Y-131101857D01*
X65897579Y-131058253D01*
X65807684Y-130981177D01*
X65766258Y-130944523D01*
X65676954Y-130864168D01*
X65601997Y-130794999D01*
X65554341Y-130748893D01*
X65509419Y-130688096D01*
X65467684Y-130596950D01*
X65445843Y-130505706D01*
X65450744Y-130435107D01*
X65458895Y-130414917D01*
X65473849Y-130400970D01*
X65496443Y-130434494D01*
G37*
G36*
X61603473Y-131777282D02*
G01*
X61608482Y-131799861D01*
X61611851Y-131869237D01*
X61612371Y-131976438D01*
X61610382Y-132112949D01*
X61606226Y-132270254D01*
X61600243Y-132439837D01*
X61592773Y-132613183D01*
X61584157Y-132781776D01*
X61574736Y-132937100D01*
X61564850Y-133070639D01*
X61554839Y-133173878D01*
X61545045Y-133238301D01*
X61536685Y-133272238D01*
X61501414Y-133389797D01*
X61461462Y-133498164D01*
X61439484Y-133544309D01*
X61401819Y-133602156D01*
X61371429Y-133624764D01*
X61369096Y-133624489D01*
X61350251Y-133594297D01*
X61338607Y-133519341D01*
X61334226Y-133406932D01*
X61337172Y-133264383D01*
X61347508Y-133099008D01*
X61365298Y-132918117D01*
X61369263Y-132882828D01*
X61380641Y-132749658D01*
X61382091Y-132632804D01*
X61373123Y-132509469D01*
X61353248Y-132356858D01*
X61337875Y-132255276D01*
X61319904Y-132145797D01*
X61304843Y-132063918D01*
X61294888Y-132022240D01*
X61292064Y-132007207D01*
X61310165Y-131952742D01*
X61358349Y-131891588D01*
X61424193Y-131833604D01*
X61495276Y-131788652D01*
X61559176Y-131766591D01*
X61603473Y-131777282D01*
G37*
G36*
X65133245Y-120339280D02*
G01*
X65178908Y-120378582D01*
X65247541Y-120441633D01*
X65329767Y-120519942D01*
X65371437Y-120560989D01*
X65458701Y-120655633D01*
X65511045Y-120730292D01*
X65534594Y-120793132D01*
X65540801Y-120847718D01*
X65527775Y-120880362D01*
X65487781Y-120870268D01*
X65417453Y-120818154D01*
X65402818Y-120806113D01*
X65349849Y-120767210D01*
X65318501Y-120751522D01*
X65317606Y-120751592D01*
X65308152Y-120777403D01*
X65311789Y-120841241D01*
X65326501Y-120930695D01*
X65350272Y-121033355D01*
X65381086Y-121136809D01*
X65401230Y-121202294D01*
X65416188Y-121267713D01*
X65416138Y-121298798D01*
X65407541Y-121305371D01*
X65358819Y-121307790D01*
X65302437Y-121275806D01*
X65255350Y-121217944D01*
X65206380Y-121142776D01*
X65145749Y-121069338D01*
X65125980Y-121048813D01*
X65006717Y-120921965D01*
X64912824Y-120816571D01*
X64848707Y-120737737D01*
X64818774Y-120690569D01*
X64794825Y-120649527D01*
X64770673Y-120650308D01*
X64753079Y-120694704D01*
X64746275Y-120777635D01*
X64741415Y-120855814D01*
X64721890Y-120957541D01*
X64691761Y-121043731D01*
X64655723Y-121101832D01*
X64618471Y-121119293D01*
X64618193Y-121119238D01*
X64582262Y-121089988D01*
X64553303Y-121031375D01*
X64529876Y-120962893D01*
X64501047Y-120893502D01*
X64487314Y-120844904D01*
X64489370Y-120776625D01*
X64509963Y-120721122D01*
X64544667Y-120698217D01*
X64560282Y-120700797D01*
X64592374Y-120729588D01*
X64592502Y-120729969D01*
X64613080Y-120753368D01*
X64637493Y-120735977D01*
X64657955Y-120688927D01*
X64666681Y-120623349D01*
X64668474Y-120560211D01*
X64682447Y-120469336D01*
X64712832Y-120419945D01*
X64762710Y-120405037D01*
X64803239Y-120412758D01*
X64826233Y-120445016D01*
X64829240Y-120463408D01*
X64852886Y-120484995D01*
X64860149Y-120486064D01*
X64879538Y-120513147D01*
X64879621Y-120514223D01*
X64899320Y-120547957D01*
X64946952Y-120606082D01*
X65012802Y-120676681D01*
X65146065Y-120812063D01*
X65146065Y-120729419D01*
X65144991Y-120707280D01*
X65130974Y-120620513D01*
X65105918Y-120528524D01*
X65088531Y-120463843D01*
X65081431Y-120389138D01*
X65092470Y-120340638D01*
X65120731Y-120330616D01*
X65133245Y-120339280D01*
G37*
G36*
X57581112Y-128176728D02*
G01*
X57638203Y-128203132D01*
X57732118Y-128249741D01*
X57743603Y-128255364D01*
X57809501Y-128282986D01*
X57853624Y-128294229D01*
X57884938Y-128302632D01*
X57938085Y-128333361D01*
X57948613Y-128341652D01*
X57971268Y-128368574D01*
X57952936Y-128375458D01*
X57900021Y-128363592D01*
X57818931Y-128334262D01*
X57716071Y-128288755D01*
X57690601Y-128276625D01*
X57600731Y-128233577D01*
X57548360Y-128207036D01*
X57524833Y-128191602D01*
X57521495Y-128181872D01*
X57529689Y-128172445D01*
X57534852Y-128168284D01*
X57550208Y-128166465D01*
X57581112Y-128176728D01*
G37*
G36*
X66521635Y-132115052D02*
G01*
X66549351Y-132182204D01*
X66575513Y-132281700D01*
X66597737Y-132405441D01*
X66613639Y-132545331D01*
X66619899Y-132614038D01*
X66633494Y-132732795D01*
X66648120Y-132830794D01*
X66661535Y-132891816D01*
X66682696Y-132962915D01*
X66703315Y-133044128D01*
X66710429Y-133067325D01*
X66741666Y-133101429D01*
X66778559Y-133089832D01*
X66807437Y-133033880D01*
X66822145Y-133004386D01*
X66850043Y-132997318D01*
X66858037Y-133006688D01*
X66872153Y-133062620D01*
X66877839Y-133156268D01*
X66875487Y-133277004D01*
X66865493Y-133414202D01*
X66848250Y-133557237D01*
X66824152Y-133695482D01*
X66812346Y-133753069D01*
X66785391Y-133888193D01*
X66761276Y-134013587D01*
X66744116Y-134108046D01*
X66709547Y-134266809D01*
X66654839Y-134429863D01*
X66589580Y-134552706D01*
X66569433Y-134587959D01*
X66534020Y-134674071D01*
X66505621Y-134770829D01*
X66492743Y-134824477D01*
X66464210Y-134933764D01*
X66437980Y-135024030D01*
X66427055Y-135059762D01*
X66399816Y-135153513D01*
X66366584Y-135271736D01*
X66332251Y-135397167D01*
X66307769Y-135486225D01*
X66226989Y-135753264D01*
X66139934Y-135995472D01*
X66038310Y-136234554D01*
X65913822Y-136492218D01*
X65899831Y-136519880D01*
X65774477Y-136767919D01*
X65671034Y-136973102D01*
X65587450Y-137139655D01*
X65521670Y-137271803D01*
X65471643Y-137373773D01*
X65435315Y-137449791D01*
X65410634Y-137504081D01*
X65395546Y-137540871D01*
X65387999Y-137564386D01*
X65385939Y-137578852D01*
X65383679Y-137597619D01*
X65362487Y-137634014D01*
X65361465Y-137634708D01*
X65338423Y-137671918D01*
X65306598Y-137756804D01*
X65265473Y-137890905D01*
X65214533Y-138075761D01*
X65209214Y-138095782D01*
X65172185Y-138236523D01*
X65144703Y-138345060D01*
X65122719Y-138438528D01*
X65102180Y-138534061D01*
X65079035Y-138648794D01*
X65078602Y-138650973D01*
X65052079Y-138780409D01*
X65023190Y-138915127D01*
X64998115Y-139026306D01*
X64982068Y-139103408D01*
X64965799Y-139207888D01*
X64959496Y-139287698D01*
X64959357Y-139300852D01*
X64951042Y-139419210D01*
X64931431Y-139574638D01*
X64902691Y-139754512D01*
X64866987Y-139946210D01*
X64826483Y-140137109D01*
X64783345Y-140314586D01*
X64775614Y-140344010D01*
X64738471Y-140484221D01*
X64710402Y-140587132D01*
X64687901Y-140664945D01*
X64667463Y-140729861D01*
X64645582Y-140794082D01*
X64631911Y-140829747D01*
X64583189Y-140934868D01*
X64528401Y-141032511D01*
X64502609Y-141076913D01*
X64467047Y-141155169D01*
X64453096Y-141212669D01*
X64446863Y-141251450D01*
X64425525Y-141274082D01*
X64418279Y-141267956D01*
X64411493Y-141225279D01*
X64413595Y-141156427D01*
X64422875Y-141078665D01*
X64437620Y-141009259D01*
X64456119Y-140965476D01*
X64477912Y-140927298D01*
X64513400Y-140845067D01*
X64553804Y-140737226D01*
X64594112Y-140618007D01*
X64629313Y-140501642D01*
X64654395Y-140402365D01*
X64665158Y-140345518D01*
X64683916Y-140224090D01*
X64702226Y-140082535D01*
X64717320Y-139941143D01*
X64727741Y-139838105D01*
X64740392Y-139732208D01*
X64751810Y-139655652D01*
X64760399Y-139620326D01*
X64760678Y-139619833D01*
X64769619Y-139582922D01*
X64782260Y-139504639D01*
X64796962Y-139396155D01*
X64812081Y-139268642D01*
X64815963Y-139234199D01*
X64880234Y-138777018D01*
X64968537Y-138326977D01*
X65083808Y-137872412D01*
X65228980Y-137401656D01*
X65406987Y-136903043D01*
X65424339Y-136857134D01*
X65482999Y-136701292D01*
X65540008Y-136548982D01*
X65589600Y-136415636D01*
X65626012Y-136316685D01*
X65677706Y-136176547D01*
X65760608Y-135959112D01*
X65839727Y-135760181D01*
X65912370Y-135586141D01*
X65975842Y-135443379D01*
X66027450Y-135338280D01*
X66064498Y-135277230D01*
X66085614Y-135241707D01*
X66124940Y-135157965D01*
X66174840Y-135039141D01*
X66231710Y-134893886D01*
X66291951Y-134730850D01*
X66319658Y-134659972D01*
X66371231Y-134545669D01*
X66421446Y-134450997D01*
X66472126Y-134363633D01*
X66512465Y-134282888D01*
X66544637Y-134199121D01*
X66574884Y-134095922D01*
X66609450Y-133956884D01*
X66619804Y-133913736D01*
X66648645Y-133795326D01*
X66674419Y-133691806D01*
X66692542Y-133621672D01*
X66707966Y-133551755D01*
X66717372Y-133468769D01*
X66714368Y-133408289D01*
X66698584Y-133384891D01*
X66679471Y-133395698D01*
X66636613Y-133439575D01*
X66585081Y-133503941D01*
X66536189Y-133574371D01*
X66501254Y-133636440D01*
X66475217Y-133683300D01*
X66453059Y-133704722D01*
X66451117Y-133701526D01*
X66446721Y-133659457D01*
X66443938Y-133574787D01*
X66442633Y-133455427D01*
X66442669Y-133309287D01*
X66443909Y-133144279D01*
X66446218Y-132968312D01*
X66449458Y-132789296D01*
X66453494Y-132615143D01*
X66458189Y-132453763D01*
X66463407Y-132313066D01*
X66469011Y-132200963D01*
X66474864Y-132125364D01*
X66480831Y-132094180D01*
X66494747Y-132088340D01*
X66521635Y-132115052D01*
G37*
G36*
X61507494Y-121977718D02*
G01*
X61569015Y-121983032D01*
X61595556Y-122001259D01*
X61601259Y-122039735D01*
X61597515Y-122081555D01*
X61583491Y-122119693D01*
X61563617Y-122131586D01*
X61504474Y-122132124D01*
X61438017Y-122106955D01*
X61383803Y-122065208D01*
X61361385Y-122016013D01*
X61365252Y-122001757D01*
X61401156Y-121983169D01*
X61481322Y-121977545D01*
X61507494Y-121977718D01*
G37*
G36*
X60162815Y-127932674D02*
G01*
X60214847Y-127982904D01*
X60263464Y-128062913D01*
X60305525Y-128161753D01*
X60337886Y-128268475D01*
X60357405Y-128372131D01*
X60360941Y-128461772D01*
X60345352Y-128526451D01*
X60307495Y-128555219D01*
X60281874Y-128552916D01*
X60215811Y-128527292D01*
X60141146Y-128481924D01*
X60098786Y-128452052D01*
X60042184Y-128415224D01*
X60013316Y-128400840D01*
X60012265Y-128401959D01*
X60025078Y-128430231D01*
X60061447Y-128488844D01*
X60115032Y-128567419D01*
X60136560Y-128598385D01*
X60198561Y-128691821D01*
X60260839Y-128790688D01*
X60317487Y-128884986D01*
X60362597Y-128964720D01*
X60390261Y-129019892D01*
X60394573Y-129040504D01*
X60392532Y-129039376D01*
X60364242Y-129012133D01*
X60309170Y-128954009D01*
X60234167Y-128872338D01*
X60146080Y-128774452D01*
X60125582Y-128751591D01*
X60037557Y-128656281D01*
X59962037Y-128578942D01*
X59906493Y-128527012D01*
X59878393Y-128507925D01*
X59866663Y-128511802D01*
X59834068Y-128553470D01*
X59800660Y-128631263D01*
X59770973Y-128733234D01*
X59749542Y-128847436D01*
X59743420Y-128886365D01*
X59709216Y-128998057D01*
X59647896Y-129077819D01*
X59549003Y-129140957D01*
X59506521Y-129164785D01*
X59463301Y-129210675D01*
X59446874Y-129280332D01*
X59446096Y-129288431D01*
X59438405Y-129342945D01*
X59425685Y-129351806D01*
X59400231Y-129321880D01*
X59396907Y-129317259D01*
X59373104Y-129273364D01*
X59364530Y-129221347D01*
X59370733Y-129146760D01*
X59391261Y-129035153D01*
X59401634Y-128987881D01*
X59451564Y-128814835D01*
X59515484Y-128653853D01*
X59588240Y-128515141D01*
X59664676Y-128408907D01*
X59739638Y-128345358D01*
X59795306Y-128328656D01*
X59872008Y-128327033D01*
X59925237Y-128327532D01*
X59943850Y-128309619D01*
X59943341Y-128305700D01*
X59947785Y-128250479D01*
X59963981Y-128167928D01*
X59986898Y-128078039D01*
X60011506Y-128000807D01*
X60032773Y-127956225D01*
X60063663Y-127934876D01*
X60125505Y-127921092D01*
X60162815Y-127932674D01*
G37*
G36*
X58829381Y-123502767D02*
G01*
X58819937Y-123566961D01*
X58776076Y-123637153D01*
X58741580Y-123676313D01*
X58722770Y-123723034D01*
X58719953Y-123741640D01*
X58698070Y-123763274D01*
X58694910Y-123763845D01*
X58665698Y-123791323D01*
X58631438Y-123847327D01*
X58614721Y-123881460D01*
X58593239Y-123932721D01*
X58597773Y-123945232D01*
X58628090Y-123924349D01*
X58653909Y-123909501D01*
X58712093Y-123917745D01*
X58737363Y-123937295D01*
X58731215Y-123961965D01*
X58686836Y-124004615D01*
X58679965Y-124010734D01*
X58634682Y-124060065D01*
X58616160Y-124096977D01*
X58605101Y-124124697D01*
X58559176Y-124184193D01*
X58485645Y-124261696D01*
X58393271Y-124349305D01*
X58290817Y-124439121D01*
X58187049Y-124523244D01*
X58090729Y-124593775D01*
X58010622Y-124642813D01*
X57993921Y-124651499D01*
X57909196Y-124697755D01*
X57847435Y-124735084D01*
X57821021Y-124756086D01*
X57818481Y-124761305D01*
X57794419Y-124778297D01*
X57772713Y-124753861D01*
X57763274Y-124697972D01*
X57763662Y-124681602D01*
X57778587Y-124630743D01*
X57823243Y-124611323D01*
X57835227Y-124609203D01*
X57871981Y-124585939D01*
X57878193Y-124529512D01*
X57881181Y-124479106D01*
X57896514Y-124456244D01*
X57904242Y-124452605D01*
X57942320Y-124418698D01*
X58001001Y-124356812D01*
X58071166Y-124276338D01*
X58077300Y-124269063D01*
X58175228Y-124155915D01*
X58285966Y-124032116D01*
X58386710Y-123923190D01*
X58396048Y-123913307D01*
X58495937Y-123804693D01*
X58601069Y-123686275D01*
X58690160Y-123581985D01*
X58829381Y-123414022D01*
X58829381Y-123502767D01*
G37*
G36*
X58687982Y-120254753D02*
G01*
X58689160Y-120256626D01*
X58681311Y-120289742D01*
X58650349Y-120343534D01*
X58619629Y-120394097D01*
X58573964Y-120477783D01*
X58520217Y-120581465D01*
X58463896Y-120693960D01*
X58410505Y-120804085D01*
X58365551Y-120900657D01*
X58334541Y-120972492D01*
X58322980Y-121008408D01*
X58309533Y-121039140D01*
X58269675Y-121084680D01*
X58235175Y-121128297D01*
X58216370Y-121184731D01*
X58216148Y-121190457D01*
X58202279Y-121252727D01*
X58173465Y-121326955D01*
X58152930Y-121364491D01*
X58117581Y-121399331D01*
X58092585Y-121384185D01*
X58083106Y-121319482D01*
X58085444Y-121295736D01*
X58103044Y-121217205D01*
X58134124Y-121109526D01*
X58174175Y-120986245D01*
X58218693Y-120860907D01*
X58263171Y-120747056D01*
X58303102Y-120658238D01*
X58319432Y-120627545D01*
X58380914Y-120530455D01*
X58452988Y-120436220D01*
X58527694Y-120353186D01*
X58597069Y-120289699D01*
X58653152Y-120254106D01*
X58687982Y-120254753D01*
G37*
G36*
X64525044Y-122679014D02*
G01*
X64558100Y-122754946D01*
X64594108Y-122882302D01*
X64606363Y-122933627D01*
X64622435Y-123019794D01*
X64619951Y-123069214D01*
X64596950Y-123091775D01*
X64551470Y-123097366D01*
X64512564Y-123101761D01*
X64453868Y-123122569D01*
X64432090Y-123133878D01*
X64404247Y-123136951D01*
X64403814Y-123136387D01*
X64402345Y-123102855D01*
X64409011Y-123032902D01*
X64421435Y-122941369D01*
X64437242Y-122843099D01*
X64454055Y-122752935D01*
X64469499Y-122685718D01*
X64481197Y-122656293D01*
X64494067Y-122652760D01*
X64525044Y-122679014D01*
G37*
G36*
X60958900Y-131066185D02*
G01*
X61000416Y-131088975D01*
X61045410Y-131138573D01*
X61078859Y-131194929D01*
X61085741Y-131237994D01*
X61052449Y-131274193D01*
X61004898Y-131270984D01*
X60962533Y-131227776D01*
X60951143Y-131202015D01*
X60936929Y-131139987D01*
X60938632Y-131087946D01*
X60956949Y-131066107D01*
X60958900Y-131066185D01*
G37*
G36*
X63967472Y-127521312D02*
G01*
X64030794Y-127529139D01*
X64066148Y-127547172D01*
X64067375Y-127581744D01*
X64039462Y-127654259D01*
X63982837Y-127754139D01*
X63900997Y-127874450D01*
X63872268Y-127911636D01*
X63806510Y-127977639D01*
X63754556Y-128001050D01*
X63732905Y-127999357D01*
X63712800Y-127983921D01*
X63707123Y-127941492D01*
X63711990Y-127859123D01*
X63713426Y-127844292D01*
X63744037Y-127717282D01*
X63800949Y-127614759D01*
X63877021Y-127546256D01*
X63965111Y-127521302D01*
X63967472Y-127521312D01*
G37*
G36*
X62071027Y-136977672D02*
G01*
X62091045Y-137039321D01*
X62102175Y-137134756D01*
X62110016Y-137295607D01*
X61862301Y-137528980D01*
X61854283Y-137536519D01*
X61756223Y-137626280D01*
X61668498Y-137702450D01*
X61600414Y-137757186D01*
X61561280Y-137782645D01*
X61549201Y-137786268D01*
X61489962Y-137785972D01*
X61437381Y-137765375D01*
X61414691Y-137732434D01*
X61414810Y-137728408D01*
X61439182Y-137658145D01*
X61504392Y-137559875D01*
X61608206Y-137436549D01*
X61748392Y-137291122D01*
X61759196Y-137280434D01*
X61852038Y-137185963D01*
X61930147Y-137102010D01*
X61985596Y-137037353D01*
X62010462Y-137000775D01*
X62019968Y-136978584D01*
X62046031Y-136955523D01*
X62071027Y-136977672D01*
G37*
G36*
X66514617Y-123773200D02*
G01*
X66528634Y-123777227D01*
X66611245Y-123816377D01*
X66698840Y-123877823D01*
X66781281Y-123951620D01*
X66848430Y-124027821D01*
X66890150Y-124096482D01*
X66896302Y-124147657D01*
X66891112Y-124161956D01*
X66881372Y-124181020D01*
X66861808Y-124185297D01*
X66818556Y-124175035D01*
X66737749Y-124150480D01*
X66681633Y-124130087D01*
X66582971Y-124082285D01*
X66485510Y-124023475D01*
X66401126Y-123961821D01*
X66341697Y-123905491D01*
X66319099Y-123862650D01*
X66326025Y-123836072D01*
X66370019Y-123794539D01*
X66438988Y-123770789D01*
X66514617Y-123773200D01*
G37*
G36*
X63810568Y-124531110D02*
G01*
X63718293Y-124590131D01*
X63613536Y-124643756D01*
X63491049Y-124700268D01*
X63292405Y-124787830D01*
X63102541Y-124866867D01*
X62934326Y-124932085D01*
X62800630Y-124978190D01*
X62738085Y-124998919D01*
X62666698Y-125026489D01*
X62628720Y-125046455D01*
X62608671Y-125058097D01*
X62552939Y-125069255D01*
X62542164Y-125070597D01*
X62483681Y-125089187D01*
X62397450Y-125125069D01*
X62297953Y-125172384D01*
X62270465Y-125186035D01*
X62165060Y-125234948D01*
X62071575Y-125273519D01*
X62007566Y-125294372D01*
X62004034Y-125295168D01*
X61940539Y-125316411D01*
X61904682Y-125340770D01*
X61898649Y-125347382D01*
X61848989Y-125358224D01*
X61766642Y-125346202D01*
X61662720Y-125313734D01*
X61548337Y-125263239D01*
X61493636Y-125231093D01*
X61384918Y-125150838D01*
X61264560Y-125047017D01*
X61143601Y-124930487D01*
X61033081Y-124812109D01*
X60944039Y-124702740D01*
X60887515Y-124613241D01*
X60850895Y-124514829D01*
X60829730Y-124360040D01*
X60831128Y-124229696D01*
X60876372Y-124296328D01*
X61009646Y-124485886D01*
X61152413Y-124675467D01*
X61292689Y-124849065D01*
X61426077Y-125001874D01*
X61548182Y-125129091D01*
X61654610Y-125225909D01*
X61740963Y-125287523D01*
X61802846Y-125309129D01*
X61837957Y-125308393D01*
X61853488Y-125300961D01*
X61832565Y-125278641D01*
X61771837Y-125233230D01*
X61710312Y-125182797D01*
X61604884Y-125081483D01*
X61484024Y-124952523D01*
X61356230Y-124805448D01*
X61229998Y-124649791D01*
X61113826Y-124495084D01*
X61055836Y-124413038D01*
X62548955Y-124413038D01*
X62560756Y-124429591D01*
X62589129Y-124442075D01*
X62647358Y-124453313D01*
X62707414Y-124454978D01*
X62751207Y-124447071D01*
X62760651Y-124429591D01*
X62753728Y-124423390D01*
X62705645Y-124408929D01*
X62632478Y-124403347D01*
X62582572Y-124404909D01*
X62548955Y-124413038D01*
X61055836Y-124413038D01*
X61008985Y-124346752D01*
X60906519Y-124197142D01*
X60819940Y-124065732D01*
X60816190Y-124059717D01*
X62454145Y-124059717D01*
X62471630Y-124075131D01*
X62524336Y-124080710D01*
X62594394Y-124073715D01*
X62663486Y-124054594D01*
X62700516Y-124034218D01*
X62716747Y-123997997D01*
X62711638Y-123929683D01*
X62690790Y-123802433D01*
X62670513Y-123716780D01*
X62649282Y-123670525D01*
X62624870Y-123656664D01*
X62619113Y-123656956D01*
X62598700Y-123667378D01*
X62582474Y-123700235D01*
X62566855Y-123765680D01*
X62548260Y-123873870D01*
X62546399Y-123884313D01*
X62523778Y-123956656D01*
X62493419Y-124003734D01*
X62472366Y-124024876D01*
X62454145Y-124059717D01*
X60816190Y-124059717D01*
X60753203Y-123958686D01*
X60710261Y-123882168D01*
X60695068Y-123842339D01*
X60681850Y-123824391D01*
X60628437Y-123827524D01*
X60582440Y-123832688D01*
X60562649Y-123814382D01*
X60589394Y-123772999D01*
X60595590Y-123763843D01*
X60595604Y-123712112D01*
X60564404Y-123622748D01*
X60536212Y-123548499D01*
X60499403Y-123433748D01*
X60468129Y-123318511D01*
X60447146Y-123232345D01*
X60416430Y-123113569D01*
X60392691Y-123036545D01*
X60373264Y-122994592D01*
X60355480Y-122981028D01*
X60336674Y-122989171D01*
X60312283Y-122993963D01*
X60256689Y-122973997D01*
X60189373Y-122931721D01*
X60124166Y-122877622D01*
X60074900Y-122822188D01*
X60055404Y-122775904D01*
X60067292Y-122742036D01*
X60111844Y-122724013D01*
X60176950Y-122735738D01*
X60249246Y-122777125D01*
X60252255Y-122779480D01*
X60303123Y-122815544D01*
X60333336Y-122830431D01*
X60336837Y-122822656D01*
X60339705Y-122773687D01*
X60338145Y-122689656D01*
X60332210Y-122582192D01*
X60314761Y-122333954D01*
X60493392Y-122129136D01*
X60537120Y-122080401D01*
X60630445Y-121983724D01*
X60718993Y-121900372D01*
X60788293Y-121844323D01*
X60811778Y-121828756D01*
X60895426Y-121778949D01*
X60992182Y-121727135D01*
X61090157Y-121678987D01*
X61177463Y-121640177D01*
X61242211Y-121616378D01*
X61272514Y-121613263D01*
X61267465Y-121640686D01*
X61225595Y-121686487D01*
X61156598Y-121743042D01*
X61070378Y-121802929D01*
X60976838Y-121858726D01*
X60885880Y-121903012D01*
X60828365Y-121927317D01*
X60755699Y-121961382D01*
X60718320Y-121988380D01*
X60706936Y-122016356D01*
X60712258Y-122053353D01*
X60720496Y-122083409D01*
X60753094Y-122168907D01*
X60792290Y-122242342D01*
X60828142Y-122283934D01*
X60835782Y-122284937D01*
X60849884Y-122253523D01*
X60854984Y-122179013D01*
X60858458Y-122105142D01*
X60872769Y-122067288D01*
X60902959Y-122057503D01*
X60938918Y-122063196D01*
X60994084Y-122106251D01*
X61014900Y-122181459D01*
X61016347Y-122207020D01*
X61026593Y-122284326D01*
X61043435Y-122374501D01*
X61065355Y-122454083D01*
X61101096Y-122514485D01*
X61160082Y-122559541D01*
X61181124Y-122571374D01*
X61262666Y-122608229D01*
X61337949Y-122630741D01*
X61393212Y-122635658D01*
X61414691Y-122619727D01*
X61421365Y-122597457D01*
X61449832Y-122538985D01*
X61493072Y-122463972D01*
X61518400Y-122418958D01*
X61568933Y-122307785D01*
X61603320Y-122203708D01*
X61614667Y-122156746D01*
X61633586Y-122080019D01*
X61645571Y-122033521D01*
X61650521Y-122022270D01*
X61674420Y-122020447D01*
X61721892Y-122058157D01*
X61726680Y-122062726D01*
X61770024Y-122111953D01*
X61787828Y-122147052D01*
X61801818Y-122181519D01*
X61844067Y-122233123D01*
X61895985Y-122278123D01*
X61938397Y-122297377D01*
X61943184Y-122297030D01*
X61961665Y-122274330D01*
X61956335Y-122210756D01*
X61954784Y-122202701D01*
X61946921Y-122150586D01*
X61957213Y-122142440D01*
X61992416Y-122170777D01*
X62035367Y-122200914D01*
X62082272Y-122217419D01*
X62091882Y-122211417D01*
X62077913Y-122180533D01*
X62035544Y-122130402D01*
X61973447Y-122068958D01*
X61900292Y-122004134D01*
X61824752Y-121943866D01*
X61755496Y-121896087D01*
X61701197Y-121868732D01*
X61592688Y-121832921D01*
X61677845Y-121798173D01*
X61720324Y-121783430D01*
X61773201Y-121779528D01*
X61825836Y-121801125D01*
X61889368Y-121853630D01*
X61974934Y-121942452D01*
X62036029Y-122006221D01*
X62103859Y-122071678D01*
X62152421Y-122112564D01*
X62196464Y-122149920D01*
X62222740Y-122196085D01*
X62224198Y-122254936D01*
X62199410Y-122334227D01*
X62146949Y-122441709D01*
X62065386Y-122585136D01*
X62051541Y-122608745D01*
X61988818Y-122718625D01*
X61939666Y-122809537D01*
X61908749Y-122872595D01*
X61900730Y-122898911D01*
X61926174Y-122894936D01*
X61986656Y-122872786D01*
X62068471Y-122838064D01*
X62158183Y-122796738D01*
X62242356Y-122754778D01*
X62307555Y-122718154D01*
X62321176Y-122709662D01*
X62462433Y-122623189D01*
X62563439Y-122566651D01*
X62627997Y-122540405D01*
X62659909Y-122544810D01*
X62662976Y-122580225D01*
X62641002Y-122647008D01*
X62597788Y-122745517D01*
X62565157Y-122816922D01*
X62528504Y-122897958D01*
X62505258Y-122950368D01*
X62489646Y-122982413D01*
X62450805Y-123053995D01*
X62402840Y-123136936D01*
X62345227Y-123235618D01*
X62283250Y-123350028D01*
X62250015Y-123424774D01*
X62246483Y-123457886D01*
X62248068Y-123459036D01*
X62260302Y-123459239D01*
X62285687Y-123450695D01*
X62328989Y-123430936D01*
X62394977Y-123397495D01*
X62488418Y-123347903D01*
X62614078Y-123279691D01*
X62776725Y-123190393D01*
X62981127Y-123077540D01*
X63062891Y-123036001D01*
X63154457Y-123004807D01*
X63209007Y-123011013D01*
X63227073Y-123054569D01*
X63228195Y-123071867D01*
X63243091Y-123099187D01*
X63281957Y-123105591D01*
X63353165Y-123091122D01*
X63465087Y-123055824D01*
X63560022Y-123027009D01*
X63725805Y-122995786D01*
X63861273Y-122997831D01*
X63960959Y-123033391D01*
X63970917Y-123040070D01*
X63997126Y-123062759D01*
X64013500Y-123094099D01*
X64022343Y-123145252D01*
X64025960Y-123227382D01*
X64026653Y-123351650D01*
X64027845Y-123435623D01*
X64033054Y-123537955D01*
X64041453Y-123610909D01*
X64051997Y-123642529D01*
X64052009Y-123642536D01*
X64077911Y-123629880D01*
X64121423Y-123581710D01*
X64173133Y-123508447D01*
X64190358Y-123481945D01*
X64242859Y-123410360D01*
X64281673Y-123377846D01*
X64314368Y-123377380D01*
X64337380Y-123386340D01*
X64400982Y-123398551D01*
X64435748Y-123371411D01*
X64453096Y-123298421D01*
X64466854Y-123230081D01*
X64496167Y-123192370D01*
X64555966Y-123170301D01*
X64566038Y-123167777D01*
X64625475Y-123156175D01*
X64654579Y-123156294D01*
X64661102Y-123182601D01*
X64670467Y-123248127D01*
X64680273Y-123337718D01*
X64696898Y-123510074D01*
X64571844Y-123642302D01*
X64523127Y-123696560D01*
X64439622Y-123796105D01*
X64346972Y-123911996D01*
X64281260Y-123997997D01*
X64257750Y-124028766D01*
X64209063Y-124093833D01*
X64089608Y-124248052D01*
X63988515Y-124367431D01*
X63927339Y-124429591D01*
X63898071Y-124459330D01*
X63810568Y-124531110D01*
G37*
G36*
X70517057Y-125983509D02*
G01*
X70604496Y-126006813D01*
X70702608Y-126039709D01*
X70795816Y-126076488D01*
X70868542Y-126111445D01*
X70905211Y-126138870D01*
X70912616Y-126155524D01*
X70910819Y-126197649D01*
X70904414Y-126202500D01*
X70856550Y-126210419D01*
X70777121Y-126210400D01*
X70681598Y-126203787D01*
X70585452Y-126191927D01*
X70504154Y-126176165D01*
X70453176Y-126157846D01*
X70428114Y-126146810D01*
X70382296Y-126144859D01*
X70312568Y-126160316D01*
X70206427Y-126195068D01*
X70191031Y-126200444D01*
X70090743Y-126234616D01*
X70007099Y-126261779D01*
X69956873Y-126276461D01*
X69928969Y-126281478D01*
X69833704Y-126289294D01*
X69711584Y-126291727D01*
X69580950Y-126289009D01*
X69460138Y-126281369D01*
X69367489Y-126269040D01*
X69296985Y-126254205D01*
X69179469Y-126228047D01*
X69064009Y-126201065D01*
X69003370Y-126188147D01*
X68878427Y-126166550D01*
X68734102Y-126145827D01*
X68590924Y-126129101D01*
X68482443Y-126116933D01*
X68383183Y-126103082D01*
X68315869Y-126090463D01*
X68291081Y-126080781D01*
X68309793Y-126068371D01*
X68368064Y-126049030D01*
X68452124Y-126028513D01*
X68542583Y-126012454D01*
X68633315Y-126008995D01*
X68715080Y-126024871D01*
X68772764Y-126037620D01*
X68877555Y-126050843D01*
X68987143Y-126056349D01*
X69061250Y-126059754D01*
X69158504Y-126073772D01*
X69223925Y-126095383D01*
X69278853Y-126114098D01*
X69380831Y-126128352D01*
X69507928Y-126133607D01*
X69645174Y-126129864D01*
X69777602Y-126117123D01*
X69890241Y-126095383D01*
X69932361Y-126085146D01*
X70061536Y-126064331D01*
X70188978Y-126056838D01*
X70298172Y-126063077D01*
X70372600Y-126083454D01*
X70398685Y-126095948D01*
X70415873Y-126090268D01*
X70407938Y-126043475D01*
X70401757Y-126013447D01*
X70410944Y-125982198D01*
X70459172Y-125975446D01*
X70517057Y-125983509D01*
G37*
G36*
X61828168Y-133180066D02*
G01*
X61862864Y-133232411D01*
X61908340Y-133331585D01*
X61920836Y-133360064D01*
X61970175Y-133459211D01*
X62019854Y-133544330D01*
X62065226Y-133627978D01*
X62075225Y-133700866D01*
X62046005Y-133775126D01*
X61975516Y-133865604D01*
X61963331Y-133879410D01*
X61912611Y-133940366D01*
X61875230Y-133996651D01*
X61844357Y-134062293D01*
X61813160Y-134151318D01*
X61774810Y-134277755D01*
X61749862Y-134359146D01*
X61707514Y-134489823D01*
X61666072Y-134610913D01*
X61656391Y-134638506D01*
X61616317Y-134757095D01*
X61571378Y-134895059D01*
X61529593Y-135027894D01*
X61508930Y-135092325D01*
X61476623Y-135181979D01*
X61450453Y-135241181D01*
X61434680Y-135259532D01*
X61425826Y-135237650D01*
X61417789Y-135175208D01*
X61414691Y-135088718D01*
X61417604Y-135024758D01*
X61433736Y-134905000D01*
X61464970Y-134754125D01*
X61512421Y-134567515D01*
X61577201Y-134340552D01*
X61660421Y-134068617D01*
X61662530Y-134061884D01*
X61708377Y-133909992D01*
X61739117Y-133790921D01*
X61757795Y-133688058D01*
X61767457Y-133584785D01*
X61771149Y-133464489D01*
X61771153Y-133464193D01*
X61775743Y-133316615D01*
X61785908Y-133220908D01*
X61802950Y-133175812D01*
X61828168Y-133180066D01*
G37*
G36*
X67495585Y-129233446D02*
G01*
X67518153Y-129255994D01*
X67504078Y-129280023D01*
X67458437Y-129334370D01*
X67388698Y-129409194D01*
X67302615Y-129495868D01*
X67224350Y-129571742D01*
X67150436Y-129641796D01*
X67098329Y-129689317D01*
X67076067Y-129706821D01*
X67064961Y-129690833D01*
X67092395Y-129641419D01*
X67158699Y-129559940D01*
X67185145Y-129528894D01*
X67260695Y-129432382D01*
X67325278Y-129340394D01*
X67339755Y-129318756D01*
X67401434Y-129249361D01*
X67458185Y-129227120D01*
X67495585Y-129233446D01*
G37*
G36*
X59968475Y-121970447D02*
G01*
X59979826Y-122022031D01*
X59977256Y-122093498D01*
X59962206Y-122165182D01*
X59936119Y-122217419D01*
X59915797Y-122265441D01*
X59914852Y-122344019D01*
X59918415Y-122381873D01*
X59907991Y-122424417D01*
X59877620Y-122419163D01*
X59831922Y-122364947D01*
X59829340Y-122360923D01*
X59796965Y-122286318D01*
X59788174Y-122213913D01*
X59802463Y-122159148D01*
X59839331Y-122137461D01*
X59867457Y-122132050D01*
X59908086Y-122087098D01*
X59922141Y-121999797D01*
X59928375Y-121969744D01*
X59955179Y-121957463D01*
X59968475Y-121970447D01*
G37*
G36*
X68571852Y-126883124D02*
G01*
X68653396Y-126889000D01*
X68702018Y-126897815D01*
X68706382Y-126899712D01*
X68738241Y-126937716D01*
X68740363Y-126988639D01*
X68710861Y-127025295D01*
X68698675Y-127029027D01*
X68633310Y-127032622D01*
X68546143Y-127025127D01*
X68459727Y-127009244D01*
X68396617Y-126987673D01*
X68365530Y-126963316D01*
X68344386Y-126920679D01*
X68344462Y-126918392D01*
X68360043Y-126896387D01*
X68409393Y-126884928D01*
X68502122Y-126881637D01*
X68571852Y-126883124D01*
G37*
G36*
X58071897Y-128392014D02*
G01*
X58094249Y-128412132D01*
X58081680Y-128456809D01*
X58046765Y-128499554D01*
X58016105Y-128500956D01*
X58003148Y-128458587D01*
X58004250Y-128436536D01*
X58024792Y-128391379D01*
X58071897Y-128392014D01*
G37*
G36*
X59476301Y-120888802D02*
G01*
X59490025Y-120928882D01*
X59495290Y-120998059D01*
X59490623Y-121071763D01*
X59475882Y-121136734D01*
X59454879Y-121167819D01*
X59431544Y-121155322D01*
X59430467Y-121153679D01*
X59395234Y-121138373D01*
X59354987Y-121154820D01*
X59335782Y-121192818D01*
X59332796Y-121209331D01*
X59301826Y-121249935D01*
X59283400Y-121264987D01*
X59231262Y-121329290D01*
X59172238Y-121424442D01*
X59114879Y-121537297D01*
X59103599Y-121561166D01*
X59064718Y-121634609D01*
X59032593Y-121683886D01*
X59027923Y-121690050D01*
X58997526Y-121748060D01*
X58969922Y-121824292D01*
X58956041Y-121879041D01*
X58956467Y-121915068D01*
X58978465Y-121924240D01*
X58995896Y-121919625D01*
X59015950Y-121884261D01*
X59025844Y-121860947D01*
X59069255Y-121844282D01*
X59100169Y-121847601D01*
X59122560Y-121862069D01*
X59118708Y-121873569D01*
X59095690Y-121926250D01*
X59055392Y-122013140D01*
X59001825Y-122125652D01*
X58938998Y-122255196D01*
X58904431Y-122326281D01*
X58843134Y-122454417D01*
X58791799Y-122564414D01*
X58754999Y-122646401D01*
X58737307Y-122690504D01*
X58720409Y-122728234D01*
X58694679Y-122750473D01*
X58687709Y-122753214D01*
X58657973Y-122788150D01*
X58623549Y-122850420D01*
X58576918Y-122950368D01*
X58568617Y-122768211D01*
X58570987Y-122654920D01*
X58609028Y-122436304D01*
X58689433Y-122189577D01*
X58811491Y-121916456D01*
X58974490Y-121618659D01*
X59177719Y-121297902D01*
X59187391Y-121283496D01*
X59257338Y-121178029D01*
X59323652Y-121076137D01*
X59373141Y-120998059D01*
X59398986Y-120958839D01*
X59441334Y-120905641D01*
X59469380Y-120884785D01*
X59476301Y-120888802D01*
G37*
G36*
X68107731Y-127936731D02*
G01*
X68034416Y-128063747D01*
X67926077Y-128226244D01*
X67782224Y-128424949D01*
X67602366Y-128660590D01*
X67386015Y-128933893D01*
X67367588Y-128956898D01*
X67270999Y-129078749D01*
X67169811Y-129208033D01*
X67083142Y-129320357D01*
X67059567Y-129351164D01*
X66984067Y-129447023D01*
X66928141Y-129509836D01*
X66882528Y-129547705D01*
X66837969Y-129568732D01*
X66785205Y-129581018D01*
X66742107Y-129590159D01*
X66635409Y-129622471D01*
X66536776Y-129663389D01*
X66468469Y-129704251D01*
X66444673Y-129733364D01*
X66424909Y-129796706D01*
X66419827Y-129823614D01*
X66391107Y-129892274D01*
X66345582Y-129969755D01*
X66320867Y-130009729D01*
X66275902Y-130102483D01*
X66251034Y-130182976D01*
X66246186Y-130209674D01*
X66224239Y-130306190D01*
X66197096Y-130404799D01*
X66185335Y-130445267D01*
X66166357Y-130522221D01*
X66158867Y-130571378D01*
X66149566Y-130595608D01*
X66105562Y-130613012D01*
X66073334Y-130605458D01*
X66052256Y-130564803D01*
X66046235Y-130547778D01*
X66004627Y-130496043D01*
X65928955Y-130424133D01*
X65825708Y-130338533D01*
X65751224Y-130278323D01*
X65672555Y-130210253D01*
X65618962Y-130158351D01*
X65599161Y-130130615D01*
X65599338Y-130128865D01*
X65606332Y-130116213D01*
X65664664Y-130116213D01*
X65673764Y-130160686D01*
X65719098Y-130197039D01*
X65753913Y-130219835D01*
X65791242Y-130255442D01*
X65804985Y-130270290D01*
X65855169Y-130311414D01*
X65924506Y-130360661D01*
X65964442Y-130388226D01*
X66030455Y-130438062D01*
X66070130Y-130473895D01*
X66087205Y-130488884D01*
X66110080Y-130486835D01*
X66133220Y-130452699D01*
X66158798Y-130381360D01*
X66188982Y-130267702D01*
X66225943Y-130106611D01*
X66229290Y-130089735D01*
X66236786Y-130033140D01*
X66236933Y-130031658D01*
X66258778Y-129991172D01*
X66305457Y-129941712D01*
X66347813Y-129891121D01*
X66372088Y-129809704D01*
X66388546Y-129748896D01*
X66435621Y-129678617D01*
X66497559Y-129622761D01*
X66558385Y-129599363D01*
X66593679Y-129590695D01*
X66650372Y-129559384D01*
X66709628Y-129532420D01*
X66787348Y-129520252D01*
X66791539Y-129520245D01*
X66828698Y-129517998D01*
X66861111Y-129507043D01*
X66896124Y-129480593D01*
X66941083Y-129431861D01*
X67003333Y-129354058D01*
X67090220Y-129240399D01*
X67090600Y-129239899D01*
X67149720Y-129164279D01*
X67226647Y-129068752D01*
X67304832Y-128973872D01*
X67316908Y-128959350D01*
X67381652Y-128878965D01*
X67431662Y-128812800D01*
X67456953Y-128773977D01*
X67457707Y-128772396D01*
X67489679Y-128724813D01*
X67538859Y-128667367D01*
X67547130Y-128658387D01*
X67601209Y-128592963D01*
X67670588Y-128502219D01*
X67743640Y-128402026D01*
X67808741Y-128308253D01*
X67854268Y-128236771D01*
X67889211Y-128186343D01*
X67940889Y-128124933D01*
X67941325Y-128124468D01*
X67981298Y-128075278D01*
X67997902Y-128041827D01*
X67999867Y-128033923D01*
X68023852Y-127990263D01*
X68066367Y-127929645D01*
X68103428Y-127876519D01*
X68128176Y-127814760D01*
X68110289Y-127773168D01*
X68046272Y-127746516D01*
X67932633Y-127729581D01*
X67836154Y-127716816D01*
X67724592Y-127695322D01*
X67639778Y-127671744D01*
X67593091Y-127655484D01*
X67488061Y-127621763D01*
X67381714Y-127590335D01*
X67317461Y-127569658D01*
X67241589Y-127537231D01*
X67198545Y-127508244D01*
X67175015Y-127486824D01*
X67127896Y-127467996D01*
X67110600Y-127464464D01*
X67052771Y-127439524D01*
X66980638Y-127398548D01*
X66958958Y-127384993D01*
X66905879Y-127354979D01*
X66886736Y-127353416D01*
X66893963Y-127378558D01*
X66899730Y-127394864D01*
X66912627Y-127469795D01*
X66921512Y-127578808D01*
X66926253Y-127707976D01*
X66926721Y-127843372D01*
X66922785Y-127971066D01*
X66914313Y-128077131D01*
X66901176Y-128147639D01*
X66894554Y-128166294D01*
X66861267Y-128244198D01*
X66812489Y-128346532D01*
X66754575Y-128461181D01*
X66693880Y-128576030D01*
X66636759Y-128678965D01*
X66589567Y-128757870D01*
X66558657Y-128800630D01*
X66539082Y-128826309D01*
X66498244Y-128884005D01*
X66445541Y-128960546D01*
X66386210Y-129041934D01*
X66297776Y-129152377D01*
X66211197Y-129251108D01*
X66113046Y-129370951D01*
X66020408Y-129517682D01*
X65953636Y-129663148D01*
X65921032Y-129791875D01*
X65920700Y-129793148D01*
X65899045Y-129823512D01*
X65850557Y-129879586D01*
X65784769Y-129950289D01*
X65763054Y-129973273D01*
X65693770Y-130056211D01*
X65664664Y-130116213D01*
X65606332Y-130116213D01*
X65619366Y-130092634D01*
X65666105Y-130031358D01*
X65730298Y-129957273D01*
X65799113Y-129873466D01*
X65858754Y-129784757D01*
X65893434Y-129713662D01*
X65899104Y-129696593D01*
X65926009Y-129628632D01*
X65948865Y-129588217D01*
X65958839Y-129573328D01*
X65972298Y-129519933D01*
X65986534Y-129487251D01*
X66029422Y-129422400D01*
X66094083Y-129336318D01*
X66173543Y-129238747D01*
X66229917Y-129170846D01*
X66447438Y-128884269D01*
X66633232Y-128598106D01*
X66779416Y-128324253D01*
X66884138Y-128101077D01*
X66874468Y-127704578D01*
X66873069Y-127635673D01*
X66872132Y-127506216D01*
X66873667Y-127402302D01*
X66877468Y-127333176D01*
X66883328Y-127308080D01*
X66906691Y-127316798D01*
X66964713Y-127344647D01*
X67041718Y-127384119D01*
X67122872Y-127427427D01*
X67193343Y-127466786D01*
X67238300Y-127494411D01*
X67261189Y-127506803D01*
X67337450Y-127536049D01*
X67447368Y-127570729D01*
X67578830Y-127607667D01*
X67719723Y-127643689D01*
X67857934Y-127675619D01*
X67981351Y-127700282D01*
X68077860Y-127714501D01*
X68084842Y-127715320D01*
X68133694Y-127737317D01*
X68152977Y-127795035D01*
X68150396Y-127814760D01*
X68146509Y-127844470D01*
X68107731Y-127936731D01*
G37*
G36*
X57952778Y-125822375D02*
G01*
X57976495Y-125835635D01*
X57976391Y-125837352D01*
X57965685Y-125877867D01*
X57941370Y-125950851D01*
X57909101Y-126040888D01*
X57874534Y-126132564D01*
X57843322Y-126210463D01*
X57821121Y-126259171D01*
X57807730Y-126279468D01*
X57753569Y-126342258D01*
X57678374Y-126416847D01*
X57596958Y-126489005D01*
X57524133Y-126544500D01*
X57472603Y-126574985D01*
X57437512Y-126588458D01*
X57436113Y-126588017D01*
X57426575Y-126557663D01*
X57420225Y-126488985D01*
X57418374Y-126395226D01*
X57425786Y-126275507D01*
X57451774Y-126129842D01*
X57492652Y-126002642D01*
X57544490Y-125905489D01*
X57603358Y-125849968D01*
X57647964Y-125835731D01*
X57723930Y-125823651D01*
X57810631Y-125816992D01*
X57892202Y-125816364D01*
X57952778Y-125822375D01*
G37*
G36*
X64000000Y-122723820D02*
G01*
X63999504Y-122747439D01*
X63992552Y-122807384D01*
X63980011Y-122832309D01*
X63933494Y-122836780D01*
X63801379Y-122851071D01*
X63716715Y-122863183D01*
X63682389Y-122872725D01*
X63681604Y-122873360D01*
X63647009Y-122880709D01*
X63584015Y-122883736D01*
X63533173Y-122879683D01*
X63488624Y-122863805D01*
X63481966Y-122842427D01*
X63520552Y-122822630D01*
X63529618Y-122819852D01*
X63566827Y-122793443D01*
X63569242Y-122764249D01*
X63533578Y-122750473D01*
X63515256Y-122748034D01*
X63493599Y-122728687D01*
X63501958Y-122716715D01*
X63549652Y-122691911D01*
X63626868Y-122665427D01*
X63718948Y-122641394D01*
X63811235Y-122623944D01*
X63889069Y-122617209D01*
X64000000Y-122617209D01*
X64000000Y-122723820D01*
G37*
G36*
X65595198Y-139239720D02*
G01*
X65627470Y-139256680D01*
X65651447Y-139305767D01*
X65640038Y-139366097D01*
X65593416Y-139420080D01*
X65525639Y-139454070D01*
X65443728Y-139478444D01*
X65422587Y-139483004D01*
X65372040Y-139505081D01*
X65332710Y-139550057D01*
X65290736Y-139631827D01*
X65265783Y-139693743D01*
X65227412Y-139805136D01*
X65186448Y-139937807D01*
X65148370Y-140074712D01*
X65137127Y-140117795D01*
X65105887Y-140236944D01*
X65080033Y-140332348D01*
X65056069Y-140414508D01*
X65030497Y-140493926D01*
X64999822Y-140581105D01*
X64960546Y-140686548D01*
X64909171Y-140820755D01*
X64842203Y-140994229D01*
X64812703Y-141063724D01*
X64778799Y-141132404D01*
X64751074Y-141189836D01*
X64754856Y-141215127D01*
X64792917Y-141215282D01*
X64794750Y-141214989D01*
X64818202Y-141217443D01*
X64830420Y-141240984D01*
X64833620Y-141296285D01*
X64830017Y-141394019D01*
X64824940Y-141457353D01*
X64803255Y-141583627D01*
X64770569Y-141678455D01*
X64760145Y-141697530D01*
X64706125Y-141777654D01*
X64634535Y-141866325D01*
X64555190Y-141953234D01*
X64477908Y-142028074D01*
X64412506Y-142080537D01*
X64368800Y-142100315D01*
X64337626Y-142110976D01*
X64296951Y-142158901D01*
X64249905Y-142251800D01*
X64221358Y-142324491D01*
X64199163Y-142402618D01*
X64195571Y-142451695D01*
X64196564Y-142455740D01*
X64190841Y-142490552D01*
X64144095Y-142500105D01*
X64115280Y-142500247D01*
X64090937Y-142495258D01*
X64084399Y-142473590D01*
X64093771Y-142423500D01*
X64117155Y-142333245D01*
X64147534Y-142222386D01*
X64183408Y-142107906D01*
X64225928Y-141991105D01*
X64279503Y-141860702D01*
X64348545Y-141705413D01*
X64437465Y-141513956D01*
X64521996Y-141332648D01*
X64621076Y-141113960D01*
X64707007Y-140915198D01*
X64786547Y-140720619D01*
X64866453Y-140514481D01*
X64905924Y-140410815D01*
X64956041Y-140280029D01*
X64999286Y-140167996D01*
X64999503Y-140167437D01*
X65032401Y-140078583D01*
X65075938Y-139955342D01*
X65124472Y-139813933D01*
X65172359Y-139670574D01*
X65180070Y-139647353D01*
X65224811Y-139520687D01*
X65267369Y-139412407D01*
X65303255Y-139333370D01*
X65327976Y-139294432D01*
X65331033Y-139291874D01*
X65407721Y-139253625D01*
X65505480Y-139234253D01*
X65595198Y-139239720D01*
G37*
G36*
X62404511Y-119097493D02*
G01*
X62544304Y-119101808D01*
X62663908Y-119108813D01*
X62752302Y-119118421D01*
X62798467Y-119130544D01*
X62802480Y-119133088D01*
X62852942Y-119180051D01*
X62851811Y-119220648D01*
X62800565Y-119252707D01*
X62700682Y-119274058D01*
X62645197Y-119283156D01*
X62522223Y-119313925D01*
X62414166Y-119352807D01*
X62363454Y-119374950D01*
X62277031Y-119410180D01*
X62214271Y-119432677D01*
X62163895Y-119451838D01*
X62097165Y-119487640D01*
X62091519Y-119491478D01*
X62070564Y-119505875D01*
X62064180Y-119516620D01*
X62079860Y-119526758D01*
X62125096Y-119539333D01*
X62207381Y-119557390D01*
X62334208Y-119583976D01*
X62378173Y-119593963D01*
X62465805Y-119617864D01*
X62527440Y-119639878D01*
X62579501Y-119653782D01*
X62651499Y-119633470D01*
X62704559Y-119614798D01*
X62754886Y-119625338D01*
X62773977Y-119672454D01*
X62773646Y-119675877D01*
X62744768Y-119705594D01*
X62680693Y-119727152D01*
X62667908Y-119729732D01*
X62610665Y-119746839D01*
X62587408Y-119763850D01*
X62586469Y-119766738D01*
X62557619Y-119794671D01*
X62497586Y-119839323D01*
X62418737Y-119892311D01*
X62333441Y-119945253D01*
X62254066Y-119989767D01*
X62237361Y-120000028D01*
X62234647Y-120009654D01*
X62257479Y-120015883D01*
X62311401Y-120018982D01*
X62401956Y-120019222D01*
X62534690Y-120016873D01*
X62715146Y-120012205D01*
X62741115Y-120011502D01*
X62904365Y-120008005D01*
X63049565Y-120006420D01*
X63167908Y-120006733D01*
X63250590Y-120008932D01*
X63288805Y-120013005D01*
X63307226Y-120027700D01*
X63316835Y-120072075D01*
X63300705Y-120117605D01*
X63263943Y-120138510D01*
X63241961Y-120149471D01*
X63227073Y-120193733D01*
X63215634Y-120241349D01*
X63182748Y-120318317D01*
X63138334Y-120402693D01*
X63092439Y-120475534D01*
X63055110Y-120517903D01*
X63049393Y-120530444D01*
X63082052Y-120537892D01*
X63124955Y-120530394D01*
X63188663Y-120499169D01*
X63229362Y-120475431D01*
X63287403Y-120459190D01*
X63316922Y-120455402D01*
X63380687Y-120433046D01*
X63384292Y-120431114D01*
X63435482Y-120405726D01*
X63517207Y-120366912D01*
X63613536Y-120322250D01*
X63675795Y-120292629D01*
X63823178Y-120212679D01*
X63941093Y-120133961D01*
X64018709Y-120063393D01*
X64034874Y-120048353D01*
X64082514Y-120037510D01*
X64119161Y-120064317D01*
X64125682Y-120118852D01*
X64107927Y-120184898D01*
X64066995Y-120303654D01*
X64005813Y-120455260D01*
X63921696Y-120646663D01*
X63904000Y-120688163D01*
X63877263Y-120762946D01*
X63866737Y-120811669D01*
X63863783Y-120833257D01*
X63840084Y-120871459D01*
X63828684Y-120882705D01*
X63814751Y-120925673D01*
X63818890Y-120970611D01*
X63840921Y-120991396D01*
X63856027Y-120986353D01*
X63884132Y-120950424D01*
X63886472Y-120945576D01*
X63925737Y-120907485D01*
X63989906Y-120871826D01*
X64055164Y-120832541D01*
X64079958Y-120779535D01*
X64087450Y-120747199D01*
X64119580Y-120724869D01*
X64126680Y-120723581D01*
X64163388Y-120692069D01*
X64198178Y-120631585D01*
X64205190Y-120616083D01*
X64241339Y-120560693D01*
X64275642Y-120538301D01*
X64295153Y-120533756D01*
X64329471Y-120498322D01*
X64341156Y-120479905D01*
X64385627Y-120458343D01*
X64412296Y-120469724D01*
X64424969Y-120513854D01*
X64411580Y-120577271D01*
X64373138Y-120644911D01*
X64336225Y-120702025D01*
X64320425Y-120746242D01*
X64319180Y-120755618D01*
X64301140Y-120809299D01*
X64268613Y-120879505D01*
X64260928Y-120894447D01*
X64220779Y-120976642D01*
X64190458Y-121044701D01*
X64182179Y-121064249D01*
X64169886Y-121081363D01*
X64163994Y-121056794D01*
X64161720Y-120984733D01*
X64159691Y-120942880D01*
X64149685Y-120882046D01*
X64134555Y-120858133D01*
X64121422Y-120864425D01*
X64074732Y-120900322D01*
X64005562Y-120960914D01*
X63923486Y-121038038D01*
X63848344Y-121110150D01*
X63719070Y-121230451D01*
X63612867Y-121324033D01*
X63534303Y-121386939D01*
X63487945Y-121415213D01*
X63454343Y-121434136D01*
X63403168Y-121475181D01*
X63385564Y-121490416D01*
X63321680Y-121522951D01*
X63273330Y-121508517D01*
X63265087Y-121477357D01*
X63285175Y-121437136D01*
X63323208Y-121417839D01*
X63344868Y-121407760D01*
X63360336Y-121364533D01*
X63367678Y-121333415D01*
X63399107Y-121311228D01*
X63400908Y-121311153D01*
X63432780Y-121284243D01*
X63455379Y-121217944D01*
X63457981Y-121205266D01*
X63476727Y-121147950D01*
X63496997Y-121124659D01*
X63503840Y-121121937D01*
X63533227Y-121087012D01*
X63567325Y-121024712D01*
X63577783Y-121002714D01*
X63610038Y-120941980D01*
X63632024Y-120910793D01*
X63637575Y-120904842D01*
X63665739Y-120860521D01*
X63707447Y-120784784D01*
X63757185Y-120688840D01*
X63809439Y-120583899D01*
X63858693Y-120481170D01*
X63899434Y-120391861D01*
X63926148Y-120327183D01*
X63933318Y-120298345D01*
X63931965Y-120297258D01*
X63899519Y-120303576D01*
X63835691Y-120329022D01*
X63753398Y-120367122D01*
X63665556Y-120411401D01*
X63585082Y-120455386D01*
X63524893Y-120492602D01*
X63497906Y-120516577D01*
X63486684Y-120528026D01*
X63437548Y-120558037D01*
X63364642Y-120593111D01*
X63326121Y-120610194D01*
X63237376Y-120651662D01*
X63169655Y-120685988D01*
X63110127Y-120712564D01*
X63057791Y-120724869D01*
X63034321Y-120729424D01*
X62970087Y-120753556D01*
X62891355Y-120791501D01*
X62889656Y-120792403D01*
X62783075Y-120842248D01*
X62713686Y-120857674D01*
X62677933Y-120838573D01*
X62672259Y-120784838D01*
X62687741Y-120734913D01*
X62718451Y-120711543D01*
X62719575Y-120711508D01*
X62753382Y-120687271D01*
X62782232Y-120631585D01*
X62794712Y-120599549D01*
X62834971Y-120520256D01*
X62888075Y-120431836D01*
X62944717Y-120348421D01*
X62995594Y-120284144D01*
X63031400Y-120253139D01*
X63045897Y-120244561D01*
X63067156Y-120204512D01*
X63069503Y-120190731D01*
X63100472Y-120156162D01*
X63100231Y-120150070D01*
X63060578Y-120143784D01*
X62987198Y-120140464D01*
X62942089Y-120141722D01*
X62829350Y-120151755D01*
X62682231Y-120170207D01*
X62511966Y-120195285D01*
X62329784Y-120225197D01*
X62146917Y-120258152D01*
X61974595Y-120292358D01*
X61824051Y-120326024D01*
X61804730Y-120330577D01*
X61685363Y-120354694D01*
X61573422Y-120371480D01*
X61490893Y-120377537D01*
X61456255Y-120377107D01*
X61406403Y-120373279D01*
X61399023Y-120361681D01*
X61426448Y-120337558D01*
X61467356Y-120314008D01*
X61526395Y-120298426D01*
X61552708Y-120291903D01*
X61574607Y-120258447D01*
X61579689Y-120239268D01*
X61615797Y-120218468D01*
X61618344Y-120218356D01*
X61665914Y-120198239D01*
X61721488Y-120153968D01*
X61723694Y-120151783D01*
X61782264Y-120104534D01*
X61833550Y-120079090D01*
X61858469Y-120068214D01*
X61874449Y-120036980D01*
X61880544Y-120018386D01*
X61920154Y-120005247D01*
X61957081Y-119994643D01*
X62001049Y-119951942D01*
X62028633Y-119920149D01*
X62082782Y-119898636D01*
X62114887Y-119892687D01*
X62149181Y-119864251D01*
X62163808Y-119847621D01*
X62217815Y-119813491D01*
X62294934Y-119778426D01*
X62346556Y-119756859D01*
X62404819Y-119727236D01*
X62427492Y-119707663D01*
X62424289Y-119705272D01*
X62382853Y-119700436D01*
X62301041Y-119698605D01*
X62188370Y-119699864D01*
X62054355Y-119704300D01*
X61928700Y-119709326D01*
X61818167Y-119712166D01*
X61746192Y-119710848D01*
X61704735Y-119704758D01*
X61685757Y-119693283D01*
X61681217Y-119675808D01*
X61687752Y-119653034D01*
X61725440Y-119598525D01*
X61782598Y-119539817D01*
X61842955Y-119492703D01*
X61890235Y-119472975D01*
X61890621Y-119472963D01*
X61935773Y-119456573D01*
X61993777Y-119418888D01*
X61994842Y-119418053D01*
X62052011Y-119380967D01*
X62095077Y-119365583D01*
X62113426Y-119360263D01*
X62144676Y-119323715D01*
X62147769Y-119310509D01*
X62137706Y-119296615D01*
X62101411Y-119290549D01*
X62029931Y-119291309D01*
X61914317Y-119297890D01*
X61890704Y-119299393D01*
X61742249Y-119307741D01*
X61586894Y-119315009D01*
X61454670Y-119319768D01*
X61353535Y-119325201D01*
X61259180Y-119339286D01*
X61213913Y-119360616D01*
X61201207Y-119369961D01*
X61148437Y-119383424D01*
X61076108Y-119387865D01*
X61002322Y-119383805D01*
X60945183Y-119371762D01*
X60922793Y-119352256D01*
X60940607Y-119337781D01*
X60998562Y-119319216D01*
X61082583Y-119303452D01*
X61154280Y-119291655D01*
X61228644Y-119274809D01*
X61267975Y-119259762D01*
X61271054Y-119257720D01*
X61315900Y-119240330D01*
X61395420Y-119217130D01*
X61494649Y-119192557D01*
X61502146Y-119190840D01*
X61611594Y-119164982D01*
X61709971Y-119140453D01*
X61776789Y-119122350D01*
X61788426Y-119119376D01*
X61863858Y-119108910D01*
X61974202Y-119101578D01*
X62108440Y-119097289D01*
X62255549Y-119095957D01*
X62404511Y-119097493D01*
G37*
G36*
X63971098Y-122190333D02*
G01*
X63985766Y-122249102D01*
X63994667Y-122332799D01*
X64002660Y-122483946D01*
X63868067Y-122483946D01*
X63808526Y-122482078D01*
X63748747Y-122469726D01*
X63737854Y-122444238D01*
X63773694Y-122403787D01*
X63784642Y-122393183D01*
X63827059Y-122338650D01*
X63872163Y-122266768D01*
X63890073Y-122237407D01*
X63929850Y-122187783D01*
X63958543Y-122172390D01*
X63971098Y-122190333D01*
G37*
G36*
X57737132Y-127734771D02*
G01*
X57791844Y-127743169D01*
X57803253Y-127761176D01*
X57802062Y-127762828D01*
X57763361Y-127780540D01*
X57698022Y-127787828D01*
X57619539Y-127802223D01*
X57546342Y-127840247D01*
X57526607Y-127856641D01*
X57487072Y-127886789D01*
X57472304Y-127886912D01*
X57470095Y-127860207D01*
X57470168Y-127858097D01*
X57496213Y-127816295D01*
X57557856Y-127776316D01*
X57638693Y-127746334D01*
X57722317Y-127734523D01*
X57737132Y-127734771D01*
G37*
G36*
X66566753Y-131001254D02*
G01*
X66636137Y-131020697D01*
X66691046Y-131043490D01*
X66720263Y-131057605D01*
X66791007Y-131086457D01*
X66878489Y-131118635D01*
X67025079Y-131169872D01*
X66758552Y-131154593D01*
X66683221Y-131149504D01*
X66579652Y-131139664D01*
X66504180Y-131128883D01*
X66469388Y-131118720D01*
X66459404Y-131094153D01*
X66465032Y-131040527D01*
X66476068Y-131013972D01*
X66506192Y-130994174D01*
X66566753Y-131001254D01*
G37*
G36*
X57883656Y-127767242D02*
G01*
X57941969Y-127804586D01*
X58018405Y-127871956D01*
X58094192Y-127986152D01*
X58127424Y-128124605D01*
X58132546Y-128184889D01*
X58132756Y-128225285D01*
X58122494Y-128224013D01*
X58098785Y-128187618D01*
X58071822Y-128129643D01*
X58057398Y-128065453D01*
X58047246Y-128031740D01*
X58008126Y-127966447D01*
X57949839Y-127894435D01*
X57917560Y-127858156D01*
X57871772Y-127797677D01*
X57860364Y-127766156D01*
X57883656Y-127767242D01*
G37*
G36*
X64292493Y-127859772D02*
G01*
X64316566Y-127861668D01*
X64416901Y-127874221D01*
X64464279Y-127888689D01*
X64458810Y-127902637D01*
X64400607Y-127913626D01*
X64289780Y-127919218D01*
X64232671Y-127921783D01*
X64170995Y-127935359D01*
X64132527Y-127968139D01*
X64112975Y-128028563D01*
X64108051Y-128125069D01*
X64113465Y-128266098D01*
X64114292Y-128281209D01*
X64119699Y-128397989D01*
X64119464Y-128474877D01*
X64111872Y-128523889D01*
X64095210Y-128557040D01*
X64067762Y-128586347D01*
X64063023Y-128590619D01*
X63992270Y-128636377D01*
X63908750Y-128670206D01*
X63898926Y-128672937D01*
X63855683Y-128686685D01*
X63818369Y-128705218D01*
X63778822Y-128735641D01*
X63728882Y-128785059D01*
X63660386Y-128860578D01*
X63565173Y-128969301D01*
X63534005Y-129004242D01*
X63463373Y-129077379D01*
X63406515Y-129128122D01*
X63373514Y-129147115D01*
X63360812Y-129146584D01*
X63327056Y-129129666D01*
X63339308Y-129091487D01*
X63396852Y-129035470D01*
X63426722Y-129008884D01*
X63457882Y-128973182D01*
X63492087Y-128923722D01*
X63532528Y-128854718D01*
X63582398Y-128760386D01*
X63644886Y-128634941D01*
X63723184Y-128472600D01*
X63820483Y-128267577D01*
X63855631Y-128193199D01*
X63920006Y-128060244D01*
X63971646Y-127966167D01*
X64017797Y-127904706D01*
X64065709Y-127869599D01*
X64122630Y-127854582D01*
X64195809Y-127853394D01*
X64292493Y-127859772D01*
G37*
%TD*%
M02*
