M48
; DRILL file {KiCad (6.0.11-0)} date Saturday, November 18, 2023 at 02:56:16 AM
; FORMAT={-:-/ absolute / metric / decimal}
; #@! TF.CreationDate,2023-11-18T02:56:16-06:00
; #@! TF.GenerationSoftware,Kicad,Pcbnew,(6.0.11-0)
; #@! TF.FileFunction,Plated,1,2,PTH
FMAT,2
METRIC
; #@! TA.AperFunction,Plated,PTH,ViaDrill
T1C0.400
; #@! TA.AperFunction,Plated,PTH,ComponentDrill
T2C1.000
; #@! TA.AperFunction,Plated,PTH,ComponentDrill
T3C1.100
; #@! TA.AperFunction,Plated,PTH,ComponentDrill
T4C1.850
%
G90
G05
T1
X51.4Y-55.8
X51.4Y-79.2
X51.4Y-103.0
X53.2Y-82.4
X68.0Y-65.6
X68.2Y-41.4
X68.6Y-89.0
X71.0Y-42.6
X71.6Y-65.6
X71.6Y-89.0
X75.2Y-115.6
X76.0Y-126.6
X76.0Y-129.6
X76.2Y-110.4
X79.4Y-96.0
X79.8Y-72.4
X81.0Y-101.8
X82.6Y-123.0
X90.8Y-149.4
X94.2Y-46.6
X94.4Y-89.6
X96.4Y-112.2
X96.4Y-120.4
X100.0Y-126.8
X100.2Y-129.8
X100.4Y-65.6
X100.4Y-67.0
X100.4Y-68.0
X100.4Y-69.4
X100.4Y-89.6
X101.6Y-90.4
X102.8Y-78.8
X102.8Y-80.4
X102.8Y-82.4
X108.0Y-84.6
X108.8Y-83.8
X108.8Y-121.0
X109.8Y-83.8
X110.4Y-81.4
X114.6Y-149.4
X116.0Y-91.2
X117.0Y-57.6
X117.2Y-63.0
X117.2Y-64.2
X117.2Y-65.6
X117.2Y-66.8
X117.2Y-68.2
X117.2Y-69.4
X117.2Y-70.6
X117.2Y-73.8
X118.6Y-112.0
X118.8Y-45.6
X118.8Y-59.4
X119.2Y-80.4
X120.4Y-98.6
X120.4Y-106.8
X120.4Y-113.6
X120.8Y-78.8
X121.4Y-44.6
X121.4Y-60.2
X123.8Y-126.6
X123.8Y-129.6
X124.0Y-58.4
X124.0Y-91.2
X128.8Y-57.6
X128.8Y-83.8
X128.8Y-119.0
X129.8Y-82.4
X129.8Y-86.6
X130.2Y-138.4
X131.0Y-57.6
X131.0Y-89.4
X132.8Y-115.2
X134.0Y-66.8
X136.8Y-68.2
X137.6Y-55.8
X138.4Y-149.4
X138.8Y-69.0
X138.8Y-82.4
X139.6Y-50.4
X139.6Y-137.4
X139.6Y-143.4
X140.2Y-97.8
X143.2Y-124.8
X144.0Y-123.8
X146.2Y-51.8
X153.4Y-131.4
X156.6Y-123.8
X164.6Y-37.2
X164.6Y-61.4
X164.6Y-85.6
T2
X56.26Y-109.8
X56.26Y-112.34
X58.8Y-45.3
X58.8Y-47.84
X58.8Y-68.8
X58.8Y-71.34
X58.8Y-92.4
X58.8Y-94.94
X58.8Y-109.8
X58.8Y-112.34
X61.34Y-109.8
X61.34Y-112.34
X63.88Y-109.8
X63.88Y-112.34
X66.42Y-109.8
X66.42Y-112.34
X79.6Y-141.0
X82.14Y-141.0
X103.5Y-141.0
X106.04Y-141.0
X111.225Y-41.4
X113.765Y-41.4
X116.305Y-41.4
X118.845Y-41.4
X121.385Y-41.4
X123.925Y-41.4
X127.6Y-141.0
X130.14Y-141.0
X153.225Y-141.0
X157.425Y-141.0
X158.4Y-45.66
X158.4Y-48.2
X158.4Y-69.56
X158.4Y-72.1
X158.4Y-93.76
X158.4Y-96.3
X161.625Y-141.0
X165.825Y-141.0
T3
X87.65Y-34.65
X87.65Y-39.15
X94.15Y-34.65
X94.15Y-39.15
T4
X128.052Y-101.95
X128.052Y-106.65
X128.052Y-111.35
X135.852Y-101.95
X135.852Y-106.65
X135.852Y-111.35
X142.1Y-109.6
X146.8Y-109.6
X151.5Y-109.6
X156.7Y-109.6
X161.4Y-109.6
X166.1Y-109.6
T2
G00X146.25Y-137.387
M15
G01X143.75Y-137.387
M16
G05
G00X146.0Y-143.387
M15
G01X144.0Y-143.387
M16
G05
G00X149.7Y-139.387
M15
G01X149.7Y-141.387
M16
G05
T0
M30
