%TF.GenerationSoftware,KiCad,Pcbnew,(6.0.11-0)*%
%TF.CreationDate,2023-11-18T02:56:02-06:00*%
%TF.ProjectId,ECE395_Digital_Target,45434533-3935-45f4-9469-676974616c5f,rev?*%
%TF.SameCoordinates,Original*%
%TF.FileFunction,Soldermask,Bot*%
%TF.FilePolarity,Negative*%
%FSLAX46Y46*%
G04 Gerber Fmt 4.6, Leading zero omitted, Abs format (unit mm)*
G04 Created by KiCad (PCBNEW (6.0.11-0)) date 2023-11-18 02:56:02*
%MOMM*%
%LPD*%
G01*
G04 APERTURE LIST*
G04 Aperture macros list*
%AMRoundRect*
0 Rectangle with rounded corners*
0 $1 Rounding radius*
0 $2 $3 $4 $5 $6 $7 $8 $9 X,Y pos of 4 corners*
0 Add a 4 corners polygon primitive as box body*
4,1,4,$2,$3,$4,$5,$6,$7,$8,$9,$2,$3,0*
0 Add four circle primitives for the rounded corners*
1,1,$1+$1,$2,$3*
1,1,$1+$1,$4,$5*
1,1,$1+$1,$6,$7*
1,1,$1+$1,$8,$9*
0 Add four rect primitives between the rounded corners*
20,1,$1+$1,$2,$3,$4,$5,0*
20,1,$1+$1,$4,$5,$6,$7,0*
20,1,$1+$1,$6,$7,$8,$9,0*
20,1,$1+$1,$8,$9,$2,$3,0*%
G04 Aperture macros list end*
%ADD10R,1.700000X1.700000*%
%ADD11O,1.700000X1.700000*%
%ADD12RoundRect,0.102000X1.387500X-1.387500X1.387500X1.387500X-1.387500X1.387500X-1.387500X-1.387500X0*%
%ADD13C,2.979000*%
%ADD14O,5.204000X2.704000*%
%ADD15O,4.704000X2.454000*%
%ADD16O,2.454000X4.704000*%
%ADD17RoundRect,0.102000X1.387500X1.387500X-1.387500X1.387500X-1.387500X-1.387500X1.387500X-1.387500X0*%
%ADD18C,2.000000*%
G04 APERTURE END LIST*
D10*
%TO.C,J5*%
X158400000Y-72100000D03*
D11*
X158400000Y-69560000D03*
%TD*%
D10*
%TO.C,S2*%
X123925000Y-41400000D03*
D11*
X121385000Y-41400000D03*
X118845000Y-41400000D03*
X116305000Y-41400000D03*
X113765000Y-41400000D03*
X111225000Y-41400000D03*
%TD*%
D12*
%TO.C,S63*%
X156700000Y-109600000D03*
D13*
X161400000Y-109600000D03*
X166100000Y-109600000D03*
%TD*%
D14*
%TO.C,J0*%
X145000000Y-137387500D03*
D15*
X145000000Y-143387500D03*
D16*
X149700000Y-140387500D03*
%TD*%
D10*
%TO.C,J1*%
X58800000Y-45300000D03*
D11*
X58800000Y-47840000D03*
%TD*%
D10*
%TO.C,J7*%
X79600000Y-141000000D03*
D11*
X82140000Y-141000000D03*
%TD*%
D17*
%TO.C,S550*%
X135852500Y-111350000D03*
D13*
X135852500Y-106650000D03*
X135852500Y-101950000D03*
%TD*%
D10*
%TO.C,J4*%
X158400000Y-48200000D03*
D11*
X158400000Y-45660000D03*
%TD*%
D10*
%TO.C,S1*%
X56260000Y-109800000D03*
D11*
X56260000Y-112340000D03*
X58800000Y-109800000D03*
X58800000Y-112340000D03*
X61340000Y-109800000D03*
X61340000Y-112340000D03*
X63880000Y-109800000D03*
X63880000Y-112340000D03*
X66420000Y-109800000D03*
X66420000Y-112340000D03*
%TD*%
D12*
%TO.C,S65*%
X142100000Y-109600000D03*
D13*
X146800000Y-109600000D03*
X151500000Y-109600000D03*
%TD*%
D10*
%TO.C,J9*%
X127600000Y-141000000D03*
D11*
X130140000Y-141000000D03*
%TD*%
D17*
%TO.C,S350*%
X128052500Y-111350000D03*
D13*
X128052500Y-106650000D03*
X128052500Y-101950000D03*
%TD*%
D10*
%TO.C,J166*%
X157425000Y-141000000D03*
%TD*%
%TO.C,J6*%
X158400000Y-96300000D03*
D11*
X158400000Y-93760000D03*
%TD*%
D10*
%TO.C,J8*%
X103500000Y-141000000D03*
D11*
X106040000Y-141000000D03*
%TD*%
D18*
%TO.C,SW1*%
X87650000Y-34650000D03*
X94150000Y-34650000D03*
X94150000Y-39150000D03*
X87650000Y-39150000D03*
%TD*%
D10*
%TO.C,J3*%
X58800000Y-92400000D03*
D11*
X58800000Y-94940000D03*
%TD*%
D10*
%TO.C,J112*%
X153225000Y-141000000D03*
%TD*%
D11*
%TO.C,J2*%
X58800000Y-71340000D03*
D10*
X58800000Y-68800000D03*
%TD*%
%TO.C,J133*%
X165825000Y-141000000D03*
%TD*%
%TO.C,J999*%
X161625000Y-141000000D03*
%TD*%
M02*
