%TF.GenerationSoftware,KiCad,Pcbnew,(6.0.11-0)*%
%TF.CreationDate,2023-11-21T01:04:18-06:00*%
%TF.ProjectId,Untitled,556e7469-746c-4656-942e-6b696361645f,rev?*%
%TF.SameCoordinates,Original*%
%TF.FileFunction,Legend,Top*%
%TF.FilePolarity,Positive*%
%FSLAX46Y46*%
G04 Gerber Fmt 4.6, Leading zero omitted, Abs format (unit mm)*
G04 Created by KiCad (PCBNEW (6.0.11-0)) date 2023-11-21 01:04:18*
%MOMM*%
%LPD*%
G01*
G04 APERTURE LIST*
G04 APERTURE END LIST*
%TO.C,*%
G36*
X88005055Y-75653886D02*
G01*
X88205038Y-75658943D01*
X88244258Y-75739436D01*
X88286593Y-75863581D01*
X88293407Y-75990198D01*
X88286137Y-76042486D01*
X88250498Y-76137139D01*
X88184559Y-76222391D01*
X88093705Y-76291355D01*
X88089669Y-76293655D01*
X88006615Y-76324640D01*
X87905315Y-76339354D01*
X87799470Y-76337622D01*
X87702783Y-76319269D01*
X87653029Y-76299245D01*
X87552094Y-76227938D01*
X87480468Y-76138526D01*
X87439589Y-76035342D01*
X87430900Y-75922716D01*
X87455841Y-75804978D01*
X87473904Y-75760938D01*
X87500415Y-75707976D01*
X87523036Y-75683053D01*
X87550640Y-75684694D01*
X87592101Y-75711421D01*
X87623691Y-75736015D01*
X87650850Y-75760666D01*
X87655522Y-75783167D01*
X87640085Y-75819291D01*
X87637107Y-75825072D01*
X87613939Y-75896522D01*
X87610485Y-75973205D01*
X87626720Y-76040258D01*
X87637479Y-76059318D01*
X87689980Y-76105921D01*
X87765308Y-76136879D01*
X87853303Y-76150391D01*
X87943805Y-76144654D01*
X88010162Y-76125423D01*
X88070932Y-76081962D01*
X88112110Y-76015787D01*
X88127043Y-75938548D01*
X88122224Y-75877289D01*
X88103689Y-75843642D01*
X88065319Y-75830261D01*
X88035692Y-75828873D01*
X87991119Y-75830677D01*
X87971313Y-75842973D01*
X87966224Y-75876088D01*
X87966057Y-75900422D01*
X87966057Y-75971971D01*
X87805071Y-75971971D01*
X87805071Y-75648828D01*
X88005055Y-75653886D01*
G37*
G36*
X86195212Y-80730000D02*
G01*
X86044853Y-80730000D01*
X86108974Y-80797077D01*
X86150491Y-80843995D01*
X86183306Y-80887175D01*
X86193097Y-80903225D01*
X86207074Y-80954286D01*
X86212397Y-81026328D01*
X86209488Y-81105728D01*
X86198772Y-81178863D01*
X86183017Y-81227632D01*
X86130516Y-81298471D01*
X86052958Y-81357362D01*
X85982366Y-81389360D01*
X85940746Y-81396738D01*
X85866162Y-81402577D01*
X85761396Y-81406757D01*
X85629230Y-81409158D01*
X85512824Y-81409718D01*
X85104085Y-81409718D01*
X85104085Y-81248732D01*
X85489237Y-81248732D01*
X85631703Y-81248125D01*
X85743232Y-81245778D01*
X85828647Y-81240904D01*
X85892772Y-81232717D01*
X85940433Y-81220427D01*
X85976452Y-81203250D01*
X86005654Y-81180396D01*
X86023833Y-81161487D01*
X86049984Y-81111521D01*
X86064929Y-81037615D01*
X86065673Y-81029335D01*
X86058075Y-80933800D01*
X86018347Y-80853537D01*
X85945998Y-80787647D01*
X85926841Y-80775685D01*
X85903020Y-80763316D01*
X85875747Y-80753891D01*
X85839752Y-80746898D01*
X85789764Y-80741825D01*
X85720514Y-80738160D01*
X85626730Y-80735392D01*
X85503143Y-80733008D01*
X85484191Y-80732692D01*
X85104085Y-80726441D01*
X85104085Y-80569014D01*
X86195212Y-80569014D01*
X86195212Y-80730000D01*
G37*
G36*
X87608310Y-87562957D02*
G01*
X87767903Y-87562957D01*
X87773072Y-87406443D01*
X87778240Y-87249929D01*
X87939226Y-87249929D01*
X87949562Y-87562957D01*
X88127043Y-87562957D01*
X88127043Y-87205211D01*
X88288029Y-87205211D01*
X88288029Y-87741831D01*
X87447324Y-87741831D01*
X87447324Y-87205211D01*
X87608310Y-87205211D01*
X87608310Y-87562957D01*
G37*
G36*
X88288029Y-94485352D02*
G01*
X87447324Y-94485352D01*
X87447324Y-94306479D01*
X88288029Y-94306479D01*
X88288029Y-94485352D01*
G37*
G36*
X88005279Y-96295857D02*
G01*
X88205488Y-96300915D01*
X88245152Y-96381408D01*
X88287111Y-96504022D01*
X88293643Y-96630741D01*
X88286137Y-96684458D01*
X88249886Y-96783230D01*
X88185067Y-96865475D01*
X88096393Y-96927791D01*
X87988575Y-96966781D01*
X87877753Y-96979123D01*
X87756426Y-96970169D01*
X87657563Y-96940513D01*
X87572684Y-96887409D01*
X87559250Y-96876041D01*
X87487952Y-96790938D01*
X87444534Y-96689642D01*
X87429859Y-96579406D01*
X87444787Y-96467484D01*
X87490180Y-96361132D01*
X87496832Y-96350454D01*
X87516409Y-96327313D01*
X87539032Y-96323198D01*
X87572544Y-96339810D01*
X87623691Y-96377987D01*
X87650850Y-96402638D01*
X87655522Y-96425138D01*
X87640085Y-96461263D01*
X87637107Y-96467044D01*
X87613939Y-96538493D01*
X87610485Y-96615177D01*
X87626720Y-96682229D01*
X87637479Y-96701289D01*
X87690913Y-96748914D01*
X87769073Y-96780571D01*
X87863162Y-96792778D01*
X87868870Y-96792817D01*
X87967558Y-96779764D01*
X88045689Y-96742655D01*
X88099523Y-96684567D01*
X88125320Y-96608575D01*
X88127043Y-96580520D01*
X88122224Y-96519261D01*
X88103689Y-96485614D01*
X88065319Y-96472233D01*
X88035692Y-96470845D01*
X87991119Y-96472649D01*
X87971313Y-96484944D01*
X87966224Y-96518059D01*
X87966057Y-96542394D01*
X87966057Y-96613943D01*
X87805071Y-96613943D01*
X87805071Y-96290800D01*
X88005279Y-96295857D01*
G37*
G36*
X86195212Y-73932817D02*
G01*
X85104085Y-73932817D01*
X85104085Y-73771831D01*
X86195212Y-73771831D01*
X86195212Y-73932817D01*
G37*
G36*
X88288029Y-80962535D02*
G01*
X87447324Y-80962535D01*
X87447324Y-80783662D01*
X88288029Y-80783662D01*
X88288029Y-80962535D01*
G37*
G36*
X87608310Y-79567324D02*
G01*
X87769296Y-79567324D01*
X87769296Y-79245352D01*
X87948169Y-79245352D01*
X87948169Y-79569284D01*
X88118099Y-79558380D01*
X88123197Y-79375035D01*
X88128294Y-79191690D01*
X88288029Y-79191690D01*
X88288029Y-79746197D01*
X87447324Y-79746197D01*
X87447324Y-79191690D01*
X87608310Y-79191690D01*
X87608310Y-79567324D01*
G37*
G36*
X87639516Y-89907456D02*
G01*
X87628101Y-89901758D01*
X87539050Y-89837162D01*
X87474831Y-89751512D01*
X87437769Y-89651558D01*
X87432245Y-89573270D01*
X87598904Y-89573270D01*
X87615126Y-89644458D01*
X87616307Y-89647324D01*
X87658079Y-89706207D01*
X87726240Y-89744062D01*
X87822348Y-89761607D01*
X87867990Y-89763098D01*
X87969842Y-89751521D01*
X88048755Y-89718241D01*
X88101757Y-89665432D01*
X88125871Y-89595269D01*
X88127043Y-89573714D01*
X88115656Y-89517916D01*
X88091874Y-89472791D01*
X88037199Y-89423768D01*
X87964545Y-89396492D01*
X87868214Y-89389159D01*
X87832393Y-89390669D01*
X87762979Y-89397620D01*
X87716395Y-89410578D01*
X87679731Y-89433960D01*
X87663730Y-89448386D01*
X87614538Y-89510291D01*
X87598904Y-89573270D01*
X87432245Y-89573270D01*
X87430184Y-89544052D01*
X87454400Y-89435743D01*
X87461693Y-89418084D01*
X87518036Y-89331624D01*
X87597123Y-89266191D01*
X87692683Y-89221883D01*
X87798446Y-89198797D01*
X87908140Y-89197032D01*
X88015496Y-89216686D01*
X88114243Y-89257856D01*
X88198111Y-89320642D01*
X88260829Y-89405140D01*
X88261063Y-89405587D01*
X88283243Y-89470643D01*
X88295385Y-89551984D01*
X88295439Y-89631025D01*
X88289783Y-89665959D01*
X88247770Y-89764901D01*
X88179446Y-89845695D01*
X88090420Y-89906340D01*
X87986303Y-89944839D01*
X87872707Y-89959190D01*
X87867990Y-89958716D01*
X87755241Y-89947396D01*
X87639516Y-89907456D01*
G37*
G36*
X88288029Y-89029718D02*
G01*
X87447324Y-89029718D01*
X87447324Y-88850845D01*
X88107813Y-88850845D01*
X88118099Y-88519929D01*
X88288029Y-88509025D01*
X88288029Y-89029718D01*
G37*
G36*
X87849789Y-95230354D02*
G01*
X87438381Y-95082668D01*
X87438381Y-94998166D01*
X87689947Y-94998166D01*
X87804644Y-95036900D01*
X87864674Y-95056498D01*
X87911150Y-95070429D01*
X87933755Y-95075633D01*
X87942300Y-95059625D01*
X87947468Y-95019063D01*
X87948169Y-94993935D01*
X87946772Y-94944513D01*
X87939484Y-94922891D01*
X87921662Y-94921116D01*
X87907923Y-94925003D01*
X87867507Y-94938205D01*
X87810088Y-94957389D01*
X87778812Y-94967967D01*
X87689947Y-94998166D01*
X87438381Y-94998166D01*
X87438381Y-94908173D01*
X87827075Y-94769630D01*
X87940156Y-94729385D01*
X88043564Y-94692699D01*
X88131987Y-94661445D01*
X88200115Y-94637500D01*
X88242637Y-94622737D01*
X88252887Y-94619306D01*
X88274182Y-94615212D01*
X88284438Y-94625669D01*
X88286564Y-94658328D01*
X88284544Y-94702529D01*
X88280089Y-94757994D01*
X88269526Y-94789479D01*
X88244759Y-94808721D01*
X88198592Y-94827128D01*
X88118099Y-94856724D01*
X88107817Y-95140486D01*
X88279085Y-95193508D01*
X88284492Y-95286613D01*
X88285044Y-95338558D01*
X88280656Y-95371977D01*
X88275548Y-95378879D01*
X88255383Y-95372836D01*
X88206341Y-95356300D01*
X88133190Y-95330933D01*
X88040700Y-95298400D01*
X87933755Y-95260406D01*
X87933638Y-95260364D01*
X87849789Y-95230354D01*
G37*
G36*
X84889437Y-73932817D02*
G01*
X84710564Y-73932817D01*
X84710564Y-73753943D01*
X84889437Y-73753943D01*
X84889437Y-73932817D01*
G37*
G36*
X83422676Y-90174507D02*
G01*
X81687606Y-90174507D01*
X81687606Y-89780986D01*
X83422676Y-89780986D01*
X83422676Y-90174507D01*
G37*
G36*
X86195212Y-83019577D02*
G01*
X85800802Y-83019577D01*
X85660313Y-83020008D01*
X85550734Y-83021911D01*
X85467209Y-83026199D01*
X85404877Y-83033786D01*
X85358880Y-83045585D01*
X85324358Y-83062511D01*
X85296454Y-83085475D01*
X85270308Y-83115393D01*
X85266650Y-83120012D01*
X85234102Y-83187948D01*
X85230357Y-83264461D01*
X85252844Y-83340936D01*
X85298994Y-83408760D01*
X85366235Y-83459319D01*
X85368205Y-83460308D01*
X85395420Y-83471679D01*
X85428760Y-83480398D01*
X85473488Y-83486928D01*
X85534866Y-83491730D01*
X85618157Y-83495266D01*
X85728624Y-83497999D01*
X85815106Y-83499524D01*
X86195212Y-83505609D01*
X86195212Y-83661683D01*
X85773454Y-83667074D01*
X85351695Y-83672464D01*
X85288413Y-83741552D01*
X85250958Y-83785922D01*
X85233717Y-83821907D01*
X85231003Y-83865801D01*
X85233588Y-83898650D01*
X85252769Y-83982103D01*
X85284860Y-84032494D01*
X85317061Y-84064978D01*
X85348762Y-84089966D01*
X85385168Y-84108546D01*
X85431487Y-84121804D01*
X85492922Y-84130830D01*
X85574680Y-84136711D01*
X85681965Y-84140534D01*
X85815106Y-84143302D01*
X86195212Y-84150037D01*
X86195212Y-84289577D01*
X85104085Y-84289577D01*
X85104085Y-84146479D01*
X85254444Y-84146479D01*
X85190323Y-84079401D01*
X85135538Y-84016678D01*
X85103712Y-83962485D01*
X85089182Y-83903892D01*
X85086198Y-83841801D01*
X85101040Y-83731169D01*
X85145324Y-83640316D01*
X85204379Y-83580355D01*
X85263864Y-83534984D01*
X85208260Y-83488197D01*
X85142608Y-83410381D01*
X85101073Y-83310725D01*
X85086590Y-83198171D01*
X85099307Y-83092261D01*
X85140412Y-83005656D01*
X85212936Y-82932429D01*
X85228167Y-82921197D01*
X85303829Y-82867535D01*
X85749520Y-82861929D01*
X86195212Y-82856324D01*
X86195212Y-83019577D01*
G37*
G36*
X85358771Y-79636808D02*
G01*
X85245603Y-79568140D01*
X85155837Y-79473150D01*
X85144676Y-79456972D01*
X85119184Y-79414245D01*
X85104249Y-79373773D01*
X85097150Y-79323510D01*
X85095166Y-79251412D01*
X85095155Y-79245352D01*
X85229296Y-79245352D01*
X85235279Y-79312068D01*
X85257241Y-79362683D01*
X85276265Y-79387862D01*
X85352182Y-79454107D01*
X85449353Y-79503216D01*
X85520797Y-79523103D01*
X85587043Y-79535530D01*
X85587043Y-78957534D01*
X85519965Y-78969706D01*
X85414006Y-79002928D01*
X85322019Y-79058650D01*
X85276265Y-79102841D01*
X85243971Y-79152263D01*
X85230689Y-79208584D01*
X85229296Y-79245352D01*
X85095155Y-79245352D01*
X85095141Y-79237714D01*
X85096537Y-79161567D01*
X85102496Y-79109426D01*
X85115674Y-79069573D01*
X85138730Y-79030291D01*
X85143893Y-79022726D01*
X85217354Y-78938590D01*
X85308578Y-78876199D01*
X85422274Y-78833256D01*
X85563149Y-78807468D01*
X85591515Y-78804494D01*
X85712254Y-78793031D01*
X85712254Y-79535530D01*
X85779331Y-79523571D01*
X85886579Y-79488856D01*
X85971807Y-79430109D01*
X86032592Y-79352608D01*
X86066515Y-79261631D01*
X86071153Y-79162456D01*
X86044085Y-79060361D01*
X86016239Y-79007167D01*
X85960471Y-78917455D01*
X86005613Y-78872313D01*
X86036982Y-78843455D01*
X86057519Y-78838297D01*
X86081129Y-78854694D01*
X86086811Y-78859800D01*
X86148742Y-78938233D01*
X86190752Y-79038116D01*
X86211623Y-79150401D01*
X86210136Y-79266040D01*
X86185071Y-79375987D01*
X86163144Y-79426327D01*
X86089116Y-79531484D01*
X85990822Y-79610666D01*
X85868987Y-79663497D01*
X85724334Y-79689604D01*
X85649648Y-79692535D01*
X85587043Y-79686890D01*
X85493924Y-79678493D01*
X85358771Y-79636808D01*
G37*
G36*
X88288029Y-77528169D02*
G01*
X87447324Y-77528169D01*
X87447324Y-77349295D01*
X88288029Y-77349295D01*
X88288029Y-77528169D01*
G37*
G36*
X84889437Y-69550422D02*
G01*
X84710564Y-69550422D01*
X84710564Y-69371549D01*
X84889437Y-69371549D01*
X84889437Y-69550422D01*
G37*
G36*
X88184808Y-90046439D02*
G01*
X88197841Y-90057560D01*
X88247248Y-90123195D01*
X88280794Y-90210287D01*
X88295176Y-90306796D01*
X88289221Y-90390647D01*
X88252547Y-90492886D01*
X88187796Y-90575029D01*
X88097640Y-90635265D01*
X87984748Y-90671784D01*
X87858082Y-90682854D01*
X87726111Y-90667996D01*
X87615835Y-90626451D01*
X87528890Y-90559245D01*
X87466911Y-90467407D01*
X87450407Y-90426732D01*
X87431184Y-90321657D01*
X87440865Y-90213387D01*
X87462770Y-90147676D01*
X87496172Y-90083221D01*
X87526279Y-90050677D01*
X87558899Y-90047356D01*
X87599836Y-90070570D01*
X87610781Y-90079171D01*
X87648962Y-90109988D01*
X87673660Y-90129585D01*
X87677427Y-90132420D01*
X87672067Y-90147709D01*
X87650403Y-90179398D01*
X87646124Y-90184921D01*
X87615597Y-90246502D01*
X87607497Y-90316306D01*
X87621688Y-90381287D01*
X87648557Y-90420620D01*
X87718375Y-90466371D01*
X87801716Y-90491344D01*
X87889874Y-90496173D01*
X87974147Y-90481492D01*
X88045831Y-90447936D01*
X88096223Y-90396140D01*
X88101000Y-90387631D01*
X88124634Y-90315946D01*
X88115317Y-90249395D01*
X88083636Y-90194171D01*
X88040229Y-90135336D01*
X88102039Y-90081067D01*
X88140864Y-90048837D01*
X88164713Y-90038213D01*
X88184808Y-90046439D01*
G37*
G36*
X86195212Y-91891690D02*
G01*
X85104085Y-91891690D01*
X85104085Y-91730704D01*
X86195212Y-91730704D01*
X86195212Y-91891690D01*
G37*
G36*
X83422676Y-85237605D02*
G01*
X81687606Y-85237605D01*
X81687606Y-84861971D01*
X83422676Y-84861971D01*
X83422676Y-85237605D01*
G37*
G36*
X86195212Y-95826901D02*
G01*
X84674789Y-95826901D01*
X84674789Y-95665915D01*
X86195212Y-95665915D01*
X86195212Y-95826901D01*
G37*
G36*
X88005055Y-92611069D02*
G01*
X88205038Y-92616126D01*
X88244281Y-92696619D01*
X88285767Y-92819749D01*
X88292114Y-92948140D01*
X88285240Y-92999669D01*
X88250892Y-93093310D01*
X88186131Y-93178041D01*
X88096257Y-93247056D01*
X88089669Y-93250838D01*
X88006615Y-93281823D01*
X87905315Y-93296537D01*
X87799470Y-93294805D01*
X87702783Y-93276452D01*
X87653029Y-93256428D01*
X87552701Y-93185531D01*
X87481057Y-93096614D01*
X87439661Y-92994427D01*
X87430079Y-92883717D01*
X87453875Y-92769234D01*
X87475666Y-92718198D01*
X87503256Y-92666412D01*
X87526284Y-92642207D01*
X87553874Y-92644183D01*
X87595146Y-92670938D01*
X87626190Y-92695083D01*
X87655223Y-92720694D01*
X87660349Y-92742280D01*
X87644001Y-92775849D01*
X87639605Y-92783316D01*
X87618255Y-92838199D01*
X87608389Y-92900512D01*
X87608310Y-92905575D01*
X87623499Y-92986971D01*
X87667601Y-93048925D01*
X87738415Y-93089658D01*
X87833743Y-93107390D01*
X87858419Y-93108028D01*
X87963372Y-93095955D01*
X88044191Y-93060852D01*
X88098759Y-93004389D01*
X88124961Y-92928240D01*
X88127043Y-92895731D01*
X88122224Y-92834472D01*
X88103689Y-92800825D01*
X88065319Y-92787444D01*
X88035692Y-92786056D01*
X87991119Y-92787860D01*
X87971313Y-92800156D01*
X87966224Y-92833271D01*
X87966057Y-92857605D01*
X87966057Y-92929155D01*
X87805071Y-92929155D01*
X87805071Y-92606011D01*
X88005055Y-92611069D01*
G37*
G36*
X85698909Y-88516948D02*
G01*
X85640943Y-88498945D01*
X85585695Y-88466523D01*
X85583502Y-88464988D01*
X85532835Y-88423028D01*
X85478917Y-88368604D01*
X85430531Y-88311672D01*
X85396456Y-88262185D01*
X85387249Y-88242521D01*
X85369487Y-88240189D01*
X85328072Y-88256734D01*
X85274682Y-88286238D01*
X85163351Y-88336752D01*
X85053259Y-88355887D01*
X85051032Y-88355640D01*
X84949261Y-88344353D01*
X84856212Y-88302857D01*
X84778968Y-88232109D01*
X84763919Y-88211730D01*
X84740164Y-88171467D01*
X84726624Y-88129457D01*
X84720641Y-88073626D01*
X84719507Y-88010059D01*
X84719899Y-87989989D01*
X84851982Y-87989989D01*
X84854280Y-88057031D01*
X84879872Y-88119363D01*
X84928983Y-88168834D01*
X84972996Y-88190026D01*
X85051032Y-88202473D01*
X85130824Y-88186364D01*
X85205853Y-88147127D01*
X85497606Y-88147127D01*
X85511574Y-88181852D01*
X85547815Y-88226801D01*
X85597831Y-88273948D01*
X85653126Y-88315265D01*
X85704283Y-88342378D01*
X85799514Y-88362775D01*
X85886683Y-88352412D01*
X85961625Y-88316091D01*
X86020173Y-88258614D01*
X86058160Y-88184783D01*
X86071418Y-88099399D01*
X86055783Y-88007265D01*
X86035864Y-87960238D01*
X85998591Y-87901899D01*
X85952978Y-87847708D01*
X85948025Y-87842867D01*
X85894323Y-87791861D01*
X85695964Y-87957546D01*
X85625284Y-88018161D01*
X85565717Y-88072250D01*
X85522194Y-88115101D01*
X85499649Y-88141999D01*
X85497606Y-88147127D01*
X85205853Y-88147127D01*
X85219179Y-88140158D01*
X85232308Y-88131412D01*
X85315814Y-88074542D01*
X85282283Y-88008817D01*
X85244799Y-87951901D01*
X85197951Y-87900489D01*
X85192927Y-87896118D01*
X85118781Y-87848582D01*
X85043873Y-87833590D01*
X84982605Y-87842128D01*
X84916370Y-87874385D01*
X84872754Y-87926390D01*
X84851982Y-87989989D01*
X84719899Y-87989989D01*
X84720938Y-87936767D01*
X84727190Y-87887314D01*
X84741204Y-87849816D01*
X84765921Y-87812386D01*
X84769622Y-87807497D01*
X84837150Y-87738484D01*
X84915842Y-87698486D01*
X85013854Y-87683733D01*
X85037779Y-87683491D01*
X85113031Y-87689143D01*
X85171460Y-87707763D01*
X85212318Y-87731365D01*
X85274060Y-87783140D01*
X85338843Y-87855206D01*
X85395662Y-87934956D01*
X85407623Y-87955130D01*
X85420321Y-87961341D01*
X85445885Y-87951543D01*
X85488268Y-87923328D01*
X85551426Y-87874292D01*
X85584006Y-87847806D01*
X85647641Y-87794525D01*
X85699706Y-87748832D01*
X85734669Y-87715726D01*
X85747004Y-87700462D01*
X85739350Y-87690480D01*
X85712929Y-87674272D01*
X85664132Y-87650046D01*
X85589352Y-87616010D01*
X85485792Y-87570722D01*
X85461923Y-87557587D01*
X85456435Y-87539261D01*
X85467577Y-87503728D01*
X85473776Y-87488224D01*
X85500405Y-87422433D01*
X85566941Y-87445909D01*
X85616396Y-87465847D01*
X85683459Y-87496054D01*
X85754055Y-87530176D01*
X85757621Y-87531969D01*
X85881765Y-87594555D01*
X86004020Y-87489071D01*
X86059596Y-87443528D01*
X86105735Y-87410169D01*
X86135548Y-87393772D01*
X86142023Y-87393321D01*
X86162325Y-87413482D01*
X86191044Y-87449836D01*
X86194567Y-87454728D01*
X86231363Y-87506403D01*
X86186943Y-87541343D01*
X86145359Y-87575334D01*
X86094720Y-87618373D01*
X86078114Y-87632836D01*
X86013704Y-87689389D01*
X86071036Y-87754686D01*
X86147732Y-87864373D01*
X86195601Y-87982396D01*
X86214259Y-88103070D01*
X86203322Y-88220711D01*
X86162404Y-88329631D01*
X86114600Y-88398952D01*
X86034839Y-88470288D01*
X85940577Y-88512433D01*
X85827212Y-88527111D01*
X85799514Y-88526353D01*
X85776005Y-88525710D01*
X85698909Y-88516948D01*
G37*
G36*
X88288029Y-80082912D02*
G01*
X88042078Y-80245206D01*
X87796127Y-80407499D01*
X88042078Y-80407764D01*
X88288029Y-80408028D01*
X88288029Y-80586901D01*
X87447324Y-80586901D01*
X87447324Y-80416788D01*
X87684331Y-80260680D01*
X87921338Y-80104573D01*
X87447324Y-80103943D01*
X87447324Y-79925070D01*
X88288029Y-79925070D01*
X88288029Y-80082912D01*
G37*
G36*
X85405330Y-95391813D02*
G01*
X85293817Y-95338899D01*
X85198773Y-95264029D01*
X85143753Y-95196422D01*
X85118954Y-95154755D01*
X85104313Y-95114838D01*
X85097249Y-95064952D01*
X85095182Y-94993379D01*
X85095149Y-94979080D01*
X85229363Y-94979080D01*
X85246271Y-95064410D01*
X85294524Y-95140149D01*
X85370174Y-95202549D01*
X85469269Y-95247860D01*
X85528909Y-95263455D01*
X85587043Y-95275236D01*
X85587043Y-94696018D01*
X85519965Y-94708109D01*
X85407045Y-94740934D01*
X85319720Y-94792844D01*
X85260465Y-94861534D01*
X85231751Y-94944697D01*
X85229363Y-94979080D01*
X85095149Y-94979080D01*
X85095141Y-94975628D01*
X85096298Y-94899905D01*
X85101659Y-94848208D01*
X85114059Y-94808818D01*
X85136336Y-94770012D01*
X85149556Y-94750731D01*
X85226069Y-94670914D01*
X85329106Y-94607571D01*
X85451938Y-94563972D01*
X85574099Y-94544299D01*
X85712254Y-94533850D01*
X85712254Y-94903122D01*
X85712928Y-95013682D01*
X85714812Y-95111022D01*
X85717696Y-95189871D01*
X85721372Y-95244960D01*
X85725630Y-95271018D01*
X85726895Y-95272394D01*
X85751224Y-95267650D01*
X85797362Y-95255523D01*
X85830235Y-95246053D01*
X85921973Y-95202006D01*
X86001961Y-95132121D01*
X86051668Y-95060215D01*
X86072237Y-94985836D01*
X86070099Y-94897291D01*
X86047400Y-94806151D01*
X86006283Y-94723984D01*
X85983964Y-94694849D01*
X85967962Y-94671353D01*
X85972434Y-94650022D01*
X86000429Y-94618350D01*
X86003329Y-94615441D01*
X86035607Y-94585497D01*
X86056381Y-94579002D01*
X86078931Y-94593603D01*
X86086811Y-94600645D01*
X86148335Y-94678662D01*
X86190249Y-94778335D01*
X86211276Y-94890603D01*
X86210140Y-95006403D01*
X86185566Y-95116674D01*
X86166010Y-95163105D01*
X86099561Y-95258660D01*
X86009494Y-95333566D01*
X85901537Y-95387635D01*
X85781415Y-95420681D01*
X85654855Y-95432517D01*
X85587043Y-95427423D01*
X85527585Y-95422956D01*
X85405330Y-95391813D01*
G37*
G36*
X85247184Y-93090140D02*
G01*
X85995855Y-93090140D01*
X86034446Y-93041080D01*
X86057322Y-93005336D01*
X86065879Y-92966991D01*
X86062881Y-92911301D01*
X86061288Y-92897981D01*
X86049539Y-92803943D01*
X86113874Y-92803943D01*
X86160678Y-92809082D01*
X86186046Y-92829544D01*
X86195654Y-92849826D01*
X86209639Y-92917649D01*
X86210733Y-93000578D01*
X86199541Y-93080588D01*
X86186579Y-93121091D01*
X86153611Y-93170074D01*
X86106953Y-93211978D01*
X86102315Y-93214933D01*
X86080582Y-93226734D01*
X86055883Y-93235651D01*
X86023145Y-93242085D01*
X85977296Y-93246437D01*
X85913262Y-93249108D01*
X85825971Y-93250499D01*
X85710349Y-93251009D01*
X85645176Y-93251060D01*
X85247184Y-93251126D01*
X85247184Y-93394225D01*
X85104085Y-93394225D01*
X85104085Y-93251126D01*
X84782113Y-93251126D01*
X84782113Y-93090140D01*
X85104085Y-93090140D01*
X85104085Y-92803943D01*
X85247184Y-92803943D01*
X85247184Y-93090140D01*
G37*
G36*
X85321964Y-72356843D02*
G01*
X85218503Y-72284685D01*
X85140623Y-72187599D01*
X85121213Y-72151459D01*
X85091160Y-72053749D01*
X85087432Y-71972971D01*
X85231665Y-71972971D01*
X85233338Y-71995825D01*
X85246797Y-72072026D01*
X85274909Y-72125936D01*
X85284441Y-72137019D01*
X85359545Y-72196969D01*
X85454088Y-72242484D01*
X85520797Y-72260849D01*
X85587043Y-72273277D01*
X85587043Y-71695280D01*
X85519965Y-71707453D01*
X85411300Y-71741896D01*
X85317577Y-71800278D01*
X85274352Y-71842861D01*
X85245198Y-71882721D01*
X85232388Y-71920796D01*
X85231665Y-71972971D01*
X85087432Y-71972971D01*
X85086194Y-71946143D01*
X85105473Y-71841204D01*
X85148003Y-71751717D01*
X85222118Y-71673564D01*
X85322558Y-71609870D01*
X85441631Y-71564034D01*
X85571642Y-71539450D01*
X85636233Y-71536195D01*
X85712254Y-71535915D01*
X85712254Y-72273277D01*
X85779331Y-72261010D01*
X85874874Y-72229525D01*
X85959634Y-72175614D01*
X86022334Y-72106783D01*
X86029946Y-72094213D01*
X86064135Y-71998884D01*
X86068695Y-71895280D01*
X86044766Y-71793374D01*
X85993487Y-71703142D01*
X85983964Y-71691750D01*
X85967962Y-71668254D01*
X85972434Y-71646923D01*
X86000429Y-71615252D01*
X86003329Y-71612343D01*
X86035607Y-71582398D01*
X86056381Y-71575903D01*
X86078931Y-71590505D01*
X86086811Y-71597546D01*
X86148742Y-71675980D01*
X86190752Y-71775862D01*
X86211623Y-71888147D01*
X86210136Y-72003787D01*
X86185071Y-72113733D01*
X86163144Y-72164074D01*
X86088911Y-72270298D01*
X85991473Y-72349363D01*
X85871001Y-72401186D01*
X85727668Y-72425687D01*
X85605101Y-72426074D01*
X85587043Y-72423489D01*
X85450874Y-72403997D01*
X85321964Y-72356843D01*
G37*
G36*
X83239331Y-90446641D02*
G01*
X83413733Y-90451760D01*
X83418436Y-91073345D01*
X83423140Y-91694929D01*
X81687606Y-91694929D01*
X81687606Y-91319295D01*
X83064930Y-91319295D01*
X83064930Y-90441521D01*
X83239331Y-90446641D01*
G37*
G36*
X83041871Y-83179478D02*
G01*
X83161762Y-83227996D01*
X83264211Y-83305393D01*
X83345133Y-83408835D01*
X83386567Y-83494649D01*
X83407162Y-83569161D01*
X83423230Y-83666199D01*
X83433633Y-83772673D01*
X83437231Y-83875496D01*
X83432889Y-83961578D01*
X83429250Y-83985493D01*
X83408734Y-84067367D01*
X83378574Y-84156540D01*
X83341656Y-84247401D01*
X83300866Y-84334343D01*
X83259089Y-84411755D01*
X83219212Y-84474031D01*
X83184121Y-84515559D01*
X83156700Y-84530732D01*
X83149661Y-84528905D01*
X83125962Y-84511748D01*
X83083412Y-84478123D01*
X83030431Y-84434712D01*
X83020212Y-84426186D01*
X82967351Y-84381968D01*
X82924689Y-84346304D01*
X82900062Y-84325744D01*
X82897994Y-84324024D01*
X82899634Y-84304269D01*
X82918934Y-84265412D01*
X82945723Y-84224497D01*
X83008568Y-84121574D01*
X83054175Y-84014962D01*
X83082629Y-83909354D01*
X83094015Y-83809445D01*
X83088420Y-83719927D01*
X83065927Y-83645496D01*
X83026624Y-83590844D01*
X82970595Y-83560665D01*
X82933547Y-83556197D01*
X82887738Y-83563301D01*
X82848557Y-83587178D01*
X82813605Y-83631676D01*
X82780487Y-83700644D01*
X82746804Y-83797930D01*
X82716062Y-83905305D01*
X82664737Y-84071854D01*
X82608343Y-84205338D01*
X82544363Y-84308372D01*
X82470281Y-84383575D01*
X82383583Y-84433564D01*
X82281751Y-84460955D01*
X82174773Y-84468450D01*
X82044529Y-84452482D01*
X81930047Y-84406548D01*
X81833090Y-84333604D01*
X81755420Y-84236606D01*
X81698799Y-84118510D01*
X81664989Y-83982270D01*
X81655754Y-83830844D01*
X81672854Y-83667187D01*
X81678858Y-83636690D01*
X81707111Y-83535717D01*
X81748409Y-83429101D01*
X81796768Y-83330538D01*
X81846178Y-83253758D01*
X81879841Y-83210684D01*
X82024184Y-83312406D01*
X82168527Y-83414127D01*
X82099340Y-83543296D01*
X82044206Y-83665889D01*
X82012081Y-83782096D01*
X82003390Y-83886999D01*
X82018560Y-83975684D01*
X82056254Y-84041318D01*
X82102861Y-84068828D01*
X82162134Y-84072974D01*
X82220931Y-84055169D01*
X82264570Y-84018947D01*
X82282769Y-83983892D01*
X82306849Y-83922656D01*
X82333747Y-83843699D01*
X82360397Y-83755478D01*
X82361764Y-83750637D01*
X82415859Y-83579804D01*
X82473845Y-83442164D01*
X82538090Y-83335170D01*
X82610967Y-83256273D01*
X82694844Y-83202925D01*
X82792092Y-83172578D01*
X82905081Y-83162683D01*
X82908618Y-83162676D01*
X83041871Y-83179478D01*
G37*
G36*
X86195212Y-68423521D02*
G01*
X85810060Y-68423521D01*
X85667593Y-68424128D01*
X85556065Y-68426475D01*
X85470650Y-68431349D01*
X85406524Y-68439536D01*
X85358864Y-68451825D01*
X85322845Y-68469003D01*
X85293643Y-68491857D01*
X85275463Y-68510766D01*
X85249312Y-68560732D01*
X85234367Y-68634638D01*
X85233623Y-68642918D01*
X85232364Y-68708057D01*
X85243960Y-68756215D01*
X85268306Y-68799155D01*
X85296501Y-68837546D01*
X85326195Y-68867211D01*
X85362253Y-68889265D01*
X85409541Y-68904820D01*
X85472923Y-68914992D01*
X85557265Y-68920892D01*
X85667431Y-68923636D01*
X85808287Y-68924337D01*
X85815106Y-68924338D01*
X86195212Y-68924366D01*
X86195212Y-69085352D01*
X85104085Y-69085352D01*
X85104085Y-68924366D01*
X85252008Y-68924366D01*
X85204378Y-68886900D01*
X85141181Y-68815376D01*
X85100692Y-68721477D01*
X85086200Y-68612872D01*
X85086198Y-68611338D01*
X85101252Y-68497703D01*
X85146235Y-68403378D01*
X85220879Y-68328896D01*
X85232762Y-68320689D01*
X85307071Y-68271479D01*
X85751141Y-68266132D01*
X86195212Y-68260786D01*
X86195212Y-68423521D01*
G37*
G36*
X86195212Y-89423627D02*
G01*
X85439472Y-89418961D01*
X84683733Y-89414295D01*
X84678232Y-89338274D01*
X84672732Y-89262253D01*
X86195212Y-89262253D01*
X86195212Y-89423627D01*
G37*
G36*
X87447324Y-91502361D02*
G01*
X87448448Y-91404130D01*
X87452446Y-91333805D01*
X87460261Y-91283567D01*
X87472833Y-91245599D01*
X87480009Y-91230962D01*
X87533068Y-91166868D01*
X87606194Y-91124682D01*
X87690787Y-91104912D01*
X87778246Y-91108068D01*
X87859967Y-91134658D01*
X87927351Y-91185193D01*
X87942394Y-91203588D01*
X87976106Y-91249867D01*
X88118652Y-91168447D01*
X88182703Y-91132633D01*
X88235020Y-91104818D01*
X88267908Y-91089025D01*
X88274613Y-91086893D01*
X88282000Y-91102983D01*
X88286872Y-91144581D01*
X88288029Y-91183920D01*
X88288029Y-91281080D01*
X88153874Y-91357409D01*
X88087757Y-91396443D01*
X88047483Y-91425128D01*
X88026947Y-91449215D01*
X88020045Y-91474458D01*
X88019719Y-91483840D01*
X88019719Y-91533943D01*
X88288029Y-91533943D01*
X88288029Y-91712817D01*
X87447324Y-91712817D01*
X87447324Y-91533943D01*
X87608310Y-91533943D01*
X87840845Y-91533943D01*
X87840845Y-91436577D01*
X87838123Y-91375706D01*
X87827518Y-91338844D01*
X87805374Y-91314474D01*
X87801091Y-91311366D01*
X87739409Y-91284134D01*
X87684681Y-91289367D01*
X87641594Y-91323825D01*
X87614839Y-91384272D01*
X87608310Y-91444507D01*
X87608310Y-91533943D01*
X87447324Y-91533943D01*
X87447324Y-91502361D01*
G37*
G36*
X85837675Y-90533663D02*
G01*
X85739189Y-90510547D01*
X85649947Y-90457596D01*
X85639494Y-90448539D01*
X85572010Y-90364310D01*
X85531714Y-90257824D01*
X85518420Y-90128467D01*
X85520866Y-90073145D01*
X85642430Y-90073145D01*
X85649407Y-90181635D01*
X85680351Y-90266808D01*
X85734611Y-90327150D01*
X85811533Y-90361145D01*
X85842719Y-90366431D01*
X85932678Y-90361800D01*
X86004431Y-90328050D01*
X86054788Y-90268531D01*
X86080557Y-90186597D01*
X86082048Y-90115040D01*
X86069886Y-90050329D01*
X86047880Y-89994104D01*
X86039551Y-89980885D01*
X85967486Y-89907084D01*
X85882020Y-89865191D01*
X85782640Y-89852535D01*
X85679444Y-89852535D01*
X85660074Y-89942852D01*
X85642430Y-90073145D01*
X85520866Y-90073145D01*
X85521486Y-90059128D01*
X85528492Y-89989583D01*
X85536561Y-89929553D01*
X85543771Y-89892781D01*
X85547531Y-89864925D01*
X85530577Y-89854094D01*
X85499118Y-89852535D01*
X85414129Y-89866734D01*
X85336045Y-89904827D01*
X85287445Y-89949274D01*
X85247487Y-90027669D01*
X85236611Y-90124935D01*
X85254701Y-90242186D01*
X85256541Y-90249262D01*
X85275906Y-90324457D01*
X85285029Y-90372788D01*
X85282946Y-90401941D01*
X85268692Y-90419603D01*
X85241305Y-90433461D01*
X85233007Y-90436935D01*
X85174111Y-90461428D01*
X85145791Y-90393988D01*
X85105447Y-90264651D01*
X85090485Y-90134726D01*
X85100404Y-90011285D01*
X85134704Y-89901401D01*
X85186413Y-89819465D01*
X85222291Y-89781643D01*
X85260787Y-89751984D01*
X85306623Y-89729525D01*
X85364522Y-89713305D01*
X85439205Y-89702360D01*
X85535395Y-89695727D01*
X85657812Y-89692444D01*
X85811180Y-89691549D01*
X86195212Y-89691549D01*
X86195212Y-89852535D01*
X86063307Y-89852535D01*
X86109330Y-89901725D01*
X86169282Y-89981124D01*
X86202377Y-90067205D01*
X86213072Y-90171846D01*
X86213099Y-90178369D01*
X86203928Y-90283412D01*
X86179913Y-90353211D01*
X86116523Y-90436719D01*
X86033549Y-90495478D01*
X85938197Y-90528216D01*
X85842719Y-90533390D01*
X85837675Y-90533663D01*
G37*
G36*
X87643976Y-85212529D02*
G01*
X87567212Y-85166780D01*
X87513717Y-85113633D01*
X87457714Y-85021581D01*
X87431773Y-84920068D01*
X87432864Y-84878461D01*
X87598795Y-84878461D01*
X87616062Y-84943680D01*
X87658848Y-85001807D01*
X87696026Y-85029680D01*
X87766319Y-85055023D01*
X87853161Y-85064537D01*
X87940893Y-85057965D01*
X88013855Y-85035051D01*
X88014161Y-85034892D01*
X88080168Y-84984913D01*
X88118354Y-84921922D01*
X88126712Y-84852904D01*
X88103238Y-84784848D01*
X88090988Y-84767298D01*
X88030414Y-84718368D01*
X87944963Y-84690876D01*
X87839446Y-84686295D01*
X87829155Y-84687054D01*
X87729242Y-84708763D01*
X87654973Y-84755286D01*
X87610997Y-84816078D01*
X87598795Y-84878461D01*
X87432864Y-84878461D01*
X87434499Y-84816135D01*
X87464492Y-84716825D01*
X87520358Y-84629181D01*
X87600698Y-84560246D01*
X87626361Y-84545776D01*
X87737047Y-84505910D01*
X87853767Y-84492446D01*
X87969561Y-84503685D01*
X88077468Y-84537925D01*
X88170529Y-84593467D01*
X88241783Y-84668611D01*
X88261124Y-84700844D01*
X88286417Y-84775530D01*
X88297307Y-84863957D01*
X88292530Y-84948727D01*
X88282127Y-84989239D01*
X88231318Y-85091060D01*
X88162906Y-85165621D01*
X88073652Y-85214887D01*
X87960315Y-85240826D01*
X87858733Y-85246157D01*
X87853161Y-85245780D01*
X87738698Y-85238046D01*
X87643976Y-85212529D01*
G37*
G36*
X86096185Y-90710519D02*
G01*
X86154833Y-90787964D01*
X86194622Y-90886713D01*
X86213906Y-90996710D01*
X86211039Y-91107897D01*
X86184373Y-91210217D01*
X86179727Y-91220915D01*
X86137947Y-91286805D01*
X86075319Y-91356048D01*
X86003478Y-91417005D01*
X85950330Y-91450397D01*
X85829334Y-91493807D01*
X85694674Y-91510613D01*
X85555369Y-91501875D01*
X85420439Y-91468653D01*
X85298903Y-91412006D01*
X85235159Y-91366369D01*
X85162385Y-91283174D01*
X85113538Y-91181648D01*
X85089280Y-91069783D01*
X85090272Y-90955569D01*
X85117176Y-90847000D01*
X85170652Y-90752067D01*
X85183073Y-90737133D01*
X85238240Y-90674606D01*
X85297469Y-90721851D01*
X85333850Y-90752362D01*
X85345466Y-90771914D01*
X85335555Y-90791808D01*
X85321920Y-90807188D01*
X85260927Y-90896338D01*
X85233408Y-90990204D01*
X85239274Y-91083935D01*
X85278432Y-91172681D01*
X85329945Y-91233382D01*
X85414861Y-91293889D01*
X85516811Y-91329647D01*
X85641635Y-91342627D01*
X85653828Y-91342744D01*
X85777189Y-91330248D01*
X85885577Y-91293777D01*
X85973158Y-91236059D01*
X86030160Y-91166850D01*
X86062607Y-91076988D01*
X86063876Y-90978939D01*
X86034508Y-90881065D01*
X86008713Y-90835121D01*
X85959133Y-90760201D01*
X86005135Y-90714200D01*
X86051136Y-90668198D01*
X86096185Y-90710519D01*
G37*
G36*
X87608310Y-86042535D02*
G01*
X87769296Y-86042535D01*
X87769296Y-85720563D01*
X87948169Y-85720563D01*
X87948169Y-86042535D01*
X88127043Y-86042535D01*
X88127043Y-85666901D01*
X88288029Y-85666901D01*
X88288029Y-86221408D01*
X87447324Y-86221408D01*
X87447324Y-85666901D01*
X87608310Y-85666901D01*
X87608310Y-86042535D01*
G37*
G36*
X85640075Y-85496927D02*
G01*
X85510917Y-85483282D01*
X85387633Y-85445186D01*
X85276098Y-85381968D01*
X85216348Y-85330789D01*
X85142327Y-85232458D01*
X85098208Y-85118375D01*
X85085327Y-84994328D01*
X85088245Y-84975332D01*
X85233148Y-84975332D01*
X85234445Y-85065375D01*
X85265616Y-85147373D01*
X85323723Y-85217920D01*
X85405826Y-85273605D01*
X85508985Y-85311022D01*
X85630262Y-85326761D01*
X85649648Y-85327042D01*
X85782872Y-85314535D01*
X85892345Y-85276314D01*
X85980231Y-85211330D01*
X86036539Y-85139225D01*
X86062340Y-85069936D01*
X86068682Y-84987280D01*
X86055086Y-84908211D01*
X86043812Y-84881101D01*
X85985109Y-84804567D01*
X85900932Y-84745101D01*
X85798356Y-84704928D01*
X85684456Y-84686274D01*
X85566309Y-84691365D01*
X85492801Y-84707789D01*
X85383959Y-84754669D01*
X85304067Y-84821522D01*
X85264666Y-84880653D01*
X85233148Y-84975332D01*
X85088245Y-84975332D01*
X85105021Y-84866101D01*
X85107233Y-84858516D01*
X85147040Y-84776489D01*
X85213230Y-84695254D01*
X85297358Y-84623770D01*
X85368559Y-84581250D01*
X85420541Y-84557571D01*
X85466789Y-84542754D01*
X85518553Y-84534806D01*
X85587087Y-84531730D01*
X85649648Y-84531405D01*
X85742972Y-84533271D01*
X85811155Y-84539469D01*
X85864719Y-84551538D01*
X85911204Y-84569636D01*
X86009329Y-84627875D01*
X86096567Y-84704359D01*
X86162238Y-84789198D01*
X86176279Y-84815094D01*
X86205803Y-84910188D01*
X86213986Y-85019503D01*
X86201106Y-85128757D01*
X86168361Y-85221916D01*
X86097954Y-85320444D01*
X86004047Y-85397881D01*
X85892515Y-85453555D01*
X85769233Y-85486794D01*
X85649648Y-85496176D01*
X85640075Y-85496927D01*
G37*
G36*
X84889437Y-91909577D02*
G01*
X84710564Y-91909577D01*
X84710564Y-91730704D01*
X84889437Y-91730704D01*
X84889437Y-91909577D01*
G37*
G36*
X85247184Y-80103943D02*
G01*
X85587617Y-80103943D01*
X85728126Y-80103103D01*
X85837096Y-80099903D01*
X85918738Y-80093329D01*
X85977265Y-80082363D01*
X86016886Y-80065990D01*
X86041814Y-80043193D01*
X86056258Y-80012955D01*
X86061898Y-79989483D01*
X86064805Y-79929297D01*
X86055224Y-79872653D01*
X86054950Y-79871857D01*
X86036087Y-79817746D01*
X86107148Y-79817746D01*
X86155961Y-79821655D01*
X86182297Y-79837826D01*
X86195654Y-79863629D01*
X86211437Y-79938504D01*
X86210442Y-80022991D01*
X86193749Y-80100447D01*
X86178111Y-80134274D01*
X86154157Y-80171238D01*
X86129730Y-80199877D01*
X86100059Y-80221336D01*
X86060373Y-80236761D01*
X86005901Y-80247295D01*
X85931872Y-80254084D01*
X85833515Y-80258273D01*
X85706059Y-80261005D01*
X85646011Y-80261945D01*
X85247184Y-80267905D01*
X85247184Y-80329023D01*
X85244926Y-80368159D01*
X85231282Y-80385553D01*
X85195942Y-80390008D01*
X85175634Y-80390140D01*
X85129824Y-80388245D01*
X85109465Y-80376543D01*
X85104245Y-80346008D01*
X85104085Y-80327535D01*
X85104085Y-80264929D01*
X84782113Y-80264929D01*
X84782113Y-80103943D01*
X85104085Y-80103943D01*
X85104085Y-79817746D01*
X85247184Y-79817746D01*
X85247184Y-80103943D01*
G37*
G36*
X86195212Y-75542676D02*
G01*
X85810060Y-75542676D01*
X85664947Y-75543330D01*
X85551007Y-75545916D01*
X85463650Y-75551366D01*
X85398288Y-75560613D01*
X85350333Y-75574591D01*
X85315195Y-75594231D01*
X85288287Y-75620468D01*
X85265529Y-75653395D01*
X85233423Y-75737483D01*
X85233619Y-75824530D01*
X85264055Y-75907551D01*
X85322670Y-75979558D01*
X85372456Y-76015723D01*
X85396276Y-76028092D01*
X85423549Y-76037517D01*
X85459544Y-76044510D01*
X85509532Y-76049583D01*
X85578783Y-76053248D01*
X85672566Y-76056016D01*
X85796153Y-76058400D01*
X85815106Y-76058715D01*
X86195212Y-76064966D01*
X86195212Y-76204507D01*
X85104085Y-76204507D01*
X85104085Y-76061408D01*
X85266316Y-76061408D01*
X85205074Y-76007637D01*
X85134956Y-75926576D01*
X85096343Y-75832038D01*
X85086590Y-75736733D01*
X85101761Y-75621011D01*
X85145626Y-75525007D01*
X85217260Y-75450621D01*
X85231004Y-75441007D01*
X85307069Y-75390633D01*
X85751140Y-75385028D01*
X86195212Y-75379422D01*
X86195212Y-75542676D01*
G37*
G36*
X88288029Y-88385774D02*
G01*
X87447324Y-88385774D01*
X87447324Y-88206901D01*
X88107813Y-88206901D01*
X88112956Y-88041443D01*
X88118099Y-87875986D01*
X88288029Y-87865082D01*
X88288029Y-88385774D01*
G37*
G36*
X87608310Y-84146479D02*
G01*
X87787184Y-84146479D01*
X87787184Y-83824507D01*
X87948169Y-83824507D01*
X87948169Y-84146479D01*
X88288029Y-84146479D01*
X88288029Y-84343239D01*
X87447324Y-84343239D01*
X87447324Y-83788732D01*
X87608310Y-83788732D01*
X87608310Y-84146479D01*
G37*
G36*
X88288029Y-93610094D02*
G01*
X88043657Y-93770469D01*
X87799285Y-93930845D01*
X88288029Y-93930845D01*
X88288029Y-94109718D01*
X87447324Y-94109718D01*
X87447706Y-93939788D01*
X87921338Y-93635704D01*
X87447324Y-93625722D01*
X87447324Y-93465774D01*
X88288029Y-93465774D01*
X88288029Y-93610094D01*
G37*
G36*
X85416243Y-68021633D02*
G01*
X85361117Y-68003346D01*
X85255742Y-67942726D01*
X85174615Y-67862415D01*
X85118886Y-67767935D01*
X85089706Y-67664808D01*
X85089059Y-67618348D01*
X85234215Y-67618348D01*
X85262395Y-67707183D01*
X85319081Y-67782634D01*
X85352956Y-67809841D01*
X85446621Y-67855038D01*
X85553586Y-67876536D01*
X85663950Y-67874681D01*
X85767812Y-67849819D01*
X85855274Y-67802297D01*
X85867977Y-67791834D01*
X85938404Y-67712092D01*
X85973542Y-67626974D01*
X85973610Y-67535457D01*
X85942622Y-67444185D01*
X85884913Y-67362651D01*
X85806134Y-67303727D01*
X85713047Y-67267544D01*
X85612411Y-67254230D01*
X85510985Y-67263915D01*
X85415530Y-67296728D01*
X85332805Y-67352800D01*
X85270109Y-67431303D01*
X85236226Y-67523824D01*
X85234215Y-67618348D01*
X85089059Y-67618348D01*
X85088227Y-67558554D01*
X85115597Y-67454697D01*
X85172969Y-67358759D01*
X85217039Y-67311997D01*
X85273044Y-67260845D01*
X85104085Y-67260845D01*
X85104085Y-67099859D01*
X85636233Y-67100644D01*
X85800483Y-67101151D01*
X85933300Y-67102515D01*
X86039022Y-67105303D01*
X86121989Y-67110082D01*
X86186541Y-67117419D01*
X86237017Y-67127881D01*
X86277758Y-67142036D01*
X86313102Y-67160449D01*
X86347389Y-67183689D01*
X86363346Y-67195657D01*
X86434005Y-67271149D01*
X86481541Y-67372602D01*
X86506327Y-67500909D01*
X86509292Y-67542801D01*
X86510281Y-67621104D01*
X86506642Y-67695679D01*
X86499159Y-67750925D01*
X86498735Y-67752746D01*
X86481191Y-67811826D01*
X86457302Y-67874652D01*
X86431269Y-67932060D01*
X86407295Y-67974887D01*
X86389580Y-67993966D01*
X86388026Y-67994225D01*
X86362458Y-67986652D01*
X86322259Y-67968339D01*
X86320505Y-67967436D01*
X86268701Y-67940648D01*
X86316907Y-67837753D01*
X86343104Y-67774784D01*
X86357898Y-67716161D01*
X86364202Y-67646832D01*
X86365127Y-67588600D01*
X86363413Y-67509405D01*
X86356993Y-67455840D01*
X86343976Y-67417873D01*
X86328261Y-67392945D01*
X86274512Y-67331705D01*
X86217023Y-67293157D01*
X86144931Y-67272038D01*
X86061403Y-67263727D01*
X85929409Y-67257061D01*
X86007589Y-67338654D01*
X86053744Y-67394758D01*
X86090094Y-67453226D01*
X86104616Y-67488117D01*
X86122319Y-67610888D01*
X86106782Y-67724770D01*
X86060101Y-67826463D01*
X85984373Y-67912662D01*
X85881694Y-67980065D01*
X85765373Y-68022600D01*
X85650285Y-68040550D01*
X85553586Y-68040107D01*
X85529009Y-68039994D01*
X85416243Y-68021633D01*
G37*
G36*
X83422676Y-93847371D02*
G01*
X83421588Y-93925401D01*
X83418649Y-93989605D01*
X83414350Y-94031880D01*
X83410752Y-94044131D01*
X83391000Y-94046520D01*
X83339001Y-94048749D01*
X83258282Y-94050770D01*
X83152370Y-94052534D01*
X83024792Y-94053993D01*
X82879075Y-94055099D01*
X82718748Y-94055803D01*
X82547336Y-94056056D01*
X81687606Y-94056056D01*
X81687606Y-93662535D01*
X83422676Y-93662535D01*
X83422676Y-93847371D01*
G37*
G36*
X86195212Y-96953802D02*
G01*
X84728451Y-96953802D01*
X84728451Y-96059436D01*
X84889437Y-96059436D01*
X84889437Y-96792817D01*
X85390282Y-96792817D01*
X85390282Y-96130986D01*
X85533381Y-96130986D01*
X85533381Y-96792817D01*
X86052113Y-96792817D01*
X86052113Y-96041549D01*
X86195212Y-96041549D01*
X86195212Y-96953802D01*
G37*
G36*
X85104085Y-82411408D02*
G01*
X85283061Y-82411408D01*
X85213299Y-82348382D01*
X85140388Y-82266253D01*
X85099322Y-82177033D01*
X85093611Y-82131391D01*
X85231799Y-82131391D01*
X85259460Y-82216523D01*
X85315481Y-82294460D01*
X85397861Y-82359486D01*
X85411302Y-82367189D01*
X85466002Y-82394641D01*
X85514566Y-82410404D01*
X85570895Y-82417494D01*
X85648889Y-82418928D01*
X85649648Y-82418925D01*
X85773796Y-82408041D01*
X85879968Y-82377895D01*
X85961998Y-82330531D01*
X85986547Y-82307356D01*
X86038859Y-82227992D01*
X86065925Y-82138835D01*
X86065899Y-82050075D01*
X86044869Y-81985696D01*
X85985945Y-81906439D01*
X85902768Y-81850108D01*
X85793749Y-81815984D01*
X85657300Y-81803348D01*
X85641663Y-81803239D01*
X85560491Y-81805710D01*
X85499415Y-81815284D01*
X85442965Y-81835202D01*
X85406924Y-81852429D01*
X85339678Y-81894244D01*
X85285698Y-81942017D01*
X85269561Y-81962398D01*
X85234499Y-82044778D01*
X85231799Y-82131391D01*
X85093611Y-82131391D01*
X85086202Y-82072180D01*
X85086198Y-82070021D01*
X85102514Y-81955911D01*
X85149234Y-81855754D01*
X85223008Y-81771636D01*
X85320489Y-81705643D01*
X85438332Y-81659862D01*
X85573187Y-81636381D01*
X85721708Y-81637284D01*
X85771199Y-81643011D01*
X85913616Y-81676379D01*
X86029950Y-81731686D01*
X86118912Y-81807666D01*
X86179211Y-81903053D01*
X86209553Y-82016581D01*
X86213099Y-82076278D01*
X86209875Y-82148886D01*
X86197118Y-82203369D01*
X86170198Y-82257041D01*
X86160638Y-82272479D01*
X86123078Y-82324135D01*
X86084889Y-82365018D01*
X86066729Y-82378833D01*
X86053812Y-82388449D01*
X86056853Y-82395571D01*
X86080155Y-82400900D01*
X86128023Y-82405138D01*
X86204759Y-82408984D01*
X86266761Y-82411408D01*
X86508240Y-82420352D01*
X86519240Y-82572394D01*
X85104085Y-82572394D01*
X85104085Y-82411408D01*
G37*
G36*
X83082817Y-96596056D02*
G01*
X82009578Y-96596056D01*
X82009578Y-96953802D01*
X81365634Y-96953802D01*
X81365634Y-96864366D01*
X81455071Y-96864366D01*
X81902254Y-96864366D01*
X81902254Y-96712324D01*
X81901773Y-96653506D01*
X81902620Y-96605985D01*
X81908229Y-96568562D01*
X81922031Y-96540036D01*
X81947461Y-96519208D01*
X81987952Y-96504879D01*
X82046938Y-96495850D01*
X82127851Y-96490920D01*
X82234124Y-96488890D01*
X82369192Y-96488560D01*
X82536488Y-96488732D01*
X82542218Y-96488732D01*
X82703499Y-96488944D01*
X82832788Y-96489695D01*
X82933864Y-96491158D01*
X83010507Y-96493507D01*
X83066496Y-96496914D01*
X83105613Y-96501553D01*
X83131637Y-96507596D01*
X83148348Y-96515217D01*
X83150387Y-96516577D01*
X83169520Y-96533238D01*
X83181321Y-96555936D01*
X83187525Y-96592870D01*
X83189867Y-96652240D01*
X83190141Y-96704394D01*
X83190141Y-96864366D01*
X83637324Y-96864366D01*
X83637324Y-95415493D01*
X83190141Y-95415493D01*
X83190141Y-95566257D01*
X83188146Y-95649441D01*
X83181438Y-95703923D01*
X83168936Y-95736591D01*
X83162033Y-95745130D01*
X83150396Y-95752953D01*
X83130365Y-95759205D01*
X83098264Y-95764056D01*
X83050418Y-95767675D01*
X82983152Y-95770230D01*
X82892792Y-95771891D01*
X82775661Y-95772826D01*
X82628085Y-95773205D01*
X82550800Y-95773239D01*
X82381161Y-95773417D01*
X82243882Y-95773222D01*
X82135554Y-95771557D01*
X82052769Y-95767328D01*
X81992121Y-95759439D01*
X81950199Y-95746793D01*
X81923598Y-95728297D01*
X81908908Y-95702854D01*
X81902722Y-95669369D01*
X81901632Y-95626746D01*
X81902229Y-95573890D01*
X81902254Y-95564763D01*
X81902254Y-95415493D01*
X81455071Y-95415493D01*
X81455071Y-96864366D01*
X81365634Y-96864366D01*
X81365634Y-95308169D01*
X82009578Y-95308169D01*
X82009578Y-95683802D01*
X83081566Y-95683802D01*
X83086663Y-95500457D01*
X83091761Y-95317112D01*
X83409261Y-95312228D01*
X83726761Y-95307343D01*
X83726761Y-96953802D01*
X83082817Y-96953802D01*
X83082817Y-96596056D01*
G37*
G36*
X83422210Y-87960950D02*
G01*
X83421743Y-88126408D01*
X82880110Y-88537817D01*
X82338477Y-88949225D01*
X82880577Y-88953955D01*
X83422676Y-88958686D01*
X83422676Y-89333802D01*
X81686355Y-89333802D01*
X81691452Y-89151948D01*
X81696550Y-88970094D01*
X82204075Y-88584026D01*
X82711601Y-88197957D01*
X82199604Y-88193211D01*
X81687606Y-88188465D01*
X81687606Y-87795493D01*
X83422676Y-87795493D01*
X83422210Y-87960950D01*
G37*
G36*
X85227260Y-92089797D02*
G01*
X85254470Y-92096816D01*
X85264031Y-92113979D01*
X85265071Y-92133743D01*
X85279942Y-92210275D01*
X85319918Y-92288259D01*
X85365720Y-92342396D01*
X85408471Y-92378713D01*
X85453019Y-92406329D01*
X85505210Y-92426593D01*
X85570893Y-92440849D01*
X85655915Y-92450446D01*
X85766122Y-92456729D01*
X85877712Y-92460310D01*
X86195212Y-92468522D01*
X86195212Y-92607183D01*
X85104085Y-92607183D01*
X85104085Y-92464084D01*
X85324100Y-92464084D01*
X85252383Y-92412133D01*
X85166450Y-92330113D01*
X85111493Y-92231970D01*
X85093649Y-92163645D01*
X85081625Y-92088450D01*
X85173348Y-92088450D01*
X85227260Y-92089797D01*
G37*
G36*
X85228751Y-69730790D02*
G01*
X85255252Y-69738235D01*
X85264262Y-69756076D01*
X85265071Y-69772849D01*
X85282028Y-69859808D01*
X85329349Y-69941973D01*
X85401709Y-70012087D01*
X85470775Y-70053130D01*
X85501540Y-70065254D01*
X85537617Y-70074092D01*
X85584969Y-70080146D01*
X85649562Y-70083918D01*
X85737358Y-70085911D01*
X85854321Y-70086627D01*
X85868768Y-70086649D01*
X86195212Y-70087042D01*
X86195212Y-70248028D01*
X85104085Y-70248028D01*
X85104085Y-70087042D01*
X85282017Y-70087042D01*
X85203336Y-70008361D01*
X85135940Y-69922253D01*
X85095871Y-69829195D01*
X85086297Y-69760598D01*
X85092636Y-69741553D01*
X85117286Y-69732085D01*
X85168468Y-69729315D01*
X85175634Y-69729295D01*
X85228751Y-69730790D01*
G37*
G36*
X86195212Y-69532535D02*
G01*
X85104085Y-69532535D01*
X85104085Y-69371549D01*
X86195212Y-69371549D01*
X86195212Y-69532535D01*
G37*
G36*
X87608310Y-83180563D02*
G01*
X87769296Y-83180563D01*
X87769296Y-82858591D01*
X87948169Y-82858591D01*
X87948169Y-83180563D01*
X88127043Y-83180563D01*
X88127043Y-82804929D01*
X88288029Y-82804929D01*
X88288029Y-83359436D01*
X87447324Y-83359436D01*
X87447324Y-82804929D01*
X87608310Y-82804929D01*
X87608310Y-83180563D01*
G37*
G36*
X82207473Y-87376810D02*
G01*
X82058045Y-87300553D01*
X81928191Y-87198258D01*
X81820387Y-87072463D01*
X81737110Y-86925707D01*
X81680838Y-86760526D01*
X81654047Y-86579460D01*
X81652873Y-86541158D01*
X82010992Y-86541158D01*
X82030034Y-86663669D01*
X82080629Y-86779499D01*
X82145730Y-86865636D01*
X82244435Y-86951475D01*
X82353014Y-87005753D01*
X82477815Y-87031136D01*
X82546198Y-87033837D01*
X82683941Y-87019904D01*
X82802463Y-86977939D01*
X82907169Y-86905859D01*
X82927778Y-86886828D01*
X83003110Y-86801674D01*
X83050418Y-86714560D01*
X83073504Y-86615523D01*
X83076295Y-86497460D01*
X83068046Y-86410151D01*
X83049170Y-86339968D01*
X83019549Y-86277025D01*
X82942071Y-86168458D01*
X82843666Y-86088879D01*
X82724489Y-86038374D01*
X82584697Y-86017028D01*
X82546198Y-86016260D01*
X82411182Y-86029218D01*
X82296564Y-86068688D01*
X82196025Y-86137393D01*
X82143383Y-86189800D01*
X82067648Y-86298598D01*
X82023524Y-86417592D01*
X82010992Y-86541158D01*
X81652873Y-86541158D01*
X81652096Y-86515835D01*
X81667885Y-86337435D01*
X81713810Y-86173376D01*
X81786547Y-86025786D01*
X81882769Y-85896788D01*
X81999152Y-85788507D01*
X82132369Y-85703070D01*
X82279094Y-85642602D01*
X82436003Y-85609226D01*
X82599770Y-85605070D01*
X82767068Y-85632258D01*
X82934573Y-85692915D01*
X82937591Y-85694337D01*
X83077109Y-85779207D01*
X83200727Y-85891564D01*
X83303323Y-86024911D01*
X83379775Y-86172752D01*
X83420857Y-86307253D01*
X83435165Y-86415901D01*
X83438545Y-86540183D01*
X83431424Y-86664985D01*
X83414231Y-86775191D01*
X83406769Y-86804566D01*
X83342065Y-86969180D01*
X83249811Y-87113154D01*
X83133243Y-87234069D01*
X82995599Y-87329505D01*
X82840115Y-87397044D01*
X82670028Y-87434266D01*
X82555141Y-87441061D01*
X82546198Y-87440243D01*
X82373997Y-87424492D01*
X82207473Y-87376810D01*
G37*
G36*
X86064886Y-85677255D02*
G01*
X86134783Y-85776686D01*
X86179097Y-85878048D01*
X86202198Y-85993357D01*
X86207529Y-86069366D01*
X86208698Y-86159347D01*
X86203623Y-86226460D01*
X86190777Y-86283296D01*
X86176883Y-86322354D01*
X86110071Y-86444215D01*
X86013273Y-86547352D01*
X85885915Y-86632353D01*
X85861438Y-86644916D01*
X85801565Y-86673565D01*
X85752848Y-86692900D01*
X85705038Y-86705105D01*
X85647890Y-86712366D01*
X85571158Y-86716868D01*
X85513696Y-86719074D01*
X85415201Y-86721578D01*
X85341778Y-86720256D01*
X85282832Y-86714109D01*
X85227773Y-86702136D01*
X85178678Y-86687457D01*
X85041301Y-86627336D01*
X84921953Y-86543183D01*
X84825495Y-86439666D01*
X84756789Y-86321452D01*
X84735393Y-86261886D01*
X84714789Y-86144939D01*
X84715978Y-86021176D01*
X84737080Y-85899675D01*
X84776213Y-85789510D01*
X84831496Y-85699759D01*
X84857746Y-85671573D01*
X84898381Y-85633505D01*
X84959394Y-85683395D01*
X85020408Y-85733286D01*
X84973363Y-85794965D01*
X84911266Y-85901711D01*
X84877020Y-86018147D01*
X84871827Y-86136007D01*
X84896888Y-86247028D01*
X84904921Y-86266126D01*
X84965744Y-86358446D01*
X85054123Y-86436041D01*
X85164037Y-86496532D01*
X85289465Y-86537539D01*
X85424387Y-86556680D01*
X85562781Y-86551577D01*
X85608228Y-86544158D01*
X85750839Y-86502592D01*
X85868773Y-86439972D01*
X85960001Y-86358357D01*
X86022495Y-86259809D01*
X86054226Y-86146390D01*
X86057934Y-86087253D01*
X86045733Y-85970904D01*
X86007050Y-85871519D01*
X85947033Y-85788458D01*
X85891140Y-85724799D01*
X85956560Y-85674901D01*
X86021979Y-85625004D01*
X86064886Y-85677255D01*
G37*
G36*
X88288029Y-92428309D02*
G01*
X87447324Y-92428309D01*
X87447324Y-91891690D01*
X87608310Y-91891690D01*
X87608310Y-92249436D01*
X87769296Y-92249436D01*
X87769296Y-91927464D01*
X87948169Y-91927464D01*
X87948169Y-92249436D01*
X88127043Y-92249436D01*
X88127043Y-91873802D01*
X88288029Y-91873802D01*
X88288029Y-92428309D01*
G37*
G36*
X87447324Y-95905625D02*
G01*
X87450212Y-95786885D01*
X87460134Y-95697500D01*
X87478978Y-95631421D01*
X87508630Y-95582602D01*
X87550979Y-95544993D01*
X87562160Y-95537640D01*
X87602627Y-95518002D01*
X87650903Y-95508857D01*
X87719238Y-95508242D01*
X87740008Y-95509147D01*
X87807044Y-95513883D01*
X87850540Y-95522981D01*
X87882731Y-95541185D01*
X87915848Y-95573235D01*
X87921679Y-95579559D01*
X87980596Y-95643849D01*
X88058291Y-95600006D01*
X88124822Y-95562153D01*
X88194751Y-95521921D01*
X88212007Y-95511905D01*
X88288029Y-95467647D01*
X88288029Y-95681297D01*
X88153874Y-95755352D01*
X88087968Y-95793006D01*
X88047870Y-95820582D01*
X88027362Y-95843939D01*
X88020225Y-95868941D01*
X88019719Y-95881816D01*
X88019719Y-95934225D01*
X88288029Y-95934225D01*
X88288029Y-96113098D01*
X87447324Y-96113098D01*
X87447324Y-95934225D01*
X87608310Y-95934225D01*
X87840845Y-95934225D01*
X87840845Y-95841725D01*
X87833128Y-95763365D01*
X87811242Y-95716514D01*
X87769545Y-95691644D01*
X87722820Y-95683802D01*
X87664888Y-95697804D01*
X87627392Y-95740271D01*
X87609849Y-95811902D01*
X87608310Y-95848768D01*
X87608310Y-95934225D01*
X87447324Y-95934225D01*
X87447324Y-95905625D01*
G37*
G36*
X86195212Y-72805915D02*
G01*
X85841937Y-72806342D01*
X85697652Y-72807169D01*
X85584254Y-72809828D01*
X85496867Y-72815170D01*
X85430618Y-72824044D01*
X85380632Y-72837302D01*
X85342035Y-72855793D01*
X85309951Y-72880369D01*
X85287430Y-72903087D01*
X85248461Y-72953570D01*
X85231777Y-73002558D01*
X85229296Y-73042939D01*
X85244943Y-73141000D01*
X85290928Y-73221016D01*
X85365820Y-73280581D01*
X85373037Y-73284401D01*
X85401395Y-73297945D01*
X85430025Y-73308060D01*
X85464493Y-73315245D01*
X85510365Y-73319996D01*
X85573209Y-73322811D01*
X85658591Y-73324188D01*
X85772079Y-73324625D01*
X85823368Y-73324648D01*
X86195212Y-73324648D01*
X86195212Y-73485633D01*
X85104085Y-73485633D01*
X85104085Y-73324648D01*
X85248376Y-73324648D01*
X85186951Y-73263222D01*
X85127030Y-73184712D01*
X85095034Y-73093811D01*
X85088686Y-72983545D01*
X85089778Y-72965280D01*
X85113245Y-72859754D01*
X85167231Y-72772735D01*
X85252051Y-72703754D01*
X85274968Y-72690907D01*
X85300082Y-72679059D01*
X85327913Y-72669900D01*
X85363458Y-72662996D01*
X85411712Y-72657914D01*
X85477671Y-72654222D01*
X85566333Y-72651486D01*
X85682692Y-72649273D01*
X85770388Y-72647982D01*
X86195212Y-72642092D01*
X86195212Y-72805915D01*
G37*
G36*
X85228575Y-78048055D02*
G01*
X85254974Y-78055257D01*
X85264062Y-78074120D01*
X85265071Y-78101276D01*
X85278224Y-78170278D01*
X85312388Y-78244835D01*
X85359625Y-78309488D01*
X85383299Y-78331445D01*
X85433695Y-78363940D01*
X85494619Y-78388263D01*
X85571369Y-78405341D01*
X85669247Y-78416104D01*
X85793553Y-78421479D01*
X85903317Y-78422535D01*
X86195212Y-78422535D01*
X86195212Y-78583521D01*
X85104085Y-78583521D01*
X85104085Y-78422535D01*
X85307285Y-78422535D01*
X85230086Y-78356456D01*
X85162965Y-78284413D01*
X85113787Y-78202422D01*
X85088609Y-78121468D01*
X85086590Y-78096091D01*
X85088698Y-78066952D01*
X85101736Y-78052418D01*
X85134869Y-78047427D01*
X85175634Y-78046901D01*
X85228575Y-78048055D01*
G37*
G36*
X83239331Y-91967063D02*
G01*
X83413733Y-91972183D01*
X83418436Y-92593767D01*
X83423140Y-93215352D01*
X81687606Y-93215352D01*
X81687606Y-92821831D01*
X83064930Y-92821831D01*
X83064930Y-91961944D01*
X83239331Y-91967063D01*
G37*
G36*
X85430148Y-71336435D02*
G01*
X85305025Y-71282955D01*
X85206441Y-71206889D01*
X85135473Y-71108870D01*
X85131790Y-71101651D01*
X85092046Y-70987472D01*
X85088035Y-70920629D01*
X85229363Y-70920629D01*
X85246273Y-71004483D01*
X85294178Y-71079465D01*
X85368606Y-71141370D01*
X85465084Y-71185994D01*
X85528909Y-71202212D01*
X85587043Y-71213049D01*
X85587043Y-70636977D01*
X85513852Y-70648680D01*
X85405096Y-70679256D01*
X85319746Y-70730775D01*
X85260971Y-70800210D01*
X85231939Y-70884531D01*
X85229363Y-70920629D01*
X85088035Y-70920629D01*
X85085404Y-70876776D01*
X85109195Y-70773044D01*
X85160746Y-70679760D01*
X85237386Y-70600407D01*
X85336444Y-70538468D01*
X85455249Y-70497424D01*
X85591129Y-70480759D01*
X85608177Y-70480563D01*
X85712254Y-70480563D01*
X85712254Y-71216354D01*
X85752500Y-71205220D01*
X85877284Y-71159998D01*
X85972402Y-71102147D01*
X86036066Y-71033016D01*
X86062945Y-70971310D01*
X86071402Y-70888739D01*
X86061620Y-70798511D01*
X86036288Y-70716042D01*
X86010502Y-70670864D01*
X85976338Y-70622209D01*
X85965987Y-70590485D01*
X85979482Y-70565896D01*
X86010941Y-70542490D01*
X86040979Y-70524697D01*
X86062391Y-70523786D01*
X86086653Y-70543417D01*
X86115298Y-70575756D01*
X86155131Y-70631963D01*
X86186238Y-70693238D01*
X86192245Y-70710250D01*
X86206089Y-70782399D01*
X86211554Y-70868944D01*
X86208813Y-70956199D01*
X86198043Y-71030479D01*
X86187727Y-71063291D01*
X86124217Y-71166049D01*
X86033873Y-71251024D01*
X85922364Y-71315384D01*
X85795360Y-71356294D01*
X85658527Y-71370923D01*
X85587043Y-71367037D01*
X85580738Y-71366694D01*
X85430148Y-71336435D01*
G37*
G36*
X88006303Y-86404167D02*
G01*
X88207536Y-86409225D01*
X88246027Y-86489718D01*
X88286607Y-86610759D01*
X88294737Y-86732525D01*
X88288652Y-86779508D01*
X88252077Y-86880144D01*
X88186497Y-86966363D01*
X88098061Y-87030381D01*
X88085645Y-87036463D01*
X87969919Y-87073453D01*
X87849660Y-87082127D01*
X87732179Y-87064115D01*
X87624785Y-87021048D01*
X87534788Y-86954557D01*
X87492153Y-86904057D01*
X87464056Y-86859741D01*
X87447858Y-86819591D01*
X87440370Y-86770865D01*
X87438398Y-86700823D01*
X87438381Y-86689409D01*
X87441252Y-86605335D01*
X87451235Y-86545340D01*
X87470384Y-86498090D01*
X87474319Y-86491154D01*
X87501594Y-86450552D01*
X87524437Y-86426122D01*
X87528464Y-86423915D01*
X87552125Y-86430745D01*
X87590308Y-86455076D01*
X87607478Y-86468611D01*
X87644279Y-86501161D01*
X87657026Y-86522894D01*
X87649542Y-86545417D01*
X87638298Y-86562189D01*
X87617714Y-86612158D01*
X87608458Y-86679160D01*
X87608310Y-86688606D01*
X87612172Y-86745363D01*
X87629027Y-86784431D01*
X87666777Y-86823533D01*
X87669587Y-86826011D01*
X87745010Y-86875924D01*
X87829041Y-86897041D01*
X87926382Y-86892361D01*
X88007653Y-86866330D01*
X88072655Y-86818800D01*
X88114596Y-86756417D01*
X88127043Y-86696035D01*
X88119602Y-86624168D01*
X88095235Y-86581108D01*
X88050875Y-86562680D01*
X88028033Y-86561267D01*
X87989952Y-86563021D01*
X87971919Y-86574773D01*
X87966438Y-86606258D01*
X87966057Y-86641760D01*
X87966057Y-86722253D01*
X87805071Y-86722253D01*
X87805071Y-86399110D01*
X88006303Y-86404167D01*
G37*
G36*
X88288029Y-82143059D02*
G01*
X88042078Y-82303684D01*
X87796127Y-82464310D01*
X88288029Y-82465070D01*
X88288029Y-82643943D01*
X87447324Y-82643943D01*
X87447773Y-82558979D01*
X87448222Y-82474014D01*
X87675837Y-82321971D01*
X87903451Y-82169929D01*
X87675388Y-82164923D01*
X87447324Y-82159917D01*
X87447324Y-81982112D01*
X88288029Y-81982112D01*
X88288029Y-82143059D01*
G37*
G36*
X87447324Y-78094265D02*
G01*
X87447909Y-77999568D01*
X87450403Y-77932920D01*
X87455920Y-77886602D01*
X87465572Y-77852899D01*
X87480470Y-77824091D01*
X87487927Y-77812539D01*
X87553562Y-77743524D01*
X87634971Y-77702106D01*
X87724514Y-77688833D01*
X87814550Y-77704255D01*
X87897441Y-77748921D01*
X87932183Y-77780626D01*
X87983548Y-77835613D01*
X88126011Y-77753440D01*
X88189591Y-77717395D01*
X88241054Y-77689393D01*
X88272907Y-77673455D01*
X88279144Y-77671267D01*
X88284030Y-77687445D01*
X88285714Y-77729341D01*
X88284449Y-77773913D01*
X88279085Y-77876558D01*
X88149742Y-77948314D01*
X88085695Y-77984997D01*
X88047101Y-78011765D01*
X88027575Y-78035014D01*
X88020729Y-78061142D01*
X88020058Y-78078204D01*
X88019719Y-78136338D01*
X88288029Y-78136338D01*
X88288029Y-78315211D01*
X87447324Y-78315211D01*
X87447324Y-78136338D01*
X87608310Y-78136338D01*
X87840845Y-78136338D01*
X87840845Y-78045725D01*
X87837499Y-77986225D01*
X87829001Y-77937765D01*
X87823430Y-77922571D01*
X87787762Y-77889455D01*
X87735911Y-77877354D01*
X87680362Y-77885881D01*
X87633596Y-77914645D01*
X87622000Y-77928839D01*
X87614456Y-77956947D01*
X87609571Y-78007243D01*
X87608584Y-78042429D01*
X87608310Y-78136338D01*
X87447324Y-78136338D01*
X87447324Y-78094265D01*
G37*
G36*
X85252462Y-93547855D02*
G01*
X85287846Y-93574095D01*
X85300380Y-93584395D01*
X85335074Y-93615230D01*
X85345298Y-93634997D01*
X85334033Y-93655566D01*
X85321732Y-93669360D01*
X85261673Y-93757717D01*
X85234568Y-93850454D01*
X85238946Y-93942219D01*
X85273336Y-94027662D01*
X85336266Y-94101432D01*
X85426265Y-94158178D01*
X85459862Y-94171629D01*
X85538925Y-94189931D01*
X85633769Y-94197924D01*
X85730353Y-94195617D01*
X85814633Y-94183018D01*
X85851455Y-94171375D01*
X85948883Y-94114900D01*
X86018623Y-94041150D01*
X86058966Y-93954905D01*
X86068203Y-93860948D01*
X86044624Y-93764062D01*
X86016338Y-93710134D01*
X85986969Y-93661561D01*
X85967717Y-93625373D01*
X85963239Y-93612724D01*
X85976641Y-93594310D01*
X86008218Y-93567570D01*
X86009305Y-93566775D01*
X86041955Y-93545659D01*
X86064552Y-93546448D01*
X86094135Y-93570571D01*
X86098021Y-93574216D01*
X86156736Y-93651839D01*
X86196048Y-93750437D01*
X86214451Y-93860009D01*
X86210438Y-93970552D01*
X86182505Y-94072066D01*
X86175331Y-94087581D01*
X86116972Y-94173093D01*
X86034655Y-94251333D01*
X85940092Y-94312294D01*
X85885234Y-94335463D01*
X85782660Y-94357892D01*
X85663422Y-94365744D01*
X85543525Y-94359023D01*
X85438972Y-94337729D01*
X85431749Y-94335396D01*
X85309182Y-94277830D01*
X85208998Y-94196068D01*
X85135716Y-94093895D01*
X85130053Y-94082725D01*
X85104423Y-94025576D01*
X85090949Y-93977296D01*
X85087081Y-93922993D01*
X85090144Y-93849711D01*
X85097301Y-93773112D01*
X85110008Y-93717582D01*
X85132835Y-93668425D01*
X85159544Y-93626612D01*
X85193571Y-93579379D01*
X85220389Y-93547022D01*
X85232396Y-93537358D01*
X85252462Y-93547855D01*
G37*
G36*
X85638684Y-75162194D02*
G01*
X85515380Y-75159252D01*
X85459502Y-75150528D01*
X85338852Y-75110495D01*
X85239577Y-75047896D01*
X85163331Y-74967524D01*
X85111769Y-74874175D01*
X85086544Y-74772642D01*
X85087533Y-74735148D01*
X85234271Y-74735148D01*
X85254378Y-74818008D01*
X85277670Y-74859818D01*
X85348826Y-74928405D01*
X85438226Y-74973587D01*
X85538806Y-74995982D01*
X85643499Y-74996203D01*
X85745242Y-74974866D01*
X85836969Y-74932587D01*
X85911615Y-74869981D01*
X85956611Y-74800684D01*
X85974010Y-74725132D01*
X85968061Y-74639379D01*
X85940510Y-74558717D01*
X85926219Y-74534711D01*
X85859437Y-74458600D01*
X85779420Y-74410441D01*
X85678800Y-74386331D01*
X85639823Y-74382988D01*
X85513796Y-74386580D01*
X85412499Y-74414113D01*
X85332801Y-74467088D01*
X85271571Y-74547003D01*
X85262599Y-74563718D01*
X85236779Y-74645817D01*
X85234271Y-74735148D01*
X85087533Y-74735148D01*
X85089311Y-74667720D01*
X85121724Y-74564203D01*
X85185438Y-74466885D01*
X85213370Y-74437187D01*
X85271862Y-74380000D01*
X85104085Y-74380000D01*
X85104085Y-74219014D01*
X85636233Y-74219799D01*
X85800483Y-74220306D01*
X85933300Y-74221670D01*
X86039022Y-74224458D01*
X86121989Y-74229237D01*
X86186541Y-74236574D01*
X86237017Y-74247036D01*
X86277758Y-74261191D01*
X86313102Y-74279604D01*
X86347389Y-74302844D01*
X86363346Y-74314812D01*
X86434005Y-74390304D01*
X86481541Y-74491757D01*
X86506327Y-74620064D01*
X86509292Y-74661955D01*
X86510281Y-74740259D01*
X86506642Y-74814833D01*
X86499159Y-74870080D01*
X86498735Y-74871901D01*
X86481191Y-74930981D01*
X86457302Y-74993807D01*
X86431269Y-75051215D01*
X86407295Y-75094041D01*
X86389580Y-75113121D01*
X86388026Y-75113380D01*
X86362458Y-75105807D01*
X86322259Y-75087494D01*
X86320505Y-75086591D01*
X86268701Y-75059803D01*
X86314241Y-74960332D01*
X86350676Y-74855375D01*
X86369181Y-74745197D01*
X86368349Y-74642403D01*
X86356242Y-74583840D01*
X86312806Y-74493922D01*
X86247748Y-74430771D01*
X86159219Y-74393205D01*
X86045370Y-74380039D01*
X86037866Y-74380000D01*
X85933034Y-74380000D01*
X86009402Y-74459701D01*
X86078910Y-74555089D01*
X86116248Y-74658368D01*
X86122564Y-74764400D01*
X86099005Y-74868043D01*
X86046716Y-74964159D01*
X85966847Y-75047609D01*
X85863873Y-75111700D01*
X85759777Y-75145871D01*
X85643499Y-75161545D01*
X85638684Y-75162194D01*
G37*
G36*
X88288029Y-76653210D02*
G01*
X87796831Y-76973662D01*
X88288029Y-76973662D01*
X88288029Y-77152535D01*
X87447324Y-77152535D01*
X87447326Y-76982605D01*
X87683120Y-76830563D01*
X87918913Y-76678521D01*
X87683119Y-76673530D01*
X87447324Y-76668539D01*
X87447324Y-76490704D01*
X88288029Y-76490704D01*
X88288029Y-76653210D01*
G37*
G36*
X88005279Y-81145294D02*
G01*
X88205488Y-81150352D01*
X88245152Y-81230845D01*
X88287111Y-81353459D01*
X88293643Y-81480178D01*
X88286137Y-81533895D01*
X88251190Y-81628645D01*
X88189825Y-81706830D01*
X88107971Y-81767169D01*
X88011557Y-81808377D01*
X87906510Y-81829174D01*
X87798760Y-81828277D01*
X87694236Y-81804403D01*
X87598865Y-81756270D01*
X87531113Y-81697208D01*
X87466737Y-81604390D01*
X87435294Y-81502298D01*
X87433095Y-81401629D01*
X87443517Y-81339927D01*
X87462602Y-81276198D01*
X87486378Y-81220003D01*
X87510876Y-81180907D01*
X87529985Y-81168239D01*
X87553305Y-81178429D01*
X87591674Y-81203927D01*
X87606059Y-81214825D01*
X87642769Y-81245446D01*
X87655260Y-81267804D01*
X87647647Y-81295478D01*
X87636947Y-81316789D01*
X87613891Y-81388044D01*
X87610490Y-81464635D01*
X87626711Y-81531638D01*
X87637479Y-81550726D01*
X87691030Y-81598556D01*
X87766670Y-81629286D01*
X87854281Y-81641391D01*
X87943745Y-81633346D01*
X88016906Y-81607913D01*
X88083542Y-81556426D01*
X88119934Y-81485916D01*
X88127043Y-81428227D01*
X88122031Y-81367541D01*
X88102858Y-81334399D01*
X88063315Y-81321465D01*
X88035692Y-81320281D01*
X87991119Y-81322085D01*
X87971313Y-81334381D01*
X87966224Y-81367496D01*
X87966057Y-81391831D01*
X87966057Y-81463380D01*
X87805071Y-81463380D01*
X87805071Y-81140236D01*
X88005279Y-81145294D01*
G37*
G36*
X86195212Y-77331408D02*
G01*
X84728451Y-77331408D01*
X84728451Y-76437042D01*
X84889437Y-76437042D01*
X84889437Y-77170422D01*
X85390282Y-77170422D01*
X85390282Y-76508591D01*
X85533381Y-76508591D01*
X85533381Y-77170422D01*
X86052113Y-77170422D01*
X86052113Y-76419155D01*
X86195212Y-76419155D01*
X86195212Y-77331408D01*
G37*
G36*
X87608310Y-78851831D02*
G01*
X87769296Y-78851831D01*
X87769296Y-78529859D01*
X87948169Y-78529859D01*
X87948169Y-78853791D01*
X88118099Y-78842887D01*
X88123197Y-78659542D01*
X88128294Y-78476197D01*
X88288029Y-78476197D01*
X88288029Y-79030704D01*
X87447324Y-79030704D01*
X87447324Y-78476197D01*
X87608310Y-78476197D01*
X87608310Y-78851831D01*
G37*
G36*
X65412200Y-77495335D02*
G01*
X65422501Y-77530370D01*
X65415571Y-77564037D01*
X65406674Y-77616500D01*
X65425944Y-77622868D01*
X65455190Y-77608861D01*
X65538638Y-77586014D01*
X65661063Y-77579019D01*
X65803948Y-77587420D01*
X65948776Y-77610757D01*
X65996000Y-77622235D01*
X66122289Y-77646609D01*
X66270763Y-77660894D01*
X66424641Y-77665091D01*
X66567138Y-77659199D01*
X66681474Y-77643218D01*
X66743059Y-77622235D01*
X66816406Y-77598005D01*
X66925446Y-77582289D01*
X67008533Y-77578471D01*
X67131400Y-77572297D01*
X67248889Y-77557472D01*
X67313563Y-77543178D01*
X67405236Y-77525379D01*
X67506963Y-77529257D01*
X67608383Y-77547261D01*
X67702629Y-77570265D01*
X67767961Y-77591950D01*
X67788941Y-77605863D01*
X67761149Y-77616719D01*
X67685678Y-77630867D01*
X67574390Y-77646396D01*
X67452764Y-77660038D01*
X67292236Y-77678791D01*
X67130422Y-77702025D01*
X66990339Y-77726240D01*
X66922353Y-77740723D01*
X66792901Y-77770975D01*
X66661145Y-77800302D01*
X66582098Y-77816935D01*
X66478221Y-77830758D01*
X66342770Y-77839323D01*
X66196306Y-77842371D01*
X66059388Y-77839643D01*
X65952579Y-77830880D01*
X65921294Y-77825255D01*
X65864982Y-77808794D01*
X65771202Y-77778340D01*
X65658762Y-77740027D01*
X65641500Y-77733999D01*
X65522497Y-77695036D01*
X65444320Y-77677706D01*
X65392949Y-77679893D01*
X65364851Y-77692267D01*
X65307695Y-77712805D01*
X65216546Y-77730478D01*
X65108750Y-77743775D01*
X65001652Y-77751189D01*
X64912598Y-77751211D01*
X64858933Y-77742332D01*
X64851752Y-77736893D01*
X64849737Y-77689664D01*
X64858040Y-77670992D01*
X64899152Y-77640243D01*
X64980691Y-77601051D01*
X65085194Y-77559814D01*
X65195195Y-77522932D01*
X65293229Y-77496804D01*
X65358128Y-77487765D01*
X65412200Y-77495335D01*
G37*
G36*
X72678651Y-73241125D02*
G01*
X72723247Y-73296763D01*
X72743328Y-73329682D01*
X72793897Y-73410274D01*
X72841454Y-73471415D01*
X72853729Y-73483305D01*
X72893912Y-73528657D01*
X72881699Y-73557233D01*
X72814676Y-73571083D01*
X72747920Y-73573177D01*
X72597017Y-73573177D01*
X72605979Y-73403714D01*
X72615959Y-73309875D01*
X72632404Y-73243985D01*
X72646481Y-73223867D01*
X72678651Y-73241125D01*
G37*
G36*
X70964321Y-82465194D02*
G01*
X70973460Y-82487832D01*
X70978955Y-82566985D01*
X70954467Y-82669286D01*
X70907675Y-82771477D01*
X70857309Y-82839641D01*
X70803878Y-82891333D01*
X70719838Y-82968885D01*
X70619713Y-83058977D01*
X70573268Y-83100072D01*
X70472479Y-83186488D01*
X70407775Y-83235376D01*
X70372341Y-83250816D01*
X70359362Y-83236891D01*
X70358823Y-83228504D01*
X70377745Y-83167531D01*
X70428494Y-83075677D01*
X70502046Y-82965683D01*
X70589376Y-82850291D01*
X70681458Y-82742241D01*
X70758895Y-82663681D01*
X70835988Y-82588432D01*
X70896913Y-82521453D01*
X70922223Y-82487144D01*
X70947555Y-82449558D01*
X70964321Y-82465194D01*
G37*
G36*
X72462510Y-79594607D02*
G01*
X72526328Y-79611444D01*
X72580046Y-79650805D01*
X72631790Y-79719714D01*
X72689687Y-79825191D01*
X72761863Y-79974257D01*
X72801270Y-80057647D01*
X72910360Y-80287514D01*
X72998146Y-80469528D01*
X73068206Y-80610173D01*
X73124118Y-80715936D01*
X73169460Y-80793302D01*
X73207810Y-80848755D01*
X73242745Y-80888783D01*
X73276235Y-80918591D01*
X73340753Y-80981397D01*
X73354489Y-81024202D01*
X73316642Y-81043169D01*
X73302401Y-81043765D01*
X73265401Y-81022470D01*
X73201654Y-80965579D01*
X73122463Y-80883579D01*
X73087518Y-80844404D01*
X72980767Y-80722506D01*
X72903971Y-80637837D01*
X72847979Y-80582430D01*
X72803641Y-80548320D01*
X72761805Y-80527541D01*
X72713322Y-80512127D01*
X72702307Y-80509066D01*
X72608666Y-80471137D01*
X72529340Y-80419835D01*
X72524027Y-80415045D01*
X72493253Y-80382187D01*
X72474571Y-80345019D01*
X72466060Y-80290068D01*
X72465797Y-80203863D01*
X72471858Y-80072931D01*
X72472786Y-80055989D01*
X72478856Y-79897871D01*
X72473335Y-79789671D01*
X72451414Y-79721925D01*
X72408284Y-79685172D01*
X72339135Y-79669951D01*
X72275105Y-79667076D01*
X72150849Y-79660806D01*
X72085592Y-79648485D01*
X72079461Y-79632848D01*
X72132580Y-79616626D01*
X72245073Y-79602552D01*
X72272064Y-79600426D01*
X72380464Y-79593275D01*
X72462510Y-79594607D01*
G37*
G36*
X75082387Y-85611206D02*
G01*
X75093784Y-85718510D01*
X75098931Y-85883972D01*
X75098935Y-85884303D01*
X75103074Y-86019176D01*
X75113907Y-86134963D01*
X75134849Y-86250291D01*
X75169314Y-86383790D01*
X75220716Y-86554088D01*
X75223081Y-86561637D01*
X75316385Y-86866524D01*
X75389014Y-87120990D01*
X75442215Y-87330213D01*
X75477235Y-87499370D01*
X75495321Y-87633640D01*
X75498588Y-87705350D01*
X75495114Y-87802321D01*
X75486103Y-87872329D01*
X75476176Y-87896863D01*
X75458492Y-87876288D01*
X75429150Y-87809912D01*
X75392929Y-87709394D01*
X75369762Y-87637156D01*
X75322914Y-87488225D01*
X75272529Y-87333542D01*
X75227599Y-87200583D01*
X75216745Y-87169647D01*
X75170281Y-87033884D01*
X75122801Y-86887372D01*
X75094830Y-86796118D01*
X75051833Y-86654360D01*
X75016856Y-86554547D01*
X74982242Y-86480950D01*
X74940331Y-86417845D01*
X74883465Y-86349502D01*
X74869803Y-86334024D01*
X74790773Y-86232582D01*
X74758012Y-86149324D01*
X74769223Y-86067603D01*
X74820092Y-85973819D01*
X74875792Y-85878386D01*
X74931109Y-85767224D01*
X74945120Y-85735294D01*
X74996106Y-85624102D01*
X75035007Y-85565415D01*
X75063281Y-85560645D01*
X75082387Y-85611206D01*
G37*
G36*
X71375148Y-71170151D02*
G01*
X71387525Y-71224528D01*
X71379564Y-71308284D01*
X71360070Y-71380803D01*
X71331979Y-71483940D01*
X71316263Y-71581221D01*
X71315059Y-71606042D01*
X71315059Y-71698701D01*
X71464470Y-71546914D01*
X71538300Y-71467760D01*
X71591703Y-71402591D01*
X71613790Y-71364770D01*
X71613882Y-71363563D01*
X71635621Y-71333199D01*
X71643764Y-71332000D01*
X71670275Y-71307797D01*
X71673647Y-71287177D01*
X71699428Y-71251010D01*
X71744867Y-71242353D01*
X71800789Y-71259067D01*
X71834857Y-71314443D01*
X71850522Y-71416330D01*
X71852533Y-71487119D01*
X71862316Y-71560643D01*
X71885258Y-71613395D01*
X71912629Y-71632893D01*
X71935701Y-71606658D01*
X71935844Y-71606232D01*
X71971825Y-71573953D01*
X71989332Y-71571059D01*
X72028241Y-71596740D01*
X72051330Y-71658969D01*
X72053635Y-71735521D01*
X72038237Y-71790008D01*
X72005915Y-71867808D01*
X71979650Y-71944588D01*
X71947182Y-72010304D01*
X71906896Y-72043098D01*
X71906585Y-72043160D01*
X71864819Y-72023583D01*
X71824413Y-71958442D01*
X71790633Y-71861808D01*
X71768743Y-71747753D01*
X71763294Y-71660101D01*
X71755665Y-71567120D01*
X71735940Y-71517345D01*
X71708861Y-71516469D01*
X71682010Y-71562485D01*
X71648450Y-71615369D01*
X71576563Y-71703755D01*
X71471292Y-71821920D01*
X71337578Y-71964139D01*
X71315413Y-71987152D01*
X71247435Y-72069489D01*
X71192531Y-72153765D01*
X71139738Y-72218638D01*
X71076524Y-72254498D01*
X71021898Y-72251786D01*
X71012259Y-72244416D01*
X71012203Y-72209565D01*
X71028974Y-72136219D01*
X71051559Y-72062798D01*
X71086107Y-71946808D01*
X71112758Y-71831709D01*
X71129253Y-71731415D01*
X71133331Y-71659841D01*
X71122731Y-71630902D01*
X71121728Y-71630824D01*
X71086581Y-71648413D01*
X71027194Y-71692030D01*
X71010785Y-71705529D01*
X70931934Y-71763959D01*
X70887094Y-71775276D01*
X70872491Y-71738677D01*
X70879450Y-71677476D01*
X70905851Y-71607021D01*
X70964539Y-71523315D01*
X71062377Y-71417203D01*
X71109096Y-71371182D01*
X71201286Y-71283384D01*
X71278236Y-71212692D01*
X71329432Y-71168628D01*
X71343462Y-71158914D01*
X71375148Y-71170151D01*
G37*
G36*
X69942791Y-75042583D02*
G01*
X69992115Y-75089149D01*
X69999881Y-75118948D01*
X69974545Y-75166980D01*
X69907914Y-75230136D01*
X69813304Y-75299260D01*
X69704033Y-75365197D01*
X69593416Y-75418792D01*
X69530500Y-75441655D01*
X69439901Y-75469185D01*
X69391408Y-75480691D01*
X69369474Y-75475896D01*
X69358553Y-75454522D01*
X69352734Y-75438490D01*
X69359632Y-75381115D01*
X69406407Y-75304133D01*
X69481693Y-75218698D01*
X69574124Y-75135959D01*
X69672333Y-75067067D01*
X69764955Y-75023173D01*
X69780671Y-75018658D01*
X69865464Y-75015954D01*
X69942791Y-75042583D01*
G37*
G36*
X75513762Y-73011718D02*
G01*
X75554017Y-73032558D01*
X75558353Y-73048541D01*
X75533219Y-73103698D01*
X75472435Y-73150503D01*
X75397925Y-73178722D01*
X75331615Y-73178119D01*
X75309333Y-73164784D01*
X75293610Y-73122026D01*
X75289411Y-73075137D01*
X75295806Y-73032000D01*
X75325563Y-73011563D01*
X75394539Y-73005605D01*
X75423882Y-73005412D01*
X75513762Y-73011718D01*
G37*
G36*
X79470825Y-79530807D02*
G01*
X79419488Y-79598615D01*
X79383298Y-79639290D01*
X79317948Y-79720028D01*
X79274087Y-79793233D01*
X79262705Y-79831031D01*
X79246534Y-79902999D01*
X79216303Y-79968000D01*
X79189721Y-80008804D01*
X79178216Y-80010231D01*
X79178451Y-79964939D01*
X79184193Y-79897351D01*
X79221453Y-79742121D01*
X79306423Y-79614087D01*
X79392122Y-79538553D01*
X79457500Y-79496684D01*
X79483615Y-79495466D01*
X79470825Y-79530807D01*
G37*
G36*
X77013328Y-79684631D02*
G01*
X77047962Y-79708568D01*
X77071806Y-79758551D01*
X77099395Y-79845142D01*
X77125090Y-79945923D01*
X77143248Y-80038478D01*
X77148231Y-80100390D01*
X77147660Y-80104784D01*
X77168529Y-80124868D01*
X77228207Y-80124308D01*
X77314204Y-80126128D01*
X77376617Y-80144854D01*
X77460663Y-80216104D01*
X77546362Y-80335211D01*
X77627934Y-80490731D01*
X77699599Y-80671220D01*
X77755579Y-80865236D01*
X77767210Y-80918236D01*
X77790225Y-81043367D01*
X77797179Y-81126992D01*
X77787566Y-81185312D01*
X77760879Y-81234527D01*
X77757152Y-81239708D01*
X77728614Y-81273260D01*
X77714353Y-81263325D01*
X77705729Y-81202205D01*
X77704858Y-81193125D01*
X77686440Y-81115027D01*
X77637982Y-81063576D01*
X77590353Y-81036860D01*
X77479477Y-80966072D01*
X77410726Y-80876645D01*
X77372377Y-80751418D01*
X77365514Y-80707772D01*
X77341485Y-80579731D01*
X77308201Y-80465403D01*
X77270745Y-80378184D01*
X77234200Y-80331467D01*
X77221049Y-80327120D01*
X77189544Y-80348520D01*
X77127268Y-80406743D01*
X77042598Y-80493454D01*
X76943906Y-80600313D01*
X76920924Y-80625944D01*
X76822163Y-80735691D01*
X76738071Y-80827259D01*
X76676326Y-80892426D01*
X76644608Y-80922970D01*
X76642319Y-80924235D01*
X76647154Y-80901125D01*
X76678171Y-80839268D01*
X76728747Y-80749872D01*
X76792259Y-80644147D01*
X76862084Y-80533301D01*
X76931598Y-80428542D01*
X76955734Y-80393824D01*
X77015813Y-80305727D01*
X77056589Y-80240011D01*
X77070954Y-80208314D01*
X77069776Y-80207059D01*
X77037410Y-80223186D01*
X76973950Y-80264477D01*
X76926456Y-80297968D01*
X76842743Y-80348834D01*
X76768676Y-80377564D01*
X76739950Y-80380145D01*
X76697505Y-80347891D01*
X76680027Y-80275375D01*
X76683992Y-80174871D01*
X76705876Y-80058655D01*
X76742159Y-79939000D01*
X76789316Y-79828184D01*
X76843824Y-79738479D01*
X76902162Y-79682162D01*
X76943993Y-79669177D01*
X77013328Y-79684631D01*
G37*
G36*
X78657639Y-71113039D02*
G01*
X78735421Y-71184219D01*
X78819179Y-71277315D01*
X78899987Y-71382969D01*
X78968919Y-71491823D01*
X78987228Y-71526235D01*
X79031998Y-71625816D01*
X79081865Y-71753463D01*
X79131778Y-71893989D01*
X79176683Y-72032209D01*
X79211528Y-72152936D01*
X79231260Y-72240984D01*
X79233882Y-72267607D01*
X79223254Y-72340151D01*
X79195230Y-72357131D01*
X79155597Y-72318070D01*
X79132574Y-72275985D01*
X79100268Y-72192763D01*
X79084718Y-72122947D01*
X79084470Y-72116527D01*
X79063386Y-72053255D01*
X79024706Y-72004353D01*
X78980017Y-71953295D01*
X78964941Y-71918838D01*
X78951980Y-71878570D01*
X78917212Y-71798030D01*
X78866811Y-71689756D01*
X78806950Y-71566287D01*
X78743803Y-71440160D01*
X78683544Y-71323914D01*
X78632345Y-71230087D01*
X78597902Y-71173397D01*
X78563189Y-71113087D01*
X78554389Y-71075957D01*
X78555710Y-71073858D01*
X78594760Y-71073133D01*
X78657639Y-71113039D01*
G37*
G36*
X72811639Y-73730139D02*
G01*
X72915108Y-73749704D01*
X73018347Y-73776649D01*
X73104919Y-73806343D01*
X73158392Y-73834152D01*
X73167764Y-73847575D01*
X73143484Y-73869266D01*
X73122941Y-73872000D01*
X73082956Y-73887446D01*
X73085664Y-73920178D01*
X73127381Y-73949786D01*
X73137546Y-73952901D01*
X73180808Y-73975097D01*
X73173343Y-73999066D01*
X73123395Y-74016868D01*
X73066393Y-74021412D01*
X72995765Y-74018018D01*
X72956978Y-74009778D01*
X72956098Y-74009066D01*
X72917612Y-73998368D01*
X72822689Y-73984788D01*
X72674564Y-73968766D01*
X72622411Y-73963753D01*
X72608351Y-73935807D01*
X72600555Y-73868598D01*
X72600000Y-73842118D01*
X72600000Y-73722588D01*
X72724373Y-73722588D01*
X72811639Y-73730139D01*
G37*
G36*
X67656292Y-78507454D02*
G01*
X67711622Y-78520302D01*
X67729091Y-78544974D01*
X67729176Y-78547537D01*
X67705470Y-78595341D01*
X67670616Y-78622649D01*
X67599859Y-78646835D01*
X67502971Y-78664642D01*
X67405241Y-78673045D01*
X67331956Y-78669015D01*
X67318294Y-78664830D01*
X67285216Y-78623733D01*
X67287595Y-78566639D01*
X67323316Y-78524030D01*
X67328208Y-78521903D01*
X67382722Y-78512019D01*
X67474147Y-78505431D01*
X67552326Y-78503765D01*
X67656292Y-78507454D01*
G37*
G36*
X71874248Y-74966444D02*
G01*
X71928737Y-75009983D01*
X71956377Y-75059633D01*
X71954863Y-75078407D01*
X71969718Y-75113447D01*
X72021903Y-75169774D01*
X72091349Y-75228225D01*
X72178630Y-75300363D01*
X72231158Y-75355492D01*
X72244116Y-75387452D01*
X72219000Y-75391523D01*
X72175247Y-75384084D01*
X72114826Y-75374637D01*
X72041567Y-75343838D01*
X71955358Y-75280114D01*
X71870905Y-75198296D01*
X71802916Y-75113217D01*
X71766098Y-75039710D01*
X71763294Y-75020111D01*
X71780410Y-74960532D01*
X71813235Y-74947765D01*
X71874248Y-74966444D01*
G37*
G36*
X79539374Y-77310110D02*
G01*
X79636581Y-77317575D01*
X79721754Y-77331119D01*
X79771764Y-77347081D01*
X79837766Y-77409330D01*
X79895885Y-77518255D01*
X79941716Y-77660870D01*
X79970854Y-77824186D01*
X79979165Y-77958412D01*
X79977089Y-78063533D01*
X79969969Y-78140533D01*
X79959275Y-78174565D01*
X79957708Y-78175059D01*
X79918364Y-78159954D01*
X79860590Y-78125774D01*
X79778940Y-78063554D01*
X79687658Y-77982653D01*
X79603351Y-77899026D01*
X79542627Y-77828627D01*
X79527614Y-77805870D01*
X79502723Y-77751260D01*
X79467729Y-77663921D01*
X79428972Y-77561136D01*
X79392793Y-77460189D01*
X79365532Y-77378361D01*
X79353529Y-77332936D01*
X79353411Y-77331012D01*
X79380003Y-77316145D01*
X79447919Y-77309405D01*
X79539374Y-77310110D01*
G37*
G36*
X76032334Y-83219779D02*
G01*
X76034243Y-83278126D01*
X76018306Y-83347671D01*
X76005537Y-83376553D01*
X75958038Y-83424997D01*
X75904725Y-83428595D01*
X75867399Y-83388009D01*
X75875114Y-83339726D01*
X75912616Y-83276541D01*
X75963062Y-83220933D01*
X76009609Y-83195381D01*
X76011797Y-83195294D01*
X76032334Y-83219779D01*
G37*
G36*
X69823891Y-83136841D02*
G01*
X69836264Y-83166614D01*
X69842574Y-83226739D01*
X69831380Y-83254282D01*
X69792372Y-83265676D01*
X69707755Y-83277764D01*
X69591635Y-83288797D01*
X69507176Y-83294502D01*
X69208353Y-83311633D01*
X69372706Y-83254187D01*
X69470788Y-83218110D01*
X69550105Y-83185761D01*
X69582863Y-83169935D01*
X69644425Y-83144381D01*
X69722217Y-83122582D01*
X69790116Y-83114645D01*
X69823891Y-83136841D01*
G37*
G36*
X72499533Y-75551051D02*
G01*
X72365604Y-75378144D01*
X72311017Y-75305193D01*
X72284658Y-75270695D01*
X74038753Y-75270695D01*
X74056951Y-75311305D01*
X74098467Y-75334150D01*
X74175932Y-75355588D01*
X74254479Y-75363431D01*
X74313572Y-75357176D01*
X74333176Y-75339894D01*
X74312748Y-75300831D01*
X74289143Y-75277127D01*
X74255106Y-75224345D01*
X74229743Y-75143235D01*
X74227657Y-75131527D01*
X74206808Y-75010227D01*
X74189296Y-74936851D01*
X74171105Y-74900013D01*
X74148218Y-74888327D01*
X74141763Y-74888000D01*
X74114393Y-74903541D01*
X74090589Y-74955401D01*
X74067855Y-75051433D01*
X74044481Y-75194103D01*
X74038753Y-75270695D01*
X72284658Y-75270695D01*
X72210983Y-75174273D01*
X72107106Y-75044338D01*
X72013482Y-74932731D01*
X71958862Y-74871898D01*
X71818655Y-74723647D01*
X71837293Y-74530406D01*
X71848288Y-74429958D01*
X71858788Y-74356492D01*
X71866101Y-74326997D01*
X71898732Y-74326864D01*
X71965372Y-74339872D01*
X71976664Y-74342702D01*
X72043709Y-74367445D01*
X72076574Y-74409725D01*
X72092000Y-74486347D01*
X72111449Y-74568182D01*
X72150428Y-74598611D01*
X72221737Y-74584919D01*
X72247538Y-74574874D01*
X72284195Y-74575396D01*
X72327712Y-74611850D01*
X72386575Y-74692110D01*
X72405887Y-74721823D01*
X72463863Y-74803964D01*
X72512648Y-74857971D01*
X72541688Y-74872161D01*
X72541702Y-74872152D01*
X72553524Y-74836701D01*
X72562940Y-74754906D01*
X72568781Y-74640175D01*
X72570117Y-74546026D01*
X72570895Y-74406699D01*
X72574949Y-74314618D01*
X72584863Y-74257266D01*
X72603222Y-74222128D01*
X72632607Y-74196690D01*
X72643772Y-74189202D01*
X72755537Y-74149333D01*
X72907421Y-74147040D01*
X73093292Y-74182047D01*
X73199732Y-74214353D01*
X73325216Y-74253928D01*
X73405052Y-74270150D01*
X73448628Y-74262971D01*
X73465329Y-74232339D01*
X73466588Y-74212946D01*
X73486842Y-74164112D01*
X73548002Y-74157154D01*
X73650664Y-74192128D01*
X73742337Y-74238700D01*
X73971507Y-74365229D01*
X74153863Y-74465348D01*
X74294750Y-74541824D01*
X74399513Y-74597426D01*
X74473498Y-74634920D01*
X74522048Y-74657072D01*
X74550508Y-74666652D01*
X74564225Y-74666425D01*
X74566002Y-74665135D01*
X74562041Y-74628010D01*
X74524780Y-74544207D01*
X74455293Y-74415933D01*
X74390698Y-74305294D01*
X74336921Y-74212302D01*
X74293373Y-74132046D01*
X74275869Y-74096118D01*
X74249806Y-74037357D01*
X74208712Y-73946501D01*
X74172127Y-73866444D01*
X74123677Y-73755998D01*
X74099039Y-73681123D01*
X74102479Y-73641416D01*
X74138257Y-73636477D01*
X74210638Y-73665904D01*
X74323884Y-73729293D01*
X74482258Y-73826244D01*
X74497529Y-73835765D01*
X74570629Y-73876827D01*
X74665002Y-73923872D01*
X74765585Y-73970205D01*
X74857314Y-74009135D01*
X74925125Y-74033969D01*
X74953652Y-74038426D01*
X74944661Y-74008920D01*
X74909998Y-73938222D01*
X74854890Y-73836294D01*
X74784566Y-73713099D01*
X74769044Y-73686629D01*
X74677597Y-73525822D01*
X74618779Y-73405315D01*
X74590987Y-73316416D01*
X74592622Y-73250433D01*
X74622082Y-73198675D01*
X74671462Y-73156792D01*
X74725909Y-73110951D01*
X74801958Y-73037563D01*
X74870457Y-72966066D01*
X74966391Y-72866481D01*
X75037621Y-72807614D01*
X75096635Y-72783400D01*
X75155919Y-72787774D01*
X75203546Y-72804304D01*
X75299022Y-72843263D01*
X75177363Y-72883413D01*
X75116485Y-72914083D01*
X75038837Y-72967652D01*
X74954143Y-73035223D01*
X74872123Y-73107902D01*
X74802501Y-73176792D01*
X74754998Y-73232998D01*
X74739336Y-73267623D01*
X74750112Y-73274353D01*
X74802700Y-73255848D01*
X74850856Y-73222059D01*
X74890325Y-73190288D01*
X74901863Y-73199421D01*
X74893048Y-73257851D01*
X74891309Y-73266882D01*
X74885333Y-73338160D01*
X74906053Y-73363610D01*
X74911420Y-73364000D01*
X74958972Y-73342413D01*
X75017181Y-73291959D01*
X75064550Y-73234103D01*
X75080235Y-73195459D01*
X75100197Y-73156106D01*
X75148792Y-73100915D01*
X75154161Y-73095791D01*
X75207386Y-73053513D01*
X75234180Y-73055556D01*
X75239730Y-73068171D01*
X75253168Y-73120304D01*
X75274379Y-73206328D01*
X75287101Y-73258980D01*
X75325655Y-73375669D01*
X75382311Y-73500313D01*
X75410709Y-73550782D01*
X75459188Y-73634885D01*
X75491105Y-73700443D01*
X75498588Y-73725411D01*
X75522670Y-73743273D01*
X75584629Y-73737760D01*
X75669035Y-73712519D01*
X75760458Y-73671199D01*
X75784050Y-73657932D01*
X75850183Y-73607416D01*
X75890255Y-73539695D01*
X75914831Y-73450470D01*
X75933714Y-73349368D01*
X75945202Y-73262694D01*
X75946823Y-73234035D01*
X75970162Y-73149713D01*
X76032013Y-73101442D01*
X76072329Y-73095059D01*
X76106177Y-73106030D01*
X76122223Y-73148470D01*
X76126117Y-73231293D01*
X76131836Y-73314832D01*
X76147647Y-73350053D01*
X76156212Y-73348928D01*
X76196409Y-73302296D01*
X76240355Y-73219962D01*
X76276903Y-73124104D01*
X76286139Y-73090405D01*
X76292106Y-73048925D01*
X76279343Y-73017560D01*
X76237433Y-72987290D01*
X76155962Y-72949097D01*
X76091478Y-72921847D01*
X75989498Y-72872195D01*
X75884623Y-72809636D01*
X75787955Y-72742493D01*
X75710598Y-72679085D01*
X75663654Y-72627733D01*
X75657992Y-72596988D01*
X75691968Y-72600480D01*
X75764562Y-72627163D01*
X75862448Y-72670675D01*
X75972295Y-72724658D01*
X76080775Y-72782751D01*
X76174560Y-72838593D01*
X76200890Y-72856046D01*
X76278587Y-72918887D01*
X76377866Y-73012340D01*
X76482499Y-73120732D01*
X76531526Y-73175372D01*
X76731803Y-73405009D01*
X76712240Y-73683328D01*
X76705585Y-73803814D01*
X76703836Y-73898027D01*
X76707052Y-73952930D01*
X76710977Y-73961647D01*
X76744851Y-73944957D01*
X76801884Y-73904522D01*
X76805257Y-73901882D01*
X76886313Y-73855480D01*
X76959309Y-73842334D01*
X77009259Y-73862541D01*
X77022588Y-73900514D01*
X77000730Y-73952405D01*
X76945493Y-74014557D01*
X76872385Y-74075211D01*
X76796912Y-74122610D01*
X76734581Y-74144996D01*
X76707235Y-74139623D01*
X76686150Y-74130493D01*
X76666211Y-74145701D01*
X76644429Y-74192738D01*
X76617815Y-74279095D01*
X76583377Y-74412264D01*
X76559850Y-74508871D01*
X76524787Y-74638072D01*
X76483517Y-74766728D01*
X76451909Y-74849974D01*
X76416929Y-74950168D01*
X76416944Y-75008167D01*
X76423891Y-75018433D01*
X76453877Y-75064830D01*
X76431688Y-75085354D01*
X76380117Y-75079565D01*
X76320232Y-75076052D01*
X76305411Y-75096175D01*
X76288378Y-75140830D01*
X76240233Y-75226621D01*
X76165408Y-75346638D01*
X76068338Y-75493971D01*
X75953455Y-75661711D01*
X75835911Y-75828017D01*
X75705661Y-76001471D01*
X75564133Y-76175990D01*
X75420853Y-76340887D01*
X75285347Y-76485474D01*
X75167144Y-76599064D01*
X75098163Y-76655610D01*
X75030077Y-76706523D01*
X75006619Y-76731548D01*
X75024032Y-76739880D01*
X75063397Y-76740706D01*
X75132779Y-76716482D01*
X75229596Y-76647401D01*
X75348920Y-76538851D01*
X75485822Y-76396219D01*
X75635374Y-76224892D01*
X75792647Y-76030258D01*
X75952714Y-75817705D01*
X76102138Y-75605177D01*
X76152865Y-75530471D01*
X76154432Y-75676609D01*
X76130703Y-75850155D01*
X76089645Y-75960492D01*
X76026272Y-76060837D01*
X75926440Y-76183458D01*
X75802527Y-76316181D01*
X75666910Y-76446831D01*
X75531968Y-76563233D01*
X75410076Y-76653213D01*
X75348747Y-76689255D01*
X75220503Y-76745869D01*
X75103988Y-76782270D01*
X75011663Y-76795749D01*
X74955986Y-76783594D01*
X74949221Y-76776181D01*
X74909019Y-76748870D01*
X74837830Y-76725052D01*
X74833870Y-76724160D01*
X74762105Y-76700780D01*
X74657291Y-76657536D01*
X74539113Y-76602696D01*
X74508294Y-76587391D01*
X74396741Y-76534342D01*
X74300061Y-76494112D01*
X74234491Y-76473269D01*
X74222410Y-76471765D01*
X74159925Y-76459254D01*
X74137447Y-76446202D01*
X74094866Y-76423816D01*
X74014830Y-76392905D01*
X73944706Y-76369664D01*
X73794809Y-76317973D01*
X73606210Y-76244852D01*
X73393339Y-76156237D01*
X73170623Y-76058064D01*
X73033294Y-75994705D01*
X72915843Y-75934582D01*
X72812387Y-75868408D01*
X72714280Y-75787930D01*
X72681466Y-75754588D01*
X73989529Y-75754588D01*
X74000117Y-75774186D01*
X74049217Y-75783052D01*
X74116550Y-75781185D01*
X74181835Y-75768585D01*
X74213647Y-75754588D01*
X74226877Y-75736029D01*
X74189187Y-75726915D01*
X74133234Y-75725163D01*
X74051200Y-75731423D01*
X73997291Y-75747636D01*
X73989529Y-75754588D01*
X72681466Y-75754588D01*
X72612877Y-75684896D01*
X72499533Y-75551051D01*
G37*
G36*
X77711069Y-71803619D02*
G01*
X77758548Y-71863263D01*
X77787525Y-71907235D01*
X77843012Y-71994775D01*
X77917361Y-72109013D01*
X77995784Y-72227261D01*
X78006628Y-72243412D01*
X78234484Y-72603037D01*
X78417234Y-72936921D01*
X78554083Y-73243138D01*
X78644231Y-73519762D01*
X78686882Y-73764868D01*
X78689539Y-73891888D01*
X78680232Y-74096118D01*
X78627950Y-73984059D01*
X78589355Y-73914243D01*
X78556016Y-73875073D01*
X78548201Y-73872000D01*
X78519353Y-73847066D01*
X78500407Y-73804765D01*
X78480572Y-73755317D01*
X78439312Y-73663396D01*
X78381756Y-73540069D01*
X78313032Y-73396406D01*
X78274276Y-73316707D01*
X78203836Y-73171466D01*
X78143778Y-73045320D01*
X78098597Y-72947901D01*
X78072790Y-72888837D01*
X78068470Y-72875943D01*
X78093575Y-72859721D01*
X78128235Y-72856000D01*
X78176907Y-72874685D01*
X78188000Y-72900824D01*
X78210484Y-72940473D01*
X78230026Y-72945647D01*
X78254691Y-72935365D01*
X78255168Y-72894971D01*
X78239605Y-72833588D01*
X78208656Y-72748118D01*
X78174576Y-72683079D01*
X78169340Y-72676169D01*
X78133322Y-72620920D01*
X78089729Y-72538577D01*
X78077083Y-72511816D01*
X78012773Y-72385286D01*
X77946596Y-72278603D01*
X77888140Y-72206508D01*
X77867482Y-72189633D01*
X77832759Y-72144108D01*
X77829411Y-72125595D01*
X77807879Y-72082992D01*
X77762755Y-72064552D01*
X77723253Y-72081712D01*
X77722045Y-72083554D01*
X77695883Y-72097566D01*
X77672334Y-72062714D01*
X77655807Y-71989871D01*
X77650575Y-71907235D01*
X77656478Y-71829676D01*
X77671865Y-71784739D01*
X77679625Y-71780235D01*
X77711069Y-71803619D01*
G37*
G36*
X72060493Y-73766408D02*
G01*
X72073609Y-73799399D01*
X72090924Y-73874760D01*
X72109774Y-73975850D01*
X72127497Y-74086028D01*
X72141427Y-74188653D01*
X72148900Y-74267083D01*
X72147253Y-74304678D01*
X72146768Y-74305310D01*
X72115551Y-74301865D01*
X72091134Y-74289186D01*
X72025325Y-74265857D01*
X71981704Y-74260928D01*
X71930714Y-74254660D01*
X71904925Y-74229366D01*
X71902140Y-74173957D01*
X71920160Y-74077348D01*
X71933900Y-74019804D01*
X71974271Y-73877016D01*
X72011333Y-73791882D01*
X72046063Y-73762447D01*
X72060493Y-73766408D01*
G37*
G36*
X71021696Y-92374946D02*
G01*
X71107677Y-92417830D01*
X71111104Y-92420698D01*
X71138821Y-92464355D01*
X71179055Y-92552969D01*
X71226771Y-92674369D01*
X71276934Y-92816385D01*
X71285579Y-92842420D01*
X71339268Y-93003150D01*
X71393683Y-93161695D01*
X71442497Y-93299870D01*
X71479381Y-93399491D01*
X71479624Y-93400118D01*
X71528109Y-93525727D01*
X71584300Y-93672360D01*
X71628553Y-93788588D01*
X71718142Y-94019705D01*
X71807320Y-94237862D01*
X71903665Y-94460710D01*
X72014751Y-94705898D01*
X72109524Y-94909177D01*
X72209219Y-95123833D01*
X72286628Y-95297940D01*
X72346695Y-95444145D01*
X72394367Y-95575099D01*
X72434589Y-95703451D01*
X72468648Y-95827743D01*
X72494867Y-95928936D01*
X72505374Y-95985095D01*
X72498044Y-96009388D01*
X72470751Y-96014983D01*
X72438444Y-96014824D01*
X72386033Y-96004113D01*
X72379617Y-95965082D01*
X72380730Y-95960547D01*
X72376703Y-95905523D01*
X72351818Y-95817929D01*
X72319812Y-95736429D01*
X72267066Y-95632273D01*
X72221462Y-95578541D01*
X72186510Y-95566588D01*
X72137508Y-95544413D01*
X72064181Y-95485593D01*
X71977534Y-95401684D01*
X71888575Y-95304243D01*
X71808309Y-95204828D01*
X71747743Y-95114995D01*
X71736056Y-95093608D01*
X71699409Y-94987289D01*
X71675096Y-94845714D01*
X71669404Y-94774706D01*
X71665364Y-94665128D01*
X71668952Y-94603126D01*
X71682651Y-94576733D01*
X71708945Y-94573981D01*
X71711000Y-94574310D01*
X71753673Y-94574136D01*
X71757913Y-94545780D01*
X71726829Y-94481388D01*
X71688816Y-94404386D01*
X71655742Y-94326471D01*
X71580658Y-94131975D01*
X71523059Y-93981505D01*
X71479023Y-93863286D01*
X71444630Y-93765543D01*
X71415960Y-93676500D01*
X71389092Y-93584385D01*
X71360105Y-93477421D01*
X71325080Y-93343834D01*
X71312475Y-93295529D01*
X71269783Y-93142035D01*
X71223855Y-92993287D01*
X71180834Y-92868396D01*
X71152857Y-92798977D01*
X71105797Y-92707299D01*
X71061700Y-92656873D01*
X71005028Y-92632121D01*
X70981326Y-92627008D01*
X70889489Y-92599680D01*
X70813499Y-92561572D01*
X70761228Y-92501047D01*
X70748436Y-92433407D01*
X70775319Y-92378371D01*
X70811502Y-92359356D01*
X70912091Y-92353227D01*
X71021696Y-92374946D01*
G37*
G36*
X76498755Y-75173939D02*
G01*
X76512103Y-75201765D01*
X76534926Y-75282987D01*
X76549873Y-75402288D01*
X76554233Y-75515529D01*
X76551511Y-75630213D01*
X76539584Y-75721930D01*
X76512986Y-75812127D01*
X76466250Y-75922253D01*
X76432083Y-75994702D01*
X76341579Y-76163964D01*
X76242799Y-76315653D01*
X76144429Y-76438071D01*
X76055156Y-76519521D01*
X76031429Y-76534228D01*
X75988004Y-76547577D01*
X75976706Y-76519403D01*
X75992955Y-76469100D01*
X76004130Y-76458343D01*
X76033537Y-76426694D01*
X76085202Y-76359298D01*
X76148376Y-76270229D01*
X76153541Y-76262682D01*
X76219474Y-76160336D01*
X76256713Y-76080347D01*
X76273636Y-75998194D01*
X76278508Y-75896867D01*
X76285741Y-75742484D01*
X76303359Y-75639097D01*
X76333967Y-75578450D01*
X76380167Y-75552283D01*
X76387542Y-75550971D01*
X76421537Y-75540393D01*
X76442077Y-75512037D01*
X76453521Y-75452628D01*
X76460232Y-75348895D01*
X76461176Y-75326853D01*
X76466313Y-75217459D01*
X76472288Y-75160422D01*
X76482102Y-75148371D01*
X76498755Y-75173939D01*
G37*
G36*
X69818551Y-84347945D02*
G01*
X69825241Y-84382908D01*
X69831803Y-84467668D01*
X69838086Y-84593355D01*
X69843936Y-84751101D01*
X69849200Y-84932037D01*
X69853725Y-85127293D01*
X69857358Y-85328001D01*
X69859946Y-85525291D01*
X69861337Y-85710295D01*
X69861377Y-85874143D01*
X69859914Y-86007967D01*
X69856794Y-86102896D01*
X69851865Y-86150064D01*
X69849688Y-86153647D01*
X69824845Y-86129629D01*
X69795653Y-86077091D01*
X69756484Y-86007500D01*
X69701668Y-85928535D01*
X69643891Y-85856370D01*
X69595840Y-85807176D01*
X69574411Y-85795060D01*
X69556714Y-85821293D01*
X69553347Y-85889102D01*
X69563892Y-85982144D01*
X69581186Y-86060533D01*
X69601505Y-86139165D01*
X69630402Y-86255229D01*
X69662737Y-86387988D01*
X69674346Y-86436365D01*
X69713100Y-86592251D01*
X69747013Y-86707955D01*
X69783083Y-86801873D01*
X69828311Y-86892403D01*
X69885131Y-86990353D01*
X69941432Y-87096497D01*
X69999254Y-87224651D01*
X70030319Y-87304118D01*
X70097859Y-87486909D01*
X70161621Y-87649766D01*
X70217567Y-87782989D01*
X70261659Y-87876878D01*
X70285333Y-87916706D01*
X70326871Y-87985153D01*
X70384732Y-88102988D01*
X70455896Y-88263050D01*
X70537341Y-88458179D01*
X70626048Y-88681216D01*
X70718996Y-88924999D01*
X70776953Y-89082118D01*
X70817777Y-89193060D01*
X70873379Y-89342564D01*
X70937296Y-89513330D01*
X71003065Y-89688057D01*
X71022520Y-89739529D01*
X71222096Y-90298562D01*
X71384860Y-90826363D01*
X71514098Y-91336010D01*
X71613102Y-91840585D01*
X71685161Y-92353167D01*
X71689514Y-92391782D01*
X71706465Y-92534747D01*
X71722948Y-92656377D01*
X71737122Y-92744146D01*
X71747146Y-92785530D01*
X71747458Y-92786083D01*
X71757088Y-92825689D01*
X71769890Y-92911522D01*
X71784074Y-93030252D01*
X71795758Y-93145775D01*
X71812680Y-93304300D01*
X71833209Y-93463009D01*
X71854241Y-93599151D01*
X71866307Y-93662887D01*
X71894429Y-93774194D01*
X71933895Y-93904659D01*
X71979088Y-94038324D01*
X72024388Y-94159233D01*
X72064176Y-94251429D01*
X72088610Y-94294233D01*
X72109350Y-94343321D01*
X72125883Y-94421138D01*
X72136287Y-94508323D01*
X72138644Y-94585519D01*
X72131035Y-94633366D01*
X72122911Y-94640235D01*
X72098988Y-94614861D01*
X72092000Y-94571380D01*
X72076358Y-94506912D01*
X72036486Y-94419174D01*
X72007569Y-94369391D01*
X71946142Y-94259916D01*
X71891516Y-94142057D01*
X71876189Y-94102070D01*
X71851656Y-94030067D01*
X71828741Y-93957285D01*
X71803514Y-93870043D01*
X71772044Y-93754661D01*
X71730400Y-93597460D01*
X71721731Y-93564471D01*
X71673367Y-93365488D01*
X71627955Y-93151456D01*
X71587924Y-92936529D01*
X71555701Y-92734859D01*
X71533714Y-92560597D01*
X71524391Y-92427896D01*
X71524235Y-92413149D01*
X71517169Y-92323666D01*
X71498929Y-92206527D01*
X71480936Y-92120081D01*
X71452823Y-91995431D01*
X71420434Y-91844388D01*
X71390697Y-91699267D01*
X71390211Y-91696824D01*
X71364262Y-91568188D01*
X71341234Y-91461079D01*
X71316585Y-91356285D01*
X71285774Y-91234595D01*
X71244257Y-91076800D01*
X71238294Y-91054353D01*
X71181181Y-90847096D01*
X71135073Y-90696745D01*
X71099391Y-90601573D01*
X71073558Y-90559854D01*
X71072412Y-90559077D01*
X71048652Y-90518271D01*
X71046117Y-90497230D01*
X71043808Y-90481011D01*
X71035346Y-90454647D01*
X71018430Y-90413399D01*
X70990758Y-90352529D01*
X70950028Y-90267301D01*
X70893939Y-90152974D01*
X70820189Y-90004813D01*
X70726475Y-89818077D01*
X70610498Y-89588031D01*
X70469954Y-89309935D01*
X70454268Y-89278921D01*
X70314695Y-88990035D01*
X70200756Y-88721981D01*
X70103152Y-88450424D01*
X70012583Y-88151026D01*
X69985135Y-88051177D01*
X69946641Y-87910546D01*
X69909383Y-87777997D01*
X69878843Y-87672886D01*
X69866594Y-87632824D01*
X69837186Y-87531619D01*
X69805196Y-87409090D01*
X69790756Y-87348941D01*
X69758916Y-87240457D01*
X69719212Y-87143911D01*
X69696623Y-87104386D01*
X69623457Y-86966657D01*
X69562120Y-86783845D01*
X69523362Y-86605844D01*
X69504122Y-86499939D01*
X69477085Y-86359350D01*
X69446864Y-86207853D01*
X69433627Y-86143287D01*
X69406609Y-85988290D01*
X69387277Y-85827923D01*
X69376071Y-85674099D01*
X69373435Y-85538732D01*
X69379809Y-85433737D01*
X69395636Y-85371028D01*
X69404599Y-85360522D01*
X69435877Y-85368446D01*
X69452367Y-85401515D01*
X69484745Y-85464246D01*
X69526108Y-85477248D01*
X69561131Y-85439013D01*
X69569107Y-85413004D01*
X69592224Y-85321950D01*
X69615949Y-85242235D01*
X69630990Y-85173819D01*
X69647388Y-85063946D01*
X69662631Y-84930798D01*
X69669649Y-84853765D01*
X69687478Y-84696924D01*
X69712395Y-84558188D01*
X69741727Y-84446636D01*
X69772802Y-84371346D01*
X69802948Y-84341397D01*
X69818551Y-84347945D01*
G37*
G36*
X74819965Y-89824224D02*
G01*
X74830623Y-89849103D01*
X74858502Y-89890115D01*
X74920671Y-89962606D01*
X75008244Y-90056732D01*
X75112337Y-90162650D01*
X75124450Y-90174634D01*
X75281623Y-90337684D01*
X75398017Y-90475953D01*
X75471128Y-90586132D01*
X75498454Y-90664909D01*
X75498588Y-90669422D01*
X75473148Y-90706355D01*
X75414195Y-90729448D01*
X75347778Y-90729780D01*
X75334235Y-90725718D01*
X75290359Y-90697174D01*
X75214025Y-90635805D01*
X75115670Y-90550405D01*
X75005727Y-90449767D01*
X74996738Y-90441315D01*
X74719005Y-90179662D01*
X74727797Y-89999321D01*
X74740276Y-89892321D01*
X74762719Y-89823202D01*
X74790744Y-89798368D01*
X74819965Y-89824224D01*
G37*
G36*
X76496728Y-68127600D02*
G01*
X76578350Y-68171941D01*
X76633846Y-68230684D01*
X76698015Y-68324152D01*
X76760626Y-68433780D01*
X76811443Y-68540999D01*
X76840233Y-68627241D01*
X76843294Y-68652618D01*
X76849586Y-68701389D01*
X76866142Y-68789852D01*
X76889486Y-68899533D01*
X76891360Y-68907864D01*
X76925320Y-69035736D01*
X76956451Y-69104764D01*
X76985374Y-69115769D01*
X77012713Y-69069572D01*
X77013127Y-69068412D01*
X77048850Y-69000121D01*
X77071167Y-68969811D01*
X77105049Y-68913895D01*
X77143510Y-68828098D01*
X77157058Y-68792000D01*
X77218096Y-68657236D01*
X77287474Y-68578662D01*
X77368144Y-68552943D01*
X77368853Y-68552941D01*
X77429910Y-68574081D01*
X77460241Y-68639827D01*
X77461023Y-68753666D01*
X77454379Y-68806550D01*
X77447449Y-68898843D01*
X77466205Y-68938534D01*
X77516123Y-68928909D01*
X77585740Y-68885400D01*
X77707840Y-68827289D01*
X77871061Y-68789035D01*
X78060260Y-68770345D01*
X78260293Y-68770923D01*
X78456015Y-68790474D01*
X78632285Y-68828704D01*
X78773957Y-68885317D01*
X78812374Y-68909283D01*
X78872100Y-68945876D01*
X78908343Y-68957118D01*
X78910592Y-68955918D01*
X78937112Y-68967358D01*
X78989702Y-69011621D01*
X79025946Y-69047280D01*
X79086374Y-69115967D01*
X79107449Y-69162568D01*
X79096026Y-69202900D01*
X79094479Y-69205431D01*
X79077457Y-69265038D01*
X79101693Y-69331599D01*
X79132302Y-69399272D01*
X79143176Y-69443151D01*
X79160572Y-69492060D01*
X79201457Y-69559027D01*
X79205597Y-69564711D01*
X79249142Y-69654332D01*
X79279201Y-69776948D01*
X79284418Y-69816860D01*
X79291833Y-69915574D01*
X79286171Y-69971009D01*
X79264451Y-69998793D01*
X79248214Y-70006604D01*
X79196928Y-70004619D01*
X79137389Y-69955424D01*
X79117099Y-69931545D01*
X78945179Y-69728947D01*
X78796600Y-69575214D01*
X78667222Y-69466144D01*
X78639881Y-69447023D01*
X78561915Y-69398191D01*
X78497165Y-69371813D01*
X78422888Y-69362707D01*
X78316340Y-69365693D01*
X78289710Y-69367252D01*
X78169248Y-69379519D01*
X78060820Y-69404444D01*
X77942547Y-69448492D01*
X77813289Y-69508043D01*
X77693353Y-69567185D01*
X77620167Y-69607539D01*
X77586167Y-69635252D01*
X77583789Y-69656474D01*
X77605231Y-69677178D01*
X77674332Y-69706113D01*
X77762194Y-69718351D01*
X77763277Y-69718353D01*
X77860679Y-69731145D01*
X77944330Y-69760114D01*
X78023567Y-69794618D01*
X78125416Y-69830207D01*
X78158117Y-69839982D01*
X78374995Y-69922429D01*
X78599779Y-70044683D01*
X78811540Y-70194203D01*
X78942529Y-70310057D01*
X79030076Y-70399685D01*
X79098446Y-70476228D01*
X79138109Y-70528671D01*
X79144235Y-70543128D01*
X79165074Y-70588829D01*
X79192210Y-70617439D01*
X79230302Y-70665321D01*
X79279253Y-70748034D01*
X79316663Y-70822804D01*
X79354187Y-70913796D01*
X79377968Y-71002492D01*
X79391370Y-71108074D01*
X79397760Y-71249722D01*
X79398598Y-71289788D01*
X79406266Y-71465979D01*
X79422587Y-71590843D01*
X79448650Y-71672338D01*
X79451753Y-71678259D01*
X79471935Y-71734108D01*
X79489838Y-71826923D01*
X79506217Y-71962712D01*
X79521830Y-72147484D01*
X79534181Y-72333059D01*
X79551605Y-72610972D01*
X79567090Y-72837363D01*
X79581688Y-73020397D01*
X79596451Y-73168243D01*
X79612432Y-73289067D01*
X79630682Y-73391037D01*
X79652252Y-73482318D01*
X79678195Y-73571079D01*
X79703529Y-73647882D01*
X79771243Y-73834470D01*
X79839371Y-73990317D01*
X79916414Y-74128315D01*
X80010876Y-74261357D01*
X80131262Y-74402336D01*
X80286075Y-74564143D01*
X80350243Y-74628357D01*
X80534375Y-74817924D01*
X80679211Y-74981479D01*
X80781388Y-75115105D01*
X80816780Y-75171882D01*
X80873212Y-75269940D01*
X80923281Y-75351178D01*
X80954625Y-75396000D01*
X80986319Y-75439867D01*
X80992883Y-75455765D01*
X81001649Y-75493787D01*
X81008678Y-75515529D01*
X81063600Y-75677194D01*
X81101607Y-75804404D01*
X81125792Y-75915892D01*
X81139249Y-76030390D01*
X81145072Y-76166629D01*
X81146352Y-76343343D01*
X81146353Y-76349258D01*
X81146353Y-76766519D01*
X81243470Y-76833701D01*
X81322435Y-76897335D01*
X81426692Y-76993800D01*
X81545050Y-77111332D01*
X81666320Y-77238167D01*
X81779312Y-77362542D01*
X81872836Y-77472692D01*
X81935703Y-77556854D01*
X81943972Y-77570141D01*
X81995523Y-77670072D01*
X82050240Y-77794933D01*
X82084125Y-77883906D01*
X82121959Y-77987083D01*
X82155942Y-78071270D01*
X82176694Y-78114482D01*
X82194881Y-78170214D01*
X82208083Y-78257821D01*
X82210698Y-78293777D01*
X82223448Y-78410890D01*
X82246411Y-78528028D01*
X82251947Y-78548588D01*
X82267983Y-78626431D01*
X82285211Y-78746700D01*
X82301427Y-78892155D01*
X82313066Y-79026706D01*
X82325784Y-79184105D01*
X82339856Y-79335416D01*
X82353423Y-79461772D01*
X82363054Y-79534706D01*
X82370289Y-79611374D01*
X82376454Y-79735621D01*
X82381192Y-79895264D01*
X82384147Y-80078122D01*
X82384961Y-80272012D01*
X82384939Y-80281765D01*
X82384184Y-80485498D01*
X82382370Y-80639554D01*
X82378393Y-80754017D01*
X82371149Y-80838973D01*
X82359534Y-80904510D01*
X82342444Y-80960713D01*
X82318773Y-81017669D01*
X82299879Y-81058706D01*
X82208998Y-81251423D01*
X82138071Y-81395523D01*
X82083419Y-81497284D01*
X82041366Y-81562983D01*
X82008232Y-81598898D01*
X81980340Y-81611306D01*
X81976002Y-81611529D01*
X81927587Y-81597708D01*
X81905956Y-81552343D01*
X81911210Y-81469586D01*
X81943450Y-81343585D01*
X81982677Y-81224955D01*
X82022552Y-81106611D01*
X82050781Y-81007021D01*
X82069849Y-80910215D01*
X82082244Y-80800223D01*
X82090451Y-80661076D01*
X82096417Y-80494290D01*
X82100767Y-80311746D01*
X82100538Y-80183757D01*
X82095493Y-80105272D01*
X82085394Y-80071240D01*
X82076521Y-80070230D01*
X82046609Y-80115345D01*
X82042823Y-80140286D01*
X82028142Y-80185263D01*
X81988483Y-80267985D01*
X81930424Y-80375442D01*
X81880083Y-80462226D01*
X81756459Y-80646090D01*
X81602727Y-80839038D01*
X81431756Y-81027340D01*
X81256411Y-81197265D01*
X81089563Y-81335084D01*
X81011882Y-81388589D01*
X80920636Y-81448144D01*
X80850578Y-81497478D01*
X80816228Y-81526343D01*
X80815710Y-81527063D01*
X80782569Y-81548134D01*
X80706117Y-81585398D01*
X80598638Y-81633118D01*
X80502663Y-81673295D01*
X80362817Y-81728391D01*
X80265590Y-81760803D01*
X80199558Y-81773355D01*
X80153292Y-81768873D01*
X80138542Y-81763302D01*
X80083144Y-81723812D01*
X80080457Y-81676890D01*
X80131964Y-81618784D01*
X80220000Y-81557466D01*
X80303907Y-81502483D01*
X80348891Y-81458272D01*
X80367559Y-81405330D01*
X80372517Y-81324153D01*
X80372578Y-81321411D01*
X80373839Y-81218094D01*
X80373260Y-81127974D01*
X80372532Y-81103529D01*
X80380005Y-81055567D01*
X80415415Y-81015626D01*
X80491037Y-80971833D01*
X80526248Y-80954824D01*
X80662719Y-80878571D01*
X80795666Y-80783674D01*
X80911274Y-80681890D01*
X80995727Y-80584974D01*
X81028461Y-80527470D01*
X81064608Y-80447588D01*
X81099320Y-80387629D01*
X81100267Y-80386353D01*
X81130958Y-80330014D01*
X81165279Y-80245780D01*
X81173490Y-80222000D01*
X81209455Y-80120218D01*
X81246559Y-80025239D01*
X81251839Y-80012824D01*
X81287131Y-79900644D01*
X81312452Y-79747247D01*
X81328389Y-79547105D01*
X81335530Y-79294689D01*
X81336015Y-79220941D01*
X81330586Y-78948762D01*
X81312229Y-78731734D01*
X81280446Y-78566553D01*
X81234740Y-78449913D01*
X81215570Y-78420225D01*
X81166994Y-78365672D01*
X81093721Y-78295243D01*
X81009261Y-78220481D01*
X80927125Y-78152932D01*
X80860823Y-78104138D01*
X80823998Y-78085642D01*
X80797762Y-78109393D01*
X80756080Y-78169156D01*
X80735470Y-78203621D01*
X80702419Y-78270997D01*
X80682120Y-78343084D01*
X80671708Y-78436974D01*
X80668322Y-78569758D01*
X80668235Y-78605016D01*
X80666337Y-78745324D01*
X80658144Y-78845444D01*
X80639909Y-78924900D01*
X80607884Y-79003216D01*
X80581800Y-79055257D01*
X80527083Y-79173614D01*
X80470352Y-79316570D01*
X80428778Y-79438044D01*
X80383700Y-79573007D01*
X80331885Y-79711516D01*
X80288864Y-79813793D01*
X80246459Y-79912062D01*
X80214707Y-79996602D01*
X80203618Y-80035246D01*
X80180080Y-80097831D01*
X80135227Y-80181065D01*
X80115778Y-80211865D01*
X80073760Y-80279318D01*
X80053118Y-80320563D01*
X80053477Y-80326588D01*
X80042597Y-80346772D01*
X80000825Y-80399509D01*
X79941842Y-80468078D01*
X79729690Y-80701669D01*
X79542521Y-80895193D01*
X79383485Y-81045505D01*
X79269445Y-81139435D01*
X79184060Y-81211833D01*
X79089124Y-81306106D01*
X78995337Y-81409805D01*
X78913402Y-81510478D01*
X78854021Y-81595676D01*
X78827896Y-81652949D01*
X78827868Y-81653135D01*
X78809415Y-81699834D01*
X78769010Y-81774507D01*
X78743780Y-81816022D01*
X78702230Y-81886979D01*
X78682134Y-81931943D01*
X78683340Y-81940235D01*
X78677637Y-81960174D01*
X78641870Y-82010199D01*
X78622844Y-82033490D01*
X78557414Y-82125774D01*
X78503183Y-82225610D01*
X78499499Y-82234148D01*
X78462715Y-82308573D01*
X78428607Y-82356547D01*
X78422755Y-82361248D01*
X78404721Y-82400898D01*
X78393681Y-82480463D01*
X78390198Y-82580442D01*
X78394830Y-82681331D01*
X78408139Y-82763628D01*
X78410916Y-82773156D01*
X78447513Y-82853042D01*
X78482380Y-82906877D01*
X78538149Y-82972449D01*
X78612758Y-83051616D01*
X78695203Y-83133832D01*
X78774482Y-83208547D01*
X78839590Y-83265214D01*
X78879526Y-83293285D01*
X78886181Y-83293975D01*
X78918345Y-83298629D01*
X78976630Y-83330491D01*
X78985632Y-83336583D01*
X79089490Y-83399663D01*
X79174273Y-83434177D01*
X79216154Y-83437536D01*
X79259459Y-83439868D01*
X79337927Y-83453016D01*
X79380507Y-83461979D01*
X79484269Y-83484753D01*
X79578264Y-83504632D01*
X79601825Y-83509406D01*
X79662024Y-83531244D01*
X79678556Y-83575705D01*
X79676531Y-83604464D01*
X79656476Y-83659421D01*
X79602961Y-83711036D01*
X79505600Y-83769902D01*
X79440285Y-83804069D01*
X79384470Y-83827626D01*
X79325477Y-83842246D01*
X79250625Y-83849603D01*
X79147238Y-83851369D01*
X79002636Y-83849216D01*
X78918465Y-83847363D01*
X78743821Y-83842317D01*
X78618901Y-83835472D01*
X78533666Y-83825543D01*
X78478079Y-83811244D01*
X78442101Y-83791290D01*
X78435218Y-83785471D01*
X78374371Y-83745301D01*
X78331795Y-83733177D01*
X78279316Y-83712013D01*
X78202139Y-83656455D01*
X78113364Y-83578397D01*
X78026094Y-83489735D01*
X77953431Y-83402366D01*
X77930165Y-83368513D01*
X77881295Y-83303503D01*
X77840831Y-83270843D01*
X77828341Y-83270662D01*
X77802555Y-83318517D01*
X77805889Y-83399376D01*
X77836527Y-83495108D01*
X77854362Y-83530562D01*
X77897727Y-83620593D01*
X77928310Y-83705603D01*
X77929442Y-83709990D01*
X77970450Y-83811590D01*
X78043314Y-83934302D01*
X78135922Y-84058762D01*
X78177615Y-84106706D01*
X78276442Y-84200584D01*
X78397813Y-84295294D01*
X78527917Y-84382177D01*
X78652944Y-84452576D01*
X78759083Y-84497833D01*
X78821099Y-84510118D01*
X78879616Y-84516497D01*
X78981341Y-84533808D01*
X79111303Y-84559308D01*
X79236826Y-84586273D01*
X79381142Y-84616932D01*
X79512259Y-84641902D01*
X79614451Y-84658359D01*
X79667176Y-84663551D01*
X79802165Y-84677778D01*
X79897954Y-84714195D01*
X79946589Y-84769116D01*
X79951059Y-84795118D01*
X79937997Y-84847512D01*
X79888851Y-84882447D01*
X79838610Y-84899997D01*
X79754909Y-84913941D01*
X79637561Y-84919194D01*
X79500479Y-84916835D01*
X79357574Y-84907940D01*
X79222757Y-84893586D01*
X79109941Y-84874851D01*
X79033037Y-84852811D01*
X79007814Y-84835667D01*
X78968914Y-84816357D01*
X78904426Y-84808941D01*
X78860411Y-84806480D01*
X78811963Y-84796417D01*
X78747892Y-84774739D01*
X78657007Y-84737428D01*
X78528118Y-84680469D01*
X78456941Y-84648355D01*
X78224685Y-84513460D01*
X78003823Y-84326854D01*
X77803219Y-84096534D01*
X77729059Y-83991586D01*
X77667002Y-83906318D01*
X77612427Y-83845643D01*
X77577473Y-83822824D01*
X77525279Y-83836832D01*
X77492334Y-83883745D01*
X77476718Y-83970892D01*
X77476509Y-84105604D01*
X77481345Y-84189717D01*
X77489172Y-84325223D01*
X77488811Y-84417373D01*
X77478523Y-84482229D01*
X77456567Y-84535852D01*
X77440874Y-84563134D01*
X77420070Y-84601933D01*
X77404714Y-84646484D01*
X77393993Y-84706034D01*
X77387094Y-84789829D01*
X77383201Y-84907116D01*
X77381503Y-85067142D01*
X77381176Y-85241552D01*
X77379699Y-85426149D01*
X77375585Y-85593802D01*
X77369316Y-85733949D01*
X77361370Y-85836028D01*
X77352226Y-85889477D01*
X77351709Y-85890770D01*
X77334454Y-85951724D01*
X77314604Y-86053149D01*
X77295734Y-86176071D01*
X77290909Y-86213412D01*
X77265293Y-86418389D01*
X77245186Y-86571872D01*
X77229340Y-86681748D01*
X77216508Y-86755906D01*
X77205443Y-86802232D01*
X77194898Y-86828613D01*
X77193174Y-86831514D01*
X77178644Y-86879441D01*
X77164966Y-86965088D01*
X77158045Y-87034308D01*
X77145349Y-87148374D01*
X77127193Y-87253900D01*
X77116377Y-87297735D01*
X77030625Y-87640066D01*
X76993040Y-87889295D01*
X76978660Y-87997074D01*
X76961386Y-88084093D01*
X76946437Y-88128221D01*
X76925769Y-88182473D01*
X76904778Y-88268736D01*
X76898132Y-88305044D01*
X76877908Y-88421237D01*
X76854053Y-88549876D01*
X76846447Y-88589059D01*
X76829237Y-88707570D01*
X76817747Y-88845671D01*
X76815193Y-88919616D01*
X76816740Y-89022956D01*
X76828633Y-89086464D01*
X76857917Y-89129979D01*
X76903059Y-89167040D01*
X76943343Y-89198681D01*
X76969286Y-89230624D01*
X76984042Y-89275984D01*
X76990769Y-89347881D01*
X76992621Y-89459432D01*
X76992706Y-89539637D01*
X76992706Y-89845956D01*
X77077372Y-89877914D01*
X77138627Y-89913147D01*
X77165485Y-89951701D01*
X77174690Y-90006146D01*
X77193272Y-90089378D01*
X77199121Y-90113059D01*
X77221777Y-90211416D01*
X77247335Y-90334801D01*
X77262035Y-90411882D01*
X77285367Y-90525866D01*
X77310814Y-90629614D01*
X77326230Y-90680824D01*
X77353360Y-90772080D01*
X77378259Y-90877201D01*
X77380808Y-90890000D01*
X77411395Y-91028087D01*
X77445116Y-91119040D01*
X77491054Y-91175191D01*
X77558292Y-91208873D01*
X77628967Y-91226980D01*
X77792173Y-91261918D01*
X77909055Y-91288844D01*
X77991947Y-91311185D01*
X78053182Y-91332368D01*
X78105097Y-91355821D01*
X78119879Y-91363384D01*
X78197866Y-91413872D01*
X78244803Y-91475288D01*
X78265650Y-91561418D01*
X78265366Y-91686048D01*
X78260132Y-91753253D01*
X78240182Y-91973414D01*
X78362568Y-92092185D01*
X78441933Y-92176542D01*
X78494910Y-92256961D01*
X78526603Y-92348897D01*
X78542117Y-92467805D01*
X78546556Y-92629140D01*
X78546588Y-92649338D01*
X78550390Y-92805910D01*
X78564307Y-92926801D01*
X78592109Y-93035757D01*
X78620273Y-93113631D01*
X78656932Y-93211201D01*
X78682018Y-93285765D01*
X78690077Y-93321003D01*
X78698491Y-93390354D01*
X78739717Y-93495141D01*
X78808855Y-93624439D01*
X78869512Y-93721088D01*
X78936037Y-93824130D01*
X78974495Y-93897151D01*
X78990952Y-93959185D01*
X78991475Y-94029267D01*
X78986236Y-94087271D01*
X78969233Y-94252013D01*
X79131440Y-94442025D01*
X79205962Y-94532624D01*
X79262431Y-94607563D01*
X79291593Y-94654326D01*
X79293647Y-94661388D01*
X79313765Y-94701510D01*
X79353411Y-94744824D01*
X79397876Y-94793044D01*
X79413176Y-94822834D01*
X79428671Y-94860049D01*
X79467796Y-94926233D01*
X79489800Y-94959669D01*
X79549987Y-95057339D01*
X79602788Y-95157393D01*
X79612005Y-95177643D01*
X79654539Y-95270993D01*
X79696024Y-95355231D01*
X79698482Y-95359902D01*
X79731640Y-95446417D01*
X79751911Y-95539196D01*
X79767617Y-95632761D01*
X79791971Y-95744971D01*
X79801396Y-95782684D01*
X79822450Y-95900050D01*
X79816276Y-95979674D01*
X79783713Y-96014027D01*
X79775500Y-96014824D01*
X79759245Y-95991099D01*
X79762844Y-95956062D01*
X79763683Y-95896883D01*
X79751137Y-95798138D01*
X79728882Y-95677537D01*
X79700594Y-95552791D01*
X79669952Y-95441611D01*
X79640631Y-95361708D01*
X79638559Y-95357412D01*
X79601942Y-95281577D01*
X79557291Y-95186669D01*
X79546410Y-95163177D01*
X79493044Y-95060964D01*
X79432577Y-94963076D01*
X79422343Y-94948523D01*
X79378417Y-94884343D01*
X79354741Y-94842813D01*
X79353411Y-94837962D01*
X79335884Y-94799844D01*
X79289172Y-94727784D01*
X79222083Y-94633977D01*
X79143423Y-94530618D01*
X79062000Y-94429900D01*
X79039752Y-94403654D01*
X78963478Y-94308527D01*
X78925177Y-94242110D01*
X78918739Y-94192763D01*
X78922111Y-94179536D01*
X78942379Y-94062990D01*
X78920831Y-93940446D01*
X78854590Y-93799877D01*
X78816636Y-93738518D01*
X78753745Y-93635662D01*
X78703751Y-93542493D01*
X78676798Y-93478030D01*
X78675975Y-93474824D01*
X78654121Y-93394703D01*
X78622181Y-93291594D01*
X78585715Y-93181779D01*
X78550283Y-93081539D01*
X78521445Y-93007157D01*
X78505463Y-92975503D01*
X78497071Y-92939063D01*
X78490639Y-92857744D01*
X78487163Y-92746428D01*
X78486823Y-92696637D01*
X78484246Y-92522945D01*
X78473866Y-92395351D01*
X78451715Y-92300312D01*
X78413823Y-92224287D01*
X78356220Y-92153731D01*
X78315893Y-92113494D01*
X78184336Y-91987440D01*
X78204800Y-91735229D01*
X78225264Y-91483019D01*
X78111735Y-91429145D01*
X77983485Y-91380463D01*
X77798616Y-91328868D01*
X77560153Y-91275202D01*
X77551687Y-91273463D01*
X77484562Y-91233771D01*
X77418112Y-91152692D01*
X77362498Y-91047848D01*
X77327879Y-90936859D01*
X77321411Y-90874088D01*
X77309794Y-90784208D01*
X77286022Y-90716212D01*
X77251377Y-90622765D01*
X77217975Y-90474457D01*
X77186891Y-90276193D01*
X77182876Y-90245437D01*
X77159902Y-90144162D01*
X77123612Y-90056498D01*
X77110610Y-90036261D01*
X77055790Y-89963647D01*
X76991819Y-90113059D01*
X76898145Y-90320273D01*
X76818926Y-90470314D01*
X76753692Y-90563878D01*
X76701974Y-90601664D01*
X76669436Y-90591632D01*
X76666060Y-90556108D01*
X76673391Y-90479944D01*
X76686539Y-90398313D01*
X76720702Y-90258059D01*
X76774075Y-90115427D01*
X76853877Y-89952632D01*
X76905411Y-89859059D01*
X76935500Y-89794888D01*
X76951600Y-89724265D01*
X76956082Y-89629099D01*
X76951951Y-89503736D01*
X76944416Y-89379722D01*
X76933615Y-89299791D01*
X76914444Y-89248288D01*
X76881799Y-89209559D01*
X76846497Y-89180335D01*
X76794278Y-89134151D01*
X76766435Y-89086637D01*
X76755420Y-89017220D01*
X76753647Y-88927345D01*
X76766992Y-88741078D01*
X76805848Y-88511373D01*
X76868445Y-88247965D01*
X76893793Y-88156071D01*
X76924577Y-88031938D01*
X76953965Y-87887499D01*
X76968990Y-87797482D01*
X77008243Y-87545569D01*
X77050912Y-87308414D01*
X77097028Y-87080000D01*
X77125734Y-86935005D01*
X77153854Y-86779692D01*
X77173122Y-86661647D01*
X77210948Y-86414815D01*
X77242976Y-86219164D01*
X77270583Y-86066545D01*
X77289449Y-85974353D01*
X77302204Y-85881450D01*
X77311585Y-85745508D01*
X77317395Y-85583164D01*
X77319433Y-85411061D01*
X77317499Y-85245837D01*
X77311395Y-85104133D01*
X77301095Y-85003642D01*
X77281436Y-84884577D01*
X77229034Y-85033524D01*
X77197034Y-85146877D01*
X77176873Y-85260771D01*
X77173765Y-85302000D01*
X77160602Y-85452922D01*
X77129328Y-85643600D01*
X77083225Y-85857985D01*
X77025575Y-86080028D01*
X76990485Y-86198471D01*
X76946901Y-86355507D01*
X76902132Y-86544849D01*
X76862246Y-86739481D01*
X76839474Y-86870824D01*
X76814210Y-87029892D01*
X76789103Y-87182583D01*
X76767146Y-87310988D01*
X76752013Y-87393765D01*
X76734695Y-87494978D01*
X76714848Y-87630330D01*
X76696126Y-87774516D01*
X76691951Y-87809829D01*
X76673400Y-87946453D01*
X76653823Y-88051533D01*
X76635213Y-88119399D01*
X76619564Y-88144384D01*
X76608867Y-88120819D01*
X76605144Y-88056750D01*
X76608973Y-87977791D01*
X76620009Y-87859051D01*
X76636309Y-87719808D01*
X76647249Y-87638397D01*
X76686398Y-87331237D01*
X76722696Y-86988857D01*
X76753704Y-86635801D01*
X76771131Y-86392706D01*
X76793858Y-86180989D01*
X76831778Y-86022897D01*
X76851084Y-85974353D01*
X76925555Y-85803321D01*
X76979810Y-85654091D01*
X77024203Y-85497113D01*
X77037623Y-85442087D01*
X77072072Y-85269947D01*
X77081244Y-85145986D01*
X77064919Y-85064122D01*
X77022877Y-85018275D01*
X77022319Y-85017974D01*
X76992511Y-84996754D01*
X76977872Y-84965778D01*
X76979374Y-84914554D01*
X76997988Y-84832589D01*
X77034686Y-84709392D01*
X77057615Y-84636904D01*
X77098132Y-84528821D01*
X77131488Y-84477633D01*
X77155914Y-84483708D01*
X77169638Y-84547411D01*
X77172000Y-84613272D01*
X77182334Y-84712691D01*
X77213906Y-84758729D01*
X77216823Y-84759983D01*
X77256970Y-84801192D01*
X77264648Y-84830415D01*
X77272034Y-84838993D01*
X77287126Y-84798218D01*
X77294675Y-84768648D01*
X77329614Y-84669549D01*
X77378739Y-84581412D01*
X77384010Y-84574433D01*
X77412666Y-84532696D01*
X77429389Y-84487296D01*
X77435797Y-84423853D01*
X77433505Y-84327984D01*
X77425548Y-84204984D01*
X77416937Y-84067789D01*
X77415824Y-83974413D01*
X77424004Y-83909184D01*
X77443272Y-83856430D01*
X77471070Y-83807484D01*
X77524254Y-83740022D01*
X77572846Y-83709364D01*
X77583332Y-83709226D01*
X77620778Y-83738797D01*
X77671826Y-83806599D01*
X77716887Y-83882588D01*
X77818878Y-84038575D01*
X77957053Y-84201121D01*
X78115732Y-84354963D01*
X78279233Y-84484843D01*
X78426061Y-84572761D01*
X78557711Y-84634921D01*
X78650494Y-84676393D01*
X78719246Y-84702710D01*
X78778802Y-84719408D01*
X78844000Y-84732020D01*
X78860353Y-84734759D01*
X78943712Y-84752831D01*
X79001907Y-84773102D01*
X79009764Y-84777905D01*
X79052415Y-84791709D01*
X79137435Y-84806579D01*
X79247561Y-84819582D01*
X79263764Y-84821065D01*
X79380385Y-84828945D01*
X79440892Y-84826770D01*
X79448110Y-84814370D01*
X79443059Y-84810410D01*
X79373589Y-84783103D01*
X79343739Y-84779516D01*
X79281755Y-84768644D01*
X79179434Y-84740010D01*
X79051678Y-84698661D01*
X78913390Y-84649642D01*
X78779476Y-84598001D01*
X78671944Y-84552053D01*
X78457399Y-84434170D01*
X78277344Y-84295446D01*
X78223247Y-84241491D01*
X78120267Y-84116120D01*
X78020962Y-83970258D01*
X77930529Y-83814697D01*
X77854164Y-83660230D01*
X77797064Y-83517647D01*
X77764426Y-83397741D01*
X77761447Y-83311304D01*
X77766937Y-83293896D01*
X77804811Y-83237702D01*
X77849075Y-83234178D01*
X77908221Y-83283927D01*
X77926727Y-83305233D01*
X78040783Y-83437765D01*
X78132443Y-83533615D01*
X78214622Y-83604318D01*
X78300233Y-83661410D01*
X78366501Y-83698084D01*
X78441215Y-83736115D01*
X78504005Y-83762323D01*
X78568524Y-83778909D01*
X78648426Y-83788071D01*
X78757365Y-83792011D01*
X78908993Y-83792927D01*
X78955282Y-83792941D01*
X79121114Y-83792264D01*
X79239854Y-83789028D01*
X79324172Y-83781423D01*
X79386735Y-83767641D01*
X79440212Y-83745873D01*
X79494459Y-83715961D01*
X79567079Y-83666050D01*
X79609419Y-83622422D01*
X79614329Y-83604517D01*
X79581139Y-83583131D01*
X79504786Y-83559560D01*
X79401446Y-83538741D01*
X79395950Y-83537875D01*
X79122507Y-83465791D01*
X78871602Y-83338719D01*
X78645688Y-83157956D01*
X78608803Y-83120794D01*
X78461368Y-82945471D01*
X78369741Y-82781188D01*
X78332628Y-82621337D01*
X78348739Y-82459309D01*
X78416780Y-82288496D01*
X78438406Y-82249400D01*
X78494430Y-82152290D01*
X78569805Y-82021354D01*
X78654163Y-81874619D01*
X78728015Y-81746000D01*
X78845788Y-81553204D01*
X78956469Y-81400950D01*
X79072105Y-81273164D01*
X79108700Y-81238000D01*
X79331126Y-81027665D01*
X79529714Y-80834440D01*
X79699268Y-80663577D01*
X79834589Y-80520331D01*
X79930479Y-80409955D01*
X79940813Y-80396976D01*
X80013443Y-80286771D01*
X80095580Y-80133248D01*
X80180712Y-79950666D01*
X80262329Y-79753285D01*
X80333919Y-79555363D01*
X80355005Y-79489882D01*
X80393420Y-79379002D01*
X80446280Y-79242509D01*
X80502541Y-79108844D01*
X80505839Y-79101412D01*
X80557300Y-78976429D01*
X80589577Y-78867360D01*
X80608256Y-78749148D01*
X80618921Y-78596739D01*
X80619079Y-78593412D01*
X80636936Y-78406257D01*
X80669719Y-78251956D01*
X80714833Y-78137677D01*
X80769683Y-78070589D01*
X80813861Y-78055529D01*
X80883946Y-78077743D01*
X80976631Y-78136550D01*
X81079377Y-78220202D01*
X81179645Y-78316951D01*
X81264895Y-78415046D01*
X81322588Y-78502738D01*
X81339224Y-78547787D01*
X81397893Y-78975205D01*
X81407598Y-79375931D01*
X81368462Y-79757363D01*
X81360218Y-79803647D01*
X81320000Y-79962588D01*
X81256304Y-80149190D01*
X81177615Y-80340618D01*
X81104820Y-80490941D01*
X81016778Y-80622120D01*
X80892449Y-80761831D01*
X80749494Y-80892893D01*
X80605577Y-80998123D01*
X80551480Y-81029246D01*
X80414235Y-81100747D01*
X80513727Y-81102138D01*
X80592947Y-81091659D01*
X80701933Y-81062929D01*
X80807884Y-81025651D01*
X80934654Y-80981098D01*
X81011479Y-80969248D01*
X81038721Y-80990541D01*
X81016745Y-81045422D01*
X80945916Y-81134334D01*
X80920290Y-81162282D01*
X80670053Y-81390469D01*
X80378011Y-81582551D01*
X80354470Y-81595541D01*
X80278759Y-81639267D01*
X80255322Y-81659962D01*
X80282147Y-81659591D01*
X80290721Y-81657763D01*
X80387110Y-81636896D01*
X80468329Y-81620134D01*
X80542094Y-81595817D01*
X80643626Y-81550562D01*
X80740528Y-81499860D01*
X81071965Y-81288416D01*
X81357945Y-81051758D01*
X81606815Y-80781119D01*
X81826921Y-80467733D01*
X81977411Y-80200789D01*
X82032308Y-80101000D01*
X82080151Y-80025560D01*
X82112527Y-79987414D01*
X82117529Y-79985187D01*
X82133260Y-80011790D01*
X82146097Y-80086301D01*
X82155785Y-80196923D01*
X82162068Y-80331860D01*
X82164688Y-80479313D01*
X82163391Y-80627485D01*
X82157920Y-80764579D01*
X82148019Y-80878796D01*
X82138237Y-80939177D01*
X82093887Y-81130271D01*
X82055025Y-81272035D01*
X82022770Y-81360640D01*
X82007745Y-81385918D01*
X81985045Y-81427554D01*
X81990415Y-81452666D01*
X82011109Y-81448309D01*
X82045215Y-81409214D01*
X82095298Y-81330937D01*
X82152857Y-81228816D01*
X82209390Y-81118188D01*
X82256395Y-81014393D01*
X82268463Y-80984000D01*
X82291171Y-80891110D01*
X82309823Y-80751027D01*
X82324162Y-80576203D01*
X82333932Y-80379087D01*
X82338875Y-80172131D01*
X82338736Y-79967786D01*
X82333256Y-79778502D01*
X82322180Y-79616732D01*
X82305251Y-79494924D01*
X82299676Y-79470628D01*
X82276023Y-79346818D01*
X82258963Y-79195111D01*
X82252018Y-79047295D01*
X82252000Y-79040315D01*
X82234203Y-78749058D01*
X82184306Y-78435371D01*
X82107548Y-78123488D01*
X82009170Y-77837643D01*
X81974466Y-77756706D01*
X81871248Y-77572084D01*
X81728372Y-77376254D01*
X81559521Y-77184960D01*
X81378379Y-77013948D01*
X81229225Y-76899184D01*
X81182174Y-76864933D01*
X81147152Y-76829295D01*
X81122049Y-76783078D01*
X81104758Y-76717091D01*
X81093170Y-76622142D01*
X81085176Y-76489038D01*
X81078668Y-76308587D01*
X81076357Y-76232706D01*
X81065518Y-76013943D01*
X81044884Y-75837419D01*
X81010205Y-75685869D01*
X80957234Y-75542023D01*
X80881722Y-75388617D01*
X80858019Y-75345299D01*
X80780125Y-75209022D01*
X80709036Y-75096478D01*
X80634739Y-74995141D01*
X80547222Y-74892483D01*
X80436476Y-74775977D01*
X80292487Y-74633097D01*
X80275788Y-74616792D01*
X80157672Y-74500384D01*
X80056227Y-74398135D01*
X79978557Y-74317389D01*
X79931762Y-74265490D01*
X79921176Y-74250140D01*
X79906607Y-74214207D01*
X79869953Y-74148285D01*
X79851430Y-74117936D01*
X79790526Y-74002516D01*
X79724181Y-73847039D01*
X79659394Y-73669904D01*
X79603164Y-73489511D01*
X79581681Y-73408824D01*
X79556052Y-73276814D01*
X79530889Y-73090750D01*
X79506748Y-72856342D01*
X79484188Y-72579300D01*
X79463765Y-72265336D01*
X79455621Y-72117378D01*
X79443668Y-71939321D01*
X79428919Y-71816025D01*
X79410619Y-71742520D01*
X79394991Y-71717778D01*
X79368043Y-71666460D01*
X79354086Y-71581511D01*
X79353411Y-71557611D01*
X79340126Y-71459063D01*
X79305305Y-71330055D01*
X79256503Y-71192336D01*
X79201276Y-71067654D01*
X79156260Y-70990063D01*
X79131827Y-70958080D01*
X79117748Y-70954422D01*
X79111832Y-70987575D01*
X79111888Y-71066023D01*
X79114308Y-71152489D01*
X79122224Y-71246620D01*
X79137225Y-71314361D01*
X79149678Y-71335364D01*
X79171940Y-71377452D01*
X79159155Y-71432240D01*
X79119907Y-71471582D01*
X79106868Y-71475726D01*
X79054593Y-71457292D01*
X79018754Y-71401363D01*
X78974732Y-71320545D01*
X78914839Y-71233331D01*
X78906367Y-71222551D01*
X78853352Y-71153148D01*
X78780304Y-71053192D01*
X78700904Y-70941479D01*
X78681059Y-70913044D01*
X78568039Y-70755998D01*
X78476073Y-70642299D01*
X78397063Y-70563122D01*
X78322912Y-70509641D01*
X78298954Y-70496547D01*
X78239894Y-70448306D01*
X78227898Y-70397803D01*
X78263445Y-70360412D01*
X78294439Y-70352051D01*
X78358279Y-70368412D01*
X78439923Y-70426203D01*
X78460247Y-70445061D01*
X78548034Y-70523076D01*
X78623134Y-70576709D01*
X78675726Y-70600066D01*
X78695992Y-70587251D01*
X78696000Y-70586597D01*
X78676965Y-70503853D01*
X78628771Y-70403260D01*
X78564785Y-70308962D01*
X78512659Y-70255430D01*
X78436289Y-70191159D01*
X78371298Y-70131224D01*
X78365064Y-70124930D01*
X78303443Y-70083346D01*
X78211305Y-70043640D01*
X78166827Y-70029830D01*
X78095845Y-70008094D01*
X78065914Y-69993234D01*
X78074177Y-69989311D01*
X78128231Y-69971993D01*
X78142980Y-69957728D01*
X78127518Y-69932793D01*
X78071726Y-69895601D01*
X77991609Y-69853852D01*
X77903172Y-69815245D01*
X77822419Y-69787477D01*
X77769578Y-69778118D01*
X77708728Y-69766948D01*
X77625075Y-69739358D01*
X77606987Y-69732076D01*
X77528318Y-69683317D01*
X77507664Y-69631460D01*
X77544967Y-69583136D01*
X77608587Y-69553957D01*
X77687118Y-69522604D01*
X77742694Y-69491006D01*
X77790168Y-69464694D01*
X77876204Y-69426156D01*
X77983083Y-69383275D01*
X77994398Y-69378990D01*
X78194349Y-69318400D01*
X78362719Y-69301413D01*
X78508804Y-69328031D01*
X78613518Y-69379229D01*
X78718948Y-69454778D01*
X78834081Y-69551442D01*
X78944874Y-69655863D01*
X79037283Y-69754680D01*
X79097265Y-69834533D01*
X79103064Y-69844946D01*
X79147140Y-69903249D01*
X79193181Y-69927529D01*
X79193219Y-69927529D01*
X79223217Y-69902665D01*
X79226898Y-69834055D01*
X79206092Y-69730675D01*
X79162632Y-69601500D01*
X79098350Y-69455505D01*
X79095851Y-69450415D01*
X79042714Y-69336638D01*
X79016702Y-69262550D01*
X79014614Y-69216340D01*
X79026212Y-69193597D01*
X79044817Y-69152599D01*
X79026198Y-69110050D01*
X78964401Y-69059257D01*
X78853472Y-68993529D01*
X78843264Y-68987950D01*
X78602425Y-68887131D01*
X78343929Y-68832607D01*
X78080577Y-68824423D01*
X77825171Y-68862626D01*
X77590512Y-68947260D01*
X77523340Y-68983307D01*
X77422005Y-69033219D01*
X77360787Y-69039092D01*
X77337959Y-68999560D01*
X77351795Y-68913257D01*
X77368744Y-68860987D01*
X77395406Y-68767092D01*
X77405594Y-68690297D01*
X77402234Y-68662695D01*
X77369225Y-68616058D01*
X77325844Y-68623944D01*
X77270896Y-68687404D01*
X77203183Y-68807486D01*
X77178060Y-68859235D01*
X77107172Y-68996873D01*
X77039190Y-69106202D01*
X76979780Y-69179706D01*
X76934610Y-69209865D01*
X76917510Y-69204883D01*
X76905386Y-69171020D01*
X76884735Y-69091758D01*
X76858839Y-68980284D01*
X76840115Y-68893792D01*
X76776679Y-68637311D01*
X76706033Y-68438481D01*
X76627061Y-68295499D01*
X76538652Y-68206564D01*
X76439692Y-68169874D01*
X76392890Y-68169781D01*
X76320372Y-68186686D01*
X76283079Y-68231848D01*
X76268966Y-68276374D01*
X76233291Y-68351825D01*
X76176697Y-68414886D01*
X76115414Y-68451540D01*
X76068366Y-68449598D01*
X76006298Y-68428416D01*
X75901267Y-68409075D01*
X75770075Y-68393012D01*
X75629523Y-68381664D01*
X75496412Y-68376468D01*
X75387543Y-68378862D01*
X75331617Y-68386575D01*
X75265508Y-68430464D01*
X75242355Y-68476491D01*
X75218841Y-68544682D01*
X75182037Y-68589565D01*
X75121631Y-68614342D01*
X75027310Y-68622216D01*
X74888762Y-68616387D01*
X74811294Y-68610320D01*
X74658489Y-68598758D01*
X74469176Y-68586374D01*
X74266568Y-68574592D01*
X74073878Y-68564837D01*
X74059142Y-68564167D01*
X73886837Y-68556958D01*
X73762313Y-68554007D01*
X73673679Y-68556294D01*
X73609042Y-68564798D01*
X73556510Y-68580496D01*
X73504190Y-68604367D01*
X73491378Y-68610890D01*
X73401340Y-68667664D01*
X73295464Y-68749470D01*
X73207997Y-68827928D01*
X73125458Y-68906073D01*
X73067978Y-68949202D01*
X73019116Y-68965301D01*
X72962426Y-68962357D01*
X72939056Y-68958543D01*
X72853389Y-68946917D01*
X72731940Y-68934426D01*
X72598600Y-68923479D01*
X72576366Y-68921938D01*
X72460350Y-68915217D01*
X72375648Y-68916485D01*
X72302668Y-68930039D01*
X72221820Y-68960177D01*
X72113514Y-69011195D01*
X72068366Y-69033366D01*
X71711164Y-69236354D01*
X71379971Y-69482944D01*
X71164403Y-69678821D01*
X71059072Y-69779494D01*
X70978688Y-69847495D01*
X70906583Y-69893050D01*
X70826091Y-69926382D01*
X70720542Y-69957716D01*
X70701227Y-69962955D01*
X70546927Y-70008928D01*
X70439439Y-70054367D01*
X70366482Y-70107667D01*
X70315772Y-70177227D01*
X70283657Y-70248443D01*
X70243113Y-70327475D01*
X70189815Y-70399882D01*
X70134925Y-70454467D01*
X70089608Y-70480035D01*
X70065568Y-70467176D01*
X70073422Y-70424647D01*
X70105385Y-70351713D01*
X70132089Y-70302828D01*
X70185812Y-70203626D01*
X70205754Y-70141370D01*
X70193530Y-70104852D01*
X70163152Y-70087197D01*
X70118584Y-70089437D01*
X70069549Y-70133827D01*
X70010898Y-70226156D01*
X69970635Y-70303569D01*
X69902083Y-70417453D01*
X69828259Y-70500401D01*
X69758795Y-70543352D01*
X69715258Y-70543832D01*
X69685110Y-70519470D01*
X69678609Y-70468011D01*
X69687120Y-70401800D01*
X69696823Y-70325625D01*
X69689607Y-70296925D01*
X69667324Y-70302831D01*
X69531240Y-70401164D01*
X69448290Y-70507744D01*
X69412019Y-70635438D01*
X69415975Y-70797111D01*
X69416649Y-70802629D01*
X69448841Y-70984011D01*
X69499866Y-71185444D01*
X69561223Y-71373831D01*
X69568018Y-71391765D01*
X69613427Y-71520715D01*
X69629272Y-71599578D01*
X69613969Y-71631078D01*
X69565934Y-71617938D01*
X69483585Y-71562881D01*
X69473120Y-71554960D01*
X69286475Y-71447721D01*
X69084360Y-71395706D01*
X68872004Y-71398074D01*
X68654635Y-71453982D01*
X68437483Y-71562589D01*
X68225778Y-71723053D01*
X68183216Y-71762574D01*
X68090643Y-71860213D01*
X68009935Y-71961377D01*
X67944149Y-72059063D01*
X67896337Y-72146270D01*
X67869554Y-72215995D01*
X67866856Y-72261236D01*
X67891296Y-72274990D01*
X67945929Y-72250256D01*
X67981859Y-72224168D01*
X68136960Y-72121385D01*
X68328392Y-72023711D01*
X68539071Y-71937454D01*
X68751916Y-71868919D01*
X68949843Y-71824416D01*
X69103277Y-71810118D01*
X69235045Y-71819326D01*
X69331850Y-71843849D01*
X69388416Y-71879032D01*
X69399464Y-71920220D01*
X69359718Y-71962760D01*
X69305470Y-71988439D01*
X69100772Y-72084846D01*
X68934667Y-72204874D01*
X68816023Y-72341639D01*
X68788575Y-72389716D01*
X68758772Y-72452301D01*
X68745249Y-72486314D01*
X68745176Y-72487062D01*
X68767712Y-72500693D01*
X68823101Y-72488974D01*
X68893010Y-72457410D01*
X68936591Y-72429569D01*
X69133934Y-72318152D01*
X69382444Y-72235549D01*
X69678634Y-72182489D01*
X69798349Y-72176964D01*
X69863831Y-72196340D01*
X69875618Y-72241610D01*
X69834253Y-72313766D01*
X69782072Y-72372520D01*
X69688079Y-72497637D01*
X69596861Y-72677085D01*
X69507331Y-72913140D01*
X69472849Y-73020353D01*
X69450326Y-73105930D01*
X69434724Y-73200370D01*
X69425024Y-73316159D01*
X69420211Y-73465786D01*
X69419268Y-73661736D01*
X69419321Y-73677765D01*
X69423364Y-73910931D01*
X69433905Y-74087921D01*
X69451514Y-74212028D01*
X69476763Y-74286546D01*
X69510220Y-74314769D01*
X69529279Y-74312868D01*
X69554412Y-74280888D01*
X69591519Y-74205180D01*
X69634498Y-74098981D01*
X69657856Y-74034027D01*
X69729972Y-73839220D01*
X69808718Y-73651089D01*
X69889782Y-73477773D01*
X69968854Y-73327409D01*
X70041624Y-73208135D01*
X70103781Y-73128090D01*
X70151015Y-73095412D01*
X70155197Y-73095059D01*
X70176544Y-73121377D01*
X70179826Y-73193285D01*
X70167416Y-73300212D01*
X70141688Y-73431585D01*
X70105017Y-73576834D01*
X70059775Y-73725386D01*
X70008337Y-73866672D01*
X69955099Y-73986119D01*
X69835093Y-74234548D01*
X69748951Y-74435125D01*
X69696847Y-74587424D01*
X69682758Y-74650480D01*
X69661582Y-74728142D01*
X69617277Y-74777959D01*
X69546127Y-74815943D01*
X69468898Y-74863023D01*
X69370352Y-74939968D01*
X69268965Y-75032056D01*
X69245978Y-75055066D01*
X69023651Y-75241120D01*
X68759415Y-75389814D01*
X68461072Y-75496966D01*
X68386588Y-75515728D01*
X68171342Y-75564052D01*
X67995669Y-75598481D01*
X67841592Y-75621250D01*
X67691136Y-75634591D01*
X67526326Y-75640739D01*
X67370588Y-75641979D01*
X67122912Y-75637067D01*
X66923011Y-75620057D01*
X66759542Y-75587616D01*
X66621162Y-75536410D01*
X66496527Y-75463107D01*
X66374294Y-75364374D01*
X66350030Y-75342115D01*
X66223068Y-75210784D01*
X66141853Y-75090802D01*
X66098631Y-74966876D01*
X66085651Y-74823714D01*
X66085647Y-74820582D01*
X66109597Y-74600415D01*
X66178452Y-74404553D01*
X66287719Y-74241357D01*
X66432902Y-74119187D01*
X66475402Y-74095467D01*
X66560311Y-74049034D01*
X66603078Y-74011087D01*
X66616314Y-73966153D01*
X66614925Y-73924253D01*
X66589066Y-73844581D01*
X66535123Y-73813723D01*
X66463619Y-73836596D01*
X66449482Y-73846969D01*
X66394407Y-73883182D01*
X66309236Y-73931385D01*
X66255924Y-73959149D01*
X66130182Y-74042373D01*
X65991265Y-74168142D01*
X65850811Y-74324632D01*
X65720461Y-74500021D01*
X65714193Y-74509413D01*
X65639062Y-74629546D01*
X65589285Y-74732471D01*
X65558029Y-74839239D01*
X65538462Y-74970902D01*
X65528685Y-75080992D01*
X65520870Y-75212102D01*
X65523214Y-75304009D01*
X65538100Y-75376768D01*
X65567914Y-75450435D01*
X65574174Y-75463531D01*
X65631455Y-75552560D01*
X65723564Y-75663830D01*
X65837478Y-75783776D01*
X65960173Y-75898835D01*
X66078626Y-75995442D01*
X66099076Y-76010238D01*
X66149158Y-76049505D01*
X66172186Y-76080302D01*
X66163495Y-76103629D01*
X66118421Y-76120487D01*
X66032298Y-76131876D01*
X65900461Y-76138795D01*
X65718247Y-76142244D01*
X65480989Y-76143225D01*
X65478766Y-76143226D01*
X65224657Y-76145075D01*
X65013097Y-76150341D01*
X64848845Y-76158809D01*
X64736663Y-76170265D01*
X64696117Y-76178545D01*
X64616228Y-76199275D01*
X64561761Y-76208386D01*
X64553430Y-76208012D01*
X64510341Y-76218077D01*
X64431075Y-76253221D01*
X64329505Y-76305862D01*
X64219503Y-76368418D01*
X64114941Y-76433304D01*
X64029693Y-76492937D01*
X64023764Y-76497535D01*
X63909746Y-76593297D01*
X63773641Y-76717546D01*
X63626485Y-76859171D01*
X63479314Y-77007061D01*
X63343163Y-77150104D01*
X63229069Y-77277190D01*
X63148068Y-77377208D01*
X63142750Y-77384541D01*
X63023889Y-77570868D01*
X62918716Y-77773762D01*
X62837839Y-77971219D01*
X62802128Y-78091174D01*
X62779753Y-78187434D01*
X62771645Y-78239274D01*
X62778348Y-78260440D01*
X62800407Y-78264680D01*
X62808991Y-78264706D01*
X62844237Y-78239697D01*
X62887138Y-78176399D01*
X62906108Y-78138405D01*
X62958030Y-78036233D01*
X63028324Y-77914862D01*
X63105739Y-77792088D01*
X63179023Y-77685710D01*
X63236925Y-77613523D01*
X63239862Y-77610466D01*
X63585606Y-77293815D01*
X63952608Y-77028746D01*
X64337280Y-76817305D01*
X64736033Y-76661542D01*
X65039764Y-76582981D01*
X65227691Y-76545786D01*
X65385685Y-76517880D01*
X65528322Y-76497950D01*
X65670177Y-76484686D01*
X65825827Y-76476777D01*
X66009845Y-76472912D01*
X66236808Y-76471780D01*
X66276289Y-76471765D01*
X66926509Y-76471765D01*
X66916960Y-76539000D01*
X66895930Y-76587914D01*
X66840036Y-76611261D01*
X66802943Y-76616147D01*
X66723972Y-76629285D01*
X66671213Y-76648051D01*
X66668473Y-76650002D01*
X66625941Y-76668093D01*
X66542470Y-76693032D01*
X66435651Y-76719593D01*
X66429294Y-76721032D01*
X66286191Y-76758273D01*
X66127010Y-76807158D01*
X66010941Y-76847969D01*
X65874297Y-76899835D01*
X65728670Y-76954656D01*
X65622470Y-76994286D01*
X65521415Y-77031939D01*
X65438924Y-77063014D01*
X65398353Y-77078633D01*
X65345959Y-77096735D01*
X65258616Y-77124371D01*
X65189176Y-77145412D01*
X64911042Y-77243025D01*
X64680511Y-77355478D01*
X64503237Y-77480001D01*
X64499742Y-77483063D01*
X64419205Y-77557765D01*
X64374913Y-77614405D01*
X64356218Y-77671974D01*
X64352470Y-77745724D01*
X64363062Y-77846469D01*
X64397505Y-77953523D01*
X64459802Y-78073369D01*
X64553953Y-78212485D01*
X64683960Y-78377354D01*
X64853826Y-78574455D01*
X64887582Y-78612335D01*
X64996021Y-78738628D01*
X65127585Y-78899911D01*
X65271152Y-79082196D01*
X65415601Y-79271492D01*
X65474387Y-79350440D01*
X65530177Y-79435554D01*
X65565109Y-79507655D01*
X65571766Y-79543176D01*
X65541718Y-79582818D01*
X65474147Y-79633894D01*
X65413073Y-79669515D01*
X65192172Y-79799581D01*
X64969352Y-79957259D01*
X64755751Y-80132646D01*
X64562507Y-80315840D01*
X64400760Y-80496936D01*
X64281648Y-80666033D01*
X64270677Y-80685177D01*
X64147743Y-80958812D01*
X64059201Y-81270888D01*
X64006702Y-81609850D01*
X63991895Y-81964141D01*
X64016430Y-82322205D01*
X64026523Y-82395387D01*
X64064657Y-82642910D01*
X64096986Y-82836510D01*
X64124956Y-82981584D01*
X64150013Y-83083531D01*
X64173604Y-83147749D01*
X64197177Y-83179639D01*
X64222178Y-83184597D01*
X64236327Y-83178260D01*
X64258537Y-83138065D01*
X64262823Y-83103884D01*
X64271568Y-83056236D01*
X64283089Y-83045882D01*
X64311509Y-83065494D01*
X64372690Y-83118569D01*
X64456974Y-83196472D01*
X64533658Y-83270000D01*
X64634013Y-83363550D01*
X64717420Y-83433917D01*
X64778861Y-83478512D01*
X64813316Y-83494749D01*
X64815768Y-83480038D01*
X64781198Y-83431793D01*
X64724594Y-83368461D01*
X64653979Y-83294055D01*
X64596761Y-83235024D01*
X64573093Y-83211578D01*
X64537842Y-83165952D01*
X64493151Y-83092890D01*
X64483777Y-83075765D01*
X64435033Y-82992022D01*
X64388446Y-82923054D01*
X64382683Y-82915723D01*
X64360079Y-82869770D01*
X64345967Y-82792072D01*
X64339070Y-82672379D01*
X64337854Y-82555719D01*
X64338180Y-82251168D01*
X64556705Y-81815615D01*
X64657328Y-81620981D01*
X64745586Y-81465824D01*
X64831682Y-81334284D01*
X64925819Y-81210500D01*
X65010660Y-81109970D01*
X65122844Y-80982284D01*
X65203239Y-80894480D01*
X65258655Y-80840815D01*
X65295904Y-80815545D01*
X65321800Y-80812927D01*
X65343154Y-80827217D01*
X65344473Y-80828520D01*
X65355069Y-80876842D01*
X65327119Y-80943952D01*
X65251578Y-81105860D01*
X65188579Y-81294805D01*
X65141035Y-81495217D01*
X65111857Y-81691528D01*
X65103956Y-81868169D01*
X65120243Y-82009571D01*
X65124757Y-82026131D01*
X65147442Y-82118087D01*
X65158941Y-82196479D01*
X65159294Y-82207016D01*
X65174215Y-82273697D01*
X65214211Y-82376201D01*
X65272128Y-82500019D01*
X65340815Y-82630641D01*
X65413118Y-82753559D01*
X65471527Y-82840394D01*
X65547230Y-82932306D01*
X65628484Y-83014059D01*
X65668297Y-83046597D01*
X65728459Y-83088195D01*
X65749197Y-83095505D01*
X65739475Y-83069315D01*
X65730356Y-83052044D01*
X65692071Y-82995132D01*
X65667133Y-82971077D01*
X65642043Y-82928963D01*
X65637411Y-82895559D01*
X65625715Y-82838503D01*
X65595405Y-82749227D01*
X65562706Y-82669487D01*
X65530852Y-82591507D01*
X65509530Y-82518506D01*
X65496688Y-82435454D01*
X65490277Y-82327325D01*
X65488245Y-82179092D01*
X65488184Y-82123282D01*
X65490755Y-81939938D01*
X65498850Y-81807085D01*
X65513348Y-81715628D01*
X65533007Y-81660408D01*
X65564763Y-81584657D01*
X65577647Y-81525094D01*
X65590034Y-81475631D01*
X65622835Y-81389646D01*
X65669509Y-81283959D01*
X65680208Y-81261362D01*
X65764535Y-81117620D01*
X65884356Y-80955600D01*
X66025965Y-80790949D01*
X66175649Y-80639310D01*
X66319701Y-80516329D01*
X66356504Y-80489614D01*
X66477463Y-80405789D01*
X66665070Y-80593396D01*
X66594636Y-80734428D01*
X66541748Y-80887262D01*
X66512217Y-81076423D01*
X66507622Y-81282584D01*
X66529541Y-81486415D01*
X66532095Y-81500026D01*
X66563173Y-81624072D01*
X66608601Y-81761494D01*
X66661423Y-81894872D01*
X66714680Y-82006783D01*
X66761412Y-82079806D01*
X66765470Y-82084311D01*
X66797065Y-82109423D01*
X66797135Y-82085802D01*
X66765852Y-82015383D01*
X66757998Y-81999998D01*
X66677620Y-81787665D01*
X66634818Y-81542497D01*
X66630637Y-81278958D01*
X66666119Y-81011513D01*
X66681789Y-80943836D01*
X66706400Y-80850884D01*
X66730742Y-80781824D01*
X66759704Y-80738810D01*
X66798172Y-80723997D01*
X66851033Y-80739542D01*
X66923173Y-80787599D01*
X67019478Y-80870324D01*
X67144836Y-80989873D01*
X67304134Y-81148400D01*
X67427644Y-81272813D01*
X67646536Y-81496208D01*
X67823290Y-81682666D01*
X67960299Y-81835108D01*
X68059958Y-81956457D01*
X68124660Y-82049633D01*
X68156800Y-82117558D01*
X68158773Y-82163154D01*
X68158309Y-82164422D01*
X68121753Y-82194956D01*
X68037586Y-82208225D01*
X67994166Y-82209177D01*
X67920098Y-82206410D01*
X67861782Y-82192645D01*
X67803687Y-82159684D01*
X67730282Y-82099329D01*
X67654470Y-82029882D01*
X67562347Y-81949059D01*
X67481813Y-81887161D01*
X67425793Y-81853795D01*
X67413213Y-81850588D01*
X67363643Y-81871142D01*
X67298760Y-81922497D01*
X67277989Y-81943396D01*
X67211925Y-82043490D01*
X67189469Y-82160607D01*
X67210835Y-82301957D01*
X67276237Y-82474750D01*
X67294976Y-82514450D01*
X67349933Y-82636878D01*
X67372558Y-82718961D01*
X67362076Y-82771110D01*
X67317709Y-82803734D01*
X67272245Y-82818885D01*
X67220460Y-82859749D01*
X67155669Y-82956558D01*
X67079068Y-83107206D01*
X66991853Y-83309584D01*
X66987212Y-83321080D01*
X66942872Y-83385100D01*
X66867696Y-83454919D01*
X66826429Y-83484384D01*
X66727324Y-83552487D01*
X66615672Y-83635557D01*
X66557871Y-83681295D01*
X66477735Y-83751406D01*
X66434109Y-83808511D01*
X66414541Y-83873873D01*
X66408460Y-83936344D01*
X66399411Y-84076824D01*
X66154986Y-84106706D01*
X66039320Y-84123101D01*
X65947261Y-84140350D01*
X65894401Y-84155393D01*
X65888535Y-84159000D01*
X65843467Y-84177240D01*
X65801993Y-84181412D01*
X65725248Y-84207550D01*
X65656517Y-84272623D01*
X65613666Y-84356620D01*
X65607529Y-84399217D01*
X65635035Y-84475333D01*
X65711548Y-84532055D01*
X65828057Y-84564339D01*
X65912434Y-84569882D01*
X66015171Y-84579296D01*
X66144106Y-84603979D01*
X66279006Y-84638597D01*
X66399638Y-84677817D01*
X66485767Y-84716303D01*
X66498398Y-84724369D01*
X66543724Y-84765722D01*
X66613011Y-84839322D01*
X66692842Y-84930784D01*
X66709665Y-84950882D01*
X66789121Y-85043957D01*
X66846168Y-85099587D01*
X66895296Y-85127341D01*
X66950996Y-85136787D01*
X66992535Y-85137647D01*
X67101788Y-85123677D01*
X67218307Y-85088817D01*
X67249463Y-85075244D01*
X67494509Y-84978920D01*
X67724509Y-84932725D01*
X67805466Y-84928794D01*
X67915522Y-84919835D01*
X68005609Y-84886053D01*
X68085575Y-84833520D01*
X68159396Y-84780328D01*
X68195052Y-84760808D01*
X68202289Y-84772906D01*
X68191939Y-84811108D01*
X68154624Y-84893232D01*
X68119562Y-84947251D01*
X68083391Y-85006149D01*
X68035350Y-85100675D01*
X67985549Y-85210878D01*
X67983299Y-85216192D01*
X67925246Y-85345103D01*
X67860183Y-85476691D01*
X67808745Y-85570941D01*
X67728186Y-85709112D01*
X67671633Y-85810483D01*
X67632004Y-85889292D01*
X67602216Y-85959781D01*
X67575186Y-86036189D01*
X67570925Y-86049059D01*
X67466699Y-86399985D01*
X67396453Y-86723926D01*
X67357301Y-87040939D01*
X67346357Y-87371077D01*
X67351646Y-87573059D01*
X67368544Y-87849490D01*
X67394263Y-88132122D01*
X67427047Y-88407854D01*
X67465144Y-88663586D01*
X67506799Y-88886217D01*
X67550257Y-89062647D01*
X67551804Y-89067873D01*
X67583993Y-89198677D01*
X67615250Y-89364404D01*
X67642115Y-89542077D01*
X67661130Y-89708719D01*
X67668837Y-89841356D01*
X67668861Y-89845517D01*
X67685414Y-90059860D01*
X67730624Y-90305852D01*
X67799581Y-90565697D01*
X67887374Y-90821596D01*
X67989091Y-91055753D01*
X68018930Y-91114118D01*
X68074133Y-91227232D01*
X68145812Y-91388650D01*
X68230600Y-91590305D01*
X68325130Y-91824126D01*
X68426035Y-92082044D01*
X68461634Y-92174941D01*
X68512901Y-92304879D01*
X68567820Y-92437073D01*
X68610274Y-92533529D01*
X68653908Y-92632992D01*
X68708414Y-92764053D01*
X68763713Y-92902344D01*
X68777156Y-92936941D01*
X68825241Y-93055687D01*
X68870232Y-93156525D01*
X68904923Y-93223683D01*
X68914743Y-93238118D01*
X68947801Y-93294560D01*
X68954353Y-93323154D01*
X68967751Y-93375343D01*
X68997260Y-93440331D01*
X69019306Y-93482652D01*
X69047838Y-93540807D01*
X69086501Y-93622593D01*
X69138939Y-93735809D01*
X69208797Y-93888253D01*
X69295337Y-94078091D01*
X69335789Y-94169731D01*
X69363791Y-94238460D01*
X69372706Y-94266706D01*
X69384438Y-94301897D01*
X69414750Y-94373416D01*
X69445285Y-94440380D01*
X69485924Y-94531150D01*
X69540978Y-94659498D01*
X69602826Y-94807445D01*
X69656615Y-94939059D01*
X69716181Y-95086428D01*
X69773215Y-95227257D01*
X69820907Y-95344745D01*
X69850433Y-95417177D01*
X69933465Y-95623981D01*
X69996964Y-95790797D01*
X70039660Y-95913974D01*
X70060284Y-95989858D01*
X70058032Y-96014824D01*
X70024329Y-95991776D01*
X70004233Y-95962529D01*
X69980778Y-95912484D01*
X69975744Y-95895294D01*
X69960860Y-95818034D01*
X69926988Y-95718580D01*
X69884620Y-95626725D01*
X69875761Y-95611412D01*
X69838442Y-95537908D01*
X69821190Y-95479833D01*
X69821053Y-95476499D01*
X69807515Y-95422467D01*
X69774020Y-95344526D01*
X69762883Y-95322909D01*
X69728278Y-95250959D01*
X69683187Y-95147159D01*
X69633105Y-95025484D01*
X69583524Y-94899907D01*
X69539940Y-94784405D01*
X69507846Y-94692950D01*
X69492736Y-94639518D01*
X69492235Y-94634479D01*
X69475220Y-94592185D01*
X69434116Y-94530963D01*
X69432470Y-94528860D01*
X69390100Y-94459200D01*
X69372706Y-94399602D01*
X69359485Y-94344167D01*
X69324191Y-94251621D01*
X69273375Y-94137314D01*
X69213591Y-94016598D01*
X69191806Y-93975758D01*
X69167605Y-93911214D01*
X69163529Y-93882300D01*
X69142432Y-93829506D01*
X69118920Y-93803707D01*
X69083177Y-93752415D01*
X69049092Y-93670261D01*
X69041334Y-93644218D01*
X69005972Y-93546728D01*
X68960700Y-93462139D01*
X68951472Y-93449434D01*
X68910279Y-93380219D01*
X68894588Y-93323145D01*
X68882178Y-93269178D01*
X68869138Y-93253445D01*
X68844982Y-93218269D01*
X68811454Y-93145867D01*
X68791578Y-93094799D01*
X68745054Y-92975277D01*
X68692333Y-92850849D01*
X68677202Y-92817412D01*
X68638288Y-92726646D01*
X68611043Y-92650771D01*
X68605033Y-92627345D01*
X68581166Y-92564782D01*
X68537164Y-92490359D01*
X68535439Y-92487919D01*
X68486428Y-92396179D01*
X68457130Y-92304456D01*
X68427190Y-92204635D01*
X68385402Y-92115177D01*
X68343866Y-92027986D01*
X68305701Y-91921011D01*
X68297242Y-91891059D01*
X68267541Y-91795276D01*
X68234955Y-91715830D01*
X68224530Y-91696824D01*
X68189235Y-91622711D01*
X68164763Y-91547412D01*
X68140971Y-91478433D01*
X68098318Y-91376985D01*
X68045349Y-91261235D01*
X67990614Y-91149347D01*
X67942659Y-91059485D01*
X67913973Y-91014444D01*
X67890749Y-90969662D01*
X67856731Y-90886403D01*
X67820981Y-90787541D01*
X67783649Y-90682042D01*
X67750344Y-90594684D01*
X67729524Y-90547003D01*
X67712104Y-90492006D01*
X67694047Y-90400262D01*
X67682879Y-90320757D01*
X67667138Y-90211566D01*
X67648397Y-90117433D01*
X67635900Y-90073761D01*
X67622197Y-90008264D01*
X67612637Y-89906506D01*
X67609480Y-89804819D01*
X67605098Y-89682677D01*
X67593891Y-89568521D01*
X67581369Y-89500471D01*
X67559615Y-89401246D01*
X67540826Y-89286798D01*
X67537591Y-89261412D01*
X67519319Y-89141122D01*
X67494349Y-89015247D01*
X67489012Y-88992471D01*
X67459763Y-88871624D01*
X67429459Y-88745367D01*
X67424252Y-88723529D01*
X67398257Y-88590309D01*
X67371684Y-88411728D01*
X67346128Y-88202147D01*
X67323182Y-87975931D01*
X67304441Y-87747444D01*
X67291497Y-87531047D01*
X67291188Y-87524302D01*
X67285384Y-87319050D01*
X67289601Y-87153417D01*
X67304822Y-87007945D01*
X67322341Y-86908732D01*
X67345477Y-86783004D01*
X67362556Y-86668178D01*
X67370401Y-86586107D01*
X67370588Y-86576934D01*
X67382042Y-86486830D01*
X67413088Y-86361739D01*
X67458745Y-86214872D01*
X67514037Y-86059443D01*
X67573986Y-85908665D01*
X67633613Y-85775749D01*
X67687940Y-85673910D01*
X67731991Y-85616359D01*
X67732714Y-85615765D01*
X67754327Y-85582568D01*
X67790290Y-85512333D01*
X67834344Y-85419133D01*
X67880230Y-85317041D01*
X67921689Y-85220131D01*
X67952462Y-85142476D01*
X67966291Y-85098148D01*
X67965286Y-85092824D01*
X67971984Y-85070363D01*
X67994119Y-85025588D01*
X68011628Y-84987207D01*
X68003508Y-84967191D01*
X67958348Y-84959565D01*
X67865742Y-84958353D01*
X67649020Y-84983109D01*
X67408858Y-85055678D01*
X67186683Y-85156229D01*
X67052135Y-85197540D01*
X66919856Y-85180124D01*
X66789141Y-85103672D01*
X66659288Y-84967876D01*
X66612591Y-84904365D01*
X66545619Y-84824685D01*
X66473687Y-84763440D01*
X66450808Y-84750259D01*
X66373954Y-84713789D01*
X66320043Y-84687426D01*
X66267641Y-84673033D01*
X66174136Y-84657652D01*
X66058062Y-84644233D01*
X66036161Y-84642250D01*
X65850660Y-84618850D01*
X65715270Y-84583416D01*
X65620983Y-84532664D01*
X65562906Y-84469794D01*
X65531251Y-84403550D01*
X65540490Y-84345735D01*
X65549010Y-84328496D01*
X65611876Y-84242945D01*
X65694109Y-84170891D01*
X65775920Y-84128101D01*
X65807471Y-84122591D01*
X65866728Y-84111115D01*
X65889217Y-84095316D01*
X65924854Y-84080054D01*
X66004134Y-84063837D01*
X66111076Y-84049808D01*
X66130039Y-84047943D01*
X66354588Y-84026901D01*
X66354588Y-83921705D01*
X66379439Y-83815852D01*
X66444593Y-83707108D01*
X66535948Y-83617325D01*
X66562372Y-83599711D01*
X66735949Y-83490056D01*
X66855737Y-83402089D01*
X66923185Y-83334677D01*
X66938568Y-83305708D01*
X66963303Y-83237077D01*
X67001296Y-83146815D01*
X67013218Y-83120588D01*
X67056180Y-83024174D01*
X67093167Y-82935004D01*
X67099640Y-82918146D01*
X67145939Y-82848085D01*
X67219648Y-82783250D01*
X67233313Y-82774636D01*
X67336017Y-82714040D01*
X67282489Y-82603549D01*
X67204638Y-82435184D01*
X67155818Y-82305566D01*
X67134237Y-82202239D01*
X67138106Y-82112749D01*
X67165633Y-82024637D01*
X67191391Y-81969926D01*
X67258121Y-81862516D01*
X67327646Y-81805415D01*
X67406861Y-81798626D01*
X67502660Y-81842153D01*
X67621938Y-81935999D01*
X67659226Y-81970118D01*
X67755448Y-82057614D01*
X67824656Y-82110959D01*
X67881903Y-82138456D01*
X67942241Y-82148407D01*
X67984269Y-82149412D01*
X68077632Y-82140619D01*
X68115432Y-82112690D01*
X68099459Y-82063297D01*
X68074239Y-82032389D01*
X68037961Y-81991910D01*
X67971882Y-81917349D01*
X67885598Y-81819561D01*
X67794607Y-81716118D01*
X67684360Y-81594234D01*
X67558274Y-81460781D01*
X67423386Y-81322571D01*
X67286738Y-81186418D01*
X67155369Y-81059134D01*
X67036319Y-80947532D01*
X66936627Y-80858426D01*
X66863334Y-80798629D01*
X66823479Y-80774953D01*
X66821991Y-80774824D01*
X66793642Y-80802136D01*
X66762491Y-80874499D01*
X66732209Y-80977549D01*
X66706467Y-81096923D01*
X66688937Y-81218258D01*
X66683216Y-81317763D01*
X66698776Y-81489384D01*
X66740932Y-81684723D01*
X66803154Y-81877754D01*
X66852456Y-81992102D01*
X66899471Y-82116271D01*
X66911730Y-82213407D01*
X66895416Y-82277710D01*
X66856715Y-82303381D01*
X66801810Y-82284621D01*
X66736886Y-82215629D01*
X66692678Y-82141941D01*
X66648837Y-82055656D01*
X66618433Y-81992674D01*
X66609156Y-81970118D01*
X66596347Y-81937305D01*
X66565104Y-81866275D01*
X66525570Y-81779742D01*
X66488063Y-81692394D01*
X66464164Y-81613755D01*
X66450907Y-81525817D01*
X66445329Y-81410570D01*
X66444402Y-81286683D01*
X66451874Y-81053344D01*
X66474257Y-80875981D01*
X66511908Y-80752604D01*
X66551578Y-80693094D01*
X66590852Y-80620757D01*
X66577150Y-80549613D01*
X66519967Y-80500913D01*
X66467027Y-80485183D01*
X66416041Y-80497636D01*
X66345530Y-80544251D01*
X66334623Y-80552512D01*
X66249307Y-80622227D01*
X66158767Y-80703516D01*
X66074464Y-80785095D01*
X66007856Y-80855682D01*
X65970406Y-80903994D01*
X65966117Y-80915315D01*
X65943803Y-80949112D01*
X65912943Y-80972950D01*
X65867063Y-81021335D01*
X65809731Y-81108713D01*
X65750050Y-81217960D01*
X65697125Y-81331951D01*
X65660062Y-81433562D01*
X65652627Y-81462544D01*
X65623042Y-81560951D01*
X65580176Y-81665026D01*
X65574000Y-81677574D01*
X65542519Y-81775723D01*
X65522196Y-81912439D01*
X65512966Y-82070909D01*
X65514761Y-82234323D01*
X65527517Y-82385869D01*
X65551165Y-82508735D01*
X65577535Y-82574513D01*
X65616846Y-82650690D01*
X65636715Y-82712082D01*
X65637300Y-82719524D01*
X65657608Y-82785363D01*
X65710032Y-82874296D01*
X65782167Y-82969545D01*
X65861610Y-83054332D01*
X65920099Y-83102028D01*
X65992078Y-83166661D01*
X66027072Y-83231615D01*
X66023034Y-83284499D01*
X65977921Y-83312918D01*
X65955206Y-83314824D01*
X65881130Y-83294570D01*
X65793417Y-83244373D01*
X65716843Y-83180076D01*
X65688221Y-83144075D01*
X65649380Y-83109293D01*
X65634445Y-83105647D01*
X65591530Y-83084481D01*
X65529760Y-83032393D01*
X65465834Y-82966498D01*
X65416455Y-82903910D01*
X65398225Y-82863570D01*
X65382493Y-82816449D01*
X65342301Y-82740897D01*
X65308706Y-82687294D01*
X65258309Y-82604287D01*
X65225832Y-82536981D01*
X65219186Y-82511527D01*
X65204182Y-82461659D01*
X65166858Y-82387333D01*
X65151823Y-82362115D01*
X65126060Y-82316542D01*
X65107871Y-82268881D01*
X65095968Y-82208108D01*
X65089065Y-82123195D01*
X65085873Y-82003117D01*
X65085107Y-81836848D01*
X65085139Y-81790824D01*
X65086061Y-81610847D01*
X65089203Y-81479162D01*
X65095875Y-81384305D01*
X65107385Y-81314810D01*
X65125042Y-81259211D01*
X65150155Y-81206044D01*
X65152374Y-81201838D01*
X65192509Y-81114970D01*
X65216274Y-81041995D01*
X65219059Y-81021049D01*
X65238102Y-80951312D01*
X65256411Y-80923189D01*
X65261433Y-80912560D01*
X65229442Y-80937080D01*
X65209584Y-80954186D01*
X65150463Y-81013437D01*
X65073680Y-81100442D01*
X64988622Y-81203251D01*
X64904677Y-81309911D01*
X64831234Y-81408468D01*
X64777681Y-81486972D01*
X64753405Y-81533470D01*
X64753008Y-81535459D01*
X64731881Y-81584689D01*
X64686713Y-81655865D01*
X64669290Y-81679574D01*
X64625749Y-81745408D01*
X64607860Y-81790864D01*
X64609873Y-81799207D01*
X64606803Y-81833009D01*
X64575539Y-81892045D01*
X64569350Y-81901162D01*
X64480228Y-82061673D01*
X64424742Y-82245157D01*
X64399598Y-82464424D01*
X64397294Y-82570273D01*
X64397294Y-82856664D01*
X64529725Y-83028308D01*
X64619804Y-83135664D01*
X64732218Y-83256639D01*
X64843678Y-83366248D01*
X64850960Y-83372957D01*
X64958475Y-83481563D01*
X65023050Y-83569443D01*
X65043043Y-83632761D01*
X65016812Y-83667682D01*
X64979542Y-83673412D01*
X64928542Y-83655886D01*
X64846235Y-83610036D01*
X64747094Y-83545956D01*
X64645593Y-83473740D01*
X64556208Y-83403481D01*
X64493411Y-83345271D01*
X64475302Y-83321785D01*
X64425817Y-83285742D01*
X64331563Y-83260603D01*
X64303559Y-83256772D01*
X64210597Y-83240652D01*
X64156405Y-83211895D01*
X64119995Y-83158697D01*
X64116517Y-83151565D01*
X64080981Y-83051620D01*
X64047409Y-82912927D01*
X64019764Y-82756469D01*
X64002010Y-82603228D01*
X63997782Y-82522941D01*
X63989488Y-82409393D01*
X63972338Y-82301271D01*
X63964394Y-82269138D01*
X63950792Y-82191548D01*
X63941303Y-82077051D01*
X63936007Y-81941387D01*
X63934987Y-81800293D01*
X63938326Y-81669509D01*
X63946106Y-81564773D01*
X63958410Y-81501825D01*
X63960359Y-81497506D01*
X63978881Y-81438976D01*
X63996079Y-81347611D01*
X64002441Y-81297765D01*
X64022829Y-81184709D01*
X64058452Y-81052603D01*
X64087077Y-80969059D01*
X64122835Y-80874431D01*
X64148399Y-80804063D01*
X64157790Y-80774824D01*
X64178953Y-80728829D01*
X64229511Y-80650409D01*
X64299882Y-80552444D01*
X64380483Y-80447816D01*
X64461733Y-80349405D01*
X64530852Y-80273345D01*
X64633743Y-80172166D01*
X64746052Y-80068261D01*
X64857993Y-79969919D01*
X64959778Y-79885429D01*
X65041622Y-79823078D01*
X65093737Y-79791156D01*
X65103088Y-79788706D01*
X65145408Y-79770860D01*
X65208955Y-79726688D01*
X65224508Y-79714000D01*
X65294821Y-79664901D01*
X65354758Y-79639300D01*
X65363292Y-79638300D01*
X65420953Y-79619347D01*
X65485744Y-79576076D01*
X65534877Y-79526095D01*
X65547764Y-79495760D01*
X65524074Y-79460147D01*
X65506341Y-79450499D01*
X65471649Y-79419637D01*
X65415019Y-79351120D01*
X65346677Y-79257661D01*
X65320845Y-79219866D01*
X65251156Y-79120691D01*
X65189935Y-79041961D01*
X65147221Y-78996290D01*
X65138151Y-78990309D01*
X65102573Y-78956399D01*
X65099529Y-78942383D01*
X65080526Y-78898157D01*
X65041235Y-78848463D01*
X64990214Y-78793011D01*
X64910485Y-78703788D01*
X64812252Y-78592384D01*
X64705720Y-78470387D01*
X64601096Y-78349386D01*
X64576588Y-78320828D01*
X64450337Y-78159340D01*
X64368082Y-78016992D01*
X64323582Y-77880550D01*
X64310736Y-77757188D01*
X64312377Y-77658866D01*
X64328983Y-77592186D01*
X64371177Y-77531336D01*
X64428167Y-77471833D01*
X64520277Y-77391673D01*
X64620192Y-77322191D01*
X64667226Y-77296702D01*
X64862211Y-77207403D01*
X65010887Y-77140794D01*
X65120873Y-77093808D01*
X65199790Y-77063378D01*
X65255256Y-77046436D01*
X65294894Y-77039917D01*
X65306157Y-77039529D01*
X65384744Y-77026910D01*
X65421170Y-77013134D01*
X65565806Y-76948333D01*
X65697176Y-76903983D01*
X65766403Y-76880283D01*
X65863067Y-76840913D01*
X65926914Y-76812457D01*
X66018839Y-76772989D01*
X66092275Y-76746928D01*
X66121978Y-76740706D01*
X66167615Y-76731858D01*
X66253618Y-76708337D01*
X66363755Y-76674676D01*
X66398516Y-76663461D01*
X66527214Y-76623122D01*
X66650707Y-76587266D01*
X66745248Y-76562744D01*
X66756276Y-76560292D01*
X66766546Y-76552805D01*
X66719961Y-76547343D01*
X66619399Y-76543969D01*
X66467739Y-76542748D01*
X66267857Y-76543743D01*
X66100588Y-76545795D01*
X65884118Y-76549984D01*
X65681418Y-76555794D01*
X65502023Y-76562804D01*
X65355473Y-76570592D01*
X65251304Y-76578737D01*
X65204117Y-76585406D01*
X64986285Y-76640101D01*
X64786685Y-76696575D01*
X64617918Y-76750980D01*
X64492581Y-76799468D01*
X64472000Y-76809002D01*
X64391783Y-76847071D01*
X64336175Y-76872027D01*
X64322588Y-76877149D01*
X64275961Y-76894996D01*
X64203137Y-76929935D01*
X64129746Y-76969295D01*
X64100082Y-76987164D01*
X64047880Y-77020241D01*
X63961458Y-77074486D01*
X63857358Y-77139523D01*
X63831140Y-77155859D01*
X63708475Y-77242138D01*
X63572444Y-77353067D01*
X63448345Y-77467722D01*
X63423766Y-77492821D01*
X63345454Y-77577514D01*
X63281307Y-77655804D01*
X63224841Y-77738834D01*
X63169574Y-77837749D01*
X63109025Y-77963691D01*
X63036709Y-78127805D01*
X62988252Y-78241491D01*
X62937381Y-78351885D01*
X62896210Y-78415036D01*
X62857397Y-78440984D01*
X62840737Y-78443197D01*
X62778645Y-78417781D01*
X62734372Y-78351390D01*
X62713184Y-78261479D01*
X62720347Y-78165503D01*
X62740737Y-78111717D01*
X62770132Y-78031610D01*
X62778342Y-77986682D01*
X62800981Y-77900589D01*
X62853667Y-77778441D01*
X62930578Y-77631991D01*
X63025896Y-77472992D01*
X63054975Y-77428000D01*
X63119485Y-77341611D01*
X63213539Y-77231259D01*
X63330077Y-77103809D01*
X63462040Y-76966128D01*
X63602368Y-76825083D01*
X63744004Y-76687539D01*
X63879887Y-76560363D01*
X64002959Y-76450422D01*
X64106161Y-76364581D01*
X64182433Y-76309707D01*
X64222385Y-76292471D01*
X64261897Y-76279471D01*
X64334013Y-76246293D01*
X64382590Y-76221470D01*
X64474157Y-76178281D01*
X64571751Y-76144769D01*
X64684221Y-76119816D01*
X64820418Y-76102309D01*
X64989189Y-76091131D01*
X65199386Y-76085167D01*
X65459857Y-76083300D01*
X65478559Y-76083294D01*
X66123589Y-76083294D01*
X66038113Y-76016059D01*
X65977979Y-75971753D01*
X65939988Y-75949248D01*
X65936966Y-75948553D01*
X65897709Y-75925518D01*
X65834733Y-75865327D01*
X65758132Y-75780101D01*
X65678001Y-75681964D01*
X65604434Y-75583038D01*
X65547524Y-75495447D01*
X65526646Y-75455765D01*
X65484499Y-75352416D01*
X65465615Y-75265451D01*
X65465406Y-75165169D01*
X65471225Y-75097177D01*
X65501386Y-74885981D01*
X65546301Y-74722346D01*
X65609249Y-74595179D01*
X65627474Y-74568759D01*
X65672339Y-74499497D01*
X65696059Y-74447215D01*
X65697176Y-74439627D01*
X65718517Y-74399868D01*
X65775690Y-74331801D01*
X65858424Y-74245149D01*
X65956445Y-74149632D01*
X66059483Y-74054972D01*
X66157263Y-73970889D01*
X66239514Y-73907105D01*
X66295305Y-73873599D01*
X66380138Y-73833531D01*
X66447417Y-73791243D01*
X66451827Y-73787631D01*
X66505608Y-73759140D01*
X66569429Y-73772817D01*
X66578827Y-73776971D01*
X66626536Y-73808287D01*
X66648316Y-73857940D01*
X66653411Y-73944052D01*
X66639776Y-74044861D01*
X66592875Y-74101399D01*
X66503719Y-74124008D01*
X66496526Y-74124531D01*
X66457710Y-74142729D01*
X66399917Y-74184739D01*
X66339581Y-74236378D01*
X66293134Y-74283459D01*
X66277010Y-74311798D01*
X66277886Y-74313259D01*
X66275077Y-74346170D01*
X66254296Y-74377575D01*
X66200627Y-74474732D01*
X66163940Y-74609900D01*
X66145992Y-74763298D01*
X66148539Y-74915143D01*
X66173337Y-75045655D01*
X66191061Y-75089855D01*
X66292481Y-75231107D01*
X66446386Y-75359299D01*
X66646088Y-75469772D01*
X66845481Y-75545829D01*
X66966986Y-75569800D01*
X67134336Y-75582417D01*
X67334839Y-75584386D01*
X67555804Y-75576411D01*
X67784539Y-75559197D01*
X68008354Y-75533448D01*
X68214557Y-75499871D01*
X68386588Y-75460250D01*
X68519877Y-75419698D01*
X68651560Y-75373759D01*
X68769483Y-75327390D01*
X68861489Y-75285552D01*
X68915422Y-75253202D01*
X68924470Y-75240837D01*
X68949031Y-75219984D01*
X68973756Y-75216706D01*
X69015386Y-75196310D01*
X69085260Y-75141721D01*
X69171276Y-75062841D01*
X69213303Y-75020742D01*
X69311111Y-74926917D01*
X69407166Y-74846419D01*
X69485321Y-74792413D01*
X69506203Y-74781893D01*
X69586366Y-74732229D01*
X69631483Y-74654365D01*
X69640017Y-74626740D01*
X69660142Y-74549084D01*
X69670841Y-74497699D01*
X69671362Y-74491945D01*
X69683581Y-74457260D01*
X69716513Y-74380911D01*
X69764796Y-74275009D01*
X69810058Y-74178847D01*
X69936317Y-73899775D01*
X70027721Y-73664738D01*
X70085552Y-73470170D01*
X70107570Y-73349429D01*
X70125433Y-73199647D01*
X70048967Y-73289294D01*
X69999853Y-73351789D01*
X69973035Y-73395436D01*
X69971427Y-73401353D01*
X69965326Y-73443482D01*
X69945325Y-73490349D01*
X69902152Y-73562831D01*
X69893927Y-73575900D01*
X69840916Y-73676894D01*
X69795325Y-73791226D01*
X69787907Y-73814959D01*
X69756158Y-73909752D01*
X69722754Y-73988461D01*
X69712919Y-74006471D01*
X69681438Y-74080374D01*
X69662184Y-74159233D01*
X69630593Y-74278184D01*
X69582910Y-74353319D01*
X69526578Y-74381099D01*
X69469036Y-74357982D01*
X69417726Y-74280428D01*
X69416004Y-74276372D01*
X69397979Y-74213546D01*
X69385234Y-74119599D01*
X69377197Y-73986587D01*
X69373297Y-73806567D01*
X69372706Y-73673880D01*
X69375230Y-73443670D01*
X69383995Y-73259885D01*
X69400791Y-73109353D01*
X69427408Y-72978901D01*
X69465637Y-72855355D01*
X69493988Y-72781294D01*
X69519479Y-72713642D01*
X69551098Y-72624059D01*
X69556693Y-72607630D01*
X69599622Y-72522910D01*
X69669606Y-72424747D01*
X69725976Y-72361100D01*
X69785999Y-72297978D01*
X69815891Y-72256031D01*
X69810257Y-72233363D01*
X69763706Y-72228075D01*
X69670846Y-72238270D01*
X69526285Y-72262051D01*
X69471666Y-72271615D01*
X69291835Y-72309913D01*
X69150273Y-72358229D01*
X69025492Y-72425524D01*
X68919933Y-72501694D01*
X68825987Y-72560844D01*
X68760447Y-72570390D01*
X68726124Y-72531184D01*
X68725829Y-72444080D01*
X68726024Y-72442864D01*
X68765935Y-72342837D01*
X68848139Y-72231890D01*
X68960240Y-72123208D01*
X69089843Y-72029976D01*
X69141117Y-72001334D01*
X69220509Y-71955615D01*
X69272023Y-71916239D01*
X69283059Y-71899261D01*
X69256026Y-71878834D01*
X69184073Y-71869170D01*
X69080918Y-71869487D01*
X68960279Y-71879002D01*
X68835876Y-71896932D01*
X68721425Y-71922494D01*
X68685411Y-71933377D01*
X68510665Y-71998295D01*
X68338230Y-72075100D01*
X68185215Y-72155368D01*
X68068732Y-72230678D01*
X68048119Y-72247074D01*
X67965505Y-72297410D01*
X67884410Y-72316593D01*
X67822272Y-72302584D01*
X67800782Y-72275991D01*
X67804156Y-72221958D01*
X67834064Y-72139833D01*
X67881931Y-72049891D01*
X67919121Y-71996191D01*
X67989140Y-71913038D01*
X68078630Y-71815424D01*
X68175483Y-71715556D01*
X68267590Y-71625639D01*
X68342844Y-71557879D01*
X68384992Y-71526556D01*
X68604471Y-71418060D01*
X68796958Y-71353767D01*
X68974684Y-71332785D01*
X69149876Y-71354224D01*
X69334765Y-71417190D01*
X69410059Y-71451796D01*
X69471559Y-71478821D01*
X69507937Y-71482680D01*
X69520238Y-71456181D01*
X69509507Y-71392129D01*
X69476789Y-71283335D01*
X69447411Y-71194698D01*
X69396069Y-71005500D01*
X69374494Y-70818222D01*
X69372706Y-70732444D01*
X69372706Y-70492734D01*
X69507528Y-70348598D01*
X69648467Y-70229200D01*
X69822718Y-70128360D01*
X70009864Y-70055330D01*
X70189488Y-70019359D01*
X70239017Y-70017177D01*
X70337543Y-70011952D01*
X70417013Y-69998689D01*
X70441405Y-69990051D01*
X70505825Y-69963470D01*
X70601183Y-69931602D01*
X70705863Y-69900798D01*
X70798248Y-69877406D01*
X70856719Y-69867775D01*
X70857769Y-69867765D01*
X70895581Y-69848235D01*
X70966040Y-69795074D01*
X71059046Y-69716418D01*
X71163624Y-69621235D01*
X71312052Y-69482891D01*
X71424381Y-69381603D01*
X71506823Y-69312220D01*
X71565587Y-69269587D01*
X71606885Y-69248550D01*
X71616011Y-69245865D01*
X71667757Y-69215508D01*
X71686640Y-69195855D01*
X71738667Y-69151821D01*
X71832996Y-69092344D01*
X71956603Y-69024587D01*
X72096463Y-68955708D01*
X72232567Y-68895737D01*
X72362068Y-68865282D01*
X72542144Y-68858704D01*
X72768595Y-68875976D01*
X72939056Y-68900044D01*
X73002849Y-68906691D01*
X73053824Y-68896625D01*
X73108856Y-68861833D01*
X73184821Y-68794306D01*
X73207997Y-68772380D01*
X73313037Y-68673277D01*
X73396809Y-68600922D01*
X73471771Y-68551109D01*
X73550379Y-68519635D01*
X73645090Y-68502293D01*
X73768362Y-68494880D01*
X73932651Y-68493190D01*
X74035107Y-68493177D01*
X74201920Y-68494766D01*
X74350130Y-68499157D01*
X74468332Y-68505780D01*
X74545120Y-68514066D01*
X74566729Y-68519682D01*
X74618209Y-68532795D01*
X74712482Y-68545068D01*
X74832585Y-68554506D01*
X74883957Y-68557035D01*
X75150856Y-68567882D01*
X75176470Y-68469584D01*
X75224777Y-68377658D01*
X75283101Y-68339427D01*
X75351036Y-68326951D01*
X75460551Y-68321638D01*
X75594704Y-68322698D01*
X75736553Y-68329345D01*
X75869157Y-68340792D01*
X75975574Y-68356251D01*
X76038088Y-68374513D01*
X76114450Y-68387825D01*
X76180173Y-68355681D01*
X76214491Y-68289989D01*
X76215764Y-68272639D01*
X76240055Y-68185804D01*
X76303954Y-68130193D01*
X76393999Y-68109545D01*
X76496728Y-68127600D01*
G37*
G36*
X79848572Y-79946322D02*
G01*
X79854361Y-79950988D01*
X79863548Y-79961557D01*
X79859804Y-79972466D01*
X79833427Y-79989771D01*
X79774710Y-80019527D01*
X79673950Y-80067792D01*
X79645393Y-80081392D01*
X79530069Y-80132413D01*
X79439153Y-80165297D01*
X79379826Y-80178601D01*
X79359272Y-80170883D01*
X79384673Y-80140699D01*
X79396476Y-80131403D01*
X79456064Y-80096951D01*
X79491172Y-80087529D01*
X79540642Y-80074924D01*
X79614525Y-80043955D01*
X79627402Y-80037650D01*
X79732697Y-79985394D01*
X79796706Y-79955790D01*
X79831355Y-79944284D01*
X79848572Y-79946322D01*
G37*
G36*
X74275102Y-72459737D02*
G01*
X74351248Y-72496377D01*
X74440271Y-72540065D01*
X74569540Y-72602840D01*
X74660631Y-72643278D01*
X74728178Y-72667018D01*
X74786815Y-72679701D01*
X74810989Y-72682933D01*
X74870721Y-72705852D01*
X74894163Y-72737746D01*
X74878898Y-72776854D01*
X74833004Y-72845118D01*
X74767781Y-72929106D01*
X74694530Y-73015384D01*
X74624551Y-73090521D01*
X74569143Y-73141084D01*
X74543282Y-73154824D01*
X74511449Y-73132418D01*
X74471084Y-73081169D01*
X74436173Y-73019569D01*
X74422823Y-72980787D01*
X74409689Y-72941953D01*
X74375584Y-72868217D01*
X74337043Y-72792971D01*
X74285921Y-72686660D01*
X74246919Y-72586229D01*
X74223584Y-72503937D01*
X74219460Y-72452043D01*
X74235413Y-72441577D01*
X74275102Y-72459737D01*
G37*
G36*
X68786392Y-81158401D02*
G01*
X68855545Y-81236204D01*
X68871776Y-81260465D01*
X68944186Y-81363600D01*
X69028890Y-81471806D01*
X69058541Y-81506615D01*
X69132879Y-81597967D01*
X69163638Y-81653369D01*
X69151186Y-81671294D01*
X69126226Y-81651670D01*
X69067805Y-81598390D01*
X68984934Y-81519847D01*
X68897186Y-81434778D01*
X68800671Y-81337602D01*
X68722482Y-81253711D01*
X68671310Y-81192778D01*
X68655529Y-81165837D01*
X68680832Y-81140557D01*
X68722764Y-81133465D01*
X68786392Y-81158401D01*
G37*
G36*
X79732148Y-79473242D02*
G01*
X79822780Y-79506857D01*
X79891892Y-79551681D01*
X79921093Y-79598549D01*
X79921176Y-79600913D01*
X79918699Y-79630856D01*
X79902141Y-79630717D01*
X79857816Y-79596916D01*
X79835689Y-79578535D01*
X79753623Y-79535904D01*
X79665629Y-79519765D01*
X79592373Y-79511593D01*
X79548982Y-79491735D01*
X79547647Y-79489882D01*
X79560438Y-79469693D01*
X79621780Y-79460278D01*
X79638390Y-79460000D01*
X79732148Y-79473242D01*
G37*
G36*
X72737881Y-79248919D02*
G01*
X72823171Y-79325724D01*
X72886980Y-79440670D01*
X72921300Y-79583071D01*
X72922910Y-79599699D01*
X72928367Y-79692049D01*
X72922002Y-79739620D01*
X72899461Y-79756926D01*
X72875186Y-79758824D01*
X72816936Y-79732576D01*
X72743210Y-79658575D01*
X72710999Y-79616882D01*
X72619243Y-79481993D01*
X72555756Y-79370010D01*
X72524461Y-79288708D01*
X72525836Y-79249946D01*
X72565474Y-79229729D01*
X72636470Y-79220953D01*
X72639116Y-79220942D01*
X72737881Y-79248919D01*
G37*
G36*
X72028401Y-88419222D02*
G01*
X72109946Y-88438657D01*
X72171524Y-88472411D01*
X72225106Y-88516175D01*
X72275565Y-88567340D01*
X72325679Y-88631297D01*
X72378225Y-88713440D01*
X72435982Y-88819160D01*
X72501728Y-88953852D01*
X72578240Y-89122907D01*
X72668296Y-89331717D01*
X72774674Y-89585677D01*
X72893518Y-89874000D01*
X72947609Y-89996004D01*
X73025179Y-90157759D01*
X73119903Y-90347212D01*
X73225457Y-90552312D01*
X73335517Y-90761005D01*
X73443760Y-90961239D01*
X73543861Y-91140961D01*
X73629496Y-91288119D01*
X73669645Y-91353177D01*
X73739850Y-91463206D01*
X73810496Y-91573873D01*
X73850852Y-91637059D01*
X73901001Y-91711388D01*
X73975856Y-91817316D01*
X74063992Y-91938839D01*
X74128157Y-92025529D01*
X74217605Y-92151755D01*
X74299021Y-92278272D01*
X74361548Y-92387598D01*
X74388005Y-92443882D01*
X74436508Y-92551952D01*
X74501654Y-92678468D01*
X74554401Y-92770830D01*
X74661882Y-92948367D01*
X74661882Y-93310207D01*
X74665120Y-93498563D01*
X74674847Y-93627700D01*
X74691080Y-93697814D01*
X74697741Y-93707906D01*
X74748776Y-93730686D01*
X74831428Y-93743035D01*
X74856885Y-93743765D01*
X74958399Y-93731139D01*
X75033354Y-93685545D01*
X75052614Y-93666315D01*
X75129194Y-93591149D01*
X75189460Y-93558344D01*
X75249158Y-93568334D01*
X75324033Y-93621551D01*
X75383887Y-93675425D01*
X75536956Y-93831134D01*
X75688925Y-94009724D01*
X75826468Y-94193983D01*
X75936264Y-94366699D01*
X75973759Y-94437482D01*
X76036831Y-94576798D01*
X76105457Y-94744226D01*
X76172345Y-94920382D01*
X76230201Y-95085884D01*
X76271733Y-95221348D01*
X76278505Y-95247414D01*
X76306007Y-95331882D01*
X76352152Y-95446740D01*
X76410044Y-95577437D01*
X76472788Y-95709421D01*
X76533489Y-95828140D01*
X76585250Y-95919044D01*
X76618637Y-95965192D01*
X76648469Y-96003057D01*
X76631321Y-96014757D01*
X76627588Y-96014824D01*
X76596250Y-95991447D01*
X76547618Y-95932563D01*
X76493186Y-95855037D01*
X76444448Y-95775738D01*
X76412897Y-95711530D01*
X76407298Y-95691546D01*
X76390294Y-95638304D01*
X76356259Y-95563202D01*
X76316892Y-95489322D01*
X76283889Y-95439748D01*
X76275982Y-95432397D01*
X76256464Y-95392961D01*
X76246137Y-95318718D01*
X76245647Y-95297647D01*
X76238696Y-95218744D01*
X76221461Y-95168586D01*
X76216164Y-95163423D01*
X76193773Y-95127695D01*
X76161783Y-95050119D01*
X76126575Y-94946436D01*
X76121552Y-94930072D01*
X76081371Y-94808655D01*
X76038409Y-94696396D01*
X76001906Y-94617423D01*
X76001623Y-94616915D01*
X75965553Y-94544097D01*
X75947353Y-94491116D01*
X75946823Y-94485537D01*
X75930409Y-94441716D01*
X75888469Y-94367108D01*
X75831952Y-94278267D01*
X75771812Y-94191745D01*
X75718998Y-94124096D01*
X75687401Y-94093398D01*
X75651718Y-94051298D01*
X75647832Y-94033633D01*
X75627458Y-93995154D01*
X75574450Y-93929182D01*
X75500686Y-93848103D01*
X75418047Y-93764302D01*
X75338411Y-93690164D01*
X75273659Y-93638076D01*
X75259910Y-93629186D01*
X75215903Y-93609564D01*
X75176318Y-93616810D01*
X75123498Y-93657629D01*
X75082816Y-93696421D01*
X74966949Y-93778402D01*
X74848042Y-93805734D01*
X74734390Y-93777365D01*
X74687604Y-93746496D01*
X74658855Y-93719654D01*
X74638572Y-93686308D01*
X74624720Y-93635590D01*
X74615262Y-93556632D01*
X74608164Y-93438567D01*
X74602117Y-93290090D01*
X74587176Y-92890716D01*
X74475117Y-92722000D01*
X74418450Y-92632853D01*
X74378153Y-92562154D01*
X74363059Y-92525586D01*
X74346733Y-92470730D01*
X74303646Y-92382374D01*
X74242629Y-92275025D01*
X74172513Y-92163193D01*
X74102131Y-92061384D01*
X74040315Y-91984108D01*
X74021847Y-91965076D01*
X74002576Y-91945215D01*
X73980404Y-91916780D01*
X73947951Y-91868951D01*
X73897842Y-91790908D01*
X73832073Y-91686724D01*
X73773192Y-91597410D01*
X73717819Y-91520132D01*
X73698176Y-91495387D01*
X73659097Y-91439773D01*
X73645882Y-91405511D01*
X73629776Y-91364839D01*
X73589925Y-91299811D01*
X73578647Y-91283703D01*
X73523336Y-91204114D01*
X73476763Y-91129084D01*
X73428519Y-91040365D01*
X73368193Y-90919708D01*
X73351667Y-90885835D01*
X73302368Y-90790489D01*
X73259376Y-90717785D01*
X73232323Y-90683786D01*
X73204746Y-90643501D01*
X73183084Y-90577957D01*
X73155724Y-90502947D01*
X73122549Y-90456380D01*
X73086338Y-90406351D01*
X73050652Y-90327572D01*
X73045418Y-90312374D01*
X73006019Y-90218251D01*
X72958249Y-90136751D01*
X72954242Y-90131441D01*
X72914126Y-90066556D01*
X72898823Y-90017531D01*
X72886659Y-89968961D01*
X72855141Y-89886861D01*
X72821260Y-89810932D01*
X72778767Y-89717603D01*
X72748045Y-89643570D01*
X72737333Y-89611077D01*
X72721682Y-89566530D01*
X72687477Y-89487186D01*
X72650544Y-89407940D01*
X72608321Y-89316928D01*
X72579195Y-89248003D01*
X72570117Y-89219261D01*
X72558554Y-89182557D01*
X72528559Y-89109203D01*
X72495411Y-89034494D01*
X72455555Y-88943591D01*
X72428452Y-88874569D01*
X72420706Y-88846907D01*
X72403305Y-88808916D01*
X72361405Y-88751325D01*
X72360866Y-88750675D01*
X72303356Y-88681312D01*
X72233077Y-88596298D01*
X72212554Y-88571425D01*
X72149344Y-88504283D01*
X72087584Y-88471537D01*
X71999441Y-88459882D01*
X71977276Y-88458949D01*
X71896940Y-88460293D01*
X71788690Y-88467469D01*
X71668503Y-88478714D01*
X71552354Y-88492261D01*
X71456219Y-88506346D01*
X71396073Y-88519203D01*
X71384673Y-88524425D01*
X71390758Y-88554516D01*
X71414456Y-88629686D01*
X71452011Y-88739201D01*
X71499667Y-88872325D01*
X71553667Y-89018324D01*
X71600727Y-89141882D01*
X71628537Y-89231527D01*
X71642223Y-89310021D01*
X71642453Y-89315840D01*
X71660791Y-89389316D01*
X71685341Y-89426786D01*
X71711131Y-89474681D01*
X71741775Y-89563853D01*
X71771427Y-89676776D01*
X71776809Y-89701064D01*
X71807111Y-89830547D01*
X71840145Y-89953424D01*
X71869158Y-90044720D01*
X71871220Y-90050219D01*
X71897006Y-90135188D01*
X71925599Y-90256455D01*
X71951724Y-90391101D01*
X71957184Y-90423748D01*
X71980689Y-90558635D01*
X72005945Y-90686370D01*
X72028304Y-90783792D01*
X72032798Y-90800353D01*
X72050232Y-90878840D01*
X72071067Y-90999113D01*
X72092445Y-91143521D01*
X72108269Y-91266657D01*
X72128322Y-91425746D01*
X72150030Y-91582967D01*
X72170399Y-91717316D01*
X72182837Y-91789598D01*
X72198856Y-91890247D01*
X72217352Y-92031171D01*
X72235952Y-92193077D01*
X72251168Y-92344577D01*
X72266100Y-92489455D01*
X72281630Y-92612375D01*
X72296030Y-92701268D01*
X72307567Y-92744064D01*
X72308647Y-92745499D01*
X72320124Y-92784760D01*
X72328208Y-92865760D01*
X72331064Y-92964333D01*
X72337313Y-93096850D01*
X72353668Y-93253119D01*
X72375887Y-93395276D01*
X72397949Y-93527704D01*
X72413950Y-93656432D01*
X72420666Y-93755157D01*
X72420706Y-93760906D01*
X72433573Y-93919174D01*
X72468296Y-94099865D01*
X72517018Y-94266706D01*
X72542240Y-94357271D01*
X72554397Y-94431408D01*
X72566685Y-94503077D01*
X72592680Y-94610645D01*
X72626706Y-94733476D01*
X72663087Y-94850936D01*
X72692355Y-94932994D01*
X72714551Y-95019772D01*
X72719529Y-95073922D01*
X72731402Y-95151960D01*
X72760110Y-95241094D01*
X72761481Y-95244339D01*
X72796075Y-95337560D01*
X72830249Y-95448096D01*
X72838003Y-95476941D01*
X72868481Y-95589670D01*
X72905026Y-95717121D01*
X72919656Y-95766005D01*
X72946759Y-95885794D01*
X72946331Y-95970408D01*
X72918875Y-96011929D01*
X72903905Y-96014824D01*
X72888648Y-95990037D01*
X72891172Y-95941884D01*
X72890073Y-95868638D01*
X72870538Y-95773006D01*
X72860236Y-95740178D01*
X72822560Y-95623686D01*
X72786602Y-95499785D01*
X72780544Y-95476941D01*
X72751710Y-95372046D01*
X72722438Y-95275138D01*
X72715065Y-95252824D01*
X72642686Y-95012996D01*
X72598963Y-94834471D01*
X72553664Y-94635727D01*
X72513009Y-94469636D01*
X72479347Y-94345449D01*
X72458711Y-94281647D01*
X72442009Y-94218679D01*
X72421797Y-94114913D01*
X72401546Y-93988904D01*
X72394422Y-93938000D01*
X72371283Y-93772064D01*
X72343762Y-93584925D01*
X72317422Y-93414312D01*
X72314871Y-93398398D01*
X72294466Y-93250559D01*
X72279175Y-93099597D01*
X72271651Y-92972922D01*
X72271294Y-92947673D01*
X72267824Y-92848287D01*
X72258822Y-92774055D01*
X72248882Y-92745417D01*
X72237787Y-92708747D01*
X72223624Y-92624580D01*
X72208125Y-92504988D01*
X72193022Y-92362045D01*
X72191374Y-92344495D01*
X72174219Y-92177528D01*
X72151284Y-91980568D01*
X72124218Y-91765475D01*
X72094672Y-91544105D01*
X72064293Y-91328318D01*
X72034731Y-91129972D01*
X72007634Y-90960924D01*
X71984652Y-90833033D01*
X71974569Y-90785412D01*
X71954105Y-90690903D01*
X71928255Y-90562280D01*
X71901964Y-90424296D01*
X71896939Y-90396941D01*
X71854076Y-90186392D01*
X71805135Y-89986441D01*
X71755071Y-89816419D01*
X71729986Y-89745594D01*
X71708443Y-89662257D01*
X71703417Y-89611123D01*
X71687993Y-89540226D01*
X71650822Y-89459058D01*
X71648775Y-89455647D01*
X71603359Y-89359498D01*
X71573516Y-89261412D01*
X71553570Y-89187489D01*
X71517433Y-89076745D01*
X71471328Y-88947762D01*
X71446530Y-88882358D01*
X71401614Y-88757014D01*
X71368290Y-88645893D01*
X71351038Y-88564963D01*
X71350078Y-88538711D01*
X71361439Y-88501467D01*
X71391487Y-88477249D01*
X71453594Y-88460254D01*
X71561130Y-88444682D01*
X71569059Y-88443698D01*
X71767648Y-88422204D01*
X71917532Y-88413891D01*
X72028401Y-88419222D01*
G37*
G36*
X77165010Y-72996665D02*
G01*
X77172000Y-73030360D01*
X77187757Y-73128240D01*
X77233310Y-73178639D01*
X77264844Y-73184706D01*
X77306179Y-73209020D01*
X77322200Y-73270422D01*
X77312344Y-73351601D01*
X77276046Y-73435246D01*
X77273151Y-73439757D01*
X77221916Y-73500544D01*
X77187863Y-73506434D01*
X77176177Y-73458735D01*
X77180171Y-73416294D01*
X77179112Y-73328194D01*
X77156327Y-73274353D01*
X77127079Y-73215786D01*
X77110206Y-73135415D01*
X77107324Y-73055289D01*
X77120050Y-72997453D01*
X77134958Y-72982896D01*
X77165010Y-72996665D01*
G37*
G36*
X79322293Y-80247081D02*
G01*
X79323529Y-80271804D01*
X79309003Y-80319307D01*
X79274627Y-80317735D01*
X79235481Y-80269811D01*
X79221389Y-80219720D01*
X79246449Y-80197164D01*
X79299263Y-80196451D01*
X79322293Y-80247081D01*
G37*
G36*
X67385947Y-79250496D02*
G01*
X67434970Y-79307393D01*
X67484284Y-79378743D01*
X67550095Y-79480349D01*
X67614448Y-79575991D01*
X67648637Y-79624512D01*
X67700511Y-79696017D01*
X67775280Y-79799718D01*
X67865945Y-79925840D01*
X67965505Y-80064608D01*
X68066962Y-80206247D01*
X68163313Y-80340984D01*
X68247560Y-80459043D01*
X68312703Y-80550650D01*
X68351740Y-80606031D01*
X68356706Y-80613224D01*
X68399535Y-80674799D01*
X68460608Y-80761219D01*
X68500793Y-80817562D01*
X68562206Y-80913834D01*
X68586409Y-80974501D01*
X68575418Y-80995397D01*
X68531250Y-80972353D01*
X68458822Y-80904295D01*
X68319776Y-80750939D01*
X68156195Y-80561392D01*
X67978320Y-80348068D01*
X67796390Y-80123380D01*
X67620648Y-79899742D01*
X67505312Y-79748495D01*
X67421446Y-79633424D01*
X67368817Y-79549479D01*
X67340351Y-79481918D01*
X67328971Y-79415998D01*
X67327463Y-79377929D01*
X67332400Y-79294762D01*
X67346843Y-79241297D01*
X67355647Y-79232295D01*
X67385947Y-79250496D01*
G37*
G36*
X78553267Y-74804272D02*
G01*
X78653154Y-74921199D01*
X78771025Y-75053967D01*
X78883019Y-75175743D01*
X78893489Y-75186824D01*
X79006440Y-75308949D01*
X79130598Y-75447749D01*
X79240392Y-75574608D01*
X79247269Y-75582765D01*
X79325936Y-75672990D01*
X79391728Y-75742375D01*
X79434421Y-75780391D01*
X79443085Y-75784471D01*
X79460276Y-75810103D01*
X79463625Y-75866617D01*
X79470590Y-75929882D01*
X79511798Y-75955965D01*
X79525235Y-75958342D01*
X79575302Y-75980115D01*
X79592036Y-76037136D01*
X79592470Y-76055490D01*
X79581888Y-76118151D01*
X79557551Y-76145549D01*
X79530573Y-76126498D01*
X79527725Y-76120647D01*
X79498112Y-76097099D01*
X79428866Y-76055247D01*
X79333875Y-76003386D01*
X79315149Y-75993647D01*
X79225335Y-75938667D01*
X79117344Y-75859590D01*
X79001001Y-75765273D01*
X78886133Y-75664574D01*
X78782565Y-75566348D01*
X78700123Y-75479454D01*
X78648633Y-75412748D01*
X78636235Y-75381669D01*
X78615468Y-75340285D01*
X78564698Y-75284976D01*
X78556995Y-75278114D01*
X78507237Y-75230297D01*
X78500345Y-75202637D01*
X78528677Y-75180718D01*
X78593912Y-75171475D01*
X78622858Y-75188122D01*
X78656850Y-75211536D01*
X78661933Y-75197509D01*
X78637848Y-75140037D01*
X78619105Y-75101768D01*
X78580694Y-75038977D01*
X78547942Y-75008169D01*
X78544399Y-75007529D01*
X78519864Y-74983273D01*
X78516706Y-74962413D01*
X78495617Y-74910031D01*
X78456941Y-74866125D01*
X78407765Y-74787427D01*
X78397176Y-74715455D01*
X78397176Y-74615956D01*
X78553267Y-74804272D01*
G37*
G36*
X74720773Y-69776137D02*
G01*
X74871276Y-69780945D01*
X74994992Y-69789166D01*
X75079564Y-69800900D01*
X75092612Y-69804234D01*
X75167527Y-69824531D01*
X75277824Y-69852033D01*
X75400535Y-69881024D01*
X75408941Y-69882948D01*
X75520194Y-69910500D01*
X75609350Y-69936511D01*
X75659630Y-69956008D01*
X75663082Y-69958298D01*
X75707179Y-69975168D01*
X75790554Y-69994055D01*
X75870939Y-70007282D01*
X75965141Y-70024956D01*
X76030119Y-70045770D01*
X76050092Y-70062000D01*
X76024989Y-70083869D01*
X75960925Y-70097371D01*
X75878199Y-70101924D01*
X75797105Y-70096944D01*
X75737940Y-70081850D01*
X75723695Y-70071373D01*
X75672943Y-70047458D01*
X75567154Y-70031666D01*
X75453764Y-70025575D01*
X75305517Y-70020239D01*
X75131337Y-70012090D01*
X74964893Y-70002731D01*
X74938419Y-70001045D01*
X74808794Y-69993667D01*
X74728653Y-69992815D01*
X74687960Y-69999616D01*
X74676678Y-70015194D01*
X74680146Y-70030000D01*
X74715182Y-70070977D01*
X74735755Y-70076941D01*
X74784040Y-70094189D01*
X74848136Y-70135770D01*
X74849330Y-70136706D01*
X74914362Y-70178957D01*
X74964985Y-70197334D01*
X74965419Y-70197347D01*
X75018428Y-70219465D01*
X75086098Y-70272288D01*
X75150183Y-70338110D01*
X75192438Y-70399224D01*
X75199764Y-70424759D01*
X75194675Y-70444351D01*
X75173397Y-70457217D01*
X75126917Y-70464044D01*
X75046220Y-70465522D01*
X74922293Y-70462338D01*
X74781411Y-70456703D01*
X74631157Y-70451730D01*
X74504833Y-70450318D01*
X74413108Y-70452371D01*
X74366650Y-70457793D01*
X74363059Y-70460474D01*
X74388479Y-70482418D01*
X74453802Y-70515631D01*
X74511680Y-70539811D01*
X74598144Y-70579126D01*
X74658695Y-70617391D01*
X74675095Y-70636036D01*
X74713544Y-70667918D01*
X74749540Y-70674588D01*
X74810250Y-70698708D01*
X74841176Y-70734353D01*
X74890473Y-70782229D01*
X74931875Y-70794118D01*
X74976285Y-70808849D01*
X74983117Y-70829696D01*
X75001034Y-70864715D01*
X75028972Y-70876909D01*
X75086474Y-70905436D01*
X75152140Y-70958410D01*
X75154614Y-70960860D01*
X75216922Y-71010496D01*
X75270256Y-71033051D01*
X75273112Y-71033177D01*
X75313595Y-71056497D01*
X75319294Y-71078000D01*
X75343846Y-71115510D01*
X75373347Y-71122824D01*
X75439541Y-71140294D01*
X75485406Y-71166697D01*
X75516154Y-71193743D01*
X75507880Y-71206746D01*
X75451987Y-71211039D01*
X75413152Y-71211520D01*
X75320622Y-71204730D01*
X75195116Y-71185909D01*
X75061285Y-71158870D01*
X75039623Y-71153765D01*
X74870836Y-71116020D01*
X74677633Y-71077669D01*
X74472607Y-71040720D01*
X74268349Y-71007183D01*
X74077451Y-70979067D01*
X73912506Y-70958379D01*
X73786104Y-70947130D01*
X73735529Y-70945719D01*
X73653257Y-70949442D01*
X73608800Y-70956490D01*
X73608529Y-70963320D01*
X73643252Y-71002078D01*
X73645882Y-71017528D01*
X73669718Y-71062430D01*
X73685972Y-71072048D01*
X73726116Y-71106810D01*
X73783158Y-71178876D01*
X73846664Y-71272399D01*
X73906203Y-71371534D01*
X73951340Y-71460435D01*
X73965332Y-71496353D01*
X73997678Y-71558787D01*
X74035583Y-71585961D01*
X74036843Y-71586000D01*
X74071274Y-71612202D01*
X74088632Y-71668177D01*
X74082270Y-71728424D01*
X74042184Y-71749839D01*
X73964387Y-71732543D01*
X73844892Y-71676659D01*
X73842987Y-71675647D01*
X73754714Y-71633104D01*
X73682697Y-71606048D01*
X73656382Y-71600941D01*
X73597704Y-71587145D01*
X73530963Y-71557349D01*
X73455036Y-71518863D01*
X73355537Y-71472370D01*
X73312348Y-71453217D01*
X73230608Y-71413893D01*
X73175518Y-71380245D01*
X73162936Y-71367408D01*
X73132679Y-71340529D01*
X73065196Y-71298803D01*
X72974971Y-71249488D01*
X72876485Y-71199843D01*
X72784219Y-71157127D01*
X72712657Y-71128598D01*
X72676279Y-71121513D01*
X72674762Y-71122733D01*
X72682801Y-71155065D01*
X72712752Y-71227581D01*
X72758429Y-71327711D01*
X72813652Y-71442889D01*
X72872238Y-71560546D01*
X72928003Y-71668116D01*
X72974765Y-71753031D01*
X73006342Y-71802722D01*
X73012566Y-71809395D01*
X73037216Y-71844361D01*
X73073380Y-71912454D01*
X73085104Y-71937118D01*
X73123334Y-72006967D01*
X73156283Y-72046124D01*
X73163955Y-72049177D01*
X73186681Y-72075289D01*
X73207699Y-72139551D01*
X73210616Y-72153765D01*
X73235954Y-72228098D01*
X73271688Y-72258269D01*
X73273707Y-72258353D01*
X73308945Y-72283228D01*
X73317176Y-72318118D01*
X73334518Y-72366582D01*
X73358803Y-72377882D01*
X73401444Y-72399518D01*
X73423967Y-72444613D01*
X73414725Y-72479549D01*
X73360517Y-72495732D01*
X73288891Y-72459254D01*
X73269154Y-72442173D01*
X73211778Y-72396154D01*
X73174103Y-72374938D01*
X73122129Y-72343238D01*
X73034044Y-72272710D01*
X72914972Y-72167788D01*
X72770033Y-72032908D01*
X72685786Y-71952059D01*
X72593764Y-71865589D01*
X72516212Y-71797655D01*
X72463865Y-71757408D01*
X72449140Y-71750353D01*
X72432177Y-71777164D01*
X72420958Y-71845369D01*
X72418683Y-71892294D01*
X72416134Y-71973087D01*
X72409528Y-72000634D01*
X72395745Y-71981446D01*
X72386462Y-71959529D01*
X72352467Y-71883223D01*
X72307453Y-71791068D01*
X72298838Y-71774315D01*
X72262369Y-71695601D01*
X72242143Y-71635416D01*
X72240747Y-71624903D01*
X72223032Y-71575329D01*
X72181647Y-71511294D01*
X72138546Y-71435457D01*
X72123535Y-71364355D01*
X72137744Y-71314878D01*
X72167643Y-71302118D01*
X72217504Y-71326293D01*
X72230605Y-71346941D01*
X72269081Y-71386670D01*
X72290957Y-71391765D01*
X72329416Y-71416870D01*
X72369946Y-71478972D01*
X72377808Y-71496353D01*
X72416813Y-71564167D01*
X72457969Y-71599497D01*
X72465930Y-71600941D01*
X72501954Y-71625977D01*
X72510353Y-71662231D01*
X72538151Y-71721660D01*
X72611317Y-71765706D01*
X72683262Y-71805686D01*
X72727285Y-71848392D01*
X72729908Y-71853828D01*
X72761419Y-71894111D01*
X72778356Y-71899765D01*
X72803056Y-71876461D01*
X72807697Y-71826077D01*
X72792075Y-71777903D01*
X72779294Y-71765294D01*
X72752724Y-71722463D01*
X72749411Y-71698259D01*
X72737610Y-71643632D01*
X72707633Y-71559787D01*
X72687792Y-71513258D01*
X72593483Y-71298661D01*
X72524887Y-71128685D01*
X72478995Y-70995538D01*
X72459089Y-70921489D01*
X72466400Y-70860345D01*
X72507487Y-70830291D01*
X72560899Y-70842447D01*
X72579024Y-70859310D01*
X72666045Y-70938428D01*
X72798248Y-71026686D01*
X72963491Y-71116323D01*
X73033294Y-71149534D01*
X73141296Y-71199607D01*
X73232924Y-71243126D01*
X73290317Y-71271590D01*
X73294359Y-71273756D01*
X73365851Y-71298821D01*
X73398947Y-71303068D01*
X73464021Y-71321277D01*
X73509652Y-71347892D01*
X73581080Y-71382900D01*
X73629182Y-71391307D01*
X73665798Y-71382956D01*
X73659388Y-71368895D01*
X73617536Y-71321393D01*
X73566080Y-71239724D01*
X73516283Y-71145125D01*
X73479412Y-71058829D01*
X73466588Y-71005444D01*
X73449895Y-70955818D01*
X73425250Y-70943529D01*
X73384033Y-70920091D01*
X73365948Y-70869044D01*
X73376722Y-70819292D01*
X73397375Y-70802816D01*
X73440220Y-70798249D01*
X73532921Y-70795783D01*
X73665606Y-70795432D01*
X73828400Y-70797210D01*
X74011433Y-70801130D01*
X74040548Y-70801918D01*
X74242871Y-70807153D01*
X74391689Y-70809786D01*
X74493218Y-70809517D01*
X74553674Y-70806042D01*
X74579272Y-70799059D01*
X74576229Y-70788266D01*
X74557500Y-70776762D01*
X74468506Y-70726854D01*
X74372874Y-70667497D01*
X74284471Y-70608087D01*
X74217163Y-70558025D01*
X74184818Y-70526707D01*
X74183764Y-70523470D01*
X74157689Y-70504396D01*
X74093510Y-70485216D01*
X74079176Y-70482325D01*
X74007336Y-70458153D01*
X73974959Y-70424835D01*
X73974588Y-70420998D01*
X73995993Y-70368172D01*
X74052418Y-70356356D01*
X74111908Y-70377290D01*
X74192630Y-70400063D01*
X74251000Y-70384475D01*
X74320103Y-70359793D01*
X74418355Y-70332995D01*
X74467647Y-70321798D01*
X74609842Y-70291991D01*
X74702098Y-70271745D01*
X74752816Y-70257647D01*
X74770396Y-70246281D01*
X74763238Y-70234234D01*
X74739744Y-70218092D01*
X74733414Y-70213789D01*
X74658597Y-70173648D01*
X74602117Y-70152166D01*
X74531752Y-70126942D01*
X74434857Y-70087443D01*
X74378000Y-70062617D01*
X74256849Y-70019024D01*
X74118973Y-69984526D01*
X74056764Y-69974326D01*
X73944779Y-69950388D01*
X73887323Y-69914443D01*
X73886054Y-69868928D01*
X73942632Y-69816273D01*
X73947130Y-69813421D01*
X73998889Y-69799830D01*
X74097995Y-69789057D01*
X74232092Y-69781203D01*
X74388825Y-69776365D01*
X74555837Y-69774643D01*
X74720773Y-69776137D01*
G37*
G36*
X67965400Y-79463132D02*
G01*
X68020171Y-79438470D01*
X68028000Y-79437552D01*
X68136203Y-79421610D01*
X68274575Y-79393959D01*
X68429534Y-79358160D01*
X68587500Y-79317773D01*
X68734892Y-79276358D01*
X68858129Y-79237475D01*
X68943632Y-79204685D01*
X68969294Y-79190792D01*
X69019698Y-79159820D01*
X69098710Y-79115691D01*
X69189698Y-79067135D01*
X69276033Y-79022881D01*
X69341086Y-78991657D01*
X69367280Y-78981882D01*
X69373851Y-79010019D01*
X69378112Y-79087522D01*
X69379833Y-79204027D01*
X69378782Y-79349171D01*
X69377214Y-79426427D01*
X69366372Y-79870971D01*
X69483784Y-80121192D01*
X69647682Y-80428229D01*
X69855990Y-80749069D01*
X70099870Y-81070371D01*
X70163075Y-81146501D01*
X70252163Y-81255895D01*
X70324659Y-81352408D01*
X70372745Y-81425117D01*
X70388706Y-81461759D01*
X70403795Y-81521624D01*
X70414978Y-81538318D01*
X70440603Y-81583631D01*
X70470769Y-81659827D01*
X70477126Y-81678964D01*
X70516008Y-81758674D01*
X70582877Y-81858132D01*
X70660030Y-81952095D01*
X70732002Y-82035157D01*
X70784405Y-82103859D01*
X70806860Y-82144480D01*
X70807059Y-82146442D01*
X70784858Y-82177539D01*
X70724771Y-82235731D01*
X70636568Y-82312049D01*
X70553059Y-82379555D01*
X70437301Y-82475528D01*
X70352459Y-82556151D01*
X70305809Y-82614155D01*
X70299059Y-82633244D01*
X70275426Y-82678824D01*
X70239294Y-82687294D01*
X70189957Y-82667782D01*
X70179529Y-82640615D01*
X70171132Y-82585502D01*
X70149854Y-82499222D01*
X70136667Y-82453850D01*
X70106235Y-82343293D01*
X70081629Y-82235081D01*
X70076194Y-82205148D01*
X70048312Y-82114901D01*
X69997898Y-82010907D01*
X69970188Y-81966089D01*
X69919147Y-81879219D01*
X69886947Y-81802240D01*
X69881249Y-81772071D01*
X69859090Y-81701053D01*
X69832411Y-81668413D01*
X69755826Y-81622599D01*
X69645241Y-81576723D01*
X69525614Y-81540496D01*
X69477294Y-81530247D01*
X69418135Y-81516472D01*
X69368177Y-81492898D01*
X69317038Y-81450439D01*
X69254334Y-81380015D01*
X69169686Y-81272540D01*
X69143254Y-81238000D01*
X69046082Y-81112065D01*
X68932632Y-80967114D01*
X68824339Y-80830498D01*
X68803679Y-80804706D01*
X68561112Y-80498285D01*
X68359460Y-80234090D01*
X68198174Y-80011306D01*
X68076707Y-79829118D01*
X67994509Y-79686711D01*
X67951031Y-79583270D01*
X67946673Y-79549960D01*
X67971585Y-79549960D01*
X67999333Y-79619203D01*
X68040885Y-79678766D01*
X68088551Y-79746729D01*
X68115443Y-79795680D01*
X68117647Y-79804542D01*
X68136263Y-79842046D01*
X68181079Y-79897197D01*
X68181568Y-79897719D01*
X68239508Y-79966570D01*
X68278686Y-80023109D01*
X68329729Y-80103253D01*
X68402719Y-80208389D01*
X68484623Y-80320723D01*
X68562409Y-80422463D01*
X68623041Y-80495814D01*
X68632314Y-80505882D01*
X68687454Y-80570290D01*
X68723300Y-80623639D01*
X68724146Y-80625412D01*
X68752501Y-80668939D01*
X68808571Y-80743121D01*
X68881161Y-80833248D01*
X68894701Y-80849529D01*
X68982359Y-80955906D01*
X69068608Y-81063008D01*
X69134891Y-81147792D01*
X69135318Y-81148353D01*
X69232733Y-81275785D01*
X69302527Y-81363015D01*
X69352933Y-81417652D01*
X69392189Y-81447308D01*
X69428530Y-81459590D01*
X69470192Y-81462110D01*
X69474891Y-81462118D01*
X69562029Y-81475760D01*
X69628465Y-81505991D01*
X69692028Y-81541097D01*
X69731599Y-81550814D01*
X69799796Y-81577048D01*
X69869238Y-81639672D01*
X69922018Y-81718467D01*
X69940470Y-81786644D01*
X69967687Y-81877927D01*
X70015176Y-81934649D01*
X70067511Y-81990102D01*
X70092003Y-82035494D01*
X70092168Y-82037155D01*
X70100572Y-82100609D01*
X70104325Y-82119529D01*
X70145765Y-82300141D01*
X70179607Y-82427571D01*
X70208283Y-82507555D01*
X70234228Y-82545827D01*
X70259874Y-82548125D01*
X70279019Y-82531319D01*
X70323501Y-82491145D01*
X70397513Y-82435269D01*
X70442289Y-82404364D01*
X70520028Y-82349149D01*
X70576294Y-82303042D01*
X70591701Y-82286395D01*
X70633553Y-82246473D01*
X70672588Y-82220915D01*
X70723416Y-82180157D01*
X70733618Y-82130295D01*
X70700985Y-82063022D01*
X70623305Y-81970034D01*
X70598959Y-81944265D01*
X70525198Y-81864994D01*
X70470835Y-81802125D01*
X70446556Y-81768082D01*
X70446184Y-81766654D01*
X70409629Y-81622329D01*
X70334766Y-81459236D01*
X70230902Y-81294725D01*
X70120857Y-81160359D01*
X70023787Y-81049665D01*
X69924638Y-80925839D01*
X69858116Y-80834588D01*
X69799028Y-80748772D01*
X69753241Y-80684084D01*
X69731294Y-80655294D01*
X69696639Y-80607352D01*
X69643727Y-80518886D01*
X69579684Y-80403478D01*
X69511635Y-80274712D01*
X69446704Y-80146170D01*
X69392015Y-80031435D01*
X69354694Y-79944092D01*
X69347269Y-79923177D01*
X69332540Y-79844124D01*
X69323042Y-79725206D01*
X69318629Y-79582039D01*
X69319153Y-79430237D01*
X69324470Y-79285416D01*
X69334431Y-79163193D01*
X69348891Y-79079182D01*
X69355356Y-79060901D01*
X69363460Y-79032712D01*
X69341997Y-79034464D01*
X69282486Y-79068116D01*
X69258179Y-79083313D01*
X69177305Y-79129254D01*
X69112469Y-79157216D01*
X69093076Y-79161177D01*
X69040247Y-79182286D01*
X69013867Y-79206302D01*
X68965607Y-79238801D01*
X68880541Y-79275157D01*
X68808502Y-79298339D01*
X68689268Y-79333576D01*
X68571511Y-79371383D01*
X68519166Y-79389614D01*
X68424074Y-79416049D01*
X68298994Y-79440147D01*
X68190824Y-79454459D01*
X68063415Y-79473447D01*
X67991640Y-79503328D01*
X67971585Y-79549960D01*
X67946673Y-79549960D01*
X67943780Y-79527844D01*
X67965400Y-79463132D01*
G37*
G36*
X75408238Y-84005394D02*
G01*
X75487935Y-84055794D01*
X75561757Y-84120803D01*
X75615779Y-84189368D01*
X75636074Y-84250432D01*
X75632907Y-84267287D01*
X75621747Y-84314016D01*
X75604860Y-84405817D01*
X75584712Y-84528562D01*
X75567476Y-84642453D01*
X75545192Y-84813557D01*
X75535138Y-84951837D01*
X75536763Y-85082852D01*
X75549520Y-85232158D01*
X75553965Y-85271724D01*
X75573911Y-85474534D01*
X75585500Y-85659949D01*
X75588803Y-85819771D01*
X75583891Y-85945801D01*
X75570836Y-86029841D01*
X75549708Y-86063691D01*
X75547091Y-86064000D01*
X75513019Y-86038653D01*
X75470791Y-85973795D01*
X75446149Y-85922059D01*
X75401355Y-85800561D01*
X75361811Y-85668756D01*
X75352438Y-85630706D01*
X75341457Y-85558476D01*
X75330233Y-85442727D01*
X75319149Y-85293006D01*
X75308586Y-85118861D01*
X75298926Y-84929839D01*
X75290551Y-84735488D01*
X75283843Y-84545355D01*
X75279183Y-84368989D01*
X75276954Y-84215936D01*
X75277537Y-84095744D01*
X75281313Y-84017961D01*
X75286930Y-83992646D01*
X75336594Y-83980660D01*
X75408238Y-84005394D01*
G37*
%TD*%
M02*
