M48
; DRILL file {KiCad (6.0.11-0)} date Wednesday, November 08, 2023 at 03:13:15 AM
; FORMAT={-:-/ absolute / inch / decimal}
; #@! TF.CreationDate,2023-11-08T03:13:15-06:00
; #@! TF.GenerationSoftware,Kicad,Pcbnew,(6.0.11-0)
; #@! TF.FileFunction,Plated,1,2,PTH
FMAT,2
INCH
; #@! TA.AperFunction,Plated,PTH,ViaDrill
T1C0.0157
; #@! TA.AperFunction,Plated,PTH,ComponentDrill
T2C0.0394
; #@! TA.AperFunction,Plated,PTH,ComponentDrill
T3C0.0433
%
G90
G05
T1
X2.0236Y-2.1969
X2.0236Y-3.1181
X2.0236Y-4.0551
X2.6772Y-2.5827
X2.685Y-1.6299
X2.7008Y-3.5039
X2.7953Y-1.6772
X2.8189Y-2.5827
X2.8189Y-3.5039
X2.9606Y-4.5512
X2.9921Y-4.9843
X2.9921Y-5.1024
X3.0Y-4.3465
X3.126Y-3.7795
X3.1417Y-2.8504
X3.189Y-4.0079
X3.252Y-4.8425
X3.5748Y-5.8819
X3.7087Y-1.8346
X3.7165Y-3.5276
X3.7953Y-4.4173
X3.7953Y-4.7402
X3.937Y-4.9921
X3.9449Y-5.1102
X3.9528Y-2.5827
X3.9528Y-2.6378
X3.9528Y-2.6772
X3.9528Y-2.7323
X3.9528Y-3.5276
X4.0Y-3.5591
X4.0472Y-3.1024
X4.0472Y-3.1654
X4.252Y-3.3307
X4.2835Y-3.2992
X4.2835Y-4.7638
X4.3228Y-3.2992
X4.3465Y-3.2047
X4.5118Y-5.8819
X4.5669Y-3.5906
X4.6063Y-2.2677
X4.6142Y-2.4803
X4.6142Y-2.5276
X4.6142Y-2.5827
X4.6142Y-2.6299
X4.6142Y-2.685
X4.6142Y-2.7323
X4.6142Y-2.7795
X4.6142Y-2.9055
X4.6772Y-1.7953
X4.6772Y-2.3386
X4.6929Y-3.1654
X4.7559Y-3.1024
X4.7795Y-1.7559
X4.7795Y-2.3701
X4.874Y-4.9843
X4.874Y-5.1024
X4.8819Y-2.2992
X4.8819Y-3.5906
X5.0709Y-2.2677
X5.0709Y-3.2992
X5.0709Y-4.685
X5.1102Y-3.2441
X5.1102Y-3.4094
X5.126Y-5.4488
X5.1575Y-2.2677
X5.1575Y-3.5197
X5.2756Y-2.6299
X5.3858Y-2.685
X5.4173Y-2.1969
X5.4488Y-5.8819
X5.4646Y-2.7165
X5.4646Y-3.2441
X5.4961Y-1.9843
X5.5197Y-3.8504
X5.5827Y-4.7087
X5.7559Y-2.0394
X6.0394Y-4.7087
X6.0394Y-5.1732
X6.1024Y-4.7087
X6.4803Y-1.4646
X6.4803Y-2.4173
X6.4803Y-3.3701
X6.5276Y-4.7087
X6.5669Y-4.5118
X6.5669Y-4.8583
T2
X2.215Y-4.3228
X2.215Y-4.4228
X2.315Y-4.3228
X2.315Y-4.4228
X2.3346Y-1.7874
X2.3346Y-1.8874
X2.3346Y-2.7087
X2.3346Y-2.8087
X2.3346Y-3.6378
X2.3346Y-3.7378
X2.415Y-4.3228
X2.415Y-4.4228
X2.515Y-4.3228
X2.515Y-4.4228
X2.615Y-4.3228
X2.615Y-4.4228
X3.1339Y-5.5315
X3.2339Y-5.5315
X4.0748Y-5.5315
X4.1748Y-5.5315
X4.3789Y-1.6496
X4.4789Y-1.6496
X4.5789Y-1.6496
X4.6789Y-1.6496
X4.7789Y-1.6496
X4.8789Y-1.6496
X5.0236Y-5.5315
X5.1236Y-5.5315
X6.2165Y-2.7386
X6.2165Y-2.8386
X6.2165Y-3.6913
X6.2165Y-3.7913
X6.2205Y-1.7976
X6.2205Y-1.8976
T3
X3.4508Y-1.3642
X3.4508Y-1.5413
X3.7067Y-1.3642
X3.7067Y-1.5413
T2
G00X5.8268Y-5.5256
M15
G01X5.8268Y-5.624
M16
G05
G00X5.9055Y-5.3898
M15
G01X5.9843Y-5.3898
M16
G05
G00X6.063Y-5.5354
M15
G01X6.063Y-5.6142
M16
G05
T0
M30
