%TF.GenerationSoftware,KiCad,Pcbnew,7.0.7*%
%TF.CreationDate,2023-09-08T17:32:34-05:00*%
%TF.ProjectId,Projects_zyxie2,50726f6a-6563-4747-935f-7a7978696532,rev?*%
%TF.SameCoordinates,Original*%
%TF.FileFunction,Copper,L2,Bot*%
%TF.FilePolarity,Positive*%
%FSLAX46Y46*%
G04 Gerber Fmt 4.6, Leading zero omitted, Abs format (unit mm)*
G04 Created by KiCad (PCBNEW 7.0.7) date 2023-09-08 17:32:34*
%MOMM*%
%LPD*%
G01*
G04 APERTURE LIST*
%TA.AperFunction,ComponentPad*%
%ADD10R,1.700000X1.700000*%
%TD*%
%TA.AperFunction,ComponentPad*%
%ADD11O,1.700000X1.700000*%
%TD*%
%TA.AperFunction,ComponentPad*%
%ADD12C,1.400000*%
%TD*%
%TA.AperFunction,ComponentPad*%
%ADD13O,1.400000X1.400000*%
%TD*%
%TA.AperFunction,ComponentPad*%
%ADD14C,0.700000*%
%TD*%
%TA.AperFunction,ComponentPad*%
%ADD15O,0.900000X2.400000*%
%TD*%
%TA.AperFunction,ComponentPad*%
%ADD16O,0.900000X1.700000*%
%TD*%
%TA.AperFunction,ComponentPad*%
%ADD17C,2.000000*%
%TD*%
G04 APERTURE END LIST*
D10*
%TO.P,J3,1,Pin_1*%
%TO.N,unconnected-(J3-Pin_1-Pad1)*%
X127000000Y-71120000D03*
D11*
%TO.P,J3,2,Pin_2*%
%TO.N,Net-(J3-Pin_2)*%
X129540000Y-71120000D03*
%TO.P,J3,3,Pin_3*%
%TO.N,unconnected-(J3-Pin_3-Pad3)*%
X127000000Y-73660000D03*
%TO.P,J3,4,Pin_4*%
%TO.N,Net-(J3-Pin_4)*%
X129540000Y-73660000D03*
%TO.P,J3,5,Pin_5*%
%TO.N,GND*%
X127000000Y-76200000D03*
%TO.P,J3,6,Pin_6*%
X129540000Y-76200000D03*
%TO.P,J3,7,Pin_7*%
%TO.N,unconnected-(J3-Pin_7-Pad7)*%
X127000000Y-78740000D03*
%TO.P,J3,8,Pin_8*%
%TO.N,unconnected-(J3-Pin_8-Pad8)*%
X129540000Y-78740000D03*
%TO.P,J3,9,Pin_9*%
%TO.N,unconnected-(J3-Pin_9-Pad9)*%
X127000000Y-81280000D03*
%TO.P,J3,10,Pin_10*%
%TO.N,unconnected-(J3-Pin_10-Pad10)*%
X129540000Y-81280000D03*
%TD*%
D10*
%TO.P,J1,1,Pin_1*%
%TO.N,unconnected-(J1-Pin_1-Pad1)*%
X106680000Y-81280000D03*
D11*
%TO.P,J1,2,Pin_2*%
%TO.N,Net-(J1-Pin_2)*%
X106680000Y-83820000D03*
%TO.P,J1,3,Pin_3*%
%TO.N,Net-(J1-Pin_3)*%
X106680000Y-86360000D03*
%TO.P,J1,4,Pin_4*%
%TO.N,unconnected-(J1-Pin_4-Pad4)*%
X106680000Y-88900000D03*
%TO.P,J1,5,Pin_5*%
%TO.N,unconnected-(J1-Pin_5-Pad5)*%
X106680000Y-91440000D03*
%TO.P,J1,6,Pin_6*%
%TO.N,GND*%
X106680000Y-93980000D03*
%TD*%
D10*
%TO.P,J2,1,Pin_1*%
%TO.N,GND*%
X127000000Y-86360000D03*
D11*
%TO.P,J2,2,Pin_2*%
%TO.N,Net-(J2-Pin_2)*%
X127000000Y-88900000D03*
%TO.P,J2,3,Pin_3*%
%TO.N,Net-(J2-Pin_3)*%
X127000000Y-91440000D03*
%TD*%
D12*
%TO.P,R1,1*%
%TO.N,Net-(D1-A)*%
X121920000Y-91440000D03*
D13*
%TO.P,R1,2*%
%TO.N,Net-(U1-PB0)*%
X119380000Y-91440000D03*
%TD*%
D14*
%TO.P,J4,A1,GND*%
%TO.N,GND*%
X99380000Y-103160000D03*
%TO.P,J4,A4,VBUS*%
%TO.N,+5V*%
X100230000Y-103160000D03*
%TO.P,J4,A5,CC1*%
%TO.N,unconnected-(J4-CC1-PadA5)*%
X101080000Y-103160000D03*
%TO.P,J4,A6,D+*%
%TO.N,unconnected-(J4-D+-PadA6)*%
X101930000Y-103160000D03*
%TO.P,J4,A7,D-*%
%TO.N,unconnected-(J4-D--PadA7)*%
X102780000Y-103160000D03*
%TO.P,J4,A8,SBU1*%
%TO.N,unconnected-(J4-SBU1-PadA8)*%
X103630000Y-103160000D03*
%TO.P,J4,A9,VBUS*%
%TO.N,+5V*%
X104480000Y-103160000D03*
%TO.P,J4,A12,GND*%
%TO.N,GND*%
X105330000Y-103160000D03*
%TO.P,J4,B1,GND*%
X105330000Y-104510000D03*
%TO.P,J4,B4,VBUS*%
%TO.N,+5V*%
X104480000Y-104510000D03*
%TO.P,J4,B5,CC2*%
%TO.N,unconnected-(J4-CC2-PadB5)*%
X103630000Y-104510000D03*
%TO.P,J4,B6,D+*%
%TO.N,unconnected-(J4-D+-PadB6)*%
X102780000Y-104510000D03*
%TO.P,J4,B7,D-*%
%TO.N,unconnected-(J4-D--PadB7)*%
X101930000Y-104510000D03*
%TO.P,J4,B8,SBU2*%
%TO.N,unconnected-(J4-SBU2-PadB8)*%
X101080000Y-104510000D03*
%TO.P,J4,B9,VBUS*%
%TO.N,+5V*%
X100230000Y-104510000D03*
%TO.P,J4,B12,GND*%
%TO.N,GND*%
X99380000Y-104510000D03*
D15*
%TO.P,J4,S1,SHIELD*%
X98030000Y-104140000D03*
D16*
X98030000Y-107520000D03*
D15*
X106680000Y-104140000D03*
D16*
X106680000Y-107520000D03*
%TD*%
D17*
%TO.P,SW1,1,1*%
%TO.N,Net-(U1-NRST)*%
X109220000Y-73080000D03*
X102720000Y-73080000D03*
%TO.P,SW1,2,2*%
%TO.N,GND*%
X109220000Y-68580000D03*
X102720000Y-68580000D03*
%TD*%
%TA.AperFunction,Conductor*%
%TO.N,+3V3*%
G36*
X128354854Y-79406546D02*
G01*
X128371574Y-79425841D01*
X128501505Y-79611401D01*
X128501506Y-79611402D01*
X128668597Y-79778493D01*
X128668603Y-79778498D01*
X128854158Y-79908425D01*
X128897783Y-79963002D01*
X128904977Y-80032500D01*
X128873454Y-80094855D01*
X128854158Y-80111575D01*
X128668597Y-80241505D01*
X128501508Y-80408594D01*
X128371574Y-80594159D01*
X128316997Y-80637784D01*
X128247498Y-80644976D01*
X128185144Y-80613454D01*
X128168424Y-80594158D01*
X128038494Y-80408597D01*
X127871402Y-80241506D01*
X127871396Y-80241501D01*
X127685842Y-80111575D01*
X127642217Y-80056998D01*
X127635023Y-79987500D01*
X127666546Y-79925145D01*
X127685842Y-79908425D01*
X127708026Y-79892891D01*
X127871401Y-79778495D01*
X128038495Y-79611401D01*
X128168426Y-79425840D01*
X128223001Y-79382217D01*
X128292499Y-79375023D01*
X128354854Y-79406546D01*
G37*
%TD.AperFunction*%
%TA.AperFunction,Conductor*%
G36*
X128354854Y-76866546D02*
G01*
X128371574Y-76885841D01*
X128501505Y-77071401D01*
X128501506Y-77071402D01*
X128668597Y-77238493D01*
X128668603Y-77238498D01*
X128854158Y-77368425D01*
X128897783Y-77423002D01*
X128904977Y-77492500D01*
X128873454Y-77554855D01*
X128854158Y-77571575D01*
X128668597Y-77701505D01*
X128501505Y-77868597D01*
X128371575Y-78054158D01*
X128316998Y-78097783D01*
X128247500Y-78104977D01*
X128185145Y-78073454D01*
X128168425Y-78054158D01*
X128038494Y-77868597D01*
X127871402Y-77701506D01*
X127871396Y-77701501D01*
X127685842Y-77571575D01*
X127642217Y-77516998D01*
X127635023Y-77447500D01*
X127666546Y-77385145D01*
X127685842Y-77368425D01*
X127708026Y-77352891D01*
X127871401Y-77238495D01*
X128038495Y-77071401D01*
X128168426Y-76885840D01*
X128223001Y-76842217D01*
X128292499Y-76835023D01*
X128354854Y-76866546D01*
G37*
%TD.AperFunction*%
%TA.AperFunction,Conductor*%
G36*
X128354854Y-74326546D02*
G01*
X128371574Y-74345841D01*
X128501505Y-74531401D01*
X128501506Y-74531402D01*
X128668597Y-74698493D01*
X128668603Y-74698498D01*
X128854158Y-74828425D01*
X128897783Y-74883002D01*
X128904977Y-74952500D01*
X128873454Y-75014855D01*
X128854158Y-75031575D01*
X128668597Y-75161505D01*
X128501505Y-75328597D01*
X128371575Y-75514158D01*
X128316998Y-75557783D01*
X128247500Y-75564977D01*
X128185145Y-75533454D01*
X128168425Y-75514158D01*
X128038494Y-75328597D01*
X127871402Y-75161506D01*
X127871396Y-75161501D01*
X127685842Y-75031575D01*
X127642217Y-74976998D01*
X127635023Y-74907500D01*
X127666546Y-74845145D01*
X127685842Y-74828425D01*
X127708026Y-74812891D01*
X127871401Y-74698495D01*
X128038495Y-74531401D01*
X128168426Y-74345840D01*
X128223001Y-74302217D01*
X128292499Y-74295023D01*
X128354854Y-74326546D01*
G37*
%TD.AperFunction*%
%TA.AperFunction,Conductor*%
G36*
X128518418Y-72015417D02*
G01*
X128546673Y-72036569D01*
X128668597Y-72158493D01*
X128668603Y-72158498D01*
X128854158Y-72288425D01*
X128897783Y-72343002D01*
X128904977Y-72412500D01*
X128873454Y-72474855D01*
X128854158Y-72491575D01*
X128668597Y-72621505D01*
X128501505Y-72788597D01*
X128371575Y-72974158D01*
X128316998Y-73017783D01*
X128247500Y-73024977D01*
X128185145Y-72993454D01*
X128168425Y-72974158D01*
X128038496Y-72788600D01*
X128038493Y-72788597D01*
X127916567Y-72666671D01*
X127883084Y-72605351D01*
X127888068Y-72535659D01*
X127929939Y-72479725D01*
X127960915Y-72462810D01*
X128092331Y-72413796D01*
X128207546Y-72327546D01*
X128293796Y-72212331D01*
X128342810Y-72080916D01*
X128384681Y-72024984D01*
X128450145Y-72000566D01*
X128518418Y-72015417D01*
G37*
%TD.AperFunction*%
%TA.AperFunction,Conductor*%
G36*
X137103039Y-66059685D02*
G01*
X137148794Y-66112489D01*
X137160000Y-66164000D01*
X137160000Y-116716000D01*
X137140315Y-116783039D01*
X137087511Y-116828794D01*
X137036000Y-116840000D01*
X94104000Y-116840000D01*
X94036961Y-116820315D01*
X93991206Y-116767511D01*
X93980000Y-116716000D01*
X93980000Y-107968207D01*
X97079500Y-107968207D01*
X97094154Y-108112322D01*
X97152022Y-108296759D01*
X97152029Y-108296774D01*
X97245839Y-108465788D01*
X97245842Y-108465793D01*
X97371758Y-108612466D01*
X97371759Y-108612468D01*
X97524624Y-108730794D01*
X97524627Y-108730796D01*
X97698184Y-108815930D01*
X97698188Y-108815931D01*
X97698186Y-108815931D01*
X97885317Y-108864383D01*
X97885320Y-108864383D01*
X97885326Y-108864385D01*
X98078390Y-108874176D01*
X98269474Y-108844903D01*
X98450753Y-108777764D01*
X98614807Y-108675509D01*
X98754919Y-108542323D01*
X98865353Y-108383658D01*
X98941587Y-108206012D01*
X98980500Y-108016656D01*
X98980500Y-107968207D01*
X105729500Y-107968207D01*
X105744154Y-108112322D01*
X105802022Y-108296759D01*
X105802029Y-108296774D01*
X105895839Y-108465788D01*
X105895842Y-108465793D01*
X106021758Y-108612466D01*
X106021759Y-108612468D01*
X106174624Y-108730794D01*
X106174627Y-108730796D01*
X106348184Y-108815930D01*
X106348188Y-108815931D01*
X106348186Y-108815931D01*
X106535317Y-108864383D01*
X106535320Y-108864383D01*
X106535326Y-108864385D01*
X106728390Y-108874176D01*
X106919474Y-108844903D01*
X107100753Y-108777764D01*
X107264807Y-108675509D01*
X107404919Y-108542323D01*
X107515353Y-108383658D01*
X107591587Y-108206012D01*
X107630500Y-108016656D01*
X107630500Y-107071794D01*
X107615845Y-106927679D01*
X107615845Y-106927677D01*
X107557977Y-106743240D01*
X107557975Y-106743236D01*
X107557974Y-106743232D01*
X107464159Y-106574209D01*
X107464158Y-106574208D01*
X107464157Y-106574206D01*
X107338241Y-106427533D01*
X107338240Y-106427531D01*
X107185375Y-106309205D01*
X107185371Y-106309203D01*
X107178396Y-106305781D01*
X107011816Y-106224070D01*
X107011814Y-106224069D01*
X107011811Y-106224068D01*
X107011813Y-106224068D01*
X106824682Y-106175616D01*
X106824676Y-106175615D01*
X106695964Y-106169087D01*
X106631610Y-106165824D01*
X106631609Y-106165824D01*
X106631607Y-106165824D01*
X106440533Y-106195095D01*
X106440521Y-106195098D01*
X106259251Y-106262234D01*
X106259242Y-106262238D01*
X106095196Y-106364488D01*
X105955080Y-106497677D01*
X105844646Y-106656342D01*
X105768413Y-106833987D01*
X105729500Y-107023343D01*
X105729500Y-107968207D01*
X98980500Y-107968207D01*
X98980500Y-107071794D01*
X98965845Y-106927679D01*
X98965845Y-106927677D01*
X98907977Y-106743240D01*
X98907975Y-106743236D01*
X98907974Y-106743232D01*
X98814159Y-106574209D01*
X98814158Y-106574208D01*
X98814157Y-106574206D01*
X98688241Y-106427533D01*
X98688240Y-106427531D01*
X98535375Y-106309205D01*
X98535371Y-106309203D01*
X98528396Y-106305781D01*
X98361816Y-106224070D01*
X98361814Y-106224069D01*
X98361811Y-106224068D01*
X98361813Y-106224068D01*
X98174682Y-106175616D01*
X98174676Y-106175615D01*
X98045964Y-106169087D01*
X97981610Y-106165824D01*
X97981609Y-106165824D01*
X97981607Y-106165824D01*
X97790533Y-106195095D01*
X97790521Y-106195098D01*
X97609251Y-106262234D01*
X97609242Y-106262238D01*
X97445196Y-106364488D01*
X97305080Y-106497677D01*
X97194646Y-106656342D01*
X97118413Y-106833987D01*
X97079500Y-107023343D01*
X97079500Y-107968207D01*
X93980000Y-107968207D01*
X93980000Y-104938207D01*
X97079500Y-104938207D01*
X97094154Y-105082322D01*
X97152022Y-105266759D01*
X97152029Y-105266774D01*
X97245839Y-105435788D01*
X97245842Y-105435793D01*
X97371758Y-105582466D01*
X97371759Y-105582468D01*
X97524624Y-105700794D01*
X97524627Y-105700796D01*
X97698184Y-105785930D01*
X97698188Y-105785931D01*
X97698186Y-105785931D01*
X97885317Y-105834383D01*
X97885320Y-105834383D01*
X97885326Y-105834385D01*
X98078390Y-105844176D01*
X98269474Y-105814903D01*
X98450753Y-105747764D01*
X98614807Y-105645509D01*
X98754919Y-105512323D01*
X98865353Y-105353658D01*
X98866878Y-105350103D01*
X98868240Y-105348455D01*
X98868406Y-105348158D01*
X98868461Y-105348188D01*
X98911402Y-105296260D01*
X98977970Y-105275034D01*
X99031262Y-105285720D01*
X99115733Y-105323329D01*
X99290609Y-105360500D01*
X99290610Y-105360500D01*
X99469389Y-105360500D01*
X99469391Y-105360500D01*
X99644267Y-105323329D01*
X99705065Y-105296260D01*
X99754563Y-105274222D01*
X99823813Y-105264937D01*
X99855434Y-105274221D01*
X99965733Y-105323329D01*
X100140609Y-105360500D01*
X100140610Y-105360500D01*
X100319389Y-105360500D01*
X100319391Y-105360500D01*
X100494267Y-105323329D01*
X100555065Y-105296260D01*
X100604563Y-105274222D01*
X100673813Y-105264937D01*
X100705434Y-105274221D01*
X100815733Y-105323329D01*
X100990609Y-105360500D01*
X100990610Y-105360500D01*
X101169389Y-105360500D01*
X101169391Y-105360500D01*
X101344267Y-105323329D01*
X101405065Y-105296260D01*
X101454563Y-105274222D01*
X101523813Y-105264937D01*
X101555434Y-105274221D01*
X101665733Y-105323329D01*
X101840609Y-105360500D01*
X101840610Y-105360500D01*
X102019389Y-105360500D01*
X102019391Y-105360500D01*
X102194267Y-105323329D01*
X102304565Y-105274220D01*
X102373814Y-105264937D01*
X102405432Y-105274219D01*
X102515733Y-105323329D01*
X102690609Y-105360500D01*
X102690610Y-105360500D01*
X102869389Y-105360500D01*
X102869391Y-105360500D01*
X103044267Y-105323329D01*
X103154565Y-105274220D01*
X103223814Y-105264937D01*
X103255432Y-105274219D01*
X103365733Y-105323329D01*
X103540609Y-105360500D01*
X103540610Y-105360500D01*
X103719389Y-105360500D01*
X103719391Y-105360500D01*
X103894267Y-105323329D01*
X104004565Y-105274220D01*
X104073814Y-105264937D01*
X104105432Y-105274219D01*
X104215733Y-105323329D01*
X104390609Y-105360500D01*
X104390610Y-105360500D01*
X104569389Y-105360500D01*
X104569391Y-105360500D01*
X104744267Y-105323329D01*
X104854565Y-105274220D01*
X104923814Y-105264937D01*
X104955432Y-105274219D01*
X105065733Y-105323329D01*
X105240609Y-105360500D01*
X105240610Y-105360500D01*
X105419389Y-105360500D01*
X105419391Y-105360500D01*
X105594267Y-105323329D01*
X105682288Y-105284139D01*
X105751536Y-105274855D01*
X105814813Y-105304483D01*
X105841141Y-105337241D01*
X105850254Y-105353659D01*
X105895839Y-105435788D01*
X105895842Y-105435792D01*
X105895842Y-105435793D01*
X106021758Y-105582466D01*
X106021759Y-105582468D01*
X106174624Y-105700794D01*
X106174627Y-105700796D01*
X106348184Y-105785930D01*
X106348188Y-105785931D01*
X106348186Y-105785931D01*
X106535317Y-105834383D01*
X106535320Y-105834383D01*
X106535326Y-105834385D01*
X106728390Y-105844176D01*
X106919474Y-105814903D01*
X107100753Y-105747764D01*
X107264807Y-105645509D01*
X107404919Y-105512323D01*
X107515353Y-105353658D01*
X107591587Y-105176012D01*
X107630500Y-104986656D01*
X107630500Y-103341794D01*
X107615845Y-103197679D01*
X107615845Y-103197677D01*
X107557977Y-103013240D01*
X107557975Y-103013236D01*
X107557974Y-103013232D01*
X107464159Y-102844209D01*
X107464158Y-102844208D01*
X107464157Y-102844206D01*
X107338241Y-102697533D01*
X107338240Y-102697531D01*
X107185375Y-102579205D01*
X107185371Y-102579203D01*
X107178396Y-102575781D01*
X107011816Y-102494070D01*
X107011814Y-102494069D01*
X107011811Y-102494068D01*
X107011813Y-102494068D01*
X106824682Y-102445616D01*
X106824676Y-102445615D01*
X106695964Y-102439087D01*
X106631610Y-102435824D01*
X106631609Y-102435824D01*
X106631607Y-102435824D01*
X106440533Y-102465095D01*
X106440521Y-102465098D01*
X106259251Y-102532234D01*
X106259245Y-102532237D01*
X106123243Y-102617006D01*
X106055938Y-102635761D01*
X105989177Y-102615151D01*
X105965503Y-102594745D01*
X105902235Y-102524478D01*
X105902232Y-102524476D01*
X105902231Y-102524475D01*
X105902230Y-102524474D01*
X105757593Y-102419388D01*
X105594267Y-102346671D01*
X105594265Y-102346670D01*
X105466594Y-102319533D01*
X105419391Y-102309500D01*
X105240609Y-102309500D01*
X105203438Y-102317400D01*
X105065734Y-102346670D01*
X105065729Y-102346672D01*
X104955434Y-102395778D01*
X104886184Y-102405062D01*
X104854566Y-102395778D01*
X104744270Y-102346672D01*
X104744265Y-102346670D01*
X104616594Y-102319533D01*
X104569391Y-102309500D01*
X104390609Y-102309500D01*
X104353438Y-102317400D01*
X104215734Y-102346670D01*
X104215729Y-102346672D01*
X104105433Y-102395778D01*
X104036183Y-102405062D01*
X104004565Y-102395778D01*
X103894267Y-102346671D01*
X103894265Y-102346670D01*
X103766594Y-102319533D01*
X103719391Y-102309500D01*
X103540609Y-102309500D01*
X103503439Y-102317400D01*
X103365734Y-102346670D01*
X103365729Y-102346672D01*
X103255434Y-102395778D01*
X103186184Y-102405062D01*
X103154566Y-102395778D01*
X103044270Y-102346672D01*
X103044265Y-102346670D01*
X102916594Y-102319533D01*
X102869391Y-102309500D01*
X102690609Y-102309500D01*
X102653438Y-102317400D01*
X102515734Y-102346670D01*
X102515729Y-102346672D01*
X102405434Y-102395778D01*
X102336184Y-102405062D01*
X102304566Y-102395778D01*
X102194270Y-102346672D01*
X102194265Y-102346670D01*
X102066594Y-102319533D01*
X102019391Y-102309500D01*
X101840609Y-102309500D01*
X101803438Y-102317400D01*
X101665734Y-102346670D01*
X101665729Y-102346672D01*
X101555434Y-102395778D01*
X101486184Y-102405062D01*
X101454566Y-102395778D01*
X101344270Y-102346672D01*
X101344265Y-102346670D01*
X101216594Y-102319533D01*
X101169391Y-102309500D01*
X100990609Y-102309500D01*
X100953439Y-102317400D01*
X100815734Y-102346670D01*
X100815729Y-102346672D01*
X100705434Y-102395778D01*
X100636184Y-102405062D01*
X100604566Y-102395778D01*
X100494270Y-102346672D01*
X100494265Y-102346670D01*
X100366594Y-102319533D01*
X100319391Y-102309500D01*
X100140609Y-102309500D01*
X100103439Y-102317400D01*
X99965734Y-102346670D01*
X99965729Y-102346672D01*
X99855434Y-102395778D01*
X99786184Y-102405062D01*
X99754566Y-102395778D01*
X99644270Y-102346672D01*
X99644265Y-102346670D01*
X99516594Y-102319533D01*
X99469391Y-102309500D01*
X99290609Y-102309500D01*
X99259954Y-102316015D01*
X99115733Y-102346670D01*
X99115728Y-102346672D01*
X98952408Y-102419387D01*
X98807768Y-102524475D01*
X98743876Y-102595434D01*
X98684389Y-102632082D01*
X98614532Y-102630751D01*
X98575829Y-102610519D01*
X98535373Y-102579204D01*
X98361816Y-102494070D01*
X98361814Y-102494069D01*
X98361811Y-102494068D01*
X98361813Y-102494068D01*
X98174682Y-102445616D01*
X98174676Y-102445615D01*
X98045964Y-102439087D01*
X97981610Y-102435824D01*
X97981609Y-102435824D01*
X97981607Y-102435824D01*
X97790533Y-102465095D01*
X97790521Y-102465098D01*
X97609251Y-102532234D01*
X97609242Y-102532238D01*
X97445196Y-102634488D01*
X97305080Y-102767677D01*
X97194646Y-102926342D01*
X97118413Y-103103987D01*
X97079500Y-103293343D01*
X97079500Y-104938207D01*
X93980000Y-104938207D01*
X93980000Y-93980000D01*
X105324341Y-93980000D01*
X105344936Y-94215403D01*
X105344938Y-94215413D01*
X105406094Y-94443655D01*
X105406096Y-94443659D01*
X105406097Y-94443663D01*
X105505964Y-94657829D01*
X105505965Y-94657830D01*
X105505967Y-94657834D01*
X105614281Y-94812521D01*
X105641505Y-94851401D01*
X105808599Y-95018495D01*
X105905384Y-95086264D01*
X106002165Y-95154032D01*
X106002167Y-95154033D01*
X106002170Y-95154035D01*
X106216337Y-95253903D01*
X106444592Y-95315063D01*
X106632918Y-95331539D01*
X106679999Y-95335659D01*
X106680000Y-95335659D01*
X106680001Y-95335659D01*
X106719234Y-95332226D01*
X106915408Y-95315063D01*
X107143663Y-95253903D01*
X107357830Y-95154035D01*
X107551401Y-95018495D01*
X107718495Y-94851401D01*
X107854035Y-94657830D01*
X107953903Y-94443663D01*
X108015063Y-94215408D01*
X108035659Y-93980000D01*
X108015063Y-93744592D01*
X107953903Y-93516337D01*
X107854035Y-93302171D01*
X107718495Y-93108599D01*
X107718494Y-93108597D01*
X107551402Y-92941506D01*
X107551396Y-92941501D01*
X107365842Y-92811575D01*
X107322217Y-92756998D01*
X107315023Y-92687500D01*
X107346546Y-92625145D01*
X107365842Y-92608425D01*
X107493204Y-92519245D01*
X107551401Y-92478495D01*
X107718495Y-92311401D01*
X107854035Y-92117830D01*
X107953903Y-91903663D01*
X108015063Y-91675408D01*
X108035659Y-91440000D01*
X118174357Y-91440000D01*
X118194884Y-91661535D01*
X118194885Y-91661537D01*
X118255769Y-91875523D01*
X118255775Y-91875538D01*
X118354938Y-92074683D01*
X118354943Y-92074691D01*
X118489020Y-92252238D01*
X118653437Y-92402123D01*
X118653439Y-92402125D01*
X118842595Y-92519245D01*
X118842596Y-92519245D01*
X118842599Y-92519247D01*
X119050060Y-92599618D01*
X119268757Y-92640500D01*
X119268759Y-92640500D01*
X119491241Y-92640500D01*
X119491243Y-92640500D01*
X119709940Y-92599618D01*
X119917401Y-92519247D01*
X120106562Y-92402124D01*
X120270981Y-92252236D01*
X120405058Y-92074689D01*
X120504229Y-91875528D01*
X120530734Y-91782371D01*
X120568013Y-91723278D01*
X120631323Y-91693721D01*
X120700562Y-91703083D01*
X120753749Y-91748393D01*
X120769266Y-91782372D01*
X120795769Y-91875523D01*
X120795775Y-91875538D01*
X120894938Y-92074683D01*
X120894943Y-92074691D01*
X121029020Y-92252238D01*
X121193437Y-92402123D01*
X121193439Y-92402125D01*
X121382595Y-92519245D01*
X121382596Y-92519245D01*
X121382599Y-92519247D01*
X121590060Y-92599618D01*
X121808757Y-92640500D01*
X121808759Y-92640500D01*
X122031241Y-92640500D01*
X122031243Y-92640500D01*
X122249940Y-92599618D01*
X122457401Y-92519247D01*
X122646562Y-92402124D01*
X122810981Y-92252236D01*
X122945058Y-92074689D01*
X123044229Y-91875528D01*
X123105115Y-91661536D01*
X123125643Y-91440000D01*
X125644341Y-91440000D01*
X125664936Y-91675403D01*
X125664938Y-91675413D01*
X125726094Y-91903655D01*
X125726096Y-91903659D01*
X125726097Y-91903663D01*
X125805845Y-92074683D01*
X125825965Y-92117830D01*
X125825967Y-92117834D01*
X125934281Y-92272521D01*
X125961505Y-92311401D01*
X126128599Y-92478495D01*
X126186796Y-92519245D01*
X126322165Y-92614032D01*
X126322167Y-92614033D01*
X126322170Y-92614035D01*
X126536337Y-92713903D01*
X126764592Y-92775063D01*
X126952918Y-92791539D01*
X126999999Y-92795659D01*
X127000000Y-92795659D01*
X127000001Y-92795659D01*
X127039234Y-92792226D01*
X127235408Y-92775063D01*
X127463663Y-92713903D01*
X127677830Y-92614035D01*
X127871401Y-92478495D01*
X128038495Y-92311401D01*
X128174035Y-92117830D01*
X128273903Y-91903663D01*
X128335063Y-91675408D01*
X128355659Y-91440000D01*
X128335063Y-91204592D01*
X128273903Y-90976337D01*
X128174035Y-90762171D01*
X128038495Y-90568599D01*
X128038494Y-90568597D01*
X127871402Y-90401506D01*
X127871401Y-90401505D01*
X127685842Y-90271575D01*
X127685841Y-90271574D01*
X127642216Y-90216997D01*
X127635024Y-90147498D01*
X127666546Y-90085144D01*
X127685836Y-90068428D01*
X127871401Y-89938495D01*
X128038495Y-89771401D01*
X128174035Y-89577830D01*
X128273903Y-89363663D01*
X128335063Y-89135408D01*
X128355659Y-88900000D01*
X128335063Y-88664592D01*
X128273903Y-88436337D01*
X128174035Y-88222171D01*
X128038495Y-88028599D01*
X127916567Y-87906671D01*
X127883084Y-87845351D01*
X127888068Y-87775659D01*
X127929939Y-87719725D01*
X127960915Y-87702810D01*
X128092331Y-87653796D01*
X128207546Y-87567546D01*
X128293796Y-87452331D01*
X128344091Y-87317483D01*
X128350500Y-87257873D01*
X128350499Y-85462128D01*
X128344091Y-85402517D01*
X128293796Y-85267669D01*
X128293795Y-85267668D01*
X128293793Y-85267664D01*
X128207547Y-85152455D01*
X128207544Y-85152452D01*
X128092335Y-85066206D01*
X128092328Y-85066202D01*
X127957482Y-85015908D01*
X127957483Y-85015908D01*
X127897883Y-85009501D01*
X127897881Y-85009500D01*
X127897873Y-85009500D01*
X127897864Y-85009500D01*
X126102129Y-85009500D01*
X126102123Y-85009501D01*
X126042516Y-85015908D01*
X125907671Y-85066202D01*
X125907664Y-85066206D01*
X125792455Y-85152452D01*
X125792452Y-85152455D01*
X125706206Y-85267664D01*
X125706202Y-85267671D01*
X125655908Y-85402517D01*
X125649501Y-85462116D01*
X125649501Y-85462123D01*
X125649500Y-85462135D01*
X125649500Y-87257870D01*
X125649501Y-87257876D01*
X125655908Y-87317483D01*
X125706202Y-87452328D01*
X125706206Y-87452335D01*
X125792452Y-87567544D01*
X125792455Y-87567547D01*
X125907664Y-87653793D01*
X125907671Y-87653797D01*
X126039081Y-87702810D01*
X126095015Y-87744681D01*
X126119432Y-87810145D01*
X126104580Y-87878418D01*
X126083430Y-87906673D01*
X125961503Y-88028600D01*
X125825965Y-88222169D01*
X125825964Y-88222171D01*
X125726098Y-88436335D01*
X125726094Y-88436344D01*
X125664938Y-88664586D01*
X125664936Y-88664596D01*
X125644341Y-88899999D01*
X125644341Y-88900000D01*
X125664936Y-89135403D01*
X125664938Y-89135413D01*
X125726094Y-89363655D01*
X125726096Y-89363659D01*
X125726097Y-89363663D01*
X125825964Y-89577829D01*
X125825965Y-89577830D01*
X125825967Y-89577834D01*
X125961501Y-89771395D01*
X125961506Y-89771402D01*
X126128597Y-89938493D01*
X126128603Y-89938498D01*
X126314158Y-90068425D01*
X126357783Y-90123002D01*
X126364977Y-90192500D01*
X126333454Y-90254855D01*
X126314158Y-90271575D01*
X126128597Y-90401505D01*
X125961505Y-90568597D01*
X125825965Y-90762169D01*
X125825964Y-90762171D01*
X125726098Y-90976335D01*
X125726094Y-90976344D01*
X125664938Y-91204586D01*
X125664936Y-91204596D01*
X125644341Y-91439999D01*
X125644341Y-91440000D01*
X123125643Y-91440000D01*
X123105115Y-91218464D01*
X123044229Y-91004472D01*
X123030223Y-90976344D01*
X122945061Y-90805316D01*
X122945056Y-90805308D01*
X122810979Y-90627761D01*
X122646562Y-90477876D01*
X122646560Y-90477874D01*
X122457404Y-90360754D01*
X122457398Y-90360752D01*
X122249940Y-90280382D01*
X122031243Y-90239500D01*
X121808757Y-90239500D01*
X121590060Y-90280382D01*
X121458864Y-90331207D01*
X121382601Y-90360752D01*
X121382595Y-90360754D01*
X121193439Y-90477874D01*
X121193437Y-90477876D01*
X121029020Y-90627761D01*
X120894943Y-90805308D01*
X120894938Y-90805316D01*
X120795775Y-91004461D01*
X120795769Y-91004476D01*
X120769266Y-91097627D01*
X120731987Y-91156721D01*
X120668677Y-91186278D01*
X120599438Y-91176916D01*
X120546251Y-91131606D01*
X120530734Y-91097627D01*
X120504230Y-91004476D01*
X120504229Y-91004472D01*
X120490223Y-90976344D01*
X120405061Y-90805316D01*
X120405056Y-90805308D01*
X120270979Y-90627761D01*
X120106562Y-90477876D01*
X120106560Y-90477874D01*
X119917404Y-90360754D01*
X119917398Y-90360752D01*
X119709940Y-90280382D01*
X119491243Y-90239500D01*
X119268757Y-90239500D01*
X119050060Y-90280382D01*
X118918864Y-90331207D01*
X118842601Y-90360752D01*
X118842595Y-90360754D01*
X118653439Y-90477874D01*
X118653437Y-90477876D01*
X118489020Y-90627761D01*
X118354943Y-90805308D01*
X118354938Y-90805316D01*
X118255775Y-91004461D01*
X118255769Y-91004476D01*
X118194885Y-91218462D01*
X118194884Y-91218464D01*
X118174357Y-91439999D01*
X118174357Y-91440000D01*
X108035659Y-91440000D01*
X108015063Y-91204592D01*
X107953903Y-90976337D01*
X107854035Y-90762171D01*
X107718495Y-90568599D01*
X107718494Y-90568597D01*
X107551402Y-90401506D01*
X107551401Y-90401505D01*
X107365842Y-90271575D01*
X107365841Y-90271574D01*
X107322216Y-90216997D01*
X107315024Y-90147498D01*
X107346546Y-90085144D01*
X107365836Y-90068428D01*
X107551401Y-89938495D01*
X107718495Y-89771401D01*
X107854035Y-89577830D01*
X107953903Y-89363663D01*
X108015063Y-89135408D01*
X108035659Y-88900000D01*
X108015063Y-88664592D01*
X107953903Y-88436337D01*
X107854035Y-88222171D01*
X107718495Y-88028599D01*
X107718494Y-88028597D01*
X107551402Y-87861506D01*
X107551396Y-87861501D01*
X107365842Y-87731575D01*
X107322217Y-87676998D01*
X107315023Y-87607500D01*
X107346546Y-87545145D01*
X107365842Y-87528425D01*
X107388026Y-87512891D01*
X107551401Y-87398495D01*
X107718495Y-87231401D01*
X107854035Y-87037830D01*
X107953903Y-86823663D01*
X108015063Y-86595408D01*
X108035659Y-86360000D01*
X108015063Y-86124592D01*
X107953903Y-85896337D01*
X107854035Y-85682171D01*
X107718495Y-85488599D01*
X107718494Y-85488597D01*
X107551402Y-85321506D01*
X107551401Y-85321505D01*
X107365842Y-85191575D01*
X107365841Y-85191574D01*
X107322216Y-85136997D01*
X107315024Y-85067498D01*
X107346546Y-85005144D01*
X107365836Y-84988428D01*
X107551401Y-84858495D01*
X107718495Y-84691401D01*
X107854035Y-84497830D01*
X107953903Y-84283663D01*
X108015063Y-84055408D01*
X108035659Y-83820000D01*
X108015063Y-83584592D01*
X107953903Y-83356337D01*
X107854035Y-83142171D01*
X107718495Y-82948599D01*
X107596567Y-82826671D01*
X107563084Y-82765351D01*
X107568068Y-82695659D01*
X107609939Y-82639725D01*
X107640915Y-82622810D01*
X107772331Y-82573796D01*
X107887546Y-82487546D01*
X107973796Y-82372331D01*
X108024091Y-82237483D01*
X108030500Y-82177873D01*
X108030499Y-81280000D01*
X125644341Y-81280000D01*
X125664936Y-81515403D01*
X125664938Y-81515413D01*
X125726094Y-81743655D01*
X125726096Y-81743659D01*
X125726097Y-81743663D01*
X125730000Y-81752032D01*
X125825965Y-81957830D01*
X125825967Y-81957834D01*
X125934281Y-82112521D01*
X125961505Y-82151401D01*
X126128599Y-82318495D01*
X126225384Y-82386264D01*
X126322165Y-82454032D01*
X126322167Y-82454033D01*
X126322170Y-82454035D01*
X126536337Y-82553903D01*
X126764592Y-82615063D01*
X126941034Y-82630500D01*
X126999999Y-82635659D01*
X127000000Y-82635659D01*
X127000001Y-82635659D01*
X127058966Y-82630500D01*
X127235408Y-82615063D01*
X127463663Y-82553903D01*
X127677830Y-82454035D01*
X127871401Y-82318495D01*
X128038495Y-82151401D01*
X128168426Y-81965840D01*
X128223001Y-81922217D01*
X128292499Y-81915023D01*
X128354854Y-81946546D01*
X128371574Y-81965841D01*
X128501505Y-82151401D01*
X128668599Y-82318495D01*
X128765384Y-82386264D01*
X128862165Y-82454032D01*
X128862167Y-82454033D01*
X128862170Y-82454035D01*
X129076337Y-82553903D01*
X129304592Y-82615063D01*
X129481034Y-82630500D01*
X129539999Y-82635659D01*
X129540000Y-82635659D01*
X129540001Y-82635659D01*
X129598966Y-82630500D01*
X129775408Y-82615063D01*
X130003663Y-82553903D01*
X130217830Y-82454035D01*
X130411401Y-82318495D01*
X130578495Y-82151401D01*
X130714035Y-81957830D01*
X130813903Y-81743663D01*
X130875063Y-81515408D01*
X130895659Y-81280000D01*
X130875063Y-81044592D01*
X130813903Y-80816337D01*
X130714035Y-80602171D01*
X130708425Y-80594158D01*
X130578494Y-80408597D01*
X130411402Y-80241506D01*
X130411396Y-80241501D01*
X130225842Y-80111575D01*
X130182217Y-80056998D01*
X130175023Y-79987500D01*
X130206546Y-79925145D01*
X130225842Y-79908425D01*
X130248026Y-79892891D01*
X130411401Y-79778495D01*
X130578495Y-79611401D01*
X130714035Y-79417830D01*
X130813903Y-79203663D01*
X130875063Y-78975408D01*
X130895659Y-78740000D01*
X130875063Y-78504592D01*
X130813903Y-78276337D01*
X130714035Y-78062171D01*
X130708425Y-78054158D01*
X130578494Y-77868597D01*
X130411402Y-77701506D01*
X130411396Y-77701501D01*
X130225842Y-77571575D01*
X130182217Y-77516998D01*
X130175023Y-77447500D01*
X130206546Y-77385145D01*
X130225842Y-77368425D01*
X130248026Y-77352891D01*
X130411401Y-77238495D01*
X130578495Y-77071401D01*
X130714035Y-76877830D01*
X130813903Y-76663663D01*
X130875063Y-76435408D01*
X130895659Y-76200000D01*
X130875063Y-75964592D01*
X130813903Y-75736337D01*
X130714035Y-75522171D01*
X130708425Y-75514158D01*
X130578494Y-75328597D01*
X130411402Y-75161506D01*
X130411396Y-75161501D01*
X130225842Y-75031575D01*
X130182217Y-74976998D01*
X130175023Y-74907500D01*
X130206546Y-74845145D01*
X130225842Y-74828425D01*
X130248026Y-74812891D01*
X130411401Y-74698495D01*
X130578495Y-74531401D01*
X130714035Y-74337830D01*
X130813903Y-74123663D01*
X130875063Y-73895408D01*
X130895659Y-73660000D01*
X130875063Y-73424592D01*
X130813903Y-73196337D01*
X130714035Y-72982171D01*
X130708425Y-72974158D01*
X130578494Y-72788597D01*
X130411402Y-72621506D01*
X130411396Y-72621501D01*
X130225842Y-72491575D01*
X130182217Y-72436998D01*
X130175023Y-72367500D01*
X130206546Y-72305145D01*
X130225842Y-72288425D01*
X130248026Y-72272891D01*
X130411401Y-72158495D01*
X130578495Y-71991401D01*
X130714035Y-71797830D01*
X130813903Y-71583663D01*
X130875063Y-71355408D01*
X130895659Y-71120000D01*
X130875063Y-70884592D01*
X130813903Y-70656337D01*
X130714035Y-70442171D01*
X130578495Y-70248599D01*
X130578494Y-70248597D01*
X130411402Y-70081506D01*
X130411395Y-70081501D01*
X130409965Y-70080500D01*
X130334518Y-70027671D01*
X130217834Y-69945967D01*
X130217830Y-69945965D01*
X130217829Y-69945964D01*
X130003663Y-69846097D01*
X130003659Y-69846096D01*
X130003655Y-69846094D01*
X129775413Y-69784938D01*
X129775403Y-69784936D01*
X129540001Y-69764341D01*
X129539999Y-69764341D01*
X129304596Y-69784936D01*
X129304586Y-69784938D01*
X129076344Y-69846094D01*
X129076335Y-69846098D01*
X128862171Y-69945964D01*
X128862169Y-69945965D01*
X128668600Y-70081503D01*
X128546673Y-70203430D01*
X128485350Y-70236914D01*
X128415658Y-70231930D01*
X128359725Y-70190058D01*
X128342810Y-70159081D01*
X128293797Y-70027671D01*
X128293793Y-70027664D01*
X128207547Y-69912455D01*
X128207544Y-69912452D01*
X128092335Y-69826206D01*
X128092328Y-69826202D01*
X127957482Y-69775908D01*
X127957483Y-69775908D01*
X127897883Y-69769501D01*
X127897881Y-69769500D01*
X127897873Y-69769500D01*
X127897864Y-69769500D01*
X126102129Y-69769500D01*
X126102123Y-69769501D01*
X126042516Y-69775908D01*
X125907671Y-69826202D01*
X125907664Y-69826206D01*
X125792455Y-69912452D01*
X125792452Y-69912455D01*
X125706206Y-70027664D01*
X125706202Y-70027671D01*
X125655908Y-70162517D01*
X125649501Y-70222116D01*
X125649500Y-70222135D01*
X125649500Y-72017870D01*
X125649501Y-72017876D01*
X125655908Y-72077483D01*
X125706202Y-72212328D01*
X125706206Y-72212335D01*
X125792452Y-72327544D01*
X125792455Y-72327547D01*
X125907664Y-72413793D01*
X125907671Y-72413797D01*
X126039081Y-72462810D01*
X126095015Y-72504681D01*
X126119432Y-72570145D01*
X126104580Y-72638418D01*
X126083430Y-72666673D01*
X125961503Y-72788600D01*
X125825965Y-72982169D01*
X125825964Y-72982171D01*
X125726098Y-73196335D01*
X125726094Y-73196344D01*
X125664938Y-73424586D01*
X125664936Y-73424596D01*
X125644341Y-73659999D01*
X125644341Y-73660000D01*
X125664936Y-73895403D01*
X125664938Y-73895413D01*
X125726094Y-74123655D01*
X125726096Y-74123659D01*
X125726097Y-74123663D01*
X125730000Y-74132032D01*
X125825965Y-74337830D01*
X125825967Y-74337834D01*
X125910688Y-74458827D01*
X125961504Y-74531400D01*
X125961506Y-74531402D01*
X126128597Y-74698493D01*
X126128603Y-74698498D01*
X126314158Y-74828425D01*
X126357783Y-74883002D01*
X126364977Y-74952500D01*
X126333454Y-75014855D01*
X126314158Y-75031575D01*
X126128597Y-75161505D01*
X125961505Y-75328597D01*
X125825965Y-75522169D01*
X125825964Y-75522171D01*
X125726098Y-75736335D01*
X125726094Y-75736344D01*
X125664938Y-75964586D01*
X125664936Y-75964596D01*
X125644341Y-76199999D01*
X125644341Y-76200000D01*
X125664936Y-76435403D01*
X125664938Y-76435413D01*
X125726094Y-76663655D01*
X125726096Y-76663659D01*
X125726097Y-76663663D01*
X125730000Y-76672032D01*
X125825965Y-76877830D01*
X125825967Y-76877834D01*
X125934281Y-77032521D01*
X125961504Y-77071400D01*
X125961506Y-77071402D01*
X126128597Y-77238493D01*
X126128603Y-77238498D01*
X126314158Y-77368425D01*
X126357783Y-77423002D01*
X126364977Y-77492500D01*
X126333454Y-77554855D01*
X126314158Y-77571575D01*
X126128597Y-77701505D01*
X125961505Y-77868597D01*
X125825965Y-78062169D01*
X125825964Y-78062171D01*
X125726098Y-78276335D01*
X125726094Y-78276344D01*
X125664938Y-78504586D01*
X125664936Y-78504596D01*
X125644341Y-78739999D01*
X125644341Y-78740000D01*
X125664936Y-78975403D01*
X125664938Y-78975413D01*
X125726094Y-79203655D01*
X125726096Y-79203659D01*
X125726097Y-79203663D01*
X125730000Y-79212032D01*
X125825965Y-79417830D01*
X125825967Y-79417834D01*
X125934281Y-79572521D01*
X125961504Y-79611400D01*
X125961506Y-79611402D01*
X126128597Y-79778493D01*
X126128603Y-79778498D01*
X126314158Y-79908425D01*
X126357783Y-79963002D01*
X126364977Y-80032500D01*
X126333454Y-80094855D01*
X126314158Y-80111575D01*
X126128597Y-80241505D01*
X125961505Y-80408597D01*
X125825965Y-80602169D01*
X125825964Y-80602171D01*
X125726098Y-80816335D01*
X125726094Y-80816344D01*
X125664938Y-81044586D01*
X125664936Y-81044596D01*
X125644341Y-81279999D01*
X125644341Y-81280000D01*
X108030499Y-81280000D01*
X108030499Y-80382128D01*
X108024091Y-80322517D01*
X107973796Y-80187669D01*
X107973795Y-80187668D01*
X107973793Y-80187664D01*
X107887547Y-80072455D01*
X107887544Y-80072452D01*
X107772335Y-79986206D01*
X107772328Y-79986202D01*
X107637482Y-79935908D01*
X107637483Y-79935908D01*
X107577883Y-79929501D01*
X107577881Y-79929500D01*
X107577873Y-79929500D01*
X107577864Y-79929500D01*
X105782129Y-79929500D01*
X105782123Y-79929501D01*
X105722516Y-79935908D01*
X105587671Y-79986202D01*
X105587664Y-79986206D01*
X105472455Y-80072452D01*
X105472452Y-80072455D01*
X105386206Y-80187664D01*
X105386202Y-80187671D01*
X105335908Y-80322517D01*
X105329501Y-80382116D01*
X105329501Y-80382123D01*
X105329500Y-80382135D01*
X105329500Y-82177870D01*
X105329501Y-82177876D01*
X105335908Y-82237483D01*
X105386202Y-82372328D01*
X105386206Y-82372335D01*
X105472452Y-82487544D01*
X105472455Y-82487547D01*
X105587664Y-82573793D01*
X105587671Y-82573797D01*
X105719081Y-82622810D01*
X105775015Y-82664681D01*
X105799432Y-82730145D01*
X105784580Y-82798418D01*
X105763430Y-82826673D01*
X105641503Y-82948600D01*
X105505965Y-83142169D01*
X105505964Y-83142171D01*
X105406098Y-83356335D01*
X105406094Y-83356344D01*
X105344938Y-83584586D01*
X105344936Y-83584596D01*
X105324341Y-83819999D01*
X105324341Y-83820000D01*
X105344936Y-84055403D01*
X105344938Y-84055413D01*
X105406094Y-84283655D01*
X105406096Y-84283659D01*
X105406097Y-84283663D01*
X105505964Y-84497829D01*
X105505965Y-84497830D01*
X105505967Y-84497834D01*
X105641501Y-84691395D01*
X105641506Y-84691402D01*
X105808597Y-84858493D01*
X105808603Y-84858498D01*
X105994158Y-84988425D01*
X106037783Y-85043002D01*
X106044977Y-85112500D01*
X106013454Y-85174855D01*
X105994158Y-85191575D01*
X105808597Y-85321505D01*
X105641505Y-85488597D01*
X105505965Y-85682169D01*
X105505964Y-85682171D01*
X105406098Y-85896335D01*
X105406094Y-85896344D01*
X105344938Y-86124586D01*
X105344936Y-86124596D01*
X105324341Y-86359999D01*
X105324341Y-86360000D01*
X105344936Y-86595403D01*
X105344938Y-86595413D01*
X105406094Y-86823655D01*
X105406096Y-86823659D01*
X105406097Y-86823663D01*
X105505965Y-87037830D01*
X105505967Y-87037834D01*
X105641501Y-87231395D01*
X105641506Y-87231402D01*
X105808597Y-87398493D01*
X105808603Y-87398498D01*
X105994158Y-87528425D01*
X106037783Y-87583002D01*
X106044977Y-87652500D01*
X106013454Y-87714855D01*
X105994158Y-87731575D01*
X105808597Y-87861505D01*
X105641505Y-88028597D01*
X105505965Y-88222169D01*
X105505964Y-88222171D01*
X105406098Y-88436335D01*
X105406094Y-88436344D01*
X105344938Y-88664586D01*
X105344936Y-88664596D01*
X105324341Y-88899999D01*
X105324341Y-88900000D01*
X105344936Y-89135403D01*
X105344938Y-89135413D01*
X105406094Y-89363655D01*
X105406096Y-89363659D01*
X105406097Y-89363663D01*
X105505964Y-89577829D01*
X105505965Y-89577830D01*
X105505967Y-89577834D01*
X105641501Y-89771395D01*
X105641506Y-89771402D01*
X105808597Y-89938493D01*
X105808603Y-89938498D01*
X105994158Y-90068425D01*
X106037783Y-90123002D01*
X106044977Y-90192500D01*
X106013454Y-90254855D01*
X105994158Y-90271575D01*
X105808597Y-90401505D01*
X105641505Y-90568597D01*
X105505965Y-90762169D01*
X105505964Y-90762171D01*
X105406098Y-90976335D01*
X105406094Y-90976344D01*
X105344938Y-91204586D01*
X105344936Y-91204596D01*
X105324341Y-91439999D01*
X105324341Y-91440000D01*
X105344936Y-91675403D01*
X105344938Y-91675413D01*
X105406094Y-91903655D01*
X105406096Y-91903659D01*
X105406097Y-91903663D01*
X105485845Y-92074683D01*
X105505965Y-92117830D01*
X105505967Y-92117834D01*
X105641501Y-92311395D01*
X105641506Y-92311402D01*
X105808597Y-92478493D01*
X105808603Y-92478498D01*
X105994158Y-92608425D01*
X106037783Y-92663002D01*
X106044977Y-92732500D01*
X106013454Y-92794855D01*
X105994158Y-92811575D01*
X105808597Y-92941505D01*
X105641505Y-93108597D01*
X105505965Y-93302169D01*
X105505964Y-93302171D01*
X105406098Y-93516335D01*
X105406094Y-93516344D01*
X105344938Y-93744586D01*
X105344936Y-93744596D01*
X105324341Y-93979999D01*
X105324341Y-93980000D01*
X93980000Y-93980000D01*
X93980000Y-73080005D01*
X101214357Y-73080005D01*
X101234890Y-73327812D01*
X101234892Y-73327824D01*
X101295936Y-73568881D01*
X101395826Y-73796606D01*
X101531833Y-74004782D01*
X101531836Y-74004785D01*
X101700256Y-74187738D01*
X101896491Y-74340474D01*
X102115190Y-74458828D01*
X102350386Y-74539571D01*
X102595665Y-74580500D01*
X102844335Y-74580500D01*
X103089614Y-74539571D01*
X103324810Y-74458828D01*
X103543509Y-74340474D01*
X103739744Y-74187738D01*
X103908164Y-74004785D01*
X104044173Y-73796607D01*
X104144063Y-73568881D01*
X104205108Y-73327821D01*
X104205109Y-73327812D01*
X104225643Y-73080005D01*
X107714357Y-73080005D01*
X107734890Y-73327812D01*
X107734892Y-73327824D01*
X107795936Y-73568881D01*
X107895826Y-73796606D01*
X108031833Y-74004782D01*
X108031836Y-74004785D01*
X108200256Y-74187738D01*
X108396491Y-74340474D01*
X108615190Y-74458828D01*
X108850386Y-74539571D01*
X109095665Y-74580500D01*
X109344335Y-74580500D01*
X109589614Y-74539571D01*
X109824810Y-74458828D01*
X110043509Y-74340474D01*
X110239744Y-74187738D01*
X110408164Y-74004785D01*
X110544173Y-73796607D01*
X110644063Y-73568881D01*
X110705108Y-73327821D01*
X110705109Y-73327812D01*
X110725643Y-73080005D01*
X110725643Y-73079994D01*
X110705109Y-72832187D01*
X110705107Y-72832175D01*
X110644063Y-72591118D01*
X110544173Y-72363393D01*
X110408166Y-72155217D01*
X110339768Y-72080917D01*
X110239744Y-71972262D01*
X110043509Y-71819526D01*
X110043507Y-71819525D01*
X110043506Y-71819524D01*
X109824811Y-71701172D01*
X109824802Y-71701169D01*
X109589616Y-71620429D01*
X109344335Y-71579500D01*
X109095665Y-71579500D01*
X108850383Y-71620429D01*
X108615197Y-71701169D01*
X108615188Y-71701172D01*
X108396493Y-71819524D01*
X108200257Y-71972261D01*
X108031833Y-72155217D01*
X107895826Y-72363393D01*
X107795936Y-72591118D01*
X107734892Y-72832175D01*
X107734890Y-72832187D01*
X107714357Y-73079994D01*
X107714357Y-73080005D01*
X104225643Y-73080005D01*
X104225643Y-73079994D01*
X104205109Y-72832187D01*
X104205107Y-72832175D01*
X104144063Y-72591118D01*
X104044173Y-72363393D01*
X103908166Y-72155217D01*
X103839768Y-72080917D01*
X103739744Y-71972262D01*
X103543509Y-71819526D01*
X103543507Y-71819525D01*
X103543506Y-71819524D01*
X103324811Y-71701172D01*
X103324802Y-71701169D01*
X103089616Y-71620429D01*
X102844335Y-71579500D01*
X102595665Y-71579500D01*
X102350383Y-71620429D01*
X102115197Y-71701169D01*
X102115188Y-71701172D01*
X101896493Y-71819524D01*
X101700257Y-71972261D01*
X101531833Y-72155217D01*
X101395826Y-72363393D01*
X101295936Y-72591118D01*
X101234892Y-72832175D01*
X101234890Y-72832187D01*
X101214357Y-73079994D01*
X101214357Y-73080005D01*
X93980000Y-73080005D01*
X93980000Y-68580005D01*
X101214357Y-68580005D01*
X101234890Y-68827812D01*
X101234892Y-68827824D01*
X101295936Y-69068881D01*
X101395826Y-69296606D01*
X101531833Y-69504782D01*
X101531836Y-69504785D01*
X101700256Y-69687738D01*
X101896491Y-69840474D01*
X102115190Y-69958828D01*
X102350386Y-70039571D01*
X102595665Y-70080500D01*
X102844335Y-70080500D01*
X103089614Y-70039571D01*
X103324810Y-69958828D01*
X103543509Y-69840474D01*
X103739744Y-69687738D01*
X103908164Y-69504785D01*
X104044173Y-69296607D01*
X104144063Y-69068881D01*
X104205108Y-68827821D01*
X104225643Y-68580005D01*
X107714357Y-68580005D01*
X107734890Y-68827812D01*
X107734892Y-68827824D01*
X107795936Y-69068881D01*
X107895826Y-69296606D01*
X108031833Y-69504782D01*
X108031836Y-69504785D01*
X108200256Y-69687738D01*
X108396491Y-69840474D01*
X108615190Y-69958828D01*
X108850386Y-70039571D01*
X109095665Y-70080500D01*
X109344335Y-70080500D01*
X109589614Y-70039571D01*
X109824810Y-69958828D01*
X110043509Y-69840474D01*
X110239744Y-69687738D01*
X110408164Y-69504785D01*
X110544173Y-69296607D01*
X110644063Y-69068881D01*
X110705108Y-68827821D01*
X110725643Y-68580000D01*
X110705108Y-68332179D01*
X110644063Y-68091119D01*
X110544173Y-67863393D01*
X110544173Y-67863392D01*
X110408166Y-67655217D01*
X110386557Y-67631744D01*
X110239744Y-67472262D01*
X110043509Y-67319526D01*
X110043507Y-67319525D01*
X110043506Y-67319524D01*
X109824811Y-67201172D01*
X109824802Y-67201169D01*
X109589616Y-67120429D01*
X109344335Y-67079500D01*
X109095665Y-67079500D01*
X108850383Y-67120429D01*
X108615197Y-67201169D01*
X108615188Y-67201172D01*
X108396493Y-67319524D01*
X108200257Y-67472261D01*
X108031833Y-67655217D01*
X107895826Y-67863393D01*
X107795936Y-68091118D01*
X107734892Y-68332175D01*
X107734890Y-68332187D01*
X107714357Y-68579994D01*
X107714357Y-68580005D01*
X104225643Y-68580005D01*
X104225643Y-68580000D01*
X104205108Y-68332179D01*
X104144063Y-68091119D01*
X104044173Y-67863393D01*
X104044173Y-67863392D01*
X103908166Y-67655217D01*
X103886557Y-67631744D01*
X103739744Y-67472262D01*
X103543509Y-67319526D01*
X103543507Y-67319525D01*
X103543506Y-67319524D01*
X103324811Y-67201172D01*
X103324802Y-67201169D01*
X103089616Y-67120429D01*
X102844335Y-67079500D01*
X102595665Y-67079500D01*
X102350383Y-67120429D01*
X102115197Y-67201169D01*
X102115188Y-67201172D01*
X101896493Y-67319524D01*
X101700257Y-67472261D01*
X101531833Y-67655217D01*
X101395826Y-67863393D01*
X101295936Y-68091118D01*
X101234892Y-68332175D01*
X101234890Y-68332187D01*
X101214357Y-68579994D01*
X101214357Y-68580005D01*
X93980000Y-68580005D01*
X93980000Y-66164000D01*
X93999685Y-66096961D01*
X94052489Y-66051206D01*
X94104000Y-66040000D01*
X137036000Y-66040000D01*
X137103039Y-66059685D01*
G37*
%TD.AperFunction*%
%TD*%
M02*
