%FSLAX45Y45*%
G04 Gerber Fmt 4.5, Leading zero omitted, Abs format (unit mm)*
G04 Created by KiCad (PCBNEW (6.0.5)) date 2023-11-06 22:12:29*
%MOMM*%
%LPD*%
G01*
G04 APERTURE LIST*
%TA.AperFunction,Profile*%
%ADD10C,0.100000*%
%TD*%
%ADD11C,0.200000*%
%ADD12C,0.040000*%
%ADD13C,0.100000*%
%ADD14C,0.110000*%
%ADD15C,0.185000*%
G04 APERTURE END LIST*
D10*
X4860000Y-3120000D02*
X4860000Y-15120000D01*
X4860000Y-3120000D02*
X16860000Y-3120000D01*
X4860000Y-15120000D02*
X16860000Y-15120000D01*
X16860000Y-15120000D02*
X16860000Y-3120000D01*
D11*
D12*
X5120000Y-5560000D02*
X5160000Y-5600000D01*
X5160000Y-5560000D02*
X5120000Y-5600000D01*
X5120000Y-7900000D02*
X5160000Y-7940000D01*
X5160000Y-7900000D02*
X5120000Y-7940000D01*
X5120000Y-10280000D02*
X5160000Y-10320000D01*
X5160000Y-10280000D02*
X5120000Y-10320000D01*
X5300000Y-8220000D02*
X5340000Y-8260000D01*
X5340000Y-8220000D02*
X5300000Y-8260000D01*
X6780000Y-6540000D02*
X6820000Y-6580000D01*
X6820000Y-6540000D02*
X6780000Y-6580000D01*
X6800000Y-4120000D02*
X6840000Y-4160000D01*
X6840000Y-4120000D02*
X6800000Y-4160000D01*
X6840000Y-8880000D02*
X6880000Y-8920000D01*
X6880000Y-8880000D02*
X6840000Y-8920000D01*
X7080000Y-4240000D02*
X7120000Y-4280000D01*
X7120000Y-4240000D02*
X7080000Y-4280000D01*
X7140000Y-6540000D02*
X7180000Y-6580000D01*
X7180000Y-6540000D02*
X7140000Y-6580000D01*
X7140000Y-8880000D02*
X7180000Y-8920000D01*
X7180000Y-8880000D02*
X7140000Y-8920000D01*
X7500000Y-11540000D02*
X7540000Y-11580000D01*
X7540000Y-11540000D02*
X7500000Y-11580000D01*
X7580000Y-12640000D02*
X7620000Y-12680000D01*
X7620000Y-12640000D02*
X7580000Y-12680000D01*
X7580000Y-12940000D02*
X7620000Y-12980000D01*
X7620000Y-12940000D02*
X7580000Y-12980000D01*
X7600000Y-11020000D02*
X7640000Y-11060000D01*
X7640000Y-11020000D02*
X7600000Y-11060000D01*
X7920000Y-9580000D02*
X7960000Y-9620000D01*
X7960000Y-9580000D02*
X7920000Y-9620000D01*
X7960000Y-7220000D02*
X8000000Y-7260000D01*
X8000000Y-7220000D02*
X7960000Y-7260000D01*
X8080000Y-10160000D02*
X8120000Y-10200000D01*
X8120000Y-10160000D02*
X8080000Y-10200000D01*
X8240000Y-12280000D02*
X8280000Y-12320000D01*
X8280000Y-12280000D02*
X8240000Y-12320000D01*
X9060000Y-14920000D02*
X9100000Y-14960000D01*
X9100000Y-14920000D02*
X9060000Y-14960000D01*
X9400000Y-4640000D02*
X9440000Y-4680000D01*
X9440000Y-4640000D02*
X9400000Y-4680000D01*
X9420000Y-8940000D02*
X9460000Y-8980000D01*
X9460000Y-8940000D02*
X9420000Y-8980000D01*
X9620000Y-11200000D02*
X9660000Y-11240000D01*
X9660000Y-11200000D02*
X9620000Y-11240000D01*
X9620000Y-12020000D02*
X9660000Y-12060000D01*
X9660000Y-12020000D02*
X9620000Y-12060000D01*
X9980000Y-12660000D02*
X10020000Y-12700000D01*
X10020000Y-12660000D02*
X9980000Y-12700000D01*
X10000000Y-12960000D02*
X10040000Y-13000000D01*
X10040000Y-12960000D02*
X10000000Y-13000000D01*
X10020000Y-6540000D02*
X10060000Y-6580000D01*
X10060000Y-6540000D02*
X10020000Y-6580000D01*
X10020000Y-6680000D02*
X10060000Y-6720000D01*
X10060000Y-6680000D02*
X10020000Y-6720000D01*
X10020000Y-6780000D02*
X10060000Y-6820000D01*
X10060000Y-6780000D02*
X10020000Y-6820000D01*
X10020000Y-6920000D02*
X10060000Y-6960000D01*
X10060000Y-6920000D02*
X10020000Y-6960000D01*
X10020000Y-8940000D02*
X10060000Y-8980000D01*
X10060000Y-8940000D02*
X10020000Y-8980000D01*
X10140000Y-9020000D02*
X10180000Y-9060000D01*
X10180000Y-9020000D02*
X10140000Y-9060000D01*
X10260000Y-7860000D02*
X10300000Y-7900000D01*
X10300000Y-7860000D02*
X10260000Y-7900000D01*
X10260000Y-8020000D02*
X10300000Y-8060000D01*
X10300000Y-8020000D02*
X10260000Y-8060000D01*
X10260000Y-8220000D02*
X10300000Y-8260000D01*
X10300000Y-8220000D02*
X10260000Y-8260000D01*
X10780000Y-8440000D02*
X10820000Y-8480000D01*
X10820000Y-8440000D02*
X10780000Y-8480000D01*
X10860000Y-8360000D02*
X10900000Y-8400000D01*
X10900000Y-8360000D02*
X10860000Y-8400000D01*
X10860000Y-12080000D02*
X10900000Y-12120000D01*
X10900000Y-12080000D02*
X10860000Y-12120000D01*
X10959950Y-8360000D02*
X10999950Y-8400000D01*
X10999950Y-8360000D02*
X10959950Y-8400000D01*
X11020000Y-8120000D02*
X11060000Y-8160000D01*
X11060000Y-8120000D02*
X11020000Y-8160000D01*
X11440000Y-14920000D02*
X11480000Y-14960000D01*
X11480000Y-14920000D02*
X11440000Y-14960000D01*
X11580000Y-9100000D02*
X11620000Y-9140000D01*
X11620000Y-9100000D02*
X11580000Y-9140000D01*
X11680000Y-5740000D02*
X11720000Y-5780000D01*
X11720000Y-5740000D02*
X11680000Y-5780000D01*
X11700000Y-6280000D02*
X11740000Y-6320000D01*
X11740000Y-6280000D02*
X11700000Y-6320000D01*
X11700000Y-6400000D02*
X11740000Y-6440000D01*
X11740000Y-6400000D02*
X11700000Y-6440000D01*
X11700000Y-6540000D02*
X11740000Y-6580000D01*
X11740000Y-6540000D02*
X11700000Y-6580000D01*
X11700000Y-6660000D02*
X11740000Y-6700000D01*
X11740000Y-6660000D02*
X11700000Y-6700000D01*
X11700000Y-6800000D02*
X11740000Y-6840000D01*
X11740000Y-6800000D02*
X11700000Y-6840000D01*
X11700000Y-6920000D02*
X11740000Y-6960000D01*
X11740000Y-6920000D02*
X11700000Y-6960000D01*
X11700000Y-7040000D02*
X11740000Y-7080000D01*
X11740000Y-7040000D02*
X11700000Y-7080000D01*
X11700000Y-7360000D02*
X11740000Y-7400000D01*
X11740000Y-7360000D02*
X11700000Y-7400000D01*
X11840000Y-11180000D02*
X11880000Y-11220000D01*
X11880000Y-11180000D02*
X11840000Y-11220000D01*
X11860000Y-4540000D02*
X11900000Y-4580000D01*
X11900000Y-4540000D02*
X11860000Y-4580000D01*
X11860000Y-5920000D02*
X11900000Y-5960000D01*
X11900000Y-5920000D02*
X11860000Y-5960000D01*
X11900000Y-8020000D02*
X11940000Y-8060000D01*
X11940000Y-8020000D02*
X11900000Y-8060000D01*
X12020000Y-9840000D02*
X12060000Y-9880000D01*
X12060000Y-9840000D02*
X12020000Y-9880000D01*
X12020000Y-10660000D02*
X12060000Y-10700000D01*
X12060000Y-10660000D02*
X12020000Y-10700000D01*
X12020000Y-11340000D02*
X12060000Y-11380000D01*
X12060000Y-11340000D02*
X12020000Y-11380000D01*
X12060000Y-7860000D02*
X12100000Y-7900000D01*
X12100000Y-7860000D02*
X12060000Y-7900000D01*
X12120000Y-4440000D02*
X12160000Y-4480000D01*
X12160000Y-4440000D02*
X12120000Y-4480000D01*
X12120000Y-6000000D02*
X12160000Y-6040000D01*
X12160000Y-6000000D02*
X12120000Y-6040000D01*
X12360000Y-12640000D02*
X12400000Y-12680000D01*
X12400000Y-12640000D02*
X12360000Y-12680000D01*
X12360000Y-12940000D02*
X12400000Y-12980000D01*
X12400000Y-12940000D02*
X12360000Y-12980000D01*
X12380000Y-5820000D02*
X12420000Y-5860000D01*
X12420000Y-5820000D02*
X12380000Y-5860000D01*
X12380000Y-9100000D02*
X12420000Y-9140000D01*
X12420000Y-9100000D02*
X12380000Y-9140000D01*
X12860000Y-5740000D02*
X12900000Y-5780000D01*
X12900000Y-5740000D02*
X12860000Y-5780000D01*
X12860000Y-8360000D02*
X12900000Y-8400000D01*
X12900000Y-8360000D02*
X12860000Y-8400000D01*
X12860000Y-11880000D02*
X12900000Y-11920000D01*
X12900000Y-11880000D02*
X12860000Y-11920000D01*
X12960000Y-8220000D02*
X13000000Y-8260000D01*
X13000000Y-8220000D02*
X12960000Y-8260000D01*
X12960000Y-8640000D02*
X13000000Y-8680000D01*
X13000000Y-8640000D02*
X12960000Y-8680000D01*
X13000000Y-13820000D02*
X13040000Y-13860000D01*
X13040000Y-13820000D02*
X13000000Y-13860000D01*
X13080000Y-5740000D02*
X13120000Y-5780000D01*
X13120000Y-5740000D02*
X13080000Y-5780000D01*
X13080000Y-8920000D02*
X13120000Y-8960000D01*
X13120000Y-8920000D02*
X13080000Y-8960000D01*
X13260000Y-11500000D02*
X13300000Y-11540000D01*
X13300000Y-11500000D02*
X13260000Y-11540000D01*
X13380000Y-6660000D02*
X13420000Y-6700000D01*
X13420000Y-6660000D02*
X13380000Y-6700000D01*
X13660000Y-6800000D02*
X13700000Y-6840000D01*
X13700000Y-6800000D02*
X13660000Y-6840000D01*
X13740000Y-5560000D02*
X13780000Y-5600000D01*
X13780000Y-5560000D02*
X13740000Y-5600000D01*
X13820000Y-14920000D02*
X13860000Y-14960000D01*
X13860000Y-14920000D02*
X13820000Y-14960000D01*
X13860000Y-6880000D02*
X13900000Y-6920000D01*
X13900000Y-6880000D02*
X13860000Y-6920000D01*
X13860000Y-8220000D02*
X13900000Y-8260000D01*
X13900000Y-8220000D02*
X13860000Y-8260000D01*
X13940000Y-5020000D02*
X13980000Y-5060000D01*
X13980000Y-5020000D02*
X13940000Y-5060000D01*
X13940000Y-13720000D02*
X13980000Y-13760000D01*
X13980000Y-13720000D02*
X13940000Y-13760000D01*
X13940000Y-14320000D02*
X13980000Y-14360000D01*
X13980000Y-14320000D02*
X13940000Y-14360000D01*
X14000000Y-9760000D02*
X14040000Y-9800000D01*
X14040000Y-9760000D02*
X14000000Y-9800000D01*
X14300000Y-12460000D02*
X14340000Y-12500000D01*
X14340000Y-12460000D02*
X14300000Y-12500000D01*
X14380000Y-12360000D02*
X14420000Y-12400000D01*
X14420000Y-12360000D02*
X14380000Y-12400000D01*
X14600000Y-5160000D02*
X14640000Y-5200000D01*
X14640000Y-5160000D02*
X14600000Y-5200000D01*
X15320000Y-13120000D02*
X15360000Y-13160000D01*
X15360000Y-13120000D02*
X15320000Y-13160000D01*
X15640000Y-12360000D02*
X15680000Y-12400000D01*
X15680000Y-12360000D02*
X15640000Y-12400000D01*
X16440000Y-3700000D02*
X16480000Y-3740000D01*
X16480000Y-3700000D02*
X16440000Y-3740000D01*
X16440000Y-6120000D02*
X16480000Y-6160000D01*
X16480000Y-6120000D02*
X16440000Y-6160000D01*
X16440000Y-8540000D02*
X16480000Y-8580000D01*
X16480000Y-8540000D02*
X16440000Y-8580000D01*
D13*
X5676000Y-10980000D02*
G75*
G03*
X5676000Y-10980000I-50000J0D01*
G01*
X5676000Y-11234000D02*
G75*
G03*
X5676000Y-11234000I-50000J0D01*
G01*
X5930000Y-10980000D02*
G75*
G03*
X5930000Y-10980000I-50000J0D01*
G01*
X5930000Y-11234000D02*
G75*
G03*
X5930000Y-11234000I-50000J0D01*
G01*
X5980000Y-4540000D02*
G75*
G03*
X5980000Y-4540000I-50000J0D01*
G01*
X5980000Y-4794000D02*
G75*
G03*
X5980000Y-4794000I-50000J0D01*
G01*
X5980000Y-6880000D02*
G75*
G03*
X5980000Y-6880000I-50000J0D01*
G01*
X5980000Y-7134000D02*
G75*
G03*
X5980000Y-7134000I-50000J0D01*
G01*
X5980000Y-9240000D02*
G75*
G03*
X5980000Y-9240000I-50000J0D01*
G01*
X5980000Y-9494000D02*
G75*
G03*
X5980000Y-9494000I-50000J0D01*
G01*
X6184000Y-10980000D02*
G75*
G03*
X6184000Y-10980000I-50000J0D01*
G01*
X6184000Y-11234000D02*
G75*
G03*
X6184000Y-11234000I-50000J0D01*
G01*
X6438000Y-10980000D02*
G75*
G03*
X6438000Y-10980000I-50000J0D01*
G01*
X6438000Y-11234000D02*
G75*
G03*
X6438000Y-11234000I-50000J0D01*
G01*
X6692000Y-10980000D02*
G75*
G03*
X6692000Y-10980000I-50000J0D01*
G01*
X6692000Y-11234000D02*
G75*
G03*
X6692000Y-11234000I-50000J0D01*
G01*
X8010000Y-14050000D02*
G75*
G03*
X8010000Y-14050000I-50000J0D01*
G01*
X8264000Y-14050000D02*
G75*
G03*
X8264000Y-14050000I-50000J0D01*
G01*
X10400000Y-14050000D02*
G75*
G03*
X10400000Y-14050000I-50000J0D01*
G01*
X10654000Y-14050000D02*
G75*
G03*
X10654000Y-14050000I-50000J0D01*
G01*
X11172500Y-4190000D02*
G75*
G03*
X11172500Y-4190000I-50000J0D01*
G01*
X11426500Y-4190000D02*
G75*
G03*
X11426500Y-4190000I-50000J0D01*
G01*
X11680500Y-4190000D02*
G75*
G03*
X11680500Y-4190000I-50000J0D01*
G01*
X11934500Y-4190000D02*
G75*
G03*
X11934500Y-4190000I-50000J0D01*
G01*
X12188500Y-4190000D02*
G75*
G03*
X12188500Y-4190000I-50000J0D01*
G01*
X12442500Y-4190000D02*
G75*
G03*
X12442500Y-4190000I-50000J0D01*
G01*
X12810000Y-14050000D02*
G75*
G03*
X12810000Y-14050000I-50000J0D01*
G01*
X13064000Y-14050000D02*
G75*
G03*
X13064000Y-14050000I-50000J0D01*
G01*
X14550000Y-13738750D02*
G75*
G03*
X14550000Y-13738750I-50000J0D01*
G01*
D11*
X14625000Y-13698750D02*
X14375000Y-13698750D01*
X14625000Y-13778750D02*
X14375000Y-13778750D01*
X14375000Y-13698750D02*
G75*
G03*
X14375000Y-13778750I0J-40000D01*
G01*
X14625000Y-13778750D02*
G75*
G03*
X14625000Y-13698750I0J40000D01*
G01*
D13*
X14550000Y-14338750D02*
G75*
G03*
X14550000Y-14338750I-50000J0D01*
G01*
D11*
X14600000Y-14298750D02*
X14400000Y-14298750D01*
X14600000Y-14378750D02*
X14400000Y-14378750D01*
X14400000Y-14298750D02*
G75*
G03*
X14400000Y-14378750I0J-40000D01*
G01*
X14600000Y-14378750D02*
G75*
G03*
X14600000Y-14298750I0J40000D01*
G01*
D13*
X15020000Y-14038750D02*
G75*
G03*
X15020000Y-14038750I-50000J0D01*
G01*
D11*
X14930000Y-13938750D02*
X14930000Y-14138750D01*
X15010000Y-13938750D02*
X15010000Y-14138750D01*
X14930000Y-14138750D02*
G75*
G03*
X15010000Y-14138750I40000J0D01*
G01*
X15010000Y-13938750D02*
G75*
G03*
X14930000Y-13938750I-40000J0D01*
G01*
D13*
X15372500Y-14100000D02*
G75*
G03*
X15372500Y-14100000I-50000J0D01*
G01*
X15792500Y-14100000D02*
G75*
G03*
X15792500Y-14100000I-50000J0D01*
G01*
X15840000Y-6956000D02*
G75*
G03*
X15840000Y-6956000I-50000J0D01*
G01*
X15840000Y-7210000D02*
G75*
G03*
X15840000Y-7210000I-50000J0D01*
G01*
X15840000Y-9376000D02*
G75*
G03*
X15840000Y-9376000I-50000J0D01*
G01*
X15840000Y-9630000D02*
G75*
G03*
X15840000Y-9630000I-50000J0D01*
G01*
X15850000Y-4566000D02*
G75*
G03*
X15850000Y-4566000I-50000J0D01*
G01*
X15850000Y-4820000D02*
G75*
G03*
X15850000Y-4820000I-50000J0D01*
G01*
X16212500Y-14100000D02*
G75*
G03*
X16212500Y-14100000I-50000J0D01*
G01*
X16632500Y-14100000D02*
G75*
G03*
X16632500Y-14100000I-50000J0D01*
G01*
D14*
X8765000Y-3410000D02*
X8765000Y-3520000D01*
X8710000Y-3465000D02*
X8820000Y-3465000D01*
X8765000Y-3860000D02*
X8765000Y-3970000D01*
X8710000Y-3915000D02*
X8820000Y-3915000D01*
X9415000Y-3410000D02*
X9415000Y-3520000D01*
X9360000Y-3465000D02*
X9470000Y-3465000D01*
X9415000Y-3860000D02*
X9415000Y-3970000D01*
X9360000Y-3915000D02*
X9470000Y-3915000D01*
D15*
X12870658Y-10260408D02*
X12870658Y-10129592D01*
X12739842Y-10129592D01*
X12739842Y-10260408D01*
X12870658Y-10260408D01*
X12870658Y-10730408D02*
X12870658Y-10599592D01*
X12739842Y-10599592D01*
X12739842Y-10730408D01*
X12870658Y-10730408D01*
X12870658Y-11200408D02*
X12870658Y-11069592D01*
X12739842Y-11069592D01*
X12739842Y-11200408D01*
X12870658Y-11200408D01*
X13650658Y-10260408D02*
X13650658Y-10129592D01*
X13519842Y-10129592D01*
X13519842Y-10260408D01*
X13650658Y-10260408D01*
X13650658Y-10730408D02*
X13650658Y-10599592D01*
X13519842Y-10599592D01*
X13519842Y-10730408D01*
X13650658Y-10730408D01*
X13650658Y-11200408D02*
X13650658Y-11069592D01*
X13519842Y-11069592D01*
X13519842Y-11200408D01*
X13650658Y-11200408D01*
X14275408Y-11025408D02*
X14275408Y-10894592D01*
X14144592Y-10894592D01*
X14144592Y-11025408D01*
X14275408Y-11025408D01*
X14745408Y-11025408D02*
X14745408Y-10894592D01*
X14614592Y-10894592D01*
X14614592Y-11025408D01*
X14745408Y-11025408D01*
X15215408Y-11025408D02*
X15215408Y-10894592D01*
X15084592Y-10894592D01*
X15084592Y-11025408D01*
X15215408Y-11025408D01*
X15735408Y-11025408D02*
X15735408Y-10894592D01*
X15604592Y-10894592D01*
X15604592Y-11025408D01*
X15735408Y-11025408D01*
X16205408Y-11025408D02*
X16205408Y-10894592D01*
X16074592Y-10894592D01*
X16074592Y-11025408D01*
X16205408Y-11025408D01*
X16675408Y-11025408D02*
X16675408Y-10894592D01*
X16544592Y-10894592D01*
X16544592Y-11025408D01*
X16675408Y-11025408D01*
D11*
X5112619Y-15435476D02*
X5112619Y-15235476D01*
X5160238Y-15235476D01*
X5188810Y-15245000D01*
X5207857Y-15264048D01*
X5217381Y-15283095D01*
X5226905Y-15321190D01*
X5226905Y-15349762D01*
X5217381Y-15387857D01*
X5207857Y-15406905D01*
X5188810Y-15425952D01*
X5160238Y-15435476D01*
X5112619Y-15435476D01*
X5312619Y-15435476D02*
X5312619Y-15302143D01*
X5312619Y-15340238D02*
X5322143Y-15321190D01*
X5331667Y-15311667D01*
X5350714Y-15302143D01*
X5369762Y-15302143D01*
X5436429Y-15435476D02*
X5436429Y-15302143D01*
X5436429Y-15235476D02*
X5426905Y-15245000D01*
X5436429Y-15254524D01*
X5445952Y-15245000D01*
X5436429Y-15235476D01*
X5436429Y-15254524D01*
X5560238Y-15435476D02*
X5541190Y-15425952D01*
X5531667Y-15406905D01*
X5531667Y-15235476D01*
X5665000Y-15435476D02*
X5645952Y-15425952D01*
X5636428Y-15406905D01*
X5636428Y-15235476D01*
X5893571Y-15435476D02*
X5893571Y-15235476D01*
X5960238Y-15378333D01*
X6026905Y-15235476D01*
X6026905Y-15435476D01*
X6207857Y-15435476D02*
X6207857Y-15330714D01*
X6198333Y-15311667D01*
X6179286Y-15302143D01*
X6141190Y-15302143D01*
X6122143Y-15311667D01*
X6207857Y-15425952D02*
X6188809Y-15435476D01*
X6141190Y-15435476D01*
X6122143Y-15425952D01*
X6112619Y-15406905D01*
X6112619Y-15387857D01*
X6122143Y-15368809D01*
X6141190Y-15359286D01*
X6188809Y-15359286D01*
X6207857Y-15349762D01*
X6303095Y-15302143D02*
X6303095Y-15502143D01*
X6303095Y-15311667D02*
X6322143Y-15302143D01*
X6360238Y-15302143D01*
X6379286Y-15311667D01*
X6388809Y-15321190D01*
X6398333Y-15340238D01*
X6398333Y-15397381D01*
X6388809Y-15416428D01*
X6379286Y-15425952D01*
X6360238Y-15435476D01*
X6322143Y-15435476D01*
X6303095Y-15425952D01*
X6484048Y-15416428D02*
X6493571Y-15425952D01*
X6484048Y-15435476D01*
X6474524Y-15425952D01*
X6484048Y-15416428D01*
X6484048Y-15435476D01*
X6484048Y-15311667D02*
X6493571Y-15321190D01*
X6484048Y-15330714D01*
X6474524Y-15321190D01*
X6484048Y-15311667D01*
X6484048Y-15330714D01*
D12*
X4815000Y-15745000D02*
X4855000Y-15785000D01*
X4855000Y-15745000D02*
X4815000Y-15785000D01*
D11*
X5150714Y-15655476D02*
X5169762Y-15655476D01*
X5188810Y-15665000D01*
X5198333Y-15674524D01*
X5207857Y-15693571D01*
X5217381Y-15731667D01*
X5217381Y-15779286D01*
X5207857Y-15817381D01*
X5198333Y-15836428D01*
X5188810Y-15845952D01*
X5169762Y-15855476D01*
X5150714Y-15855476D01*
X5131667Y-15845952D01*
X5122143Y-15836428D01*
X5112619Y-15817381D01*
X5103095Y-15779286D01*
X5103095Y-15731667D01*
X5112619Y-15693571D01*
X5122143Y-15674524D01*
X5131667Y-15665000D01*
X5150714Y-15655476D01*
X5303095Y-15836428D02*
X5312619Y-15845952D01*
X5303095Y-15855476D01*
X5293571Y-15845952D01*
X5303095Y-15836428D01*
X5303095Y-15855476D01*
X5484048Y-15722143D02*
X5484048Y-15855476D01*
X5436429Y-15645952D02*
X5388810Y-15788809D01*
X5512619Y-15788809D01*
X5626905Y-15655476D02*
X5645952Y-15655476D01*
X5665000Y-15665000D01*
X5674524Y-15674524D01*
X5684048Y-15693571D01*
X5693571Y-15731667D01*
X5693571Y-15779286D01*
X5684048Y-15817381D01*
X5674524Y-15836428D01*
X5665000Y-15845952D01*
X5645952Y-15855476D01*
X5626905Y-15855476D01*
X5607857Y-15845952D01*
X5598333Y-15836428D01*
X5588810Y-15817381D01*
X5579286Y-15779286D01*
X5579286Y-15731667D01*
X5588810Y-15693571D01*
X5598333Y-15674524D01*
X5607857Y-15665000D01*
X5626905Y-15655476D01*
X5817381Y-15655476D02*
X5836428Y-15655476D01*
X5855476Y-15665000D01*
X5865000Y-15674524D01*
X5874524Y-15693571D01*
X5884048Y-15731667D01*
X5884048Y-15779286D01*
X5874524Y-15817381D01*
X5865000Y-15836428D01*
X5855476Y-15845952D01*
X5836428Y-15855476D01*
X5817381Y-15855476D01*
X5798333Y-15845952D01*
X5788809Y-15836428D01*
X5779286Y-15817381D01*
X5769762Y-15779286D01*
X5769762Y-15731667D01*
X5779286Y-15693571D01*
X5788809Y-15674524D01*
X5798333Y-15665000D01*
X5817381Y-15655476D01*
X5969762Y-15855476D02*
X5969762Y-15722143D01*
X5969762Y-15741190D02*
X5979286Y-15731667D01*
X5998333Y-15722143D01*
X6026905Y-15722143D01*
X6045952Y-15731667D01*
X6055476Y-15750714D01*
X6055476Y-15855476D01*
X6055476Y-15750714D02*
X6065000Y-15731667D01*
X6084048Y-15722143D01*
X6112619Y-15722143D01*
X6131667Y-15731667D01*
X6141190Y-15750714D01*
X6141190Y-15855476D01*
X6236428Y-15855476D02*
X6236428Y-15722143D01*
X6236428Y-15741190D02*
X6245952Y-15731667D01*
X6265000Y-15722143D01*
X6293571Y-15722143D01*
X6312619Y-15731667D01*
X6322143Y-15750714D01*
X6322143Y-15855476D01*
X6322143Y-15750714D02*
X6331667Y-15731667D01*
X6350714Y-15722143D01*
X6379286Y-15722143D01*
X6398333Y-15731667D01*
X6407857Y-15750714D01*
X6407857Y-15855476D01*
X6798333Y-15645952D02*
X6626905Y-15903095D01*
X7055476Y-15655476D02*
X7074524Y-15655476D01*
X7093571Y-15665000D01*
X7103095Y-15674524D01*
X7112619Y-15693571D01*
X7122143Y-15731667D01*
X7122143Y-15779286D01*
X7112619Y-15817381D01*
X7103095Y-15836428D01*
X7093571Y-15845952D01*
X7074524Y-15855476D01*
X7055476Y-15855476D01*
X7036428Y-15845952D01*
X7026905Y-15836428D01*
X7017381Y-15817381D01*
X7007857Y-15779286D01*
X7007857Y-15731667D01*
X7017381Y-15693571D01*
X7026905Y-15674524D01*
X7036428Y-15665000D01*
X7055476Y-15655476D01*
X7207857Y-15836428D02*
X7217381Y-15845952D01*
X7207857Y-15855476D01*
X7198333Y-15845952D01*
X7207857Y-15836428D01*
X7207857Y-15855476D01*
X7341190Y-15655476D02*
X7360238Y-15655476D01*
X7379286Y-15665000D01*
X7388809Y-15674524D01*
X7398333Y-15693571D01*
X7407857Y-15731667D01*
X7407857Y-15779286D01*
X7398333Y-15817381D01*
X7388809Y-15836428D01*
X7379286Y-15845952D01*
X7360238Y-15855476D01*
X7341190Y-15855476D01*
X7322143Y-15845952D01*
X7312619Y-15836428D01*
X7303095Y-15817381D01*
X7293571Y-15779286D01*
X7293571Y-15731667D01*
X7303095Y-15693571D01*
X7312619Y-15674524D01*
X7322143Y-15665000D01*
X7341190Y-15655476D01*
X7598333Y-15855476D02*
X7484048Y-15855476D01*
X7541190Y-15855476D02*
X7541190Y-15655476D01*
X7522143Y-15684048D01*
X7503095Y-15703095D01*
X7484048Y-15712619D01*
X7779286Y-15655476D02*
X7684048Y-15655476D01*
X7674524Y-15750714D01*
X7684048Y-15741190D01*
X7703095Y-15731667D01*
X7750714Y-15731667D01*
X7769762Y-15741190D01*
X7779286Y-15750714D01*
X7788809Y-15769762D01*
X7788809Y-15817381D01*
X7779286Y-15836428D01*
X7769762Y-15845952D01*
X7750714Y-15855476D01*
X7703095Y-15855476D01*
X7684048Y-15845952D01*
X7674524Y-15836428D01*
X7855476Y-15655476D02*
X7988809Y-15655476D01*
X7903095Y-15855476D01*
X8055476Y-15655476D02*
X8055476Y-15693571D01*
X8131667Y-15655476D02*
X8131667Y-15693571D01*
X8426905Y-15931667D02*
X8417381Y-15922143D01*
X8398333Y-15893571D01*
X8388810Y-15874524D01*
X8379286Y-15845952D01*
X8369762Y-15798333D01*
X8369762Y-15760238D01*
X8379286Y-15712619D01*
X8388810Y-15684048D01*
X8398333Y-15665000D01*
X8417381Y-15636428D01*
X8426905Y-15626905D01*
X8512619Y-15855476D02*
X8550714Y-15855476D01*
X8569762Y-15845952D01*
X8579286Y-15836428D01*
X8598333Y-15807857D01*
X8607857Y-15769762D01*
X8607857Y-15693571D01*
X8598333Y-15674524D01*
X8588810Y-15665000D01*
X8569762Y-15655476D01*
X8531667Y-15655476D01*
X8512619Y-15665000D01*
X8503095Y-15674524D01*
X8493571Y-15693571D01*
X8493571Y-15741190D01*
X8503095Y-15760238D01*
X8512619Y-15769762D01*
X8531667Y-15779286D01*
X8569762Y-15779286D01*
X8588810Y-15769762D01*
X8598333Y-15760238D01*
X8607857Y-15741190D01*
X8798333Y-15855476D02*
X8684048Y-15855476D01*
X8741190Y-15855476D02*
X8741190Y-15655476D01*
X8722143Y-15684048D01*
X8703095Y-15703095D01*
X8684048Y-15712619D01*
X9036429Y-15855476D02*
X9036429Y-15655476D01*
X9122143Y-15855476D02*
X9122143Y-15750714D01*
X9112619Y-15731667D01*
X9093571Y-15722143D01*
X9065000Y-15722143D01*
X9045952Y-15731667D01*
X9036429Y-15741190D01*
X9245952Y-15855476D02*
X9226905Y-15845952D01*
X9217381Y-15836428D01*
X9207857Y-15817381D01*
X9207857Y-15760238D01*
X9217381Y-15741190D01*
X9226905Y-15731667D01*
X9245952Y-15722143D01*
X9274524Y-15722143D01*
X9293571Y-15731667D01*
X9303095Y-15741190D01*
X9312619Y-15760238D01*
X9312619Y-15817381D01*
X9303095Y-15836428D01*
X9293571Y-15845952D01*
X9274524Y-15855476D01*
X9245952Y-15855476D01*
X9426905Y-15855476D02*
X9407857Y-15845952D01*
X9398333Y-15826905D01*
X9398333Y-15655476D01*
X9579286Y-15845952D02*
X9560238Y-15855476D01*
X9522143Y-15855476D01*
X9503095Y-15845952D01*
X9493571Y-15826905D01*
X9493571Y-15750714D01*
X9503095Y-15731667D01*
X9522143Y-15722143D01*
X9560238Y-15722143D01*
X9579286Y-15731667D01*
X9588810Y-15750714D01*
X9588810Y-15769762D01*
X9493571Y-15788809D01*
X9665000Y-15845952D02*
X9684048Y-15855476D01*
X9722143Y-15855476D01*
X9741190Y-15845952D01*
X9750714Y-15826905D01*
X9750714Y-15817381D01*
X9741190Y-15798333D01*
X9722143Y-15788809D01*
X9693571Y-15788809D01*
X9674524Y-15779286D01*
X9665000Y-15760238D01*
X9665000Y-15750714D01*
X9674524Y-15731667D01*
X9693571Y-15722143D01*
X9722143Y-15722143D01*
X9741190Y-15731667D01*
X9817381Y-15931667D02*
X9826905Y-15922143D01*
X9845952Y-15893571D01*
X9855476Y-15874524D01*
X9865000Y-15845952D01*
X9874524Y-15798333D01*
X9874524Y-15760238D01*
X9865000Y-15712619D01*
X9855476Y-15684048D01*
X9845952Y-15665000D01*
X9826905Y-15636428D01*
X9817381Y-15626905D01*
D13*
X4855000Y-16029000D02*
G75*
G03*
X4855000Y-16029000I-50000J0D01*
G01*
D11*
X5217381Y-16119476D02*
X5103095Y-16119476D01*
X5160238Y-16119476D02*
X5160238Y-15919476D01*
X5141190Y-15948048D01*
X5122143Y-15967095D01*
X5103095Y-15976619D01*
X5303095Y-16100428D02*
X5312619Y-16109952D01*
X5303095Y-16119476D01*
X5293571Y-16109952D01*
X5303095Y-16100428D01*
X5303095Y-16119476D01*
X5436429Y-15919476D02*
X5455476Y-15919476D01*
X5474524Y-15929000D01*
X5484048Y-15938524D01*
X5493571Y-15957571D01*
X5503095Y-15995667D01*
X5503095Y-16043286D01*
X5493571Y-16081381D01*
X5484048Y-16100428D01*
X5474524Y-16109952D01*
X5455476Y-16119476D01*
X5436429Y-16119476D01*
X5417381Y-16109952D01*
X5407857Y-16100428D01*
X5398333Y-16081381D01*
X5388810Y-16043286D01*
X5388810Y-15995667D01*
X5398333Y-15957571D01*
X5407857Y-15938524D01*
X5417381Y-15929000D01*
X5436429Y-15919476D01*
X5626905Y-15919476D02*
X5645952Y-15919476D01*
X5665000Y-15929000D01*
X5674524Y-15938524D01*
X5684048Y-15957571D01*
X5693571Y-15995667D01*
X5693571Y-16043286D01*
X5684048Y-16081381D01*
X5674524Y-16100428D01*
X5665000Y-16109952D01*
X5645952Y-16119476D01*
X5626905Y-16119476D01*
X5607857Y-16109952D01*
X5598333Y-16100428D01*
X5588810Y-16081381D01*
X5579286Y-16043286D01*
X5579286Y-15995667D01*
X5588810Y-15957571D01*
X5598333Y-15938524D01*
X5607857Y-15929000D01*
X5626905Y-15919476D01*
X5817381Y-15919476D02*
X5836428Y-15919476D01*
X5855476Y-15929000D01*
X5865000Y-15938524D01*
X5874524Y-15957571D01*
X5884048Y-15995667D01*
X5884048Y-16043286D01*
X5874524Y-16081381D01*
X5865000Y-16100428D01*
X5855476Y-16109952D01*
X5836428Y-16119476D01*
X5817381Y-16119476D01*
X5798333Y-16109952D01*
X5788809Y-16100428D01*
X5779286Y-16081381D01*
X5769762Y-16043286D01*
X5769762Y-15995667D01*
X5779286Y-15957571D01*
X5788809Y-15938524D01*
X5798333Y-15929000D01*
X5817381Y-15919476D01*
X5969762Y-16119476D02*
X5969762Y-15986143D01*
X5969762Y-16005190D02*
X5979286Y-15995667D01*
X5998333Y-15986143D01*
X6026905Y-15986143D01*
X6045952Y-15995667D01*
X6055476Y-16014714D01*
X6055476Y-16119476D01*
X6055476Y-16014714D02*
X6065000Y-15995667D01*
X6084048Y-15986143D01*
X6112619Y-15986143D01*
X6131667Y-15995667D01*
X6141190Y-16014714D01*
X6141190Y-16119476D01*
X6236428Y-16119476D02*
X6236428Y-15986143D01*
X6236428Y-16005190D02*
X6245952Y-15995667D01*
X6265000Y-15986143D01*
X6293571Y-15986143D01*
X6312619Y-15995667D01*
X6322143Y-16014714D01*
X6322143Y-16119476D01*
X6322143Y-16014714D02*
X6331667Y-15995667D01*
X6350714Y-15986143D01*
X6379286Y-15986143D01*
X6398333Y-15995667D01*
X6407857Y-16014714D01*
X6407857Y-16119476D01*
X6798333Y-15909952D02*
X6626905Y-16167095D01*
X7055476Y-15919476D02*
X7074524Y-15919476D01*
X7093571Y-15929000D01*
X7103095Y-15938524D01*
X7112619Y-15957571D01*
X7122143Y-15995667D01*
X7122143Y-16043286D01*
X7112619Y-16081381D01*
X7103095Y-16100428D01*
X7093571Y-16109952D01*
X7074524Y-16119476D01*
X7055476Y-16119476D01*
X7036428Y-16109952D01*
X7026905Y-16100428D01*
X7017381Y-16081381D01*
X7007857Y-16043286D01*
X7007857Y-15995667D01*
X7017381Y-15957571D01*
X7026905Y-15938524D01*
X7036428Y-15929000D01*
X7055476Y-15919476D01*
X7207857Y-16100428D02*
X7217381Y-16109952D01*
X7207857Y-16119476D01*
X7198333Y-16109952D01*
X7207857Y-16100428D01*
X7207857Y-16119476D01*
X7341190Y-15919476D02*
X7360238Y-15919476D01*
X7379286Y-15929000D01*
X7388809Y-15938524D01*
X7398333Y-15957571D01*
X7407857Y-15995667D01*
X7407857Y-16043286D01*
X7398333Y-16081381D01*
X7388809Y-16100428D01*
X7379286Y-16109952D01*
X7360238Y-16119476D01*
X7341190Y-16119476D01*
X7322143Y-16109952D01*
X7312619Y-16100428D01*
X7303095Y-16081381D01*
X7293571Y-16043286D01*
X7293571Y-15995667D01*
X7303095Y-15957571D01*
X7312619Y-15938524D01*
X7322143Y-15929000D01*
X7341190Y-15919476D01*
X7474524Y-15919476D02*
X7598333Y-15919476D01*
X7531667Y-15995667D01*
X7560238Y-15995667D01*
X7579286Y-16005190D01*
X7588809Y-16014714D01*
X7598333Y-16033762D01*
X7598333Y-16081381D01*
X7588809Y-16100428D01*
X7579286Y-16109952D01*
X7560238Y-16119476D01*
X7503095Y-16119476D01*
X7484048Y-16109952D01*
X7474524Y-16100428D01*
X7693571Y-16119476D02*
X7731667Y-16119476D01*
X7750714Y-16109952D01*
X7760238Y-16100428D01*
X7779286Y-16071857D01*
X7788809Y-16033762D01*
X7788809Y-15957571D01*
X7779286Y-15938524D01*
X7769762Y-15929000D01*
X7750714Y-15919476D01*
X7712619Y-15919476D01*
X7693571Y-15929000D01*
X7684048Y-15938524D01*
X7674524Y-15957571D01*
X7674524Y-16005190D01*
X7684048Y-16024238D01*
X7693571Y-16033762D01*
X7712619Y-16043286D01*
X7750714Y-16043286D01*
X7769762Y-16033762D01*
X7779286Y-16024238D01*
X7788809Y-16005190D01*
X7960238Y-15986143D02*
X7960238Y-16119476D01*
X7912619Y-15909952D02*
X7865000Y-16052809D01*
X7988809Y-16052809D01*
X8055476Y-15919476D02*
X8055476Y-15957571D01*
X8131667Y-15919476D02*
X8131667Y-15957571D01*
X8426905Y-16195667D02*
X8417381Y-16186143D01*
X8398333Y-16157571D01*
X8388810Y-16138524D01*
X8379286Y-16109952D01*
X8369762Y-16062333D01*
X8369762Y-16024238D01*
X8379286Y-15976619D01*
X8388810Y-15948048D01*
X8398333Y-15929000D01*
X8417381Y-15900428D01*
X8426905Y-15890905D01*
X8484048Y-15919476D02*
X8607857Y-15919476D01*
X8541190Y-15995667D01*
X8569762Y-15995667D01*
X8588810Y-16005190D01*
X8598333Y-16014714D01*
X8607857Y-16033762D01*
X8607857Y-16081381D01*
X8598333Y-16100428D01*
X8588810Y-16109952D01*
X8569762Y-16119476D01*
X8512619Y-16119476D01*
X8493571Y-16109952D01*
X8484048Y-16100428D01*
X8722143Y-16005190D02*
X8703095Y-15995667D01*
X8693571Y-15986143D01*
X8684048Y-15967095D01*
X8684048Y-15957571D01*
X8693571Y-15938524D01*
X8703095Y-15929000D01*
X8722143Y-15919476D01*
X8760238Y-15919476D01*
X8779286Y-15929000D01*
X8788810Y-15938524D01*
X8798333Y-15957571D01*
X8798333Y-15967095D01*
X8788810Y-15986143D01*
X8779286Y-15995667D01*
X8760238Y-16005190D01*
X8722143Y-16005190D01*
X8703095Y-16014714D01*
X8693571Y-16024238D01*
X8684048Y-16043286D01*
X8684048Y-16081381D01*
X8693571Y-16100428D01*
X8703095Y-16109952D01*
X8722143Y-16119476D01*
X8760238Y-16119476D01*
X8779286Y-16109952D01*
X8788810Y-16100428D01*
X8798333Y-16081381D01*
X8798333Y-16043286D01*
X8788810Y-16024238D01*
X8779286Y-16014714D01*
X8760238Y-16005190D01*
X9036429Y-16119476D02*
X9036429Y-15919476D01*
X9122143Y-16119476D02*
X9122143Y-16014714D01*
X9112619Y-15995667D01*
X9093571Y-15986143D01*
X9065000Y-15986143D01*
X9045952Y-15995667D01*
X9036429Y-16005190D01*
X9245952Y-16119476D02*
X9226905Y-16109952D01*
X9217381Y-16100428D01*
X9207857Y-16081381D01*
X9207857Y-16024238D01*
X9217381Y-16005190D01*
X9226905Y-15995667D01*
X9245952Y-15986143D01*
X9274524Y-15986143D01*
X9293571Y-15995667D01*
X9303095Y-16005190D01*
X9312619Y-16024238D01*
X9312619Y-16081381D01*
X9303095Y-16100428D01*
X9293571Y-16109952D01*
X9274524Y-16119476D01*
X9245952Y-16119476D01*
X9426905Y-16119476D02*
X9407857Y-16109952D01*
X9398333Y-16090905D01*
X9398333Y-15919476D01*
X9579286Y-16109952D02*
X9560238Y-16119476D01*
X9522143Y-16119476D01*
X9503095Y-16109952D01*
X9493571Y-16090905D01*
X9493571Y-16014714D01*
X9503095Y-15995667D01*
X9522143Y-15986143D01*
X9560238Y-15986143D01*
X9579286Y-15995667D01*
X9588810Y-16014714D01*
X9588810Y-16033762D01*
X9493571Y-16052809D01*
X9665000Y-16109952D02*
X9684048Y-16119476D01*
X9722143Y-16119476D01*
X9741190Y-16109952D01*
X9750714Y-16090905D01*
X9750714Y-16081381D01*
X9741190Y-16062333D01*
X9722143Y-16052809D01*
X9693571Y-16052809D01*
X9674524Y-16043286D01*
X9665000Y-16024238D01*
X9665000Y-16014714D01*
X9674524Y-15995667D01*
X9693571Y-15986143D01*
X9722143Y-15986143D01*
X9741190Y-15995667D01*
X9988810Y-16043286D02*
X10141190Y-16043286D01*
X10065000Y-16119476D02*
X10065000Y-15967095D01*
X10369762Y-15919476D02*
X10493571Y-15919476D01*
X10426905Y-15995667D01*
X10455476Y-15995667D01*
X10474524Y-16005190D01*
X10484048Y-16014714D01*
X10493571Y-16033762D01*
X10493571Y-16081381D01*
X10484048Y-16100428D01*
X10474524Y-16109952D01*
X10455476Y-16119476D01*
X10398333Y-16119476D01*
X10379286Y-16109952D01*
X10369762Y-16100428D01*
X10722143Y-16109952D02*
X10741190Y-16119476D01*
X10779286Y-16119476D01*
X10798333Y-16109952D01*
X10807857Y-16090905D01*
X10807857Y-16081381D01*
X10798333Y-16062333D01*
X10779286Y-16052809D01*
X10750714Y-16052809D01*
X10731667Y-16043286D01*
X10722143Y-16024238D01*
X10722143Y-16014714D01*
X10731667Y-15995667D01*
X10750714Y-15986143D01*
X10779286Y-15986143D01*
X10798333Y-15995667D01*
X10922143Y-16119476D02*
X10903095Y-16109952D01*
X10893571Y-16090905D01*
X10893571Y-15919476D01*
X11026905Y-16119476D02*
X11007857Y-16109952D01*
X10998333Y-16100428D01*
X10988810Y-16081381D01*
X10988810Y-16024238D01*
X10998333Y-16005190D01*
X11007857Y-15995667D01*
X11026905Y-15986143D01*
X11055476Y-15986143D01*
X11074524Y-15995667D01*
X11084048Y-16005190D01*
X11093571Y-16024238D01*
X11093571Y-16081381D01*
X11084048Y-16100428D01*
X11074524Y-16109952D01*
X11055476Y-16119476D01*
X11026905Y-16119476D01*
X11150714Y-15986143D02*
X11226905Y-15986143D01*
X11179286Y-15919476D02*
X11179286Y-16090905D01*
X11188809Y-16109952D01*
X11207857Y-16119476D01*
X11226905Y-16119476D01*
X11284048Y-16109952D02*
X11303095Y-16119476D01*
X11341190Y-16119476D01*
X11360238Y-16109952D01*
X11369762Y-16090905D01*
X11369762Y-16081381D01*
X11360238Y-16062333D01*
X11341190Y-16052809D01*
X11312619Y-16052809D01*
X11293571Y-16043286D01*
X11284048Y-16024238D01*
X11284048Y-16014714D01*
X11293571Y-15995667D01*
X11312619Y-15986143D01*
X11341190Y-15986143D01*
X11360238Y-15995667D01*
X11436428Y-16195667D02*
X11445952Y-16186143D01*
X11465000Y-16157571D01*
X11474524Y-16138524D01*
X11484048Y-16109952D01*
X11493571Y-16062333D01*
X11493571Y-16024238D01*
X11484048Y-15976619D01*
X11474524Y-15948048D01*
X11465000Y-15929000D01*
X11445952Y-15900428D01*
X11436428Y-15890905D01*
D14*
X4800000Y-16238000D02*
X4800000Y-16348000D01*
X4745000Y-16293000D02*
X4855000Y-16293000D01*
D11*
X5217381Y-16383476D02*
X5103095Y-16383476D01*
X5160238Y-16383476D02*
X5160238Y-16183476D01*
X5141190Y-16212048D01*
X5122143Y-16231095D01*
X5103095Y-16240619D01*
X5303095Y-16364428D02*
X5312619Y-16373952D01*
X5303095Y-16383476D01*
X5293571Y-16373952D01*
X5303095Y-16364428D01*
X5303095Y-16383476D01*
X5503095Y-16383476D02*
X5388810Y-16383476D01*
X5445952Y-16383476D02*
X5445952Y-16183476D01*
X5426905Y-16212048D01*
X5407857Y-16231095D01*
X5388810Y-16240619D01*
X5626905Y-16183476D02*
X5645952Y-16183476D01*
X5665000Y-16193000D01*
X5674524Y-16202524D01*
X5684048Y-16221571D01*
X5693571Y-16259667D01*
X5693571Y-16307286D01*
X5684048Y-16345381D01*
X5674524Y-16364428D01*
X5665000Y-16373952D01*
X5645952Y-16383476D01*
X5626905Y-16383476D01*
X5607857Y-16373952D01*
X5598333Y-16364428D01*
X5588810Y-16345381D01*
X5579286Y-16307286D01*
X5579286Y-16259667D01*
X5588810Y-16221571D01*
X5598333Y-16202524D01*
X5607857Y-16193000D01*
X5626905Y-16183476D01*
X5817381Y-16183476D02*
X5836428Y-16183476D01*
X5855476Y-16193000D01*
X5865000Y-16202524D01*
X5874524Y-16221571D01*
X5884048Y-16259667D01*
X5884048Y-16307286D01*
X5874524Y-16345381D01*
X5865000Y-16364428D01*
X5855476Y-16373952D01*
X5836428Y-16383476D01*
X5817381Y-16383476D01*
X5798333Y-16373952D01*
X5788809Y-16364428D01*
X5779286Y-16345381D01*
X5769762Y-16307286D01*
X5769762Y-16259667D01*
X5779286Y-16221571D01*
X5788809Y-16202524D01*
X5798333Y-16193000D01*
X5817381Y-16183476D01*
X5969762Y-16383476D02*
X5969762Y-16250143D01*
X5969762Y-16269190D02*
X5979286Y-16259667D01*
X5998333Y-16250143D01*
X6026905Y-16250143D01*
X6045952Y-16259667D01*
X6055476Y-16278714D01*
X6055476Y-16383476D01*
X6055476Y-16278714D02*
X6065000Y-16259667D01*
X6084048Y-16250143D01*
X6112619Y-16250143D01*
X6131667Y-16259667D01*
X6141190Y-16278714D01*
X6141190Y-16383476D01*
X6236428Y-16383476D02*
X6236428Y-16250143D01*
X6236428Y-16269190D02*
X6245952Y-16259667D01*
X6265000Y-16250143D01*
X6293571Y-16250143D01*
X6312619Y-16259667D01*
X6322143Y-16278714D01*
X6322143Y-16383476D01*
X6322143Y-16278714D02*
X6331667Y-16259667D01*
X6350714Y-16250143D01*
X6379286Y-16250143D01*
X6398333Y-16259667D01*
X6407857Y-16278714D01*
X6407857Y-16383476D01*
X6798333Y-16173952D02*
X6626905Y-16431095D01*
X7055476Y-16183476D02*
X7074524Y-16183476D01*
X7093571Y-16193000D01*
X7103095Y-16202524D01*
X7112619Y-16221571D01*
X7122143Y-16259667D01*
X7122143Y-16307286D01*
X7112619Y-16345381D01*
X7103095Y-16364428D01*
X7093571Y-16373952D01*
X7074524Y-16383476D01*
X7055476Y-16383476D01*
X7036428Y-16373952D01*
X7026905Y-16364428D01*
X7017381Y-16345381D01*
X7007857Y-16307286D01*
X7007857Y-16259667D01*
X7017381Y-16221571D01*
X7026905Y-16202524D01*
X7036428Y-16193000D01*
X7055476Y-16183476D01*
X7207857Y-16364428D02*
X7217381Y-16373952D01*
X7207857Y-16383476D01*
X7198333Y-16373952D01*
X7207857Y-16364428D01*
X7207857Y-16383476D01*
X7341190Y-16183476D02*
X7360238Y-16183476D01*
X7379286Y-16193000D01*
X7388809Y-16202524D01*
X7398333Y-16221571D01*
X7407857Y-16259667D01*
X7407857Y-16307286D01*
X7398333Y-16345381D01*
X7388809Y-16364428D01*
X7379286Y-16373952D01*
X7360238Y-16383476D01*
X7341190Y-16383476D01*
X7322143Y-16373952D01*
X7312619Y-16364428D01*
X7303095Y-16345381D01*
X7293571Y-16307286D01*
X7293571Y-16259667D01*
X7303095Y-16221571D01*
X7312619Y-16202524D01*
X7322143Y-16193000D01*
X7341190Y-16183476D01*
X7579286Y-16250143D02*
X7579286Y-16383476D01*
X7531667Y-16173952D02*
X7484048Y-16316809D01*
X7607857Y-16316809D01*
X7665000Y-16183476D02*
X7788809Y-16183476D01*
X7722143Y-16259667D01*
X7750714Y-16259667D01*
X7769762Y-16269190D01*
X7779286Y-16278714D01*
X7788809Y-16297762D01*
X7788809Y-16345381D01*
X7779286Y-16364428D01*
X7769762Y-16373952D01*
X7750714Y-16383476D01*
X7693571Y-16383476D01*
X7674524Y-16373952D01*
X7665000Y-16364428D01*
X7855476Y-16183476D02*
X7979286Y-16183476D01*
X7912619Y-16259667D01*
X7941190Y-16259667D01*
X7960238Y-16269190D01*
X7969762Y-16278714D01*
X7979286Y-16297762D01*
X7979286Y-16345381D01*
X7969762Y-16364428D01*
X7960238Y-16373952D01*
X7941190Y-16383476D01*
X7884048Y-16383476D01*
X7865000Y-16373952D01*
X7855476Y-16364428D01*
X8055476Y-16183476D02*
X8055476Y-16221571D01*
X8131667Y-16183476D02*
X8131667Y-16221571D01*
X8426905Y-16459667D02*
X8417381Y-16450143D01*
X8398333Y-16421571D01*
X8388810Y-16402524D01*
X8379286Y-16373952D01*
X8369762Y-16326333D01*
X8369762Y-16288238D01*
X8379286Y-16240619D01*
X8388810Y-16212048D01*
X8398333Y-16193000D01*
X8417381Y-16164428D01*
X8426905Y-16154905D01*
X8588810Y-16250143D02*
X8588810Y-16383476D01*
X8541190Y-16173952D02*
X8493571Y-16316809D01*
X8617381Y-16316809D01*
X8845952Y-16383476D02*
X8845952Y-16183476D01*
X8931667Y-16383476D02*
X8931667Y-16278714D01*
X8922143Y-16259667D01*
X8903095Y-16250143D01*
X8874524Y-16250143D01*
X8855476Y-16259667D01*
X8845952Y-16269190D01*
X9055476Y-16383476D02*
X9036429Y-16373952D01*
X9026905Y-16364428D01*
X9017381Y-16345381D01*
X9017381Y-16288238D01*
X9026905Y-16269190D01*
X9036429Y-16259667D01*
X9055476Y-16250143D01*
X9084048Y-16250143D01*
X9103095Y-16259667D01*
X9112619Y-16269190D01*
X9122143Y-16288238D01*
X9122143Y-16345381D01*
X9112619Y-16364428D01*
X9103095Y-16373952D01*
X9084048Y-16383476D01*
X9055476Y-16383476D01*
X9236429Y-16383476D02*
X9217381Y-16373952D01*
X9207857Y-16354905D01*
X9207857Y-16183476D01*
X9388810Y-16373952D02*
X9369762Y-16383476D01*
X9331667Y-16383476D01*
X9312619Y-16373952D01*
X9303095Y-16354905D01*
X9303095Y-16278714D01*
X9312619Y-16259667D01*
X9331667Y-16250143D01*
X9369762Y-16250143D01*
X9388810Y-16259667D01*
X9398333Y-16278714D01*
X9398333Y-16297762D01*
X9303095Y-16316809D01*
X9474524Y-16373952D02*
X9493571Y-16383476D01*
X9531667Y-16383476D01*
X9550714Y-16373952D01*
X9560238Y-16354905D01*
X9560238Y-16345381D01*
X9550714Y-16326333D01*
X9531667Y-16316809D01*
X9503095Y-16316809D01*
X9484048Y-16307286D01*
X9474524Y-16288238D01*
X9474524Y-16278714D01*
X9484048Y-16259667D01*
X9503095Y-16250143D01*
X9531667Y-16250143D01*
X9550714Y-16259667D01*
X9626905Y-16459667D02*
X9636429Y-16450143D01*
X9655476Y-16421571D01*
X9665000Y-16402524D01*
X9674524Y-16373952D01*
X9684048Y-16326333D01*
X9684048Y-16288238D01*
X9674524Y-16240619D01*
X9665000Y-16212048D01*
X9655476Y-16193000D01*
X9636429Y-16164428D01*
X9626905Y-16154905D01*
D15*
X4827908Y-16622408D02*
X4827908Y-16491592D01*
X4697092Y-16491592D01*
X4697092Y-16622408D01*
X4827908Y-16622408D01*
D11*
X5217381Y-16647476D02*
X5103095Y-16647476D01*
X5160238Y-16647476D02*
X5160238Y-16447476D01*
X5141190Y-16476048D01*
X5122143Y-16495095D01*
X5103095Y-16504619D01*
X5303095Y-16628428D02*
X5312619Y-16637952D01*
X5303095Y-16647476D01*
X5293571Y-16637952D01*
X5303095Y-16628428D01*
X5303095Y-16647476D01*
X5426905Y-16533190D02*
X5407857Y-16523667D01*
X5398333Y-16514143D01*
X5388810Y-16495095D01*
X5388810Y-16485571D01*
X5398333Y-16466524D01*
X5407857Y-16457000D01*
X5426905Y-16447476D01*
X5465000Y-16447476D01*
X5484048Y-16457000D01*
X5493571Y-16466524D01*
X5503095Y-16485571D01*
X5503095Y-16495095D01*
X5493571Y-16514143D01*
X5484048Y-16523667D01*
X5465000Y-16533190D01*
X5426905Y-16533190D01*
X5407857Y-16542714D01*
X5398333Y-16552238D01*
X5388810Y-16571286D01*
X5388810Y-16609381D01*
X5398333Y-16628428D01*
X5407857Y-16637952D01*
X5426905Y-16647476D01*
X5465000Y-16647476D01*
X5484048Y-16637952D01*
X5493571Y-16628428D01*
X5503095Y-16609381D01*
X5503095Y-16571286D01*
X5493571Y-16552238D01*
X5484048Y-16542714D01*
X5465000Y-16533190D01*
X5684048Y-16447476D02*
X5588810Y-16447476D01*
X5579286Y-16542714D01*
X5588810Y-16533190D01*
X5607857Y-16523667D01*
X5655476Y-16523667D01*
X5674524Y-16533190D01*
X5684048Y-16542714D01*
X5693571Y-16561762D01*
X5693571Y-16609381D01*
X5684048Y-16628428D01*
X5674524Y-16637952D01*
X5655476Y-16647476D01*
X5607857Y-16647476D01*
X5588810Y-16637952D01*
X5579286Y-16628428D01*
X5817381Y-16447476D02*
X5836428Y-16447476D01*
X5855476Y-16457000D01*
X5865000Y-16466524D01*
X5874524Y-16485571D01*
X5884048Y-16523667D01*
X5884048Y-16571286D01*
X5874524Y-16609381D01*
X5865000Y-16628428D01*
X5855476Y-16637952D01*
X5836428Y-16647476D01*
X5817381Y-16647476D01*
X5798333Y-16637952D01*
X5788809Y-16628428D01*
X5779286Y-16609381D01*
X5769762Y-16571286D01*
X5769762Y-16523667D01*
X5779286Y-16485571D01*
X5788809Y-16466524D01*
X5798333Y-16457000D01*
X5817381Y-16447476D01*
X5969762Y-16647476D02*
X5969762Y-16514143D01*
X5969762Y-16533190D02*
X5979286Y-16523667D01*
X5998333Y-16514143D01*
X6026905Y-16514143D01*
X6045952Y-16523667D01*
X6055476Y-16542714D01*
X6055476Y-16647476D01*
X6055476Y-16542714D02*
X6065000Y-16523667D01*
X6084048Y-16514143D01*
X6112619Y-16514143D01*
X6131667Y-16523667D01*
X6141190Y-16542714D01*
X6141190Y-16647476D01*
X6236428Y-16647476D02*
X6236428Y-16514143D01*
X6236428Y-16533190D02*
X6245952Y-16523667D01*
X6265000Y-16514143D01*
X6293571Y-16514143D01*
X6312619Y-16523667D01*
X6322143Y-16542714D01*
X6322143Y-16647476D01*
X6322143Y-16542714D02*
X6331667Y-16523667D01*
X6350714Y-16514143D01*
X6379286Y-16514143D01*
X6398333Y-16523667D01*
X6407857Y-16542714D01*
X6407857Y-16647476D01*
X6798333Y-16437952D02*
X6626905Y-16695095D01*
X7055476Y-16447476D02*
X7074524Y-16447476D01*
X7093571Y-16457000D01*
X7103095Y-16466524D01*
X7112619Y-16485571D01*
X7122143Y-16523667D01*
X7122143Y-16571286D01*
X7112619Y-16609381D01*
X7103095Y-16628428D01*
X7093571Y-16637952D01*
X7074524Y-16647476D01*
X7055476Y-16647476D01*
X7036428Y-16637952D01*
X7026905Y-16628428D01*
X7017381Y-16609381D01*
X7007857Y-16571286D01*
X7007857Y-16523667D01*
X7017381Y-16485571D01*
X7026905Y-16466524D01*
X7036428Y-16457000D01*
X7055476Y-16447476D01*
X7207857Y-16628428D02*
X7217381Y-16637952D01*
X7207857Y-16647476D01*
X7198333Y-16637952D01*
X7207857Y-16628428D01*
X7207857Y-16647476D01*
X7341190Y-16447476D02*
X7360238Y-16447476D01*
X7379286Y-16457000D01*
X7388809Y-16466524D01*
X7398333Y-16485571D01*
X7407857Y-16523667D01*
X7407857Y-16571286D01*
X7398333Y-16609381D01*
X7388809Y-16628428D01*
X7379286Y-16637952D01*
X7360238Y-16647476D01*
X7341190Y-16647476D01*
X7322143Y-16637952D01*
X7312619Y-16628428D01*
X7303095Y-16609381D01*
X7293571Y-16571286D01*
X7293571Y-16523667D01*
X7303095Y-16485571D01*
X7312619Y-16466524D01*
X7322143Y-16457000D01*
X7341190Y-16447476D01*
X7474524Y-16447476D02*
X7607857Y-16447476D01*
X7522143Y-16647476D01*
X7674524Y-16466524D02*
X7684048Y-16457000D01*
X7703095Y-16447476D01*
X7750714Y-16447476D01*
X7769762Y-16457000D01*
X7779286Y-16466524D01*
X7788809Y-16485571D01*
X7788809Y-16504619D01*
X7779286Y-16533190D01*
X7665000Y-16647476D01*
X7788809Y-16647476D01*
X7903095Y-16533190D02*
X7884048Y-16523667D01*
X7874524Y-16514143D01*
X7865000Y-16495095D01*
X7865000Y-16485571D01*
X7874524Y-16466524D01*
X7884048Y-16457000D01*
X7903095Y-16447476D01*
X7941190Y-16447476D01*
X7960238Y-16457000D01*
X7969762Y-16466524D01*
X7979286Y-16485571D01*
X7979286Y-16495095D01*
X7969762Y-16514143D01*
X7960238Y-16523667D01*
X7941190Y-16533190D01*
X7903095Y-16533190D01*
X7884048Y-16542714D01*
X7874524Y-16552238D01*
X7865000Y-16571286D01*
X7865000Y-16609381D01*
X7874524Y-16628428D01*
X7884048Y-16637952D01*
X7903095Y-16647476D01*
X7941190Y-16647476D01*
X7960238Y-16637952D01*
X7969762Y-16628428D01*
X7979286Y-16609381D01*
X7979286Y-16571286D01*
X7969762Y-16552238D01*
X7960238Y-16542714D01*
X7941190Y-16533190D01*
X8055476Y-16447476D02*
X8055476Y-16485571D01*
X8131667Y-16447476D02*
X8131667Y-16485571D01*
X8426905Y-16723667D02*
X8417381Y-16714143D01*
X8398333Y-16685571D01*
X8388810Y-16666524D01*
X8379286Y-16637952D01*
X8369762Y-16590333D01*
X8369762Y-16552238D01*
X8379286Y-16504619D01*
X8388810Y-16476048D01*
X8398333Y-16457000D01*
X8417381Y-16428428D01*
X8426905Y-16418905D01*
X8607857Y-16647476D02*
X8493571Y-16647476D01*
X8550714Y-16647476D02*
X8550714Y-16447476D01*
X8531667Y-16476048D01*
X8512619Y-16495095D01*
X8493571Y-16504619D01*
X8684048Y-16466524D02*
X8693571Y-16457000D01*
X8712619Y-16447476D01*
X8760238Y-16447476D01*
X8779286Y-16457000D01*
X8788810Y-16466524D01*
X8798333Y-16485571D01*
X8798333Y-16504619D01*
X8788810Y-16533190D01*
X8674524Y-16647476D01*
X8798333Y-16647476D01*
X9036429Y-16647476D02*
X9036429Y-16447476D01*
X9122143Y-16647476D02*
X9122143Y-16542714D01*
X9112619Y-16523667D01*
X9093571Y-16514143D01*
X9065000Y-16514143D01*
X9045952Y-16523667D01*
X9036429Y-16533190D01*
X9245952Y-16647476D02*
X9226905Y-16637952D01*
X9217381Y-16628428D01*
X9207857Y-16609381D01*
X9207857Y-16552238D01*
X9217381Y-16533190D01*
X9226905Y-16523667D01*
X9245952Y-16514143D01*
X9274524Y-16514143D01*
X9293571Y-16523667D01*
X9303095Y-16533190D01*
X9312619Y-16552238D01*
X9312619Y-16609381D01*
X9303095Y-16628428D01*
X9293571Y-16637952D01*
X9274524Y-16647476D01*
X9245952Y-16647476D01*
X9426905Y-16647476D02*
X9407857Y-16637952D01*
X9398333Y-16618905D01*
X9398333Y-16447476D01*
X9579286Y-16637952D02*
X9560238Y-16647476D01*
X9522143Y-16647476D01*
X9503095Y-16637952D01*
X9493571Y-16618905D01*
X9493571Y-16542714D01*
X9503095Y-16523667D01*
X9522143Y-16514143D01*
X9560238Y-16514143D01*
X9579286Y-16523667D01*
X9588810Y-16542714D01*
X9588810Y-16561762D01*
X9493571Y-16580809D01*
X9665000Y-16637952D02*
X9684048Y-16647476D01*
X9722143Y-16647476D01*
X9741190Y-16637952D01*
X9750714Y-16618905D01*
X9750714Y-16609381D01*
X9741190Y-16590333D01*
X9722143Y-16580809D01*
X9693571Y-16580809D01*
X9674524Y-16571286D01*
X9665000Y-16552238D01*
X9665000Y-16542714D01*
X9674524Y-16523667D01*
X9693571Y-16514143D01*
X9722143Y-16514143D01*
X9741190Y-16523667D01*
X9817381Y-16723667D02*
X9826905Y-16714143D01*
X9845952Y-16685571D01*
X9855476Y-16666524D01*
X9865000Y-16637952D01*
X9874524Y-16590333D01*
X9874524Y-16552238D01*
X9865000Y-16504619D01*
X9855476Y-16476048D01*
X9845952Y-16457000D01*
X9826905Y-16428428D01*
X9817381Y-16418905D01*
M02*
